<svg xmlns="http://www.w3.org/2000/svg" xmlns:xlink="http://www.w3.org/1999/xlink" viewBox="0 0 114.53 110.1"><defs><style>.cls-1{fill:none;stroke-width:3px;stroke:url(#Orange_Yellow);}.cls-1,.cls-3{stroke-miterlimit:10;}.cls-2{fill:url(#Orange_Yellow-2);}.cls-3{fill:url(#Orange_Yellow-3);stroke:url(#Orange_Yellow-4);}</style><linearGradient id="Orange_Yellow" y1="54.65" x2="113.58" y2="54.65" gradientUnits="userSpaceOnUse"><stop offset="0" stop-color="#fff33b"/><stop offset="0.04" stop-color="#fee72e"/><stop offset="0.12" stop-color="#fed51b"/><stop offset="0.2" stop-color="#fdca10"/><stop offset="0.28" stop-color="#fdc70c"/><stop offset="0.67" stop-color="#f3903f"/><stop offset="0.89" stop-color="#ed683c"/><stop offset="1" stop-color="#e93e3a"/></linearGradient><linearGradient id="Orange_Yellow-2" x1="59.38" y1="35.76" x2="93.92" y2="35.76" xlink:href="#Orange_Yellow"/><linearGradient id="Orange_Yellow-3" x1="12.82" y1="64.93" x2="113.36" y2="64.93" xlink:href="#Orange_Yellow"/><linearGradient id="Orange_Yellow-4" x1="9.67" y1="66.29" x2="114.53" y2="66.29" xlink:href="#Orange_Yellow"/></defs><g id="Layer_2" data-name="Layer 2"><g id="Layer_2-2" data-name="Layer 2"><path class="cls-1" d="M110.06,17.36,103.19,23h0Q68.83,51.09,34.5,79.15h0l-25,20.42Q35.39,66.51,61.24,33.4L19.54,2.49Z"/><path class="cls-2" d="M59.83,48.34c5.26-4.66,10.78-9,16.37-13.18s11.31-8.27,17.28-12c-5.26,4.67-10.78,9-16.38,13.19S65.79,44.62,59.83,48.34Z"/><path class="cls-3" d="M113.36,24.66,12.82,106.88,34.48,79.16h0Q68.84,51.07,103.18,23h0Z"/></g></g></svg>