<svg xmlns="http://www.w3.org/2000/svg" xmlns:xlink="http://www.w3.org/1999/xlink" viewBox="0 0 87.3 93.58"><defs><style>.cls-1,.cls-10,.cls-11,.cls-2,.cls-3,.cls-4,.cls-5,.cls-6,.cls-7,.cls-8,.cls-9{fill:none;stroke-miterlimit:10;stroke-width:2px;}.cls-1{stroke:url(#Orange_Yellow);}.cls-2{stroke:url(#Orange_Yellow-2);}.cls-3{stroke:url(#Orange_Yellow-3);}.cls-4{stroke:url(#Orange_Yellow-4);}.cls-5{stroke:url(#Orange_Yellow-5);}.cls-6{stroke:url(#Orange_Yellow-6);}.cls-7{stroke:url(#Orange_Yellow-7);}.cls-8{stroke:url(#Orange_Yellow-8);}.cls-9{stroke:url(#Orange_Yellow-9);}.cls-10{stroke:url(#Orange_Yellow-10);}.cls-11{stroke:url(#Orange_Yellow-11);}.cls-12{fill:url(#Orange_Yellow-12);}</style><linearGradient id="Orange_Yellow" x1="0.06" y1="52.79" x2="87.3" y2="52.79" gradientUnits="userSpaceOnUse"><stop offset="0" stop-color="#fff33b"/><stop offset="0.04" stop-color="#fee72e"/><stop offset="0.12" stop-color="#fed51b"/><stop offset="0.2" stop-color="#fdca10"/><stop offset="0.28" stop-color="#fdc70c"/><stop offset="0.67" stop-color="#f3903f"/><stop offset="0.89" stop-color="#ed683c"/><stop offset="1" stop-color="#e93e3a"/></linearGradient><linearGradient id="Orange_Yellow-2" x1="0.05" y1="40.5" x2="18.76" y2="40.5" xlink:href="#Orange_Yellow"/><linearGradient id="Orange_Yellow-3" x1="0" y1="81.66" x2="2.05" y2="81.66" xlink:href="#Orange_Yellow"/><linearGradient id="Orange_Yellow-4" x1="24.31" y1="50.66" x2="81.06" y2="50.66" xlink:href="#Orange_Yellow"/><linearGradient id="Orange_Yellow-5" x1="26.97" y1="71.62" x2="69.06" y2="71.62" xlink:href="#Orange_Yellow"/><linearGradient id="Orange_Yellow-6" x1="30.41" y1="64.51" x2="32.41" y2="64.51" xlink:href="#Orange_Yellow"/><linearGradient id="Orange_Yellow-7" x1="39.29" y1="61.33" x2="41.29" y2="61.33" xlink:href="#Orange_Yellow"/><linearGradient id="Orange_Yellow-8" x1="47.63" y1="61.85" x2="49.63" y2="61.85" xlink:href="#Orange_Yellow"/><linearGradient id="Orange_Yellow-9" x1="54.74" y1="63.8" x2="56.74" y2="63.8" xlink:href="#Orange_Yellow"/><linearGradient id="Orange_Yellow-10" x1="63.97" y1="62.65" x2="65.97" y2="62.65" xlink:href="#Orange_Yellow"/><linearGradient id="Orange_Yellow-11" x1="26.63" y1="40.37" x2="68.72" y2="40.37" xlink:href="#Orange_Yellow"/><linearGradient id="Orange_Yellow-12" x1="26.63" y1="36.94" x2="68.72" y2="36.94" xlink:href="#Orange_Yellow"/></defs><g id="Layer_2" data-name="Layer 2"><g id="Layer_2-2" data-name="Layer 2"><path class="cls-1" d="M1.05,82.53c.64,4.65,6,10.18,10.74,10H86.3V20.1c-1.67,0-3.34,0-5,0l-1.26-5c-.19-.7-.36-1.42-.52-2.12h-62"/><path class="cls-2" d="M1.05,80.86c.81-6.15,4.18-11,15.61-11q.46-28.41.89-56.84c.08-3.89.14-7.81.2-11.71-.62-.14-8.1-1.58-13.16,3.56A13.31,13.31,0,0,0,1.05,12V80.86"/><path class="cls-3" d="M1.05,82.53V80.86a7.17,7.17,0,0,0,0,1.67"/><path class="cls-4" d="M80.06,15.12V85.2H24.31"/><line class="cls-5" x1="26.97" y1="71.62" x2="69.06" y2="71.62"/><line class="cls-6" x1="31.41" y1="57.41" x2="31.41" y2="71.62"/><line class="cls-7" x1="40.29" y1="50.16" x2="40.29" y2="72.5"/><line class="cls-8" x1="48.63" y1="52.79" x2="48.63" y2="70.9"/><line class="cls-9" x1="55.74" y1="55.99" x2="55.74" y2="71.62"/><line class="cls-10" x1="64.97" y1="53.68" x2="64.97" y2="71.62"/><path class="cls-11" d="M27.32,45.69,39.4,34,54.32,46.75l9.54-10.16"/><path class="cls-12" d="M68,32.19a29.9,29.9,0,0,0-2.38,9.49l-2.29-4.51-4.65-2A30.18,30.18,0,0,0,68,32.19Z"/></g></g></svg>