<svg xmlns="http://www.w3.org/2000/svg" xmlns:xlink="http://www.w3.org/1999/xlink" viewBox="0 0 90.61 104.98"><defs><style>.cls-1,.cls-10,.cls-11,.cls-12,.cls-2,.cls-3,.cls-4,.cls-5,.cls-6,.cls-7,.cls-8,.cls-9{fill:none;stroke-miterlimit:10;stroke-width:2.5px;}.cls-1{stroke:url(#Orange_Yellow);}.cls-2{stroke:url(#Orange_Yellow-2);}.cls-3{stroke:url(#Orange_Yellow-3);}.cls-4{stroke:url(#Orange_Yellow-4);}.cls-5{stroke:url(#Orange_Yellow-5);}.cls-6{stroke:url(#Orange_Yellow-6);}.cls-7{stroke:url(#Orange_Yellow-7);}.cls-8{stroke:url(#Orange_Yellow-8);}.cls-9{stroke:url(#Orange_Yellow-9);}.cls-10{stroke:url(#Orange_Yellow-10);}.cls-11{stroke:url(#Orange_Yellow-11);}.cls-12{stroke:url(#Orange_Yellow-12);}</style><linearGradient id="Orange_Yellow" x1="47.15" y1="58.87" x2="49.65" y2="58.87" gradientUnits="userSpaceOnUse"><stop offset="0" stop-color="#fff33b"/><stop offset="0.04" stop-color="#fee72e"/><stop offset="0.12" stop-color="#fed51b"/><stop offset="0.2" stop-color="#fdca10"/><stop offset="0.28" stop-color="#fdc70c"/><stop offset="0.67" stop-color="#f3903f"/><stop offset="0.89" stop-color="#ed683c"/><stop offset="1" stop-color="#e93e3a"/></linearGradient><linearGradient id="Orange_Yellow-2" x1="40.95" y1="58.97" x2="43.45" y2="58.97" xlink:href="#Orange_Yellow"/><linearGradient id="Orange_Yellow-3" x1="52.66" y1="18.32" x2="72.87" y2="18.32" xlink:href="#Orange_Yellow"/><linearGradient id="Orange_Yellow-4" x1="17.74" y1="18.32" x2="37.95" y2="18.32" xlink:href="#Orange_Yellow"/><linearGradient id="Orange_Yellow-5" x1="36.7" y1="18.32" x2="53.91" y2="18.32" xlink:href="#Orange_Yellow"/><linearGradient id="Orange_Yellow-6" x1="53.03" y1="90.89" x2="72.87" y2="90.89" xlink:href="#Orange_Yellow"/><linearGradient id="Orange_Yellow-7" x1="17.74" y1="90.89" x2="37.57" y2="90.89" xlink:href="#Orange_Yellow"/><linearGradient id="Orange_Yellow-8" x1="35.72" y1="90.9" x2="54.89" y2="90.9" xlink:href="#Orange_Yellow"/><linearGradient id="Orange_Yellow-9" x1="0" y1="18.32" x2="20.24" y2="18.32" xlink:href="#Orange_Yellow"/><linearGradient id="Orange_Yellow-10" x1="70.37" y1="18.32" x2="90.61" y2="18.32" xlink:href="#Orange_Yellow"/><linearGradient id="Orange_Yellow-11" x1="70.37" y1="90.9" x2="90.61" y2="90.9" xlink:href="#Orange_Yellow"/><linearGradient id="Orange_Yellow-12" x1="0" y1="90.89" x2="20.24" y2="90.89" xlink:href="#Orange_Yellow"/></defs><g id="Layer_2" data-name="Layer 2"><g id="Layer_2-2" data-name="Layer 2"><line class="cls-1" x1="48.4" y1="83.15" x2="48.4" y2="34.59"/><line class="cls-2" x1="42.2" y1="83.15" x2="42.2" y2="34.78"/><polyline class="cls-3" points="52.66 14.16 71.62 14.16 71.62 22.47 52.66 22.47"/><polyline class="cls-4" points="37.95 22.47 18.99 22.47 18.99 14.16 37.95 14.16"/><path class="cls-5" d="M38,6.49a7.65,7.65,0,0,1,14.71.65V28.39A7.66,7.66,0,0,1,38,30.68Z"/><polyline class="cls-6" points="53.03 87.79 71.62 87.79 71.62 94 53.04 94"/><polyline class="cls-7" points="37.56 94 18.99 94 18.99 87.79 37.57 87.79"/><circle class="cls-8" cx="45.3" cy="90.9" r="8.34"/><rect class="cls-9" x="1.25" y="5.49" width="17.74" height="25.66" rx="4.94"/><rect class="cls-10" x="71.62" y="5.49" width="17.74" height="25.66" rx="4.94"/><rect class="cls-11" x="71.62" y="78.06" width="17.74" height="25.66" rx="4.94"/><rect class="cls-12" x="1.25" y="78.06" width="17.74" height="25.66" rx="4.94"/></g></g></svg>