<svg xmlns="http://www.w3.org/2000/svg" xmlns:xlink="http://www.w3.org/1999/xlink" viewBox="0 0 111.04 97.82"><defs><style>.cls-1,.cls-10,.cls-11,.cls-12,.cls-13,.cls-14,.cls-15,.cls-16,.cls-17,.cls-18,.cls-19,.cls-2,.cls-20,.cls-21,.cls-22,.cls-23,.cls-24,.cls-25,.cls-26,.cls-27,.cls-28,.cls-3,.cls-4,.cls-5,.cls-6,.cls-7,.cls-8,.cls-9{fill:none;stroke-linecap:round;stroke-miterlimit:10;stroke-width:2px;}.cls-1{stroke:url(#Orange_Yellow);}.cls-2{stroke:url(#Orange_Yellow-2);}.cls-3{stroke:url(#Orange_Yellow-3);}.cls-4{stroke:url(#Orange_Yellow-4);}.cls-5{stroke:url(#Orange_Yellow-5);}.cls-6{stroke:url(#Orange_Yellow-6);}.cls-7{stroke:url(#Orange_Yellow-7);}.cls-8{stroke:url(#Orange_Yellow-8);}.cls-9{stroke:url(#Orange_Yellow-9);}.cls-10{stroke:url(#Orange_Yellow-10);}.cls-11{stroke:url(#Orange_Yellow-11);}.cls-12{stroke:url(#Orange_Yellow-12);}.cls-13{stroke:url(#Orange_Yellow-13);}.cls-14{stroke:url(#Orange_Yellow-14);}.cls-15{stroke:url(#Orange_Yellow-16);}.cls-16{stroke:url(#Orange_Yellow-17);}.cls-17{stroke:url(#Orange_Yellow-18);}.cls-18{stroke:url(#Orange_Yellow-19);}.cls-19{stroke:url(#Orange_Yellow-20);}.cls-20{stroke:url(#Orange_Yellow-21);}.cls-21{stroke:url(#Orange_Yellow-24);}.cls-22{stroke:url(#Orange_Yellow-25);}.cls-23{stroke:url(#Orange_Yellow-26);}.cls-24{stroke:url(#Orange_Yellow-27);}.cls-25{stroke:url(#Orange_Yellow-28);}.cls-26{stroke:url(#Orange_Yellow-29);}.cls-27{stroke:url(#Orange_Yellow-30);}.cls-28{stroke:url(#Orange_Yellow-31);}</style><linearGradient id="Orange_Yellow" y1="49.96" x2="94.44" y2="49.96" gradientUnits="userSpaceOnUse"><stop offset="0" stop-color="#fff33b"/><stop offset="0.04" stop-color="#fee72e"/><stop offset="0.12" stop-color="#fed51b"/><stop offset="0.2" stop-color="#fdca10"/><stop offset="0.28" stop-color="#fdc70c"/><stop offset="0.67" stop-color="#f3903f"/><stop offset="0.89" stop-color="#ed683c"/><stop offset="1" stop-color="#e93e3a"/></linearGradient><linearGradient id="Orange_Yellow-2" x1="98.18" y1="22.24" x2="111.04" y2="22.24" xlink:href="#Orange_Yellow"/><linearGradient id="Orange_Yellow-3" x1="37.87" y1="52.19" x2="47.65" y2="52.19" xlink:href="#Orange_Yellow"/><linearGradient id="Orange_Yellow-4" x1="41.76" y1="55.51" x2="46.51" y2="55.51" xlink:href="#Orange_Yellow"/><linearGradient id="Orange_Yellow-5" x1="0.56" y1="88.12" x2="29.04" y2="88.12" xlink:href="#Orange_Yellow"/><linearGradient id="Orange_Yellow-6" x1="33.37" y1="57.76" x2="41.01" y2="57.76" xlink:href="#Orange_Yellow"/><linearGradient id="Orange_Yellow-7" x1="23.83" y1="67.91" x2="30.25" y2="67.91" xlink:href="#Orange_Yellow"/><linearGradient id="Orange_Yellow-8" x1="44.51" y1="46.62" x2="52.16" y2="46.62" xlink:href="#Orange_Yellow"/><linearGradient id="Orange_Yellow-9" x1="41.76" y1="52.19" x2="43.76" y2="52.19" xlink:href="#Orange_Yellow"/><linearGradient id="Orange_Yellow-10" x1="16.41" y1="52.19" x2="24.65" y2="52.19" xlink:href="#Orange_Yellow"/><linearGradient id="Orange_Yellow-11" x1="29.89" y1="52.19" x2="39.87" y2="52.19" xlink:href="#Orange_Yellow"/><linearGradient id="Orange_Yellow-12" x1="60.87" y1="52.19" x2="69.11" y2="52.19" xlink:href="#Orange_Yellow"/><linearGradient id="Orange_Yellow-13" x1="45.65" y1="52.19" x2="55.63" y2="52.19" xlink:href="#Orange_Yellow"/><linearGradient id="Orange_Yellow-14" x1="41.76" y1="44.31" x2="43.76" y2="44.31" xlink:href="#Orange_Yellow"/><linearGradient id="Orange_Yellow-16" x1="41.76" y1="74.42" x2="43.76" y2="74.42" xlink:href="#Orange_Yellow"/><linearGradient id="Orange_Yellow-17" x1="41.76" y1="60.07" x2="43.76" y2="60.07" xlink:href="#Orange_Yellow"/><linearGradient id="Orange_Yellow-18" x1="33.36" y1="46.62" x2="41.01" y2="46.62" xlink:href="#Orange_Yellow"/><linearGradient id="Orange_Yellow-19" x1="23.68" y1="36.4" x2="30.25" y2="36.4" xlink:href="#Orange_Yellow"/><linearGradient id="Orange_Yellow-20" x1="44.51" y1="57.76" x2="52.15" y2="57.76" xlink:href="#Orange_Yellow"/><linearGradient id="Orange_Yellow-21" x1="55.27" y1="67.99" x2="61.84" y2="67.99" xlink:href="#Orange_Yellow"/><linearGradient id="Orange_Yellow-24" x1="92.44" y1="22.19" x2="100.18" y2="22.19" xlink:href="#Orange_Yellow"/><linearGradient id="Orange_Yellow-25" x1="56.4" y1="36.68" x2="60.83" y2="36.68" xlink:href="#Orange_Yellow"/><linearGradient id="Orange_Yellow-26" x1="71.24" y1="69.99" x2="76.18" y2="69.99" xlink:href="#Orange_Yellow"/><linearGradient id="Orange_Yellow-27" x1="63.06" y1="78.09" x2="70.87" y2="78.09" xlink:href="#Orange_Yellow"/><linearGradient id="Orange_Yellow-28" x1="6.01" y1="69.85" x2="59.33" y2="69.85" xlink:href="#Orange_Yellow"/><linearGradient id="Orange_Yellow-29" x1="77" y1="12.94" x2="84.61" y2="12.94" xlink:href="#Orange_Yellow"/><linearGradient id="Orange_Yellow-30" x1="38.56" y1="15.18" x2="72.35" y2="15.18" xlink:href="#Orange_Yellow"/><linearGradient id="Orange_Yellow-31" x1="19.43" y1="52.21" x2="92.59" y2="52.21" xlink:href="#Orange_Yellow"/></defs><g id="Layer_2" data-name="Layer 2"><g id="Layer_2-2" data-name="Layer 2"><path class="cls-1" d="M93.44,6.35c-1.15.08-2.35.12-3.57.27C79.52,7.92,82.53,8,68.11,9.68c-16.12,1.87-25.35.49-35.18,2.05C18.71,14,1.38,30.29,1,51.3A42.55,42.55,0,0,0,28,91,39.82,39.82,0,0,0,38.8,93.43C63.58,95.56,82.06,73.9,83.74,54.11a38.87,38.87,0,0,0-3.29-18.8c3.14.76,6.59,1.59,10.44,2.46.87.2,1.72.35,2.55.47"/><path class="cls-2" d="M99.18,6c2.57-.1,4.77-.15,6.52-.18a32.11,32.11,0,0,1-.26,32.68c-1.7,0-3.83.12-6.26.11"/><path class="cls-3" d="M42.76,56.08a3.89,3.89,0,1,1,2.75-1.14m0-5.5a3.89,3.89,0,1,0,1.14,2.75A3.88,3.88,0,0,0,45.51,49.44Zm0,0a3.89,3.89,0,1,0,1.14,2.75A3.88,3.88,0,0,0,45.51,49.44Z"/><path class="cls-4" d="M45.51,54.94a3.88,3.88,0,0,1-2.75,1.14"/><path class="cls-5" d="M11.58,79.41l-8.78,3a11.44,11.44,0,0,0-.25,9.7,10.67,10.67,0,0,0,4.34,4.6L28,91"/><line class="cls-6" x1="40.01" y1="54.94" x2="34.37" y2="60.58"/><polyline class="cls-7" points="24.83 70.12 26.7 68.25 29.25 65.7"/><line class="cls-8" x1="51.16" y1="43.79" x2="45.51" y2="49.44"/><line class="cls-9" x1="42.76" y1="52.19" x2="42.76" y2="52.18"/><polyline class="cls-10" points="23.65 52.19 20.44 52.19 17.41 52.19"/><line class="cls-11" x1="38.87" y1="52.19" x2="30.89" y2="52.19"/><polyline class="cls-12" points="61.87 52.19 64.19 52.19 68.11 52.19"/><line class="cls-13" x1="54.63" y1="52.19" x2="46.65" y2="52.19"/><line class="cls-14" x1="42.76" y1="48.3" x2="42.76" y2="40.31"/><line class="cls-9" x1="42.76" y1="52.19" x2="42.76" y2="52.18"/><polyline class="cls-15" points="42.76 71.3 42.76 74.62 42.76 77.54"/><line class="cls-16" x1="42.76" y1="64.05" x2="42.76" y2="56.08"/><line class="cls-17" x1="40.01" y1="49.44" x2="34.36" y2="43.79"/><polyline class="cls-18" points="24.68 34.11 26.86 36.29 29.25 38.68"/><line class="cls-19" x1="51.15" y1="60.58" x2="45.51" y2="54.94"/><polyline class="cls-20" points="60.84 70.27 58.46 67.89 56.27 65.7"/><path class="cls-3" d="M46.65,52.19a3.89,3.89,0,1,1-1.14-2.75A3.85,3.85,0,0,1,46.65,52.19Z"/><path class="cls-3" d="M46.65,52.19a3.89,3.89,0,1,1-1.14-2.75A3.85,3.85,0,0,1,46.65,52.19Z"/><path class="cls-21" d="M99.18,3.73V40.66a2.72,2.72,0,0,1-2.72,2.72h-.3a2.72,2.72,0,0,1-2.72-2.72V3.73A2.72,2.72,0,0,1,96.16,1h.3A2.72,2.72,0,0,1,99.18,3.73Z"/><path class="cls-22" d="M57.4,35.53a6.81,6.81,0,0,1,2.43,2.3"/><path class="cls-23" d="M72.24,72.48a35.83,35.83,0,0,0,2.94-5"/><path class="cls-24" d="M64.06,80.71a41.57,41.57,0,0,0,5.63-5l.18-.2"/><path class="cls-25" d="M7,52.07c0,1.78.54,18.78,15.06,29.1,12.35,8.77,27.3,7.38,36.26,3.07"/><path class="cls-26" d="M78,13.38q3.06-.45,5.61-.89"/><path class="cls-27" d="M39.56,16.07c5.94.05,11.33-.12,16.09-.39,2.83-.16,8.5-.53,15.7-1.4"/><path class="cls-28" d="M61.53,40.32c1.74,3.92,3.31,8,3.36,11.87a19.24,19.24,0,0,1-6.43,15.7,22.73,22.73,0,0,1-15.7,6.73A21.71,21.71,0,0,1,26.7,68.25,21.27,21.27,0,0,1,21.44,59a26.87,26.87,0,0,1-1-6.77,20.9,20.9,0,0,1,6.42-15.9,21.16,21.16,0,0,1,9.9-5.16c2.15-.49,3.25-.68,6-1.14,13.58-1.18,29.33,3,48.83,7.84"/></g></g></svg>