<?xml version="1.0" encoding="utf-8"?>
<!-- Generator: Adobe Illustrator 24.0.0, SVG Export Plug-In . SVG Version: 6.00 Build 0)  -->
<svg version="1.1" id="Layer_1" xmlns="http://www.w3.org/2000/svg" xmlns:xlink="http://www.w3.org/1999/xlink" x="0px" y="0px"
	 viewBox="0 0 145.3 82.9" style="enable-background:new 0 0 145.3 82.9;" xml:space="preserve">
<style type="text/css">
	.st0{fill:none;stroke:url(#SVGID_1_);stroke-width:2.5;stroke-miterlimit:10;}
	.st1{fill:none;stroke:url(#SVGID_2_);stroke-width:3;stroke-miterlimit:10;}
	.st2{fill:none;stroke:url(#SVGID_3_);stroke-miterlimit:10;}
	.st3{fill:none;stroke:url(#SVGID_4_);stroke-miterlimit:10;}
	.st4{fill:none;stroke:url(#SVGID_5_);stroke-miterlimit:10;}
	.st5{fill:none;stroke:url(#SVGID_6_);stroke-miterlimit:10;}
	.st6{fill:none;stroke:url(#SVGID_7_);stroke-miterlimit:10;}
	.st7{fill:none;stroke:url(#SVGID_8_);stroke-miterlimit:10;}
	.st8{fill:none;stroke:url(#SVGID_9_);stroke-miterlimit:10;}
	.st9{fill:none;stroke:url(#SVGID_10_);stroke-miterlimit:10;}
	.st10{fill:none;stroke:url(#SVGID_11_);stroke-miterlimit:10;}
	.st11{fill:none;stroke:url(#SVGID_12_);stroke-width:3;stroke-miterlimit:10;}
	.st12{fill:none;stroke:url(#SVGID_13_);stroke-width:3;stroke-miterlimit:10;}
</style>
<g id="Layer_2_1_">
	<g id="Layer_2-2">
		
			<linearGradient id="SVGID_1_" gradientUnits="userSpaceOnUse" x1="13.068" y1="42.6901" x2="132.212" y2="42.6901" gradientTransform="matrix(1 0 0 -1 0 84)">
			<stop  offset="0" style="stop-color:#FFF33B"/>
			<stop  offset="4.000000e-02" style="stop-color:#FEE72E"/>
			<stop  offset="0.12" style="stop-color:#FED51B"/>
			<stop  offset="0.2" style="stop-color:#FDCA10"/>
			<stop  offset="0.28" style="stop-color:#FDC70C"/>
			<stop  offset="0.67" style="stop-color:#F3903F"/>
			<stop  offset="0.89" style="stop-color:#ED683C"/>
			<stop  offset="1" style="stop-color:#E93E3A"/>
		</linearGradient>
		<path class="st0" d="M131,45.8c0,1.7-0.1,3.5-0.3,5.2c-1,7.1-4.5,13.4-4.5,16.2c-0.1,1-0.1,2,0,3c0.1,0.3,0.1,0.7,0,1
			c-0.2,0.4-0.6,0.8-1.1,1c-0.4,0.2-0.7,0.3-1.1,0.3l-5-2.1c-0.3-0.1-0.6-0.4-0.8-0.7c-0.2-0.3-0.3-0.6-0.4-0.9
			c-0.1-0.8-0.4-2.6-0.8-5c0.5-1.7,1.1-3.3,1.6-5l0.4-8.2c-0.1-0.5-0.4-1-0.8-1.4c-0.5-0.4-1-0.3-1.6-0.8c-0.2-0.1-0.3-0.2-0.5-0.3
			c-0.1,0-0.3,0-0.4,0c-0.4,0-1.6,0.2-3.2,0.3c-0.4-0.1-0.7-0.1-1.1-0.2c-0.5-0.2-0.8-0.3-1-0.3c-1-0.3-2.3,0.4-3,1
			c-0.8,0.8-1.2,1.9-1.2,3c-0.2,1.9,0.7,2.4,0.5,4.6c0,0.7-0.2,1.4-0.5,2.1c-0.4,0.8-1.4,1.6-4.5,2.6c-2.2,0.7-4.4,1.1-6.7,1.2
			c-2.2,0.1-4.5,0.1-6.7-0.1c0,0-4.8-0.2-11.3-0.4c-1.1,0-2.5,0-4.2,0s-3,0-4.2,0c-6.5,0.1-11.3,0.4-11.3,0.4
			c-2.2,0.2-4.5,0.2-6.7,0.1c-2.3-0.1-4.5-0.5-6.7-1.2c-3.1-0.9-4-1.7-4.4-2.5c-0.3-0.7-0.5-1.4-0.5-2.1c-0.2-2.2,0.7-2.6,0.5-4.6
			c0-1.1-0.5-2.2-1.3-3c-0.7-0.6-2-1.3-2.9-1c-0.2,0.1-0.4,0.2-1,0.3c-0.3,0.1-0.7,0.2-1.1,0.2c-1.6-0.2-2.8-0.3-3.2-0.3
			c-0.1,0-0.3,0-0.4,0c-0.2,0-0.4,0.1-0.5,0.3c-0.6,0.4-1.1,0.4-1.6,0.8c-0.4,0.3-0.7,0.8-0.8,1.4c0.1,2.7,0.3,5.5,0.4,8.2l1.6,5
			c-0.4,2.4-0.7,4.2-0.8,5c0,0.3-0.2,0.6-0.3,0.9c-0.2,0.3-0.5,0.5-0.8,0.7l-5,2c-0.4,0-0.8-0.1-1.1-0.3c-0.5-0.2-0.9-0.5-1.1-1
			c-0.1-0.3-0.1-0.7,0-1c0.1-1,0.1-2,0-3c0-2.8-3.5-9.1-4.5-16.2c-0.2-1.7-0.3-3.5-0.3-5.2c-0.1-3.1,0.1-6.2,0.6-9.3
			c0.7-4.6,2.1-9.1,4.1-13.4c0.2-0.2,0.5-0.4,0.6-0.6c0.2-0.2,0.3-0.4,0.5-0.7c0.9-1.6,1.9-3.2,3-4.7c1.4-1.9,3-3.5,4.9-4.9
			c1.1-0.9,2.5-1.6,3.9-2c0.7-0.2,1.4-0.3,2.2-0.3c0.4,0,0.9,0,1.3,0.1c5.5,0.6,8.2,0.9,9.9,1.2c3,0.6,6.9,0.8,14.5,1.2
			c3.7,0.2,8,0.3,12.8,0.3s9.1-0.1,12.8-0.3c7.7-0.4,11.4-0.6,14.5-1.2c1.7-0.3,4.4-0.6,9.9-1.2c0.4,0,0.9-0.1,1.3-0.1
			c0.7,0,1.5,0.1,2.2,0.3c1.4,0.4,2.7,1.1,3.9,2c1.9,1.4,3.5,3.1,4.9,4.9c1.1,1.5,2.2,3,3,4.7c0.1,0.2,0.3,0.5,0.5,0.7
			c0.2,0.2,0.4,0.4,0.6,0.6c2,4.3,3.3,8.8,4,13.4C130.8,39.6,131,42.7,131,45.8z"/>
		
			<linearGradient id="SVGID_2_" gradientUnits="userSpaceOnUse" x1="51.4976" y1="52.8066" x2="94.17" y2="52.8066" gradientTransform="matrix(1 0 0 -1 0 84)">
			<stop  offset="0" style="stop-color:#FFF33B"/>
			<stop  offset="4.000000e-02" style="stop-color:#FEE72E"/>
			<stop  offset="0.12" style="stop-color:#FED51B"/>
			<stop  offset="0.2" style="stop-color:#FDCA10"/>
			<stop  offset="0.28" style="stop-color:#FDC70C"/>
			<stop  offset="0.67" style="stop-color:#F3903F"/>
			<stop  offset="0.89" style="stop-color:#ED683C"/>
			<stop  offset="1" style="stop-color:#E93E3A"/>
		</linearGradient>
		<path class="st1" d="M54.7,20.1H91c0.9,0,1.7,0.7,1.7,1.6v19c0,0.9-0.7,1.6-1.7,1.6H54.7c-0.9,0-1.7-0.7-1.7-1.6v-19
			C53,20.8,53.7,20.1,54.7,20.1z"/>
		
			<linearGradient id="SVGID_3_" gradientUnits="userSpaceOnUse" x1="51.0845" y1="30.6437" x2="57.399" y2="30.6437" gradientTransform="matrix(1 0 0 -1 0 84)">
			<stop  offset="0" style="stop-color:#FFF33B"/>
			<stop  offset="4.000000e-02" style="stop-color:#FEE72E"/>
			<stop  offset="0.12" style="stop-color:#FED51B"/>
			<stop  offset="0.2" style="stop-color:#FDCA10"/>
			<stop  offset="0.28" style="stop-color:#FDC70C"/>
			<stop  offset="0.67" style="stop-color:#F3903F"/>
			<stop  offset="0.89" style="stop-color:#ED683C"/>
			<stop  offset="1" style="stop-color:#E93E3A"/>
		</linearGradient>
		<path class="st2" d="M52,56.3c-0.3-0.5-0.4-1.1-0.4-1.7c0-2.2,1.9-3.9,4.1-3.9c0.5,0,1,0.1,1.5,0.3"/>
		
			<linearGradient id="SVGID_4_" gradientUnits="userSpaceOnUse" x1="55.312" y1="28.8072" x2="60.3668" y2="28.8072" gradientTransform="matrix(1 0 0 -1 0 84)">
			<stop  offset="0" style="stop-color:#FFF33B"/>
			<stop  offset="4.000000e-02" style="stop-color:#FEE72E"/>
			<stop  offset="0.12" style="stop-color:#FED51B"/>
			<stop  offset="0.2" style="stop-color:#FDCA10"/>
			<stop  offset="0.28" style="stop-color:#FDC70C"/>
			<stop  offset="0.67" style="stop-color:#F3903F"/>
			<stop  offset="0.89" style="stop-color:#ED683C"/>
			<stop  offset="1" style="stop-color:#E93E3A"/>
		</linearGradient>
		<path class="st3" d="M58.5,51.7c1.7,1.5,1.8,4,0.2,5.6c-0.8,0.8-1.9,1.3-3.1,1.3h-0.1"/>
		
			<linearGradient id="SVGID_5_" gradientUnits="userSpaceOnUse" x1="85.799" y1="30.8762" x2="92.4076" y2="30.8762" gradientTransform="matrix(1 0 0 -1 0 84)">
			<stop  offset="0" style="stop-color:#FFF33B"/>
			<stop  offset="4.000000e-02" style="stop-color:#FEE72E"/>
			<stop  offset="0.12" style="stop-color:#FED51B"/>
			<stop  offset="0.2" style="stop-color:#FDCA10"/>
			<stop  offset="0.28" style="stop-color:#FDC70C"/>
			<stop  offset="0.67" style="stop-color:#F3903F"/>
			<stop  offset="0.89" style="stop-color:#ED683C"/>
			<stop  offset="1" style="stop-color:#E93E3A"/>
		</linearGradient>
		<path class="st4" d="M86.8,56.2c-0.4-0.6-0.6-1.3-0.6-2c0-2.2,1.8-3.9,4.1-4c0,0,0,0,0,0c0.6,0,1.2,0.1,1.8,0.4"/>
		
			<linearGradient id="SVGID_6_" gradientUnits="userSpaceOnUse" x1="90.5844" y1="29.0913" x2="95.0783" y2="29.0913" gradientTransform="matrix(1 0 0 -1 0 84)">
			<stop  offset="0" style="stop-color:#FFF33B"/>
			<stop  offset="4.000000e-02" style="stop-color:#FEE72E"/>
			<stop  offset="0.12" style="stop-color:#FED51B"/>
			<stop  offset="0.2" style="stop-color:#FDCA10"/>
			<stop  offset="0.28" style="stop-color:#FDC70C"/>
			<stop  offset="0.67" style="stop-color:#F3903F"/>
			<stop  offset="0.89" style="stop-color:#ED683C"/>
			<stop  offset="1" style="stop-color:#E93E3A"/>
		</linearGradient>
		<path class="st5" d="M93.4,51.5L93.4,51.5c1.6,1.6,1.5,4.1-0.1,5.6c-0.7,0.7-1.7,1-2.7,1.1"/>
		
			<linearGradient id="SVGID_7_" gradientUnits="userSpaceOnUse" x1="68.4417" y1="31.2062" x2="74.1923" y2="31.2062" gradientTransform="matrix(1 0 0 -1 0 84)">
			<stop  offset="0" style="stop-color:#FFF33B"/>
			<stop  offset="4.000000e-02" style="stop-color:#FEE72E"/>
			<stop  offset="0.12" style="stop-color:#FED51B"/>
			<stop  offset="0.2" style="stop-color:#FDCA10"/>
			<stop  offset="0.28" style="stop-color:#FDC70C"/>
			<stop  offset="0.67" style="stop-color:#F3903F"/>
			<stop  offset="0.89" style="stop-color:#ED683C"/>
			<stop  offset="1" style="stop-color:#E93E3A"/>
		</linearGradient>
		<path class="st6" d="M69.2,55.6c-0.2-0.4-0.3-0.9-0.3-1.4c0-2.2,1.8-3.9,4.1-4c0,0,0,0,0,0c0.3,0,0.7,0,1,0.1"/>
		
			<linearGradient id="SVGID_8_" gradientUnits="userSpaceOnUse" x1="72.5266" y1="29.2368" x2="77.7241" y2="29.2368" gradientTransform="matrix(1 0 0 -1 0 84)">
			<stop  offset="0" style="stop-color:#FFF33B"/>
			<stop  offset="4.000000e-02" style="stop-color:#FEE72E"/>
			<stop  offset="0.12" style="stop-color:#FED51B"/>
			<stop  offset="0.2" style="stop-color:#FDCA10"/>
			<stop  offset="0.28" style="stop-color:#FDC70C"/>
			<stop  offset="0.67" style="stop-color:#F3903F"/>
			<stop  offset="0.89" style="stop-color:#ED683C"/>
			<stop  offset="1" style="stop-color:#E93E3A"/>
		</linearGradient>
		<path class="st7" d="M75.8,51.2c1.7,1.4,2,3.9,0.5,5.6c-0.8,0.9-1.9,1.4-3.2,1.4c-0.2,0-0.3,0-0.5,0"/>
		
			<linearGradient id="SVGID_9_" gradientUnits="userSpaceOnUse" x1="50.6077" y1="28.7922" x2="59.2854" y2="28.7922" gradientTransform="matrix(1 0 0 -1 0 84)">
			<stop  offset="0" style="stop-color:#FFF33B"/>
			<stop  offset="4.000000e-02" style="stop-color:#FEE72E"/>
			<stop  offset="0.12" style="stop-color:#FED51B"/>
			<stop  offset="0.2" style="stop-color:#FDCA10"/>
			<stop  offset="0.28" style="stop-color:#FDC70C"/>
			<stop  offset="0.67" style="stop-color:#F3903F"/>
			<stop  offset="0.89" style="stop-color:#ED683C"/>
			<stop  offset="1" style="stop-color:#E93E3A"/>
		</linearGradient>
		<path class="st8" d="M51.2,58.9c0.4,1.1,1.6,1.8,2.8,1.6c0.3-0.1,0.6-0.4,0.8-0.7c1.2-1.6,2.1-3.3,2.9-5.2c1-3,1.5-4.4,1-4.7
			c-0.2-0.1-1.4,1-3.8,3.2c-0.7,0.7-2.9,2.7-3.6,4.8C51.1,58.3,51.1,58.6,51.2,58.9z"/>
		
			<linearGradient id="SVGID_10_" gradientUnits="userSpaceOnUse" x1="68.0004" y1="29.771" x2="76.6839" y2="29.771" gradientTransform="matrix(1 0 0 -1 0 84)">
			<stop  offset="0" style="stop-color:#FFF33B"/>
			<stop  offset="4.000000e-02" style="stop-color:#FEE72E"/>
			<stop  offset="0.12" style="stop-color:#FED51B"/>
			<stop  offset="0.2" style="stop-color:#FDCA10"/>
			<stop  offset="0.28" style="stop-color:#FDC70C"/>
			<stop  offset="0.67" style="stop-color:#F3903F"/>
			<stop  offset="0.89" style="stop-color:#ED683C"/>
			<stop  offset="1" style="stop-color:#E93E3A"/>
		</linearGradient>
		<path class="st9" d="M68.5,57.9c0.4,1.1,1.6,1.8,2.8,1.6c0.3-0.1,0.6-0.3,0.8-0.6c1.2-1.6,2.1-3.3,2.9-5.2c1-3,1.5-4.4,1-4.7
			c-0.2-0.1-1.4,1-3.8,3.2c-0.7,0.7-2.9,2.7-3.6,4.8C68.5,57.3,68.5,57.6,68.5,57.9z"/>
		
			<linearGradient id="SVGID_11_" gradientUnits="userSpaceOnUse" x1="85.4969" y1="28.9792" x2="94.1914" y2="28.9792" gradientTransform="matrix(1 0 0 -1 0 84)">
			<stop  offset="0" style="stop-color:#FFF33B"/>
			<stop  offset="4.000000e-02" style="stop-color:#FEE72E"/>
			<stop  offset="0.12" style="stop-color:#FED51B"/>
			<stop  offset="0.2" style="stop-color:#FDCA10"/>
			<stop  offset="0.28" style="stop-color:#FDC70C"/>
			<stop  offset="0.67" style="stop-color:#F3903F"/>
			<stop  offset="0.89" style="stop-color:#ED683C"/>
			<stop  offset="1" style="stop-color:#E93E3A"/>
		</linearGradient>
		<path class="st10" d="M86,58.7c0.4,1.1,1.6,1.8,2.8,1.6c0.3-0.1,0.6-0.4,0.8-0.7c1.2-1.6,2.1-3.3,2.9-5.2c1-3,1.5-4.4,1-4.7
			c-0.2-0.1-1.4,1-3.8,3.2c-0.7,0.7-2.9,2.7-3.6,4.8C86,58.1,86,58.4,86,58.7z"/>
		
			<linearGradient id="SVGID_12_" gradientUnits="userSpaceOnUse" x1="27.0767" y1="52.808" x2="43.1339" y2="52.808" gradientTransform="matrix(1 0 0 -1 0 84)">
			<stop  offset="0" style="stop-color:#FFF33B"/>
			<stop  offset="4.000000e-02" style="stop-color:#FEE72E"/>
			<stop  offset="0.12" style="stop-color:#FED51B"/>
			<stop  offset="0.2" style="stop-color:#FDCA10"/>
			<stop  offset="0.28" style="stop-color:#FDC70C"/>
			<stop  offset="0.67" style="stop-color:#F3903F"/>
			<stop  offset="0.89" style="stop-color:#ED683C"/>
			<stop  offset="1" style="stop-color:#E93E3A"/>
		</linearGradient>
		<path class="st11" d="M38,23.7c-3.4-0.5-6.6,2.4-8,5c-0.3,0.6-3,5.6-0.1,8.4c2,1.9,6,2.1,7.4,0.5c1.4-1.5-0.6-3.2,0.6-6.2
			c1.1-3,4.1-3.6,3.8-5.3C41.4,24.9,39.5,24,38,23.7z"/>
		
			<linearGradient id="SVGID_13_" gradientUnits="userSpaceOnUse" x1="-1951.9393" y1="52.808" x2="-1935.8884" y2="52.808" gradientTransform="matrix(-1 0 0 -1 -1831.67 84)">
			<stop  offset="0" style="stop-color:#FFF33B"/>
			<stop  offset="4.000000e-02" style="stop-color:#FEE72E"/>
			<stop  offset="0.12" style="stop-color:#FED51B"/>
			<stop  offset="0.2" style="stop-color:#FDCA10"/>
			<stop  offset="0.28" style="stop-color:#FDC70C"/>
			<stop  offset="0.67" style="stop-color:#F3903F"/>
			<stop  offset="0.89" style="stop-color:#ED683C"/>
			<stop  offset="1" style="stop-color:#E93E3A"/>
		</linearGradient>
		<path class="st12" d="M109.3,23.7c3.4-0.5,6.6,2.4,8,5c0.3,0.6,3,5.6,0.1,8.4c-2,1.9-5.9,2.1-7.4,0.5c-1.4-1.5,0.6-3.2-0.6-6.2
			c-1.1-3-4.1-3.6-3.8-5.3C106,24.9,107.9,24,109.3,23.7z"/>
	</g>
</g>
</svg>
