<svg xmlns="http://www.w3.org/2000/svg" xmlns:xlink="http://www.w3.org/1999/xlink" viewBox="0 0 59.31 148.32"><defs><style>.cls-1,.cls-10,.cls-11,.cls-12,.cls-2,.cls-3,.cls-4,.cls-5,.cls-6,.cls-7,.cls-8,.cls-9{stroke-miterlimit:10;stroke-width:3px;}.cls-1{fill:url(#linear-gradient);stroke:url(#Orange_Yellow);}.cls-2{fill:url(#linear-gradient-2);stroke:url(#Orange_Yellow-2);}.cls-3{fill:url(#linear-gradient-3);stroke:url(#Orange_Yellow-3);}.cls-4{fill:url(#linear-gradient-4);stroke:url(#Orange_Yellow-4);}.cls-5,.cls-6,.cls-7,.cls-8,.cls-9{fill:none;}.cls-5{stroke:url(#Orange_Yellow-5);}.cls-6{stroke:url(#Orange_Yellow-6);}.cls-7{stroke:url(#Orange_Yellow-7);}.cls-8{stroke:url(#Orange_Yellow-8);}.cls-9{stroke:url(#Orange_Yellow-9);}.cls-10{fill:url(#linear-gradient-5);stroke:url(#Orange_Yellow-10);}.cls-11{fill:url(#linear-gradient-6);stroke:url(#Orange_Yellow-11);}.cls-12{fill:url(#linear-gradient-7);stroke:url(#Orange_Yellow-12);}</style><linearGradient id="linear-gradient" x1="37.07" y1="93.29" x2="37.07" y2="93.29" gradientUnits="userSpaceOnUse"><stop offset="0.1" stop-color="#f5ec3b"/><stop offset="0.22" stop-color="#f7e22e"/><stop offset="0.45" stop-color="#fad31b"/><stop offset="0.68" stop-color="#fcca10"/><stop offset="0.93" stop-color="#fdc70c"/></linearGradient><linearGradient id="Orange_Yellow" x1="35.57" y1="93.29" x2="38.57" y2="93.29" gradientUnits="userSpaceOnUse"><stop offset="0" stop-color="#fff33b"/><stop offset="0.04" stop-color="#fee72e"/><stop offset="0.12" stop-color="#fed51b"/><stop offset="0.2" stop-color="#fdca10"/><stop offset="0.28" stop-color="#fdc70c"/><stop offset="0.67" stop-color="#f3903f"/><stop offset="0.89" stop-color="#ed683c"/><stop offset="1" stop-color="#e93e3a"/></linearGradient><linearGradient id="linear-gradient-2" x1="22.21" y1="94.96" x2="22.21" y2="94.96" xlink:href="#linear-gradient"/><linearGradient id="Orange_Yellow-2" x1="20.71" y1="94.96" x2="23.71" y2="94.96" xlink:href="#Orange_Yellow"/><linearGradient id="linear-gradient-3" x1="37.07" y1="73.88" x2="37.07" y2="73.88" xlink:href="#linear-gradient"/><linearGradient id="Orange_Yellow-3" x1="35.57" y1="73.88" x2="38.57" y2="73.88" xlink:href="#Orange_Yellow"/><linearGradient id="linear-gradient-4" x1="22.21" y1="75.55" x2="22.21" y2="75.55" gradientUnits="userSpaceOnUse"><stop offset="0.1" stop-color="#f5ec3b"/><stop offset="0.23" stop-color="#f7e22e"/><stop offset="0.48" stop-color="#fad31b"/><stop offset="0.73" stop-color="#fcca10"/><stop offset="1" stop-color="#fdc70c"/></linearGradient><linearGradient id="Orange_Yellow-4" x1="20.71" y1="75.55" x2="23.71" y2="75.55" xlink:href="#Orange_Yellow"/><linearGradient id="Orange_Yellow-5" x1="13.01" y1="126.89" x2="46.27" y2="126.89" xlink:href="#Orange_Yellow"/><linearGradient id="Orange_Yellow-6" x1="10.49" y1="19.17" x2="48.82" y2="19.17" xlink:href="#Orange_Yellow"/><linearGradient id="Orange_Yellow-7" x1="19.22" y1="19.17" x2="40.08" y2="19.17" xlink:href="#Orange_Yellow"/><linearGradient id="Orange_Yellow-8" x1="20.95" y1="131.69" x2="38.36" y2="131.69" xlink:href="#Orange_Yellow"/><linearGradient id="Orange_Yellow-9" x1="2.68" y1="49.22" x2="55.83" y2="49.22" xlink:href="#Orange_Yellow"/><linearGradient id="linear-gradient-5" x1="1.51" y1="103.47" x2="57.8" y2="103.47" gradientUnits="userSpaceOnUse"><stop offset="0" stop-color="#f5ec3b"/><stop offset="0.04" stop-color="#f7e22e"/><stop offset="0.12" stop-color="#fad31b"/><stop offset="0.2" stop-color="#fcca10"/><stop offset="0.28" stop-color="#fdc70c"/><stop offset="0.67" stop-color="#f3903f"/><stop offset="0.89" stop-color="#ed683c"/><stop offset="1" stop-color="#e93e3a"/></linearGradient><linearGradient id="Orange_Yellow-10" x1="0.01" y1="103.47" x2="59.3" y2="103.47" xlink:href="#Orange_Yellow"/><linearGradient id="linear-gradient-6" x1="1.5" y1="84.95" x2="57.81" y2="84.95" xlink:href="#linear-gradient-5"/><linearGradient id="Orange_Yellow-11" x1="0" y1="84.95" x2="59.31" y2="84.95" xlink:href="#Orange_Yellow"/><linearGradient id="linear-gradient-7" x1="1.5" y1="64.66" x2="57.81" y2="64.66" xlink:href="#linear-gradient-5"/><linearGradient id="Orange_Yellow-12" x1="0" y1="64.66" x2="59.31" y2="64.66" xlink:href="#Orange_Yellow"/></defs><g id="Layer_2" data-name="Layer 2"><g id="Layer_2-2" data-name="Layer 2"><line class="cls-1" x1="37.07" y1="97.93" x2="37.07" y2="88.64"/><line class="cls-2" x1="22.21" y1="99.59" x2="22.21" y2="90.32"/><line class="cls-3" x1="37.07" y1="79.4" x2="37.07" y2="68.36"/><line class="cls-4" x1="22.21" y1="81.06" x2="22.21" y2="70.05"/><path class="cls-5" d="M37.07,118.48V107.14l-14.86,1.71v9.63a15.13,15.13,0,1,0,14.86,0Zm-7.43,20.39a7.19,7.19,0,1,1,7.22-7.18A7.18,7.18,0,0,1,29.64,138.87Z"/><circle class="cls-6" cx="29.65" cy="19.17" r="17.67"/><circle class="cls-7" cx="29.65" cy="19.17" r="8.93"/><path class="cls-8" d="M36.86,131.69a7.21,7.21,0,1,1-7.22-7.19A7.19,7.19,0,0,1,36.86,131.69Z"/><path class="cls-9" d="M54.34,57.53C52.83,46,43.72,36.83,29.64,36.83c-14.5,0-26,10.35-25.45,26.23"/><path class="cls-10" d="M53.59,105.24l-16.52,1.9-14.86,1.71c-4.81.54-9.62,1.12-14.44,1.66a4.7,4.7,0,1,1-2.19-9.09l16.63-1.83c5-.57,9.9-1.12,14.86-1.66l14.86-1.62A4.86,4.86,0,0,1,57.56,99C58.46,101.33,56.81,104.58,53.59,105.24Z"/><path class="cls-11" d="M5.59,82.9l46.34-5.12a4.9,4.9,0,0,1,5.63,2.69c.9,2.35-.75,5.6-4,6.27L7.77,92A4.7,4.7,0,1,1,5.59,82.9Z"/><path class="cls-12" d="M5.59,62.61l46.34-5.12a4.91,4.91,0,0,1,5.63,2.69c.9,2.36-.75,5.6-4,6.27L7.77,71.7a4.7,4.7,0,1,1-2.18-9.09Z"/></g></g></svg>