<?xml version="1.0" standalone="no"?>
<!DOCTYPE svg PUBLIC "-//W3C//DTD SVG 20010904//EN"
 "http://www.w3.org/TR/2001/REC-SVG-20010904/DTD/svg10.dtd">
<svg version="1.0" xmlns="http://www.w3.org/2000/svg"
 width="1600.000000pt" height="1600.000000pt" viewBox="0 0 1600.000000 1600.000000"
 preserveAspectRatio="xMidYMid meet">
<metadata>
Created by potrace 1.11, written by Peter Selinger 2001-2013
</metadata>
<g transform="translate(0.000000,1600.000000) scale(0.100000,-0.100000)"
fill="#000000" stroke="none">
<path d="M11468 11425 c-1 -2 -50 -6 -108 -10 -58 -3 -121 -8 -140 -10 -106
-9 -174 -17 -193 -21 -12 -2 -47 -7 -77 -10 -66 -8 -95 -12 -95 -14 0 -1 -20
-4 -45 -7 -86 -10 -95 -11 -95 -13 0 -2 -25 -7 -72 -13 -21 -3 -45 -8 -53 -11
-8 -3 -28 -7 -45 -9 -16 -3 -41 -8 -55 -11 -14 -3 -36 -8 -50 -10 -48 -8 -206
-47 -335 -82 -71 -20 -134 -37 -140 -38 -5 -2 -17 -5 -25 -8 -8 -3 -69 -23
-135 -44 -115 -36 -285 -98 -446 -162 -162 -65 -511 -230 -517 -244 -2 -5 -8
-8 -14 -8 -10 0 -185 -99 -280 -159 -32 -20 -60 -43 -62 -51 -31 -95 -37 -437
-11 -635 3 -22 8 -58 11 -80 3 -22 12 -74 20 -115 9 -41 17 -88 20 -105 3 -16
9 -41 14 -55 5 -14 11 -36 14 -50 8 -47 114 -346 129 -365 4 -5 18 -30 31 -55
15 -27 32 -46 44 -48 22 -3 138 34 247 80 39 16 70 28 70 27 0 -1 16 5 35 14
19 8 80 35 135 58 55 23 132 56 170 74 39 18 131 60 205 94 74 34 142 66 151
71 9 5 87 44 172 88 203 103 277 151 277 178 0 25 -36 42 -190 94 -134 45
-294 127 -442 227 -71 46 -128 87 -128 89 0 7 117 58 145 64 6 1 16 6 23 12 6
6 12 7 12 3 0 -4 6 -3 13 3 24 20 367 128 367 116 0 -3 8 0 18 5 19 10 83 23
125 25 15 0 27 4 27 8 0 3 14 5 30 3 17 -2 30 -1 30 3 0 4 8 8 18 9 9 1 58 5
107 9 174 14 606 7 635 -11 5 -3 61 -9 180 -20 14 -1 31 3 39 9 8 6 15 9 15 7
1 -2 21 5 46 17 257 115 623 249 698 254 6 1 12 5 12 10 0 5 4 6 10 3 5 -3 18
-2 27 4 10 5 32 11 48 14 17 3 39 8 50 11 56 13 165 35 205 41 25 3 52 8 60
10 8 3 35 7 60 10 25 3 63 8 84 11 22 3 64 8 95 11 78 7 606 8 661 1 249 -34
380 -104 481 -255 41 -63 130 -163 144 -163 1 0 30 -18 63 -40 33 -22 64 -40
70 -40 5 0 15 -7 22 -15 7 -9 15 -14 17 -11 3 2 30 -8 61 -24 128 -62 201 -92
396 -161 60 -21 113 -36 118 -33 4 3 8 1 8 -4 0 -5 6 -9 13 -10 11 0 125 -28
387 -93 47 -11 90 -22 95 -23 36 -7 136 -67 179 -108 47 -45 50 -50 33 -61
-11 -7 -44 -28 -75 -48 -78 -50 -149 -119 -157 -150 -5 -20 -1 -32 16 -48 24
-22 86 -47 107 -43 6 2 12 -1 12 -5 0 -4 12 -9 28 -9 15 -1 43 -2 62 -4 39 -2
105 6 120 15 9 5 7 -61 -3 -118 -4 -24 -12 -30 -86 -68 -146 -75 -307 -288
-337 -446 -10 -51 -24 -73 -46 -73 -13 0 -61 23 -108 50 -78 46 -209 107 -249
115 -9 2 -45 11 -81 21 -36 9 -81 18 -100 19 -19 2 -35 4 -35 5 0 1 -34 3 -76
4 -41 1 -81 6 -87 10 -7 4 -12 4 -12 -1 0 -4 -24 -8 -53 -9 -181 -3 -391 -60
-597 -163 -99 -50 -257 -145 -309 -186 -9 -8 -50 -41 -91 -74 -207 -166 -341
-306 -385 -403 -58 -130 -34 -230 101 -419 68 -95 241 -274 329 -339 33 -25
62 -47 65 -50 30 -32 251 -153 356 -195 80 -32 251 -83 303 -90 20 -3 47 -7
61 -11 44 -10 214 -13 226 -4 13 12 54 -24 54 -46 0 -37 -38 -88 -129 -176
-121 -116 -241 -207 -351 -267 -183 -99 -358 -164 -530 -197 -14 -2 -31 -7
-38 -9 -7 -3 1 15 18 40 31 45 65 125 53 125 -4 0 -2 5 3 10 6 6 8 31 3 63 -3
28 -5 55 -2 60 2 4 -1 7 -6 7 -6 0 -10 3 -9 8 5 25 -44 96 -114 163 -44 44
-83 79 -87 79 -4 0 -17 8 -29 18 -44 37 -58 48 -92 72 -19 13 -41 30 -48 37
-7 7 -26 20 -42 30 -17 9 -30 21 -30 25 0 4 -6 8 -14 8 -8 0 -16 3 -18 8 -5
11 -167 132 -178 132 -4 0 -10 4 -12 8 -3 8 -159 121 -273 199 -33 22 -71 50
-84 62 -30 26 -37 26 -52 0 -9 -18 -7 -29 10 -59 11 -20 18 -40 14 -44 -3 -3
0 -6 7 -6 7 0 11 -3 8 -6 -3 -3 29 -76 71 -162 102 -206 105 -216 92 -240 -6
-11 -34 -35 -63 -53 -29 -18 -55 -36 -58 -39 -3 -3 -25 -18 -50 -34 -50 -32
-154 -112 -215 -166 -58 -51 -255 -247 -255 -254 0 -3 -8 -14 -17 -24 -53 -55
-233 -301 -233 -318 0 -3 -15 -28 -33 -57 -46 -72 -147 -282 -136 -282 2 0 -4
-13 -13 -30 -32 -57 -78 -213 -84 -284 -3 -40 0 -47 32 -77 47 -45 371 -258
413 -273 19 -6 60 -11 93 -11 51 0 71 7 171 58 126 65 160 84 167 93 3 3 20
15 39 25 52 30 122 74 131 84 3 3 21 16 40 28 20 11 45 29 57 39 55 47 64 53
72 53 5 0 11 3 13 8 2 4 16 17 32 30 97 75 339 306 401 382 95 116 118 164 91
182 -6 4 -22 0 -36 -9 -24 -16 -254 -216 -275 -239 -5 -6 -50 -44 -100 -83
-49 -40 -108 -86 -129 -104 -86 -69 -405 -288 -426 -292 -3 0 -23 -12 -45 -26
-22 -14 -69 -41 -105 -60 -36 -19 -67 -37 -70 -40 -14 -17 -92 1 -156 36 -38
21 -97 53 -132 72 -34 18 -70 37 -80 43 -9 5 -45 22 -78 37 -59 26 -61 28 -50
53 6 14 15 28 21 32 5 4 7 8 2 8 -4 0 -1 13 8 30 8 16 15 32 16 35 0 9 131
270 138 275 4 3 15 21 24 40 39 78 160 256 260 380 79 97 220 247 313 331 51
46 224 181 312 243 82 59 110 96 116 156 5 55 -12 102 -69 197 -42 69 -61 119
-32 83 7 -8 28 -27 47 -41 19 -15 44 -35 55 -45 11 -11 36 -31 55 -45 19 -15
44 -35 55 -45 11 -11 110 -91 220 -178 110 -88 210 -171 223 -184 46 -48 73
-100 77 -144 7 -94 -48 -155 -260 -286 -27 -17 -55 -36 -62 -42 -7 -5 -16 -10
-20 -10 -4 0 -21 -11 -37 -23 l-29 -24 54 -6 c30 -3 81 -4 114 -2 157 9 260
17 265 20 3 2 26 6 50 10 25 3 63 11 85 16 22 5 48 11 58 14 72 17 221 72 317
118 178 85 326 190 471 336 129 129 177 199 182 267 7 92 -62 159 -142 138
-21 -6 -54 -8 -75 -6 l-37 4 8 52 c15 102 6 457 -13 488 -3 4 -7 20 -9 35 -3
24 -30 139 -39 168 -13 39 -29 75 -35 75 -4 0 -15 -26 -26 -57 -10 -32 -23
-64 -29 -72 -6 -8 -9 -15 -7 -15 7 -2 -19 -77 -46 -133 -54 -114 -140 -156
-303 -149 -147 7 -261 36 -398 103 -94 46 -99 50 -207 185 -22 27 -80 121 -94
153 -28 63 -30 85 -13 138 14 43 35 71 124 162 59 61 147 141 195 180 49 38
90 72 93 75 17 19 118 86 158 105 50 24 208 74 251 80 14 2 26 4 26 5 0 6 59
11 160 14 117 2 200 -7 220 -25 5 -5 17 -9 26 -9 26 0 102 -79 128 -135 36
-73 34 -203 -2 -299 -15 -38 -30 -72 -35 -75 -5 -3 -13 -17 -17 -30 -4 -13
-20 -46 -36 -73 -16 -27 -29 -52 -29 -57 0 -23 216 53 228 81 2 4 9 8 17 8 7
0 18 7 25 15 7 9 15 13 17 11 12 -11 233 206 233 229 0 2 13 26 29 54 41 69
80 183 88 252 3 33 9 59 12 59 4 0 30 -11 57 -25 57 -28 118 -34 163 -15 35
14 75 75 86 130 3 19 14 58 23 85 9 28 16 52 17 55 1 21 87 148 129 193 55 58
156 137 174 137 7 0 12 5 12 10 0 6 8 10 17 10 9 0 14 2 11 6 -3 3 5 37 19 77
42 124 28 293 -35 407 -29 53 -87 127 -120 154 -13 11 -32 27 -41 37 -22 24
-143 83 -211 103 -30 9 -122 32 -205 52 -140 33 -270 67 -305 81 -8 3 -19 7
-25 8 -33 8 -218 75 -325 118 -259 104 -375 175 -441 271 -37 53 -126 148
-174 184 -91 69 -285 134 -441 147 -43 4 -92 9 -109 11 -44 6 -413 6 -460 0
-22 -2 -74 -7 -115 -11 -41 -3 -82 -8 -90 -10 -8 -3 -31 -7 -50 -9 -64 -8
-173 -27 -179 -30 -3 -2 -24 -7 -46 -10 -22 -4 -58 -12 -80 -18 -22 -7 -44
-13 -50 -14 -5 -1 -12 -3 -15 -4 -3 -1 -12 -3 -20 -5 -78 -18 -364 -117 -384
-134 -9 -7 -16 -10 -16 -7 0 4 -12 1 -27 -7 -16 -8 -82 -41 -147 -73 -66 -33
-154 -82 -197 -109 -71 -48 -78 -50 -105 -39 -34 14 -65 26 -79 29 -5 2 -39
10 -75 20 -36 9 -76 18 -90 20 -14 2 -25 4 -25 5 0 1 -9 3 -20 4 -11 2 -47 7
-80 11 -95 13 -530 9 -530 -5 0 -1 -16 -3 -35 -5 -19 -2 -60 -8 -90 -15 -30
-6 -64 -13 -75 -15 -11 -1 -20 -3 -20 -4 0 -3 -17 -7 -58 -16 -109 -22 -337
-116 -463 -190 -117 -69 -158 -107 -149 -138 23 -74 119 -182 238 -265 58 -41
147 -91 164 -93 5 -1 17 -6 28 -12 11 -6 25 -12 30 -14 6 -1 37 -11 69 -23 33
-11 67 -20 78 -20 38 0 15 -16 -70 -49 -48 -19 -107 -44 -132 -55 -25 -11 -47
-21 -50 -21 -3 -1 -31 -13 -64 -28 -32 -15 -60 -27 -61 -27 -1 0 -33 -14 -71
-32 -38 -17 -71 -32 -74 -33 -18 -3 -550 -266 -619 -305 -29 -17 -55 -29 -56
-28 -4 4 -95 354 -100 383 -2 11 -6 31 -10 45 -3 14 -8 36 -11 50 -2 14 -7 39
-11 55 -3 17 -7 37 -9 45 -1 8 -5 33 -8 55 -27 159 -30 180 -41 275 -11 97
-15 148 -21 225 -8 106 -11 149 -18 213 l-6 53 203 98 c173 84 390 184 407
187 3 0 19 6 35 13 17 8 39 17 50 21 11 4 36 15 55 23 39 17 169 67 185 71 6
2 18 6 27 10 9 4 25 9 35 11 10 2 19 4 21 5 1 2 5 3 10 5 4 1 19 7 33 12 14 6
90 31 170 56 234 72 274 84 324 92 11 2 20 4 20 5 0 1 7 3 15 5 8 2 40 11 70
19 30 8 69 17 85 20 17 3 84 17 150 31 66 14 135 28 154 31 18 3 43 8 55 10
19 4 39 8 116 19 14 2 25 4 25 5 0 1 18 4 40 6 96 10 111 12 135 17 25 6 79
12 195 22 33 3 83 8 110 10 251 24 767 24 1035 0 142 -12 179 -16 215 -21 22
-3 54 -7 70 -9 86 -8 180 -22 180 -25 0 -1 16 -3 35 -5 19 -2 35 -4 35 -5 0
-1 11 -3 25 -4 95 -11 534 -104 580 -123 8 -3 22 -7 30 -8 8 -1 42 -10 75 -19
33 -10 68 -19 77 -20 10 -1 21 -5 24 -9 4 -4 17 -7 29 -7 11 0 26 -5 33 -12 7
-7 12 -9 12 -6 0 4 33 -4 73 -18 39 -14 81 -27 92 -30 18 -3 37 -10 90 -30 11
-4 22 -8 25 -9 3 -1 14 -5 25 -9 11 -4 70 -26 130 -48 93 -34 211 -83 350
-143 161 -69 518 -247 546 -271 8 -8 19 -14 23 -14 4 0 49 -27 101 -60 90 -57
125 -67 125 -34 0 38 -223 200 -431 312 -230 123 -523 261 -709 332 -41 16
-88 34 -105 41 -16 7 -34 13 -40 15 -5 1 -48 16 -95 33 -47 16 -139 46 -205
67 -66 20 -127 39 -135 42 -18 6 2 1 -215 55 -220 56 -458 105 -595 123 -19 2
-48 7 -65 9 -44 7 -125 17 -165 21 -19 1 -35 3 -35 4 0 1 -13 3 -30 4 -43 4
-171 17 -230 23 -57 5 -781 13 -787 8z m4010 -1869 c6 -13 14 -41 18 -61 l7
-37 -29 15 c-16 8 -44 18 -61 22 -39 8 -41 17 -10 34 13 7 30 21 38 32 18 25
24 24 37 -5z m-963 -801 c17 -4 41 -8 55 -10 14 -2 26 -4 28 -4 1 -1 5 -2 10
-3 4 -1 41 -15 82 -31 41 -16 83 -31 92 -34 19 -6 18 -21 -5 -93 -6 -19 -11
-37 -12 -40 0 -3 -13 -32 -29 -65 -43 -91 -102 -173 -179 -248 l-69 -68 8 58
c11 92 11 124 -4 188 -43 196 -181 316 -384 334 -5 1 -8 6 -8 12 0 5 3 8 8 5
4 -2 23 -1 42 3 40 9 320 5 365 -4z m-440 -1415 c4 -36 8 -72 10 -81 2 -9 6
-62 9 -118 7 -96 6 -102 -11 -97 -10 3 -31 8 -48 12 -16 3 -50 13 -75 21 -25
8 -52 16 -60 18 -14 3 -72 25 -115 45 -117 52 -175 82 -175 92 0 6 -3 9 -6 6
-3 -4 -15 -1 -27 6 -36 19 -107 66 -107 70 0 2 19 -2 43 -9 115 -34 288 -34
380 2 47 18 122 72 145 104 20 28 27 13 37 -71z"/>
<path d="M13085 10287 c-133 -14 -239 -55 -305 -117 -43 -40 -51 -73 -22 -89
10 -5 54 -12 98 -15 158 -12 253 -44 319 -109 26 -26 65 -84 70 -107 6 -20 19
-40 27 -40 5 0 46 18 91 39 82 40 152 66 259 95 78 22 110 61 95 118 -11 44
-69 95 -163 141 -51 26 -161 64 -199 70 -11 1 -24 5 -30 8 -5 4 -27 7 -47 7
-21 0 -39 1 -40 2 -7 6 -91 4 -153 -3z"/>
<path d="M10160 10232 c-136 -11 -340 -75 -340 -107 0 -11 6 -12 25 -5 14 5
25 7 25 4 0 -4 6 -2 13 3 24 19 85 27 262 35 40 2 166 -16 222 -32 37 -10 71
-16 75 -14 4 3 8 0 8 -5 0 -6 6 -11 13 -11 7 0 49 -17 93 -38 43 -22 83 -39
87 -40 4 0 19 -7 31 -16 13 -8 34 -16 47 -18 13 -2 30 -7 37 -11 14 -10 33 30
27 59 -2 11 -4 22 -4 26 -2 18 -58 71 -90 84 -53 23 -171 63 -171 59 0 -3 -10
-1 -22 4 -49 18 -239 31 -338 23z m435 -110 c51 -16 130 -60 123 -68 -3 -2
-52 19 -109 46 -57 28 -95 48 -84 44 11 -3 43 -13 70 -22z"/>
<path d="M12004 9641 c-2 -2 -36 -5 -76 -6 -131 -5 -246 -15 -358 -31 -25 -3
-56 -7 -70 -9 -64 -9 -244 -43 -290 -55 -19 -5 -46 -11 -60 -14 -14 -3 -56
-14 -95 -26 -38 -12 -77 -23 -84 -24 -8 -2 -17 -8 -19 -15 -5 -15 34 -12 143
12 39 8 97 20 130 26 33 6 74 14 90 17 36 7 56 10 115 18 25 3 56 8 70 11 14
2 55 7 93 10 37 3 86 7 110 10 186 22 600 21 797 -1 19 -2 62 -7 95 -10 63 -5
100 -10 100 -13 0 -1 21 -4 46 -6 26 -2 57 -6 70 -9 13 -2 40 -7 59 -10 98
-17 116 -20 275 -56 72 -16 142 -33 155 -38 14 -5 28 -10 33 -10 17 -1 73 -15
82 -20 6 -4 17 -7 25 -9 8 -1 44 -11 79 -23 71 -22 95 -25 86 -10 -14 22 -191
88 -375 140 -77 22 -89 25 -150 37 -42 9 -41 8 -60 16 -8 3 -31 8 -50 11 -19
3 -75 12 -125 21 -49 9 -103 18 -120 20 -16 2 -46 6 -65 9 -32 5 -61 8 -195
22 -39 3 -269 14 -393 17 -35 1 -65 0 -68 -2z"/>
<path d="M12446 9393 c-1 -2 -49 -5 -107 -7 -57 -3 -104 -5 -104 -6 0 -1 -18
-3 -40 -5 -134 -13 -212 -25 -345 -52 -69 -13 -135 -27 -148 -29 -13 -3 -42
-11 -65 -19 -59 -19 -132 -38 -133 -34 -2 7 -34 -23 -34 -31 0 -8 40 -6 90 5
14 4 36 8 50 11 14 3 32 7 40 9 8 2 15 4 15 5 0 1 12 3 27 5 15 2 62 10 105
19 43 8 85 15 93 15 8 0 40 5 70 10 30 6 80 13 110 17 30 3 71 7 90 10 182 21
695 22 820 0 14 -2 54 -7 90 -11 36 -3 81 -8 100 -11 31 -4 49 -7 125 -19 138
-24 175 -27 175 -15 0 17 -64 36 -215 66 -11 2 -42 8 -70 14 -51 11 -84 15
-170 24 -27 3 -68 7 -90 11 -81 11 -471 26 -479 18z"/>
<path d="M12836 9163 c-4 -4 -37 -8 -74 -9 -106 -4 -269 -18 -317 -29 -11 -2
-42 -7 -70 -10 -27 -4 -70 -11 -95 -16 -25 -5 -56 -12 -70 -14 -14 -3 -38 -8
-55 -12 -16 -4 -32 -7 -35 -8 -3 -1 -15 -4 -28 -9 -12 -4 -32 -9 -45 -10 -12
-2 -29 -6 -37 -9 -8 -4 -53 -19 -99 -35 -47 -15 -87 -34 -89 -41 -4 -11 3 -13
29 -8 39 7 75 15 104 22 55 13 204 46 230 50 60 9 91 14 140 23 28 5 57 10 65
10 8 0 28 3 44 7 43 9 129 18 301 30 49 4 93 9 97 11 5 3 8 0 8 -7 0 -8 4 -8
13 -2 7 6 99 10 220 9 189 -1 241 3 226 18 -13 13 -148 27 -304 31 -74 2 -138
6 -143 9 -5 3 -12 2 -16 -1z"/>
<path d="M523 8302 c-16 -2 -23 -10 -24 -25 0 -12 -2 -65 -4 -117 -5 -121 -13
-428 -20 -730 -3 -129 -8 -245 -11 -257 -4 -23 -4 -23 134 -23 l139 0 63 68
c35 37 142 150 239 251 97 101 198 207 225 235 26 28 92 96 145 152 329 344
403 423 402 430 -1 4 -65 7 -144 7 l-142 -2 -79 -83 c-43 -46 -120 -126 -170
-179 -50 -53 -154 -162 -231 -244 -77 -82 -175 -185 -218 -229 l-78 -81 7 165
c3 91 7 194 9 230 1 36 6 137 10 225 8 172 9 195 2 202 -6 5 -222 9 -254 5z"/>
<path d="M2397 8304 c-1 -1 -45 -4 -98 -8 -147 -9 -253 -53 -345 -144 -48 -47
-69 -81 -173 -295 -65 -133 -146 -298 -179 -368 -68 -138 -76 -181 -42 -236
25 -42 58 -62 137 -84 59 -17 114 -18 574 -19 l508 0 41 61 c22 33 44 68 49
77 8 16 -29 17 -496 17 -346 0 -512 3 -527 10 -13 7 -20 19 -19 33 3 20 236
497 304 618 18 33 40 73 49 89 9 17 40 43 71 60 l54 29 457 1 c251 0 459 2
461 5 11 12 87 141 87 148 0 5 -906 11 -913 6z"/>
<path d="M3524 8302 c-16 -2 -45 -53 -134 -235 -62 -128 -165 -335 -228 -462
-95 -192 -115 -238 -115 -276 -1 -88 51 -137 172 -165 42 -10 182 -13 562 -14
l507 0 41 69 c22 38 41 73 41 78 0 4 -222 8 -493 7 -285 0 -501 4 -514 9 -37
16 -33 42 24 154 30 59 131 261 225 448 93 187 174 348 179 358 6 11 8 21 6
23 -5 6 -242 10 -273 6z"/>
<path d="M5407 8304 c-1 -1 -42 -4 -92 -8 -112 -7 -178 -25 -250 -66 -108 -62
-145 -111 -254 -333 -54 -111 -135 -277 -180 -368 -90 -185 -98 -221 -58 -279
12 -19 37 -43 55 -53 72 -42 134 -47 567 -44 l410 3 78 26 c78 26 135 62 172
107 11 14 51 90 88 170 98 209 115 246 207 441 73 157 81 179 76 218 -8 65
-37 113 -87 144 -36 22 -61 29 -134 34 -73 6 -592 12 -598 8z m468 -176 c17
-9 38 -25 48 -36 18 -19 15 -26 -89 -238 -58 -121 -137 -282 -174 -359 -37
-77 -76 -147 -86 -156 -38 -32 -79 -36 -384 -34 -390 2 -381 -2 -309 140 22
44 103 205 180 357 148 291 153 299 237 328 64 23 533 21 577 -2z"/>
<path d="M6926 8303 c-1 -1 -35 -3 -76 -4 -159 -4 -269 -45 -369 -135 -55 -51
-68 -71 -149 -237 -49 -100 -131 -267 -183 -372 -74 -151 -93 -198 -93 -231 1
-55 34 -107 82 -130 85 -40 127 -43 654 -44 l506 0 46 73 c25 41 46 76 46 78
0 2 -219 4 -487 4 -269 -1 -504 2 -523 5 -50 8 -49 29 10 145 29 55 110 216
182 358 134 265 151 288 223 318 22 9 149 13 485 13 l455 1 52 78 c29 42 47
77 40 78 -29 2 -899 4 -901 2z"/>
<path d="M8048 8302 c-24 -3 -38 -27 -151 -255 -182 -369 -437 -889 -437 -893
0 -2 65 -4 144 -4 l144 0 24 43 c13 23 38 76 57 117 18 41 103 215 189 385
222 440 300 600 297 603 -4 5 -232 8 -267 4z"/>
<path d="M8468 8295 c-23 -26 -73 -145 -64 -148 6 -2 125 -3 264 -3 138 1 252
1 252 0 0 -2 -291 -596 -401 -819 -43 -88 -79 -163 -79 -168 0 -4 62 -7 138
-7 l137 0 245 493 c135 270 246 494 248 497 2 2 114 5 248 5 l245 0 44 78 44
77 -27 1 c-281 6 -1288 2 -1294 -6z"/>
<path d="M10377 8304 c-1 -1 -48 -4 -104 -8 -155 -9 -266 -58 -363 -158 -22
-23 -46 -55 -54 -72 -163 -344 -378 -767 -448 -883 l-20 -33 154 0 153 0 40
73 c22 39 48 91 57 114 26 63 259 534 321 648 51 94 58 102 112 130 l57 29
251 1 c155 1 264 -3 282 -9 34 -12 67 -35 79 -54 9 -14 -101 -251 -118 -253
-6 -1 -139 -3 -296 -4 -157 -1 -290 -3 -297 -4 -9 -1 -83 -137 -83 -153 0 -2
135 -3 300 -3 165 0 299 -2 298 -5 -2 -3 -19 -39 -38 -80 -19 -41 -74 -153
-122 -248 -48 -95 -88 -175 -88 -178 0 -2 69 -4 153 -4 l154 0 100 208 c210
431 333 707 333 746 0 41 -22 101 -48 129 -32 36 -88 56 -175 63 -68 5 -584
12 -590 8z"/>
<path d="M2210 7820 c-8 -5 -80 -140 -80 -150 0 -3 136 -5 301 -5 l301 0 39
75 c21 41 39 77 39 80 0 7 -589 7 -600 0z"/>
<path d="M7400 7029 c-16 -34 -30 -62 -30 -63 0 -1 61 -1 137 -1 l136 0 29 45
c56 89 67 80 -96 80 l-145 0 -31 -61z"/>
<path d="M2891 6829 c-23 -5 -62 -20 -86 -33 -40 -24 -50 -40 -182 -303 l-140
-278 149 0 149 0 116 231 c93 184 123 236 147 250 29 18 61 19 454 20 232 1
424 3 426 5 6 7 56 108 56 114 0 9 -1041 3 -1089 -6z"/>
<path d="M4265 6785 c-14 -31 -24 -59 -21 -63 4 -3 187 -6 409 -7 221 -1 407
-2 414 -3 6 -1 18 -9 27 -17 13 -13 9 -27 -38 -123 -29 -59 -61 -124 -71 -145
-22 -47 -68 -87 -103 -88 -117 -6 -477 3 -493 11 -25 14 -23 37 5 80 l23 35
209 0 209 0 33 63 33 62 -38 1 c-21 0 -171 1 -334 1 -371 1 -346 9 -423 -145
-31 -62 -56 -120 -56 -129 0 -36 44 -70 116 -88 60 -15 120 -18 441 -18 205 0
394 4 420 9 141 26 198 62 238 153 12 28 52 112 87 186 36 74 67 142 70 150
13 38 -66 95 -162 116 -19 4 -245 9 -502 11 l-466 4 -27 -56z"/>
<path d="M5887 6829 c-50 -12 -99 -37 -115 -61 -24 -33 -222 -435 -222 -450 0
-38 56 -78 130 -94 19 -4 256 -9 525 -10 l491 -4 27 55 c15 31 27 59 27 64 0
4 -186 8 -412 8 -411 1 -469 5 -468 35 1 7 36 81 78 163 61 119 83 153 107
165 25 12 99 15 440 17 226 1 416 2 422 2 11 1 37 49 56 104 6 16 -21 17 -521
16 -290 -1 -544 -5 -565 -10z"/>
<path d="M7152 6535 c-83 -168 -152 -309 -152 -313 0 -11 278 -8 289 3 10 11
311 600 311 609 0 3 -66 6 -148 6 l-147 0 -153 -305z"/>
<path d="M7966 6825 c-28 -8 -61 -22 -75 -32 -16 -12 -63 -92 -126 -216 -55
-109 -117 -231 -137 -271 -21 -40 -38 -77 -38 -82 0 -13 276 -12 288 1 6 6 61
110 123 233 92 180 120 227 144 240 25 14 68 17 260 18 126 1 240 -2 254 -5
51 -14 48 -26 -68 -261 -61 -123 -111 -227 -111 -230 0 -3 69 -5 153 -5 l152
0 46 100 c25 55 68 145 94 200 87 184 96 205 89 218 -20 36 -55 60 -113 79
-63 21 -85 22 -476 24 -323 2 -420 0 -459 -11z"/>
<path d="M9466 6825 c-28 -8 -61 -22 -75 -33 -25 -18 -233 -411 -243 -458 -7
-33 8 -62 44 -80 66 -35 145 -43 393 -41 l240 2 32 61 33 61 -190 1 c-195 0
-225 4 -233 26 -3 7 30 81 72 166 60 117 85 156 107 168 24 13 71 17 258 18
125 1 240 -1 254 -5 47 -13 48 -31 7 -122 -21 -46 -49 -109 -62 -139 -64 -142
-119 -258 -141 -293 -43 -71 -45 -71 -521 -77 l-425 -5 -28 -48 c-16 -27 -26
-52 -23 -57 3 -4 249 -7 547 -6 526 2 544 3 588 23 25 11 59 36 77 54 28 30
317 600 338 667 5 18 1 30 -17 49 -67 72 -142 82 -603 82 -285 -1 -392 -4
-429 -14z"/>
</g>
</svg>
