<?xml version="1.0" standalone="no"?>
<!DOCTYPE svg PUBLIC "-//W3C//DTD SVG 20010904//EN"
 "http://www.w3.org/TR/2001/REC-SVG-20010904/DTD/svg10.dtd">
<svg version="1.0" xmlns="http://www.w3.org/2000/svg"
 width="500.000000pt" height="500.000000pt" viewBox="0 0 500.000000 500.000000"
 preserveAspectRatio="xMidYMid meet">
<metadata>
Created by potrace 1.11, written by Peter Selinger 2001-2013
</metadata>
<g transform="translate(0.000000,500.000000) scale(0.100000,-0.100000)"
fill="#000000" stroke="none">
<path d="M4203 3590 c-40 -10 -81 -24 -92 -29 -13 -8 -28 -8 -46 -1 -57 22
-179 4 -199 -28 -3 -5 3 -21 14 -35 20 -25 20 -26 1 -59 -30 -51 -51 -193 -51
-350 0 -118 -2 -140 -16 -145 -28 -11 -35 19 -30 117 7 122 28 228 61 316 35
90 36 108 7 112 -32 5 -116 -25 -145 -52 -16 -15 -26 -38 -31 -73 -14 -111
-42 -181 -192 -478 -85 -170 -158 -325 -161 -342 l-5 -33 45 0 c82 0 146 -20
187 -56 24 -22 44 -32 54 -28 23 9 21 16 -26 101 -35 64 -42 86 -45 147 -3 48
0 76 9 87 18 22 88 69 103 69 8 0 14 -36 18 -117 12 -226 80 -399 280 -711 40
-62 67 -94 83 -98 13 -3 90 -2 171 2 l148 9 9 27 c11 32 -5 78 -36 97 -12 8
-46 13 -78 12 -103 -2 -174 65 -290 276 -92 168 -131 315 -99 375 6 11 26 39
43 63 18 23 43 68 56 101 59 146 136 205 280 216 57 5 50 31 -22 82 -92 66
-127 96 -139 120 -6 11 5 2 25 -20 43 -50 93 -75 108 -53 8 12 10 12 15 0 3
-8 32 -43 64 -78 49 -52 59 -69 59 -98 0 -43 16 -45 76 -10 54 32 93 83 73 96
-8 5 -16 9 -19 9 -3 0 -4 20 -2 45 4 44 -10 62 -22 29 -3 -8 -2 -12 4 -9 11 7
13 -24 4 -49 -5 -14 -9 -13 -31 1 -24 16 -24 17 -7 31 18 13 18 14 -3 8 -16
-5 -31 2 -58 25 -35 31 -36 34 -18 47 23 18 90 48 126 56 26 6 27 4 27 -29 0
-19 4 -35 8 -35 13 0 39 32 51 62 5 15 23 35 38 45 38 24 43 32 43 74 0 47
-33 79 -83 79 -29 0 -47 8 -80 39 -23 21 -52 43 -64 50 -32 16 -118 13 -200
-9z m-163 -75 c17 -9 30 -23 30 -32 0 -14 -2 -15 -17 -1 -10 9 -31 23 -48 31
-21 11 -25 16 -12 17 10 0 31 -7 47 -15z m527 -41 c-3 -3 -12 -4 -19 -1 -8 3
-5 6 6 6 11 1 17 -2 13 -5z m-31 -162 c-18 -35 -44 -56 -33 -28 4 10 7 26 7
36 0 10 8 20 18 22 25 6 25 3 8 -30z m-850 -316 c-5 -18 -73 -73 -81 -64 -2 2
16 34 38 73 39 65 42 68 45 41 2 -16 1 -38 -2 -50z"/>
<path d="M3268 3390 c-61 -11 -71 -18 -64 -44 5 -19 -7 -27 -104 -69 l-108
-48 -4 -57 c-5 -68 8 -90 42 -72 12 6 24 10 26 7 8 -7 -17 -299 -31 -367 -20
-101 -30 -120 -61 -120 -25 0 -26 1 -22 58 3 52 1 57 -18 60 -11 2 -27 -4 -34
-13 -17 -21 -47 -19 -60 5 -31 58 -20 172 26 267 21 45 31 54 64 63 41 11 50
24 50 75 0 32 -21 65 -41 65 -23 0 -88 -41 -116 -73 -40 -46 -69 -108 -92
-197 -11 -41 -20 -63 -20 -49 -2 55 -33 134 -66 165 -58 54 -160 67 -234 30
-16 -8 -34 -10 -46 -5 -32 12 -120 10 -137 -3 -29 -23 -96 -138 -126 -217 -39
-100 -52 -190 -52 -348 0 -153 -11 -184 -95 -270 -54 -56 -56 -60 -49 -98 13
-78 44 -161 74 -197 31 -37 33 -38 98 -37 37 1 94 4 127 8 67 7 76 19 54 73
-16 39 -61 58 -117 51 -38 -5 -45 -2 -77 30 -19 19 -35 42 -35 51 0 9 44 60
99 114 103 101 141 159 141 214 0 18 -14 69 -32 113 -27 69 -32 93 -32 170 -1
81 2 97 32 159 33 70 80 141 89 133 2 -3 -7 -21 -21 -41 -72 -107 -58 -325 26
-403 77 -72 201 -70 288 4 42 36 89 118 91 158 0 11 7 -12 14 -51 21 -115 59
-166 125 -168 17 -1 32 -7 35 -13 3 -10 39 -13 129 -13 l125 0 11 56 c14 65 9
84 -21 84 -22 0 -22 1 -15 123 8 146 33 330 51 374 10 23 21 32 42 35 25 3 28
7 28 39 0 36 2 37 53 54 30 9 56 14 60 11 5 -6 -43 -218 -94 -406 -63 -235
-103 -590 -85 -748 16 -146 52 -197 148 -212 64 -10 172 2 184 21 14 23 10 46
-14 74 -19 22 -32 27 -80 29 -65 3 -67 4 -97 85 -31 81 -41 180 -29 301 25
254 99 525 194 715 50 101 54 104 101 90 18 -6 28 2 54 40 l32 47 -24 24 c-48
48 -250 84 -360 64z m-715 -460 c32 -26 51 -81 43 -126 -9 -45 -89 -124 -127
-124 -32 0 -89 37 -107 70 -35 62 55 200 130 200 20 0 46 -9 61 -20z"/>
<path d="M1565 3043 c-64 -38 -141 -95 -184 -136 -101 -96 -639 -445 -846
-550 -115 -58 -192 -59 -225 -4 -60 98 18 186 173 195 70 4 80 7 89 28 8 18 7
29 -6 48 -21 33 -70 41 -151 26 -144 -27 -235 -134 -223 -261 13 -135 158
-212 305 -163 90 30 396 213 732 437 111 74 191 121 186 110 -4 -10 -29 -84
-55 -165 -66 -200 -85 -233 -167 -301 -100 -82 -181 -170 -205 -223 -24 -55
-22 -146 4 -186 16 -24 19 -24 85 -16 90 10 120 24 126 55 7 39 -3 62 -34 79
-36 18 -36 34 -3 73 35 42 91 73 201 114 49 19 100 41 113 50 40 28 117 127
191 246 88 140 273 507 266 525 -5 12 -103 34 -111 25 -2 -2 -48 -92 -103
-199 -192 -379 -283 -497 -472 -614 -62 -38 -135 -90 -164 -115 -50 -45 -50
-45 -31 -12 24 43 114 126 189 175 129 86 165 145 250 400 64 197 98 266 165
340 49 53 60 87 28 86 -7 -1 -62 -31 -123 -67z"/>
<path d="M2009 3028 c-9 -7 -35 -60 -58 -118 -49 -122 -119 -243 -204 -353
-74 -96 -69 -114 23 -73 33 15 88 30 122 34 60 7 61 7 74 47 8 22 18 48 24 58
16 26 -5 49 -36 41 -28 -7 -29 -3 -9 36 8 16 24 30 36 32 34 5 67 118 34 118
-19 0 -19 20 1 48 9 13 26 22 40 22 20 0 29 9 44 46 30 68 28 74 -28 74 -27 0
-55 -6 -63 -12z"/>
<path d="M316 1553 c-9 -71 -19 -136 -22 -145 -4 -14 1 -18 24 -18 32 0 42 14
42 58 0 54 15 53 43 -3 24 -49 30 -55 57 -55 16 0 30 2 30 3 0 2 -13 28 -30
58 -34 62 -36 69 -16 69 22 0 56 49 56 79 -1 52 -43 81 -118 81 l-49 0 -17
-127z m119 42 c0 -14 -8 -21 -27 -23 -24 -3 -28 0 -28 23 0 23 4 26 28 23 19
-2 27 -9 27 -23z"/>
<path d="M1232 1638 c-13 -24 -48 -89 -78 -145 l-56 -103 31 0 c24 0 34 7 46
30 15 30 18 31 73 28 51 -3 57 -5 62 -28 4 -18 13 -26 33 -28 17 -2 27 1 27
10 0 7 -15 72 -33 143 -31 120 -35 130 -58 133 -19 2 -28 -6 -47 -40z m52
-110 c6 -27 5 -28 -29 -28 l-35 0 21 42 c22 44 30 41 43 -14z"/>
<path d="M2094 1661 c-94 -57 -111 -180 -33 -245 26 -22 40 -26 94 -26 59 0
115 14 115 29 0 3 -7 14 -14 24 -12 15 -18 16 -35 8 -11 -6 -37 -11 -59 -11
-104 0 -127 126 -32 175 36 19 63 19 99 0 26 -13 30 -13 46 5 10 11 16 22 14
23 -54 43 -141 51 -195 18z"/>
<path d="M2946 1648 c-7 -42 -36 -247 -36 -253 0 -3 13 -5 28 -5 l28 0 17 128
c22 163 22 162 -8 162 -19 0 -25 -6 -29 -32z"/>
<path d="M3655 1658 c-5 -24 -35 -246 -35 -261 0 -4 12 -7 28 -5 26 3 27 6 39
87 6 45 14 85 16 87 3 3 26 -36 51 -86 40 -76 51 -90 71 -90 28 0 30 4 45 130
6 47 13 102 16 123 6 38 5 38 -22 35 -28 -3 -29 -6 -41 -81 -6 -43 -14 -84
-16 -90 -2 -7 -25 30 -51 81 -39 79 -50 92 -71 92 -17 0 -26 -7 -30 -22z"/>
<path d="M4605 1668 c-99 -54 -122 -170 -48 -244 31 -32 38 -34 97 -34 75 0
108 20 137 84 29 64 28 66 -55 66 -58 0 -75 -3 -80 -16 -11 -30 -6 -34 42 -34
l47 -1 -28 -24 c-60 -53 -147 -15 -147 62 0 26 8 43 34 69 39 39 75 44 122 15
29 -18 32 -18 53 -2 21 16 21 18 4 33 -10 8 -28 21 -40 27 -28 14 -112 14
-138 -1z"/>
</g>
</svg>
