<?xml version="1.0" encoding="utf-8"?>
<!-- Generator: Adobe Illustrator 24.0.0, SVG Export Plug-In . SVG Version: 6.00 Build 0)  -->
<svg version="1.1" id="Layer_2_1_" xmlns="http://www.w3.org/2000/svg" xmlns:xlink="http://www.w3.org/1999/xlink" x="0px" y="0px"
	 viewBox="0 0 1200 300" style="enable-background:new 0 0 1200 300;" xml:space="preserve">
<style type="text/css">
	.st0{fill:#5F259F;}
	.st1{fill:#FFFFFF;}
</style>
<g id="g34" transform="translate(.0248 -6.071)">
	<circle id="ellipse30" class="st0" cx="181.4" cy="155.4" r="125"/>
	<path id="path32" class="st0" d="M688.5,226.8v-45.4c0-11.2-4.2-16.8-14.7-16.8c-4.2,0-9.1,0.7-11.9,1.4v66.3
		c0,2.1-2.1,4.2-4.2,4.2h-16.1c-2.1,0-4.2-2.1-4.2-4.2v-77.5c0-2.8,2.1-4.9,4.2-5.6c10.5-3.5,20.9-5.6,32.1-5.6
		c25.1,0,39.1,13.3,39.1,37.7v51.7c0,2.1-2.1,4.2-4.2,4.2H699C692.7,237.2,688.5,232.4,688.5,226.8z M751.3,199.5l-0.7,6.3
		c0,8.4,5.6,13.3,14.7,13.3c7,0,13.3-2.1,20.2-5.6c0.7,0,1.4-0.7,2.1-0.7c1.4,0,2.1,0.7,2.8,1.4c0.7,0.7,2.1,2.8,2.1,2.8
		c1.4,2.1,2.8,4.9,2.8,7c0,3.5-2.1,7-4.9,8.4c-7.7,4.2-16.8,6.3-26.5,6.3c-11.2,0-20.2-2.8-27.2-8.4c-7-6.3-11.2-14.7-11.2-25.1
		v-27.2c0-21.6,14-34.9,37.7-34.9c23,0,36.3,12.6,36.3,34.9v16.8c0,2.1-2.1,4.2-4.2,4.2h-44L751.3,199.5z M750.6,184.2h26.5v-7
		c0-8.4-4.9-14-13.3-14s-13.3,4.9-13.3,14V184.2z M928.7,199.5l-0.7,6.3c0,8.4,5.6,13.3,14.7,13.3c7,0,13.3-2.1,20.2-5.6
		c0.7,0,1.4-0.7,2.1-0.7c1.4,0,2.1,0.7,2.8,1.4c0.7,0.7,2.1,2.8,2.1,2.8c1.4,2.1,2.8,4.9,2.8,7c0,3.5-2.1,7-4.9,8.4
		c-7.7,4.2-16.8,6.3-26.5,6.3c-11.2,0-20.2-2.8-27.2-8.4c-7-6.3-11.2-14.7-11.2-25.1v-27.2c0-21.6,14-34.9,37.7-34.9
		c23,0,36.3,12.6,36.3,34.9v16.8c0,2.1-2.1,4.2-4.2,4.2h-44L928.7,199.5z M928,184.2h26.5v-7c0-8.4-4.9-14-13.3-14
		s-13.3,4.9-13.3,14V184.2z M517.4,237.2h9.8c2.1,0,4.2-2.1,4.2-4.2v-51.7c0-23.7-12.6-37.7-33.5-37.7c-6.3,0-13.3,1.4-17.5,2.8
		v-25.8c0-5.6-4.9-10.5-10.5-10.5h-9.8c-2.1,0-4.2,2.1-4.2,4.2v118.7c0,2.1,2.1,4.2,4.2,4.2h16.1c2.1,0,4.2-2.1,4.2-4.2v-65.6
		c3.5-1.4,8.4-2.1,11.9-2.1c10.5,0,14.7,4.9,14.7,16.8v45.4C507.7,232.4,511.8,237.2,517.4,237.2z M622.9,178.6v25.8
		c0,21.6-14.7,34.9-39.1,34.9c-23.7,0-39.1-13.3-39.1-34.9v-25.8c0-21.6,14.7-34.9,39.1-34.9S622.9,157,622.9,178.6L622.9,178.6z
		 M598.4,178.6c0-8.4-4.9-14-14-14s-14,4.9-14,14v25.8c0,8.4,4.9,13.3,14,13.3s14-4.9,14-13.3V178.6z M442.7,166.7
		c0,22.3-16.8,37.7-39.1,37.7c-5.6,0-10.5-0.7-15.4-2.8v31.4c0,2.1-2.1,4.2-4.2,4.2H368c-2.1,0-4.2-2.1-4.2-4.2V122
		c0-2.8,2.1-4.9,4.2-5.6c10.5-3.5,20.9-5.6,32.1-5.6c25.1,0,42.6,15.4,42.6,39.1V166.7z M417.6,148.6c0-11.2-7.7-16.8-18.2-16.8
		c-6.3,0-10.5,2.1-10.5,2.1V180c4.2,2.1,6.3,2.8,11.2,2.8c10.5,0,18.2-6.3,18.2-16.8v-17.5H417.6z M893.8,166.7
		c0,22.3-16.8,37.7-39.1,37.7c-5.6,0-10.5-0.7-15.4-2.8v31.4c0,2.1-2.1,4.2-4.2,4.2h-16.1c-2.1,0-4.2-2.1-4.2-4.2V122
		c0-2.8,2.1-4.9,4.2-5.6c10.5-3.5,20.9-5.6,32.1-5.6c25.1,0,42.6,15.4,42.6,39.1V166.7z M868.6,148.6c0-11.2-7.7-16.8-18.2-16.8
		c-6.3,0-10.5,2.1-10.5,2.1V180c4.2,2.1,6.3,2.8,11.2,2.8c10.5,0,18.2-6.3,18.2-16.8v-17.5H868.6z"/>
</g>
<path id="path36" class="st1" d="M238.2,120.9c0-4.9-4.2-9.1-9.1-9.1h-16.8l-38.4-44c-3.5-4.2-9.1-5.6-14.7-4.2L146,67.9
	c-2.1,0.7-2.8,3.5-1.4,4.9l41.9,39.8H123c-2.1,0-3.5,1.4-3.5,3.5v7c0,4.9,4.2,9.1,9.1,9.1h9.8v33.5c0,25.1,13.3,39.8,35.6,39.8
	c7,0,12.6-0.7,19.5-3.5v22.3c0,6.3,4.9,11.2,11.2,11.2h9.8c2.1,0,4.2-2.1,4.2-4.2v-99.8h16.1c2.1,0,3.5-1.4,3.5-3.5V120.9z
	 M193.5,181c-4.2,2.1-9.8,2.8-14,2.8c-11.2,0-16.8-5.6-16.8-18.2v-33.5h30.7V181z"/>
</svg>
