<svg xmlns="http://www.w3.org/2000/svg" xmlns:xlink="http://www.w3.org/1999/xlink" viewBox="0 0 132.03 109.32"><defs><style>.cls-1,.cls-2,.cls-4,.cls-5,.cls-6{fill:none;}.cls-1,.cls-2,.cls-3,.cls-4,.cls-5,.cls-6{stroke-miterlimit:10;}.cls-1,.cls-2,.cls-4{stroke-width:2.5px;}.cls-1{stroke:url(#Orange_Yellow);}.cls-2{stroke:url(#Orange_Yellow-2);}.cls-3{fill:#ed1c24;stroke:url(#Orange_Yellow-4);}.cls-4{stroke:url(#Orange_Yellow-5);}.cls-5,.cls-6{stroke-width:2px;}.cls-5{stroke:url(#Orange_Yellow-6);}.cls-6{stroke:url(#Orange_Yellow-7);}</style><linearGradient id="Orange_Yellow" x1="58.02" y1="61.32" x2="82.84" y2="61.32" gradientUnits="userSpaceOnUse"><stop offset="0" stop-color="#fff33b"/><stop offset="0.04" stop-color="#fee72e"/><stop offset="0.12" stop-color="#fed51b"/><stop offset="0.2" stop-color="#fdca10"/><stop offset="0.28" stop-color="#fdc70c"/><stop offset="0.67" stop-color="#f3903f"/><stop offset="0.89" stop-color="#ed683c"/><stop offset="1" stop-color="#e93e3a"/></linearGradient><linearGradient id="Orange_Yellow-2" x1="79.71" y1="45.47" x2="88.18" y2="45.47" xlink:href="#Orange_Yellow"/><linearGradient id="Orange_Yellow-4" x1="80.46" y1="45.47" x2="87.43" y2="45.47" xlink:href="#Orange_Yellow"/><linearGradient id="Orange_Yellow-5" x1="95.52" y1="67.41" x2="132.03" y2="67.41" xlink:href="#Orange_Yellow"/><linearGradient id="Orange_Yellow-6" x1="0" y1="29.54" x2="77.67" y2="29.54" xlink:href="#Orange_Yellow"/><linearGradient id="Orange_Yellow-7" x1="44.33" y1="61.31" x2="96.52" y2="61.31" xlink:href="#Orange_Yellow"/></defs><g id="Layer_2" data-name="Layer 2"><g id="Layer_2-2" data-name="Layer 2"><path class="cls-1" d="M81.59,61.31A11.16,11.16,0,1,1,70.43,50.15,11.17,11.17,0,0,1,81.59,61.31Z"/><path class="cls-2" d="M86.93,45.47a3,3,0,1,1-3-3A3,3,0,0,1,86.93,45.47Z"/><path class="cls-1" d="M81.59,61.31A11.16,11.16,0,1,1,70.43,50.15,11.17,11.17,0,0,1,81.59,61.31Z"/><path class="cls-3" d="M86.93,45.47a3,3,0,1,1-3-3A3,3,0,0,1,86.93,45.47Z"/><path class="cls-4" d="M95.52,70.91h5.24l-.12,37.16h15.27q-.07-18.64-.17-37.28h12.87q1-7.34,2-14.67l-14.8.11q0-5.65.11-11.29a4.9,4.9,0,0,1,1-2.92,5.39,5.39,0,0,1,3.45-1.81h10.3V26.75h-15c-6.73,0-11.28,6-11.63,6.44a16.4,16.4,0,0,0-3.1,8.42V56.24H95.52"/><path class="cls-5" d="M64.42,36.22a42.83,42.83,0,0,0,4.06-21.55,14.58,14.58,0,0,0,3.65-2.26A13.92,13.92,0,0,0,75.59,7.9a25.77,25.77,0,0,1-4.25,1.47,24.63,24.63,0,0,1-3.86.68,14.79,14.79,0,0,0,3.71-3.23,14.75,14.75,0,0,0,2.54-4.6,26.18,26.18,0,0,1-4.62,2.15,27.58,27.58,0,0,1-4.65,1.2A15.31,15.31,0,0,0,52.78,1.16,14.62,14.62,0,0,0,40.29,11a14.13,14.13,0,0,0-.2,7.45A40,40,0,0,1,26.8,15.82,40.61,40.61,0,0,1,10,3.45a14.41,14.41,0,0,0-1.84,9.94,14.56,14.56,0,0,0,6.48,9.38,9.79,9.79,0,0,1-3.59-.36,9.28,9.28,0,0,1-3-1.51,14.93,14.93,0,0,0,4.39,10.87,14.18,14.18,0,0,0,7.4,3.71,15.63,15.63,0,0,1-6.59.23,14.63,14.63,0,0,0,13.41,9.95,25,25,0,0,1-9.13,5.08,24.78,24.78,0,0,1-12.38.51A42.55,42.55,0,0,0,25.81,58a43.63,43.63,0,0,0,19.52-3.46"/><path class="cls-6" d="M80.9,36.22H60A14.62,14.62,0,0,0,45.33,50.83v21A14.63,14.63,0,0,0,60,86.4h21A14.63,14.63,0,0,0,95.52,71.78v-21A14.62,14.62,0,0,0,80.9,36.22ZM70.43,72.48A11.17,11.17,0,1,1,81.59,61.31,11.17,11.17,0,0,1,70.43,72.48Zm13.51-24a3,3,0,1,1,3-3A3,3,0,0,1,83.94,48.46Z"/></g></g></svg>