<svg xmlns="http://www.w3.org/2000/svg" xmlns:xlink="http://www.w3.org/1999/xlink" viewBox="0 0 155.64 77.68"><defs><style>.cls-1,.cls-2,.cls-3,.cls-4,.cls-5,.cls-6,.cls-7,.cls-8{fill:none;stroke-linecap:round;stroke-miterlimit:10;}.cls-1{stroke:url(#Orange_Yellow);}.cls-2,.cls-3{stroke-width:0.8px;}.cls-2{stroke:url(#Orange_Yellow-2);}.cls-3{stroke:url(#Orange_Yellow-3);}.cls-4{stroke:url(#Orange_Yellow-4);}.cls-5{stroke:url(#Orange_Yellow-5);}.cls-6{stroke:url(#Orange_Yellow-6);}.cls-7{stroke:url(#Orange_Yellow-7);}.cls-8{stroke:url(#Orange_Yellow-8);}</style><linearGradient id="Orange_Yellow" x1="130.09" y1="15.04" x2="155.64" y2="15.04" gradientUnits="userSpaceOnUse"><stop offset="0" stop-color="#fff33b"/><stop offset="0.04" stop-color="#fee72e"/><stop offset="0.12" stop-color="#fed51b"/><stop offset="0.2" stop-color="#fdca10"/><stop offset="0.28" stop-color="#fdc70c"/><stop offset="0.67" stop-color="#f3903f"/><stop offset="0.89" stop-color="#ed683c"/><stop offset="1" stop-color="#e93e3a"/></linearGradient><linearGradient id="Orange_Yellow-2" x1="65.67" y1="52.31" x2="107.09" y2="52.71" xlink:href="#Orange_Yellow"/><linearGradient id="Orange_Yellow-3" x1="114.69" y1="37.85" x2="146.76" y2="38.16" xlink:href="#Orange_Yellow"/><linearGradient id="Orange_Yellow-4" x1="114.73" y1="23.52" x2="116.93" y2="23.54" xlink:href="#Orange_Yellow"/><linearGradient id="Orange_Yellow-5" x1="75.53" y1="28.63" x2="86.06" y2="28.73" xlink:href="#Orange_Yellow"/><linearGradient id="Orange_Yellow-6" x1="45.73" y1="33.76" x2="46.77" y2="33.77" xlink:href="#Orange_Yellow"/><linearGradient id="Orange_Yellow-7" x1="17.82" y1="20.44" x2="150.14" y2="21.7" xlink:href="#Orange_Yellow"/><linearGradient id="Orange_Yellow-8" x1="0" y1="24.82" x2="46.85" y2="24.82" xlink:href="#Orange_Yellow"/></defs><g id="Layer_2" data-name="Layer 2"><g id="Layer_2-2" data-name="Layer 2"><path class="cls-1" d="M154.85,21.46c-1.09,1.49-4.15-.58-6.94,1.39-.51.36-3.19,2.36-4.65,2.51a3,3,0,0,1-1-.08,2.72,2.72,0,0,1-1.11-.63,7.17,7.17,0,0,0-3-1.19c-1.42-.32-1.75,0-3.12-.48a4,4,0,0,1-1.47-.64,1.59,1.59,0,0,1-.51-1.34l15.75-2.32L133.35,8.42l-2.72.05c0-.65.1-1.23.15-1.73.08-.68.18-1.49.84-1.85a2.65,2.65,0,0,1,2.12.14l21,11.25a11.93,11.93,0,0,1,.39,2.46C155.17,20.23,155.2,21,154.85,21.46Z"/><path class="cls-2" d="M104.65,74.12c-.41-1.62-.84-3.24-1.26-4.85l-1-.16L83.7,41.83a5.77,5.77,0,0,1,.07-.8,6.72,6.72,0,0,1,1.7-3.36c-.16-.33-.31-.66-.47-1-.12-2.11-.25-4.21-.38-6.32l.93-.42c0-.66,0-1.3,0-1.95v0L76,29.38l-.22,0-9.41,1.43,7.29,24.89a5.24,5.24,0,0,1,.23,3.35,5.53,5.53,0,0,1-3.12,3.47l8,4.86c1.46-.54,2.92-1.09,4.39-1.62l9.7,4.51-3.23,2.07,11.45,4.86,5-2.2ZM78.46,53.93c-.14,0-.35-.16-.62-.62q-3-8-6-16c-.05-1.47.1-2.25.43-2.35s.46.14.81.58l5,6.67c.2,3.38.4,6.78.61,10.17C78.69,53.38,78.64,53.87,78.46,53.93Zm.67-17.2a.78.78,0,0,1-.33.44c-.31.16-.8,0-1.23-.46l-5.28-4.82a.81.81,0,0,1-.14-.77c.23-.54,1.36-.46,1.5-.45a2.64,2.64,0,0,1,.51.09l5,4.64A1.9,1.9,0,0,1,79.13,36.73Zm-2.3-6.56,4.5-.69c0,1.47.11,2.94.16,4.39ZM93,66.38c-.33.23-1-.21-1.2-.35-2.34-1.33-4.7-2.65-7-4a4.07,4.07,0,0,1-1.54-3c-.51-3.9-1-7.82-1.5-11.72-.08-.72.08-1.4.46-1.42s.85.27,1.19,1.08c2.76,4.79,9.37,16.39,9.75,18.26C93.19,65.49,93.33,66.16,93,66.38Z"/><path class="cls-3" d="M144.72,52.28c-.36-1-.72-2.06-1.07-3.1l-.69-.07q-7.08-8.51-14.19-17a5.17,5.17,0,0,1,0-.54,4.23,4.23,0,0,1,1.08-2.24l-.36-.64c-.17-1.35-.33-2.72-.5-4.08l.64-.32c0-.53,0-1.64,0-2.61-4.46.57-8.84,1.16-13.19,1.75l-1.2.17h0c2.19,5.7,4.93,12.56,7,17.91a3.25,3.25,0,0,1,.28,2.18,3.79,3.79,0,0,1-2.08,2.37l5.8,2.84,3-1.21,7,2.55-2.21,1.48,8.25,2.71,3.43-1.62ZM120.52,24c.14-.33.84-.29.93-.28a1.3,1.3,0,0,1,.32.06c1,1,2.06,1.92,3.08,2.89a1.12,1.12,0,0,1,0,.82.47.47,0,0,1-.21.28c-.19.1-.49,0-.76-.29l-3.28-3C120.43,24.23,120.5,24.07,120.52,24ZM125,39.15c-.08,0-.22-.09-.41-.38q-2.25-5.07-4.49-10.16c-.08-1,0-1.46.2-1.54s.31.08.55.35c1.16,1.38,2.31,2.78,3.46,4.16.25,2.2.49,4.39.75,6.59C125.09,38.79,125.07,39.12,125,39.15Zm-.67-15.9,2.49-.38.09,2.43Zm11.87,24.16c-.21.17-.68-.09-.83-.18l-5-2.37a2.61,2.61,0,0,1-.76-.79,2.79,2.79,0,0,1-.43-1.21c-.52-2.64-1-5.27-1.57-7.91-.08-.48,0-1,.25-1s.6.15.86.68c2.1,3.14,7.15,10.72,7.49,12C136.23,46.8,136.34,47.26,136.15,47.41Z"/><line class="cls-4" x1="116.43" y1="23.44" x2="115.23" y2="23.62"/><line class="cls-5" x1="85.57" y1="27.98" x2="76.02" y2="29.38"/><line class="cls-6" x1="46.27" y1="33.76" x2="46.23" y2="33.77"/><path class="cls-7" d="M148.8,18.68,133.05,21l-16.62,2.44-1.2.17h0L85.57,28v0L76,29.38l-.22,0L46.27,33.76c0-.47-.06-.89-.11-1.26L19.32,10.44l1.05,0h.2l.69,0,3-.05,1.34,0,1.18,0h2.33l2.4,0,1.54,0,.92,0,1.56,0,1.37,0,4-.07L46.81,10l3.76-.06h.26l2.29-.05,2.07,0a2.16,2.16,0,0,1,.44,0l2.28-.05,2.44,0,1.77,0,1.95,0h.56l1.94,0h.55l2,0,2.15,0,.86,0,2.06,0,2.53,0,1.27,0,2.53-.05,2.52,0,2.5-.05H86l2,0h.2l42.43-.76,2.72-.05Z"/><path class="cls-8" d="M46.28,38.05c-.24,3.28-.34,4.91-1.16,5.89-2.47,3-7.86-2.49-13.75,1-1.07.64-6.75,4.26-9.6,4.16a5.63,5.63,0,0,1-2-.46,5.42,5.42,0,0,1-2-1.73c-1-1.3-3-2.46-5.43-3.47-2.66-1.13-3.37-.61-5.9-2a7.74,7.74,0,0,1-2.66-1.85c-1.64-2.14.1-4.15-.11-9.83-.09-2.32-.22-5.74-1.62-8.09A11,11,0,0,1,1,19.21,11.3,11.3,0,0,1,.5,16.32c.63-5,1.37-9,2-11.79.31-1.48.71-3.22,2.08-3.82,1.58-.7,3.5.55,4.05.93l10.72,8.8L46.16,32.5c.05.37.08.79.11,1.26A31.9,31.9,0,0,1,46.28,38.05Z"/></g></g></svg>