<svg xmlns="http://www.w3.org/2000/svg" xmlns:xlink="http://www.w3.org/1999/xlink" viewBox="0 0 170.98 101.26"><defs><style>.cls-1,.cls-10,.cls-11,.cls-12,.cls-13,.cls-14,.cls-15,.cls-2,.cls-3,.cls-4,.cls-5,.cls-6,.cls-7,.cls-8,.cls-9{fill:none;stroke-miterlimit:10;}.cls-1,.cls-2,.cls-3,.cls-4,.cls-5,.cls-6,.cls-7{stroke-width:2px;}.cls-1{stroke:url(#Orange_Yellow);}.cls-2{stroke:url(#Orange_Yellow-2);}.cls-3{stroke:url(#Orange_Yellow-3);}.cls-4{stroke:url(#Orange_Yellow-4);}.cls-5{stroke:url(#Orange_Yellow-5);}.cls-6{stroke:url(#Orange_Yellow-6);}.cls-7{stroke:url(#Orange_Yellow-7);}.cls-10,.cls-11,.cls-12,.cls-13,.cls-14,.cls-15,.cls-8,.cls-9{stroke-width:0.5px;}.cls-8{stroke:url(#Orange_Yellow-8);}.cls-9{stroke:url(#Orange_Yellow-9);}.cls-10{stroke:url(#Orange_Yellow-10);}.cls-11{stroke:url(#Orange_Yellow-11);}.cls-12{stroke:url(#Orange_Yellow-12);}.cls-13{stroke:url(#Orange_Yellow-13);}.cls-14{stroke:url(#Orange_Yellow-14);}.cls-15{stroke:url(#Orange_Yellow-15);}</style><linearGradient id="Orange_Yellow" x1="103.7" y1="92.51" x2="103.7" y2="92.51" gradientUnits="userSpaceOnUse"><stop offset="0" stop-color="#fff33b"/><stop offset="0.04" stop-color="#fee72e"/><stop offset="0.12" stop-color="#fed51b"/><stop offset="0.2" stop-color="#fdca10"/><stop offset="0.28" stop-color="#fdc70c"/><stop offset="0.67" stop-color="#f3903f"/><stop offset="0.89" stop-color="#ed683c"/><stop offset="1" stop-color="#e93e3a"/></linearGradient><linearGradient id="Orange_Yellow-2" x1="34.29" y1="65.92" x2="144.18" y2="65.92" xlink:href="#Orange_Yellow"/><linearGradient id="Orange_Yellow-3" x1="34.42" y1="93.1" x2="90.1" y2="93.1" xlink:href="#Orange_Yellow"/><linearGradient id="Orange_Yellow-4" x1="11.3" y1="84.76" x2="38.21" y2="84.76" xlink:href="#Orange_Yellow"/><linearGradient id="Orange_Yellow-5" x1="17.59" y1="84.76" x2="31.92" y2="84.76" xlink:href="#Orange_Yellow"/><linearGradient id="Orange_Yellow-6" x1="87.84" y1="87.23" x2="114.75" y2="87.23" xlink:href="#Orange_Yellow"/><linearGradient id="Orange_Yellow-7" x1="94.13" y1="87.23" x2="108.46" y2="87.23" xlink:href="#Orange_Yellow"/><linearGradient id="Orange_Yellow-8" x1="12.08" y1="51.29" x2="155.95" y2="51.29" xlink:href="#Orange_Yellow"/><linearGradient id="Orange_Yellow-9" x1="14.64" y1="39.46" x2="158.51" y2="39.46" xlink:href="#Orange_Yellow"/><linearGradient id="Orange_Yellow-10" x1="18.07" y1="26.88" x2="161.94" y2="26.88" xlink:href="#Orange_Yellow"/><linearGradient id="Orange_Yellow-11" x1="0" y1="82.15" x2="12.84" y2="82.15" xlink:href="#Orange_Yellow"/><linearGradient id="Orange_Yellow-12" x1="30.86" y1="94.16" x2="170.98" y2="94.16" xlink:href="#Orange_Yellow"/><linearGradient id="Orange_Yellow-13" x1="33.01" y1="96.1" x2="94.85" y2="96.1" xlink:href="#Orange_Yellow"/><linearGradient id="Orange_Yellow-14" x1="2.16" y1="81.13" x2="12.49" y2="81.13" xlink:href="#Orange_Yellow"/><linearGradient id="Orange_Yellow-15" x1="109.71" y1="90.86" x2="167.65" y2="90.86" xlink:href="#Orange_Yellow"/></defs><g id="Layer_2" data-name="Layer 2"><g id="Layer_2-2" data-name="Layer 2"><path class="cls-1" d="M103.7,92.51h0"/><path class="cls-2" d="M34.64,77.19a13.22,13.22,0,0,0,1.54-.7,14,14,0,0,0,1.64-1.06c.65-1.34,1.31-2.7,2-4.07Q46.85,56.53,52.55,42c0-.29,0-.58,0-.87-.14-.91,0-1.58.33-1.67s.6.22.7.3a1.55,1.55,0,0,1,.47.85l5.76,29.07,5.88.54a83.55,83.55,0,0,0,15.51-.58,83.24,83.24,0,0,0,8.62-1.6c0-.51-.07-1-.1-1.55l42.75,8.2A17.57,17.57,0,0,1,143,81.65q-1.59,3.42-3.2,6.84a3.15,3.15,0,0,1-.57,2,3.59,3.59,0,0,1-2.91,1.32c-9.68.23-17.45.41-23.7.52"/><path class="cls-3" d="M34.68,92.28a9.74,9.74,0,0,0,1.46.28c7.56.13,13.64.52,17.89.87,0,0,15.79,1.27,23.56-.29.37-.07,1.74-.36,3.63-.58a42.44,42.44,0,0,1,8.29-.15l.54,0"/><circle class="cls-4" cx="24.75" cy="84.76" r="12.46"/><circle class="cls-5" cx="24.75" cy="84.76" r="6.16"/><circle class="cls-6" cx="101.29" cy="87.23" r="12.46"/><circle class="cls-7" cx="101.29" cy="87.23" r="6.16"/><path class="cls-8" d="M155.81,78,140.39,67.68C118.5,55.24,103.08,54.25,92.73,56c-4.63.78-8.87,2.21-13.56,0C69.24,51.3,72,37.15,60,28.89c-1.25-.87-6.65-4.59-13.08-4.2-10.49.63-26.84,11-34.63,23.83"/><path class="cls-9" d="M158.37,66.13,143,55.85c-21.89-12.44-37.31-13.43-47.67-11.68-4.63.78-8.87,2.21-13.55,0-9.94-4.69-7.2-18.84-19.16-27.1-1.26-.87-6.65-4.6-13.09-4.21-10.48.63-26.84,11-34.63,23.83"/><path class="cls-10" d="M161.8,53.55,146.38,43.27c-21.89-12.44-37.31-13.43-47.66-11.68-4.63.78-8.87,2.21-13.55,0C75.23,26.9,78,12.75,66,4.48,64.75,3.62,59.35-.11,52.92.28c-10.48.63-26.84,11-34.63,23.83"/><path class="cls-11" d="M.2,76.28a83.43,83.43,0,0,0,7.25,7.64,36.45,36.45,0,0,0,5.26,4"/><path class="cls-12" d="M30.92,95.57c2.67.73,5.14,1.26,7.26,1.68,14.88,2.86,28.23,3.58,41.71,3.73,37,.42,30.62-3.86,50.71-2,10.74,1,21.62,3.08,31.65-3.39a30.45,30.45,0,0,0,8.53-8.41"/><path class="cls-13" d="M33.06,94l1.77.36c14.9,2.88,28.24,3.6,41.71,3.75,7.81.08,13.7,0,18.3-.26"/><path class="cls-14" d="M2.36,76.28a43.76,43.76,0,0,0,5.25,5.85,41.85,41.85,0,0,0,4.74,3.79"/><path class="cls-15" d="M109.74,96.38c4.74-.67,8.42-1.08,17.51-.23,10.76,1,21.63,3.07,31.65-3.39a30.26,30.26,0,0,0,8.54-8.42"/></g></g></svg>