<?xml version="1.0" encoding="utf-8"?>
<!-- Generator: Adobe Illustrator 24.0.0, SVG Export Plug-In . SVG Version: 6.00 Build 0)  -->
<svg version="1.1" id="Layer_1" xmlns="http://www.w3.org/2000/svg" xmlns:xlink="http://www.w3.org/1999/xlink" x="0px" y="0px"
	 viewBox="0 0 158.5 74" style="enable-background:new 0 0 158.5 74;" xml:space="preserve">
<style type="text/css">
	.st0{fill:none;stroke:url(#SVGID_1_);stroke-width:2;stroke-miterlimit:10;}
	.st1{fill:none;stroke:url(#SVGID_2_);stroke-width:2;stroke-miterlimit:10;}
	.st2{fill:none;stroke:url(#SVGID_3_);stroke-width:2;stroke-miterlimit:10;}
	.st3{fill:none;stroke:url(#SVGID_4_);stroke-width:2;stroke-miterlimit:10;}
	.st4{fill:none;stroke:url(#SVGID_5_);stroke-width:2;stroke-miterlimit:10;}
	.st5{fill:none;stroke:url(#SVGID_6_);stroke-width:2;stroke-miterlimit:10;}
</style>
<g id="Layer_2_1_">
	<g id="Layer_2-2">
		
			<linearGradient id="SVGID_1_" gradientUnits="userSpaceOnUse" x1="33.1114" y1="43.7991" x2="150.0286" y2="43.7991" gradientTransform="matrix(1 0 0 -1 0 76)">
			<stop  offset="0" style="stop-color:#FFF33B"/>
			<stop  offset="4.000000e-02" style="stop-color:#FEE72E"/>
			<stop  offset="0.12" style="stop-color:#FED51B"/>
			<stop  offset="0.2" style="stop-color:#FDCA10"/>
			<stop  offset="0.28" style="stop-color:#FDC70C"/>
			<stop  offset="0.67" style="stop-color:#F3903F"/>
			<stop  offset="0.89" style="stop-color:#ED683C"/>
			<stop  offset="1" style="stop-color:#E93E3A"/>
		</linearGradient>
		<path class="st0" d="M33.4,43.4c0.6-0.2,1.1-0.4,1.6-0.7c0.6-0.3,1.2-0.7,1.7-1c0.7-1.3,1.4-2.7,2.1-4.1c5-9.8,9.5-19.5,13.6-29.2
			c0-0.3,0-0.6,0-0.8c-0.1-0.9,0-1.6,0.3-1.7c0.3-0.1,0.6,0.2,0.7,0.3c0.3,0.2,0.4,0.5,0.5,0.8L60.2,36l6.2,0.5
			c5.5,0.3,11,0.1,16.5-0.6c3.1-0.4,6.2-0.9,9.2-1.6c0-0.5-0.1-1-0.1-1.5l45.5,8.2c2.1,0.4,4.1,1.2,6,2.3c2.1,1.2,3.9,2.8,5.3,4.6
			c-1.1,2.3-2.3,4.5-3.4,6.8c0,0.7-0.2,1.4-0.6,2c-0.8,0.9-1.9,1.4-3.1,1.3c-10.3,0.2-18.6,0.4-25.2,0.5"/>
		
			<linearGradient id="SVGID_2_" gradientUnits="userSpaceOnUse" x1="33.2412" y1="16.8352" x2="92.4404" y2="16.8352" gradientTransform="matrix(1 0 0 -1 0 76)">
			<stop  offset="0" style="stop-color:#FFF33B"/>
			<stop  offset="4.000000e-02" style="stop-color:#FEE72E"/>
			<stop  offset="0.12" style="stop-color:#FED51B"/>
			<stop  offset="0.2" style="stop-color:#FDCA10"/>
			<stop  offset="0.28" style="stop-color:#FDC70C"/>
			<stop  offset="0.67" style="stop-color:#F3903F"/>
			<stop  offset="0.89" style="stop-color:#ED683C"/>
			<stop  offset="1" style="stop-color:#E93E3A"/>
		</linearGradient>
		<path class="st1" d="M33.5,58.4c0.5,0.1,1,0.2,1.6,0.3c8,0.1,14.5,0.5,19.1,0.8c0,0,16.8,1.3,25.1-0.3c0.4-0.1,1.9-0.4,3.9-0.6
			c2.9-0.3,5.9-0.4,8.8-0.1h0.6"/>
		
			<linearGradient id="SVGID_3_" gradientUnits="userSpaceOnUse" x1="8.6475" y1="25.0838" x2="37.1797" y2="25.0838" gradientTransform="matrix(1 0 0 -1 0 76)">
			<stop  offset="0" style="stop-color:#FFF33B"/>
			<stop  offset="4.000000e-02" style="stop-color:#FEE72E"/>
			<stop  offset="0.12" style="stop-color:#FED51B"/>
			<stop  offset="0.2" style="stop-color:#FDCA10"/>
			<stop  offset="0.28" style="stop-color:#FDC70C"/>
			<stop  offset="0.67" style="stop-color:#F3903F"/>
			<stop  offset="0.89" style="stop-color:#ED683C"/>
			<stop  offset="1" style="stop-color:#E93E3A"/>
		</linearGradient>
		<ellipse class="st2" cx="22.9" cy="50.9" rx="13.3" ry="12.4"/>
		
			<linearGradient id="SVGID_4_" gradientUnits="userSpaceOnUse" x1="15.3518" y1="25.0838" x2="30.4754" y2="25.0838" gradientTransform="matrix(1 0 0 -1 0 76)">
			<stop  offset="0" style="stop-color:#FFF33B"/>
			<stop  offset="4.000000e-02" style="stop-color:#FEE72E"/>
			<stop  offset="0.12" style="stop-color:#FED51B"/>
			<stop  offset="0.2" style="stop-color:#FDCA10"/>
			<stop  offset="0.28" style="stop-color:#FDC70C"/>
			<stop  offset="0.67" style="stop-color:#F3903F"/>
			<stop  offset="0.89" style="stop-color:#ED683C"/>
			<stop  offset="1" style="stop-color:#E93E3A"/>
		</linearGradient>
		<ellipse class="st3" cx="22.9" cy="50.9" rx="6.6" ry="6.1"/>
		
			<linearGradient id="SVGID_5_" gradientUnits="userSpaceOnUse" x1="90.1494" y1="22.6317" x2="118.6816" y2="22.6317" gradientTransform="matrix(1 0 0 -1 0 76)">
			<stop  offset="0" style="stop-color:#FFF33B"/>
			<stop  offset="4.000000e-02" style="stop-color:#FEE72E"/>
			<stop  offset="0.12" style="stop-color:#FED51B"/>
			<stop  offset="0.2" style="stop-color:#FDCA10"/>
			<stop  offset="0.28" style="stop-color:#FDC70C"/>
			<stop  offset="0.67" style="stop-color:#F3903F"/>
			<stop  offset="0.89" style="stop-color:#ED683C"/>
			<stop  offset="1" style="stop-color:#E93E3A"/>
		</linearGradient>
		<ellipse class="st4" cx="104.4" cy="53.4" rx="13.3" ry="12.4"/>
		
			<linearGradient id="SVGID_6_" gradientUnits="userSpaceOnUse" x1="96.8537" y1="22.6317" x2="111.9774" y2="22.6317" gradientTransform="matrix(1 0 0 -1 0 76)">
			<stop  offset="0" style="stop-color:#FFF33B"/>
			<stop  offset="4.000000e-02" style="stop-color:#FEE72E"/>
			<stop  offset="0.12" style="stop-color:#FED51B"/>
			<stop  offset="0.2" style="stop-color:#FDCA10"/>
			<stop  offset="0.28" style="stop-color:#FDC70C"/>
			<stop  offset="0.67" style="stop-color:#F3903F"/>
			<stop  offset="0.89" style="stop-color:#ED683C"/>
			<stop  offset="1" style="stop-color:#E93E3A"/>
		</linearGradient>
		<ellipse class="st5" cx="104.4" cy="53.4" rx="6.6" ry="6.1"/>
	</g>
</g>
</svg>
