<svg xmlns="http://www.w3.org/2000/svg" xmlns:xlink="http://www.w3.org/1999/xlink" viewBox="0 0 82.44 103.35"><defs><style>.cls-1,.cls-10,.cls-11,.cls-12,.cls-13,.cls-14,.cls-2,.cls-3,.cls-4,.cls-5,.cls-6,.cls-7,.cls-8,.cls-9{fill:none;stroke-miterlimit:10;}.cls-1{stroke:url(#Orange_Yellow);}.cls-2{stroke:url(#Orange_Yellow-2);}.cls-3{stroke:url(#Orange_Yellow-3);}.cls-4{stroke:url(#Orange_Yellow-4);}.cls-5{stroke:url(#Orange_Yellow-5);}.cls-6{stroke:url(#Orange_Yellow-6);}.cls-7{stroke:url(#Orange_Yellow-7);}.cls-8{stroke:url(#Orange_Yellow-8);}.cls-9{stroke:url(#Orange_Yellow-9);}.cls-10{stroke:url(#Orange_Yellow-10);}.cls-11{stroke:url(#Orange_Yellow-11);}.cls-12{stroke:url(#Orange_Yellow-12);}.cls-13{stroke:url(#Orange_Yellow-13);}.cls-14{stroke:url(#Orange_Yellow-14);}</style><linearGradient id="Orange_Yellow" y1="47.64" x2="73.77" y2="47.64" gradientUnits="userSpaceOnUse"><stop offset="0" stop-color="#fff33b"/><stop offset="0.04" stop-color="#fee72e"/><stop offset="0.12" stop-color="#fed51b"/><stop offset="0.2" stop-color="#fdca10"/><stop offset="0.28" stop-color="#fdc70c"/><stop offset="0.67" stop-color="#f3903f"/><stop offset="0.89" stop-color="#ed683c"/><stop offset="1" stop-color="#e93e3a"/></linearGradient><linearGradient id="Orange_Yellow-2" x1="8.68" y1="55.71" x2="82.44" y2="55.71" xlink:href="#Orange_Yellow"/><linearGradient id="Orange_Yellow-3" x1="4.17" y1="51.56" x2="77.94" y2="51.56" xlink:href="#Orange_Yellow"/><linearGradient id="Orange_Yellow-4" x1="7.22" y1="8.57" x2="42.2" y2="8.57" xlink:href="#Orange_Yellow"/><linearGradient id="Orange_Yellow-5" x1="7.22" y1="28.27" x2="67.99" y2="28.27" xlink:href="#Orange_Yellow"/><linearGradient id="Orange_Yellow-6" x1="7.22" y1="45.82" x2="67.99" y2="45.82" xlink:href="#Orange_Yellow"/><linearGradient id="Orange_Yellow-7" x1="7.22" y1="39.76" x2="67.99" y2="39.76" xlink:href="#Orange_Yellow"/><linearGradient id="Orange_Yellow-8" x1="7.22" y1="34.01" x2="67.99" y2="34.01" xlink:href="#Orange_Yellow"/><linearGradient id="Orange_Yellow-9" x1="7.22" y1="51.56" x2="67.99" y2="51.56" xlink:href="#Orange_Yellow"/><linearGradient id="Orange_Yellow-10" x1="7.22" y1="69.11" x2="67.99" y2="69.11" xlink:href="#Orange_Yellow"/><linearGradient id="Orange_Yellow-11" x1="7.22" y1="63.05" x2="67.99" y2="63.05" xlink:href="#Orange_Yellow"/><linearGradient id="Orange_Yellow-12" x1="7.22" y1="57.3" x2="67.99" y2="57.3" xlink:href="#Orange_Yellow"/><linearGradient id="Orange_Yellow-13" x1="7.22" y1="81.24" x2="67.99" y2="81.24" xlink:href="#Orange_Yellow"/><linearGradient id="Orange_Yellow-14" x1="7.22" y1="75.18" x2="67.99" y2="75.18" xlink:href="#Orange_Yellow"/></defs><g id="Layer_2" data-name="Layer 2"><g id="Layer_2-2" data-name="Layer 2"><rect class="cls-1" x="0.5" y="0.5" width="72.77" height="94.28"/><polyline class="cls-2" points="77.44 8.57 81.94 8.57 81.94 102.85 9.18 102.85 9.18 98.69"/><polyline class="cls-3" points="73.27 4.42 77.44 4.42 77.44 8.57 77.44 98.69 9.18 98.69 4.67 98.69 4.67 94.78"/><line class="cls-4" x1="7.22" y1="8.57" x2="42.2" y2="8.57"/><line class="cls-5" x1="7.22" y1="28.27" x2="67.99" y2="28.27"/><line class="cls-6" x1="7.22" y1="45.82" x2="67.99" y2="45.82"/><line class="cls-7" x1="7.22" y1="39.76" x2="67.99" y2="39.76"/><line class="cls-8" x1="7.22" y1="34.01" x2="67.99" y2="34.01"/><line class="cls-9" x1="7.22" y1="51.56" x2="67.99" y2="51.56"/><line class="cls-10" x1="7.22" y1="69.11" x2="67.99" y2="69.11"/><line class="cls-11" x1="7.22" y1="63.05" x2="67.99" y2="63.05"/><line class="cls-12" x1="7.22" y1="57.3" x2="67.99" y2="57.3"/><line class="cls-13" x1="7.22" y1="81.24" x2="67.99" y2="81.24"/><line class="cls-14" x1="7.22" y1="75.18" x2="67.99" y2="75.18"/></g></g></svg>