<?xml version="1.0" encoding="utf-8"?>
<!-- Generator: Adobe Illustrator 24.0.0, SVG Export Plug-In . SVG Version: 6.00 Build 0)  -->
<svg version="1.1" xmlns="http://www.w3.org/2000/svg" xmlns:xlink="http://www.w3.org/1999/xlink" x="0px" y="0px"
	 viewBox="0 0 500 500" style="enable-background:new 0 0 500 500;" xml:space="preserve">
<style type="text/css">
	.st0{fill:url(#SVGID_1_);}
	.st1{opacity:0.6;}
	.st2{opacity:0;fill:#5A5A59;}
	.st3{opacity:9.090909e-02;fill:#5A5A59;}
	.st4{opacity:0.1818;fill:#5A5A59;}
	.st5{opacity:0.2727;fill:#5A5A59;}
	.st6{opacity:0.3636;fill:#5A5A59;}
	.st7{opacity:0.4545;fill:#5A5A59;}
	.st8{opacity:0.5455;fill:#5A5A59;}
	.st9{opacity:0.6364;fill:#5A5A59;}
	.st10{opacity:0.7273;fill:#5A5A59;}
	.st11{opacity:0.8182;fill:#5A5A59;}
	.st12{opacity:0.9091;fill:#5A5A59;}
	.st13{fill:#5A5A59;}
	.st14{fill:#FFFFFF;}
	.st15{fill:#009FE3;}
	.st16{fill:#DADADA;}
	.st17{fill:#737F86;}
	.st18{fill:#8D8F8F;}
	.st19{fill:#AEB0B0;}
	.st20{fill:#DCDCDC;}
	.st21{fill:#EAF6FE;}
	.st22{fill:#C9DDEA;}
	.st23{fill:#37285E;}
	.st24{fill:#F2A68E;}
	.st25{fill:#009684;}
	.st26{fill:#FC9D83;}
	.st27{fill:#263139;}
	.st28{fill:#2A4B5B;}
	.st29{fill:#402F6D;}
	.st30{fill:#1E3642;}
	.st31{fill:#FFAB91;}
	.st32{fill:#00B99A;}
	.st33{fill:#F7A514;}
	.st34{fill:#E8C0A8;}
	.st35{fill:#0078B1;}
	.st36{fill:#00181E;}
	.st37{fill:#18435B;}
	.st38{fill:#1A4963;}
	.st39{fill:#CC9A7B;}
	.st40{fill:#7F4F22;}
	.st41{fill:url(#SVGID_2_);}
	.st42{fill:#93712C;}
	.st43{fill:none;stroke:#4B2B19;stroke-width:0.2119;stroke-miterlimit:10;}
	.st44{fill:#A56052;}
	.st45{fill:#5EC0EE;}
	.st46{fill:#013752;}
	.st47{fill:none;stroke:#013752;stroke-width:0.25;stroke-miterlimit:10;}
	.st48{fill:#FDC300;}
	.st49{fill:#FFEE00;}
	.st50{font-family:'Raleway-Medium';}
	.st51{font-size:11.6902px;}
	.st52{letter-spacing:2.5;}
	.st53{font-size:10.3576px;}
	.st54{font-family:'Raleway-Black';}
	.st55{font-size:12.1747px;}
	.st56{fill:#A5B7C6;}
</style>
<g id="BACKGROUND">
	<radialGradient id="SVGID_1_" cx="248.724" cy="251.013" r="405.8051" gradientUnits="userSpaceOnUse">
		<stop  offset="0" style="stop-color:#FFFFFF"/>
		<stop  offset="0.2788" style="stop-color:#FBFBFB"/>
		<stop  offset="0.5606" style="stop-color:#EFEFEF"/>
		<stop  offset="0.8428" style="stop-color:#DBDBDB"/>
		<stop  offset="1" style="stop-color:#CCCCCC"/>
	</radialGradient>
	<rect class="st0" width="500" height="500"/>
</g>
<g id="OBJECTS">
	<g class="st1">
		<path class="st2" d="M435.3,226.5H79.7c-1.9,0-3.5-1.6-3.5-3.5V24.9c0-1.9,1.6-3.5,3.5-3.5h355.6c1.9,0,3.5,1.6,3.5,3.5V223
			C438.8,225,437.3,226.5,435.3,226.5z"/>
		<path class="st3" d="M434.5,225.9H78.9c-1.9,0-3.5-1.6-3.5-3.5V24.3c0-1.9,1.6-3.5,3.5-3.5h355.6c1.9,0,3.5,1.6,3.5,3.5v198.1
			C438,224.3,436.5,225.9,434.5,225.9z"/>
		<path class="st4" d="M433.7,225.2H78.1c-1.9,0-3.5-1.6-3.5-3.5V23.6c0-1.9,1.6-3.5,3.5-3.5h355.6c1.9,0,3.5,1.6,3.5,3.5v198.1
			C437.2,223.6,435.7,225.2,433.7,225.2z"/>
		<path class="st5" d="M432.9,224.5H77.3c-1.9,0-3.5-1.6-3.5-3.5V22.9c0-1.9,1.6-3.5,3.5-3.5h355.6c1.9,0,3.5,1.6,3.5,3.5V221
			C436.4,222.9,434.9,224.5,432.9,224.5z"/>
		<path class="st6" d="M432.1,223.8H76.5c-1.9,0-3.5-1.6-3.5-3.5V22.2c0-1.9,1.6-3.5,3.5-3.5h355.6c1.9,0,3.5,1.6,3.5,3.5v198.1
			C435.6,222.2,434.1,223.8,432.1,223.8z"/>
		<path class="st7" d="M431.3,223.1H75.7c-1.9,0-3.5-1.6-3.5-3.5V21.5c0-1.9,1.6-3.5,3.5-3.5h355.6c1.9,0,3.5,1.6,3.5,3.5v198.1
			C434.8,221.6,433.3,223.1,431.3,223.1z"/>
		<path class="st8" d="M430.5,222.5H74.9c-1.9,0-3.5-1.6-3.5-3.5V20.9c0-1.9,1.6-3.5,3.5-3.5h355.6c1.9,0,3.5,1.6,3.5,3.5V219
			C434,220.9,432.5,222.5,430.5,222.5z"/>
		<path class="st9" d="M429.7,221.8H74.1c-1.9,0-3.5-1.6-3.5-3.5V20.2c0-1.9,1.6-3.5,3.5-3.5h355.6c1.9,0,3.5,1.6,3.5,3.5v198.1
			C433.2,220.2,431.7,221.8,429.7,221.8z"/>
		<path class="st10" d="M428.9,221.1H73.3c-1.9,0-3.5-1.6-3.5-3.5V19.5c0-1.9,1.6-3.5,3.5-3.5h355.6c1.9,0,3.5,1.6,3.5,3.5v198.1
			C432.4,219.5,430.8,221.1,428.9,221.1z"/>
		<path class="st11" d="M428.1,220.4H72.5c-1.9,0-3.5-1.6-3.5-3.5V18.8c0-1.9,1.6-3.5,3.5-3.5h355.6c1.9,0,3.5,1.6,3.5,3.5v198.1
			C431.6,218.8,430,220.4,428.1,220.4z"/>
		<path class="st12" d="M427.3,219.7H71.7c-1.9,0-3.5-1.6-3.5-3.5V18.1c0-1.9,1.6-3.5,3.5-3.5h355.6c1.9,0,3.5,1.6,3.5,3.5v198.1
			C430.8,218.2,429.2,219.7,427.3,219.7z"/>
		<path class="st13" d="M426.5,219.1H70.9c-1.9,0-3.5-1.6-3.5-3.5V17.5c0-1.9,1.6-3.5,3.5-3.5h355.6c1.9,0,3.5,1.6,3.5,3.5v198.1
			C430,217.5,428.4,219.1,426.5,219.1z"/>
	</g>
	<g>
		<path class="st14" d="M70.9,219.1h355.6c1.9,0,3.5-1.6,3.5-3.5V17.5c0-1.9-1.6-3.5-3.5-3.5H70.9c-1.9,0-3.5,1.6-3.5,3.5v198.1
			C67.4,217.5,68.9,219.1,70.9,219.1z"/>
		<path class="st15" d="M192.8,73.2c-27.5-31.9-39.5-50.4-39-59.3H70.2c-1.6,0-2.8,1.1-2.8,2.4v200.3c0,1.3,1.3,2.4,2.8,2.4h91.7
			c14.5-28,49.4-49.4,56.1-80C223.2,115.6,209.4,92.5,192.8,73.2z"/>
		<ellipse class="st16" cx="260.7" cy="193.3" rx="19.7" ry="1.5"/>
		<ellipse class="st16" cx="316.2" cy="185.1" rx="59.1" ry="1.6"/>
		<rect x="309.4" y="14" class="st17" width="0.4" height="25.9"/>
		<rect x="317.1" y="14" class="st17" width="0.4" height="25.9"/>
		<polygon class="st18" points="332.8,182 300.1,182 301.6,169.1 331.4,169.1 		"/>
		<path class="st19" d="M343.8,181.5h-55.9c-1.3,0-2.4,1.1-2.4,2.4v1.1h60.7v-1.1C346.2,182.5,345.1,181.5,343.8,181.5z"/>
		<path class="st20" d="M247.3,170.4h138.2c3.8,0,6.9-3.1,6.9-6.9V87.3c0-3.8-3.1-6.9-6.9-6.9H247.3c-3.8,0-6.9,3.1-6.9,6.9v76.2
			C240.4,167.3,243.5,170.4,247.3,170.4z"/>
		<rect x="244.9" y="84.8" class="st21" width="141.8" height="67.2"/>
		<rect x="247.5" y="89" class="st22" width="41.5" height="19"/>
		<rect x="247.5" y="109.6" class="st22" width="41.5" height="19"/>
		<rect x="247.5" y="130.2" class="st22" width="41.5" height="19"/>
		<rect x="338.5" y="89" class="st22" width="12.1" height="38.3"/>
		<rect x="354.3" y="89" class="st22" width="28.2" height="9.1"/>
		<rect x="354.3" y="100.9" class="st22" width="28.2" height="47.7"/>
		<rect x="338.5" y="130.2" class="st22" width="12.1" height="19"/>
		<path class="st19" d="M240.4,156.9v9.8c0,2,1.9,3.7,4.3,3.7h143.4c2.4,0,4.3-1.6,4.3-3.7v-9.8H240.4z"/>
		<g>
			<g>
				<rect x="253.5" y="163.6" class="st23" width="21.5" height="1.2"/>
				<rect x="255.2" y="150.2" class="st23" width="21.5" height="1.2"/>
				<rect x="256.9" y="136.7" class="st23" width="21.5" height="1.2"/>
				<rect x="258.7" y="123.3" class="st23" width="21.5" height="1.2"/>
				<path class="st23" d="M270.7,192.7l10-80.9c0-0.4,0.4-0.7,0.9-0.7l0,0c0.5,0,1,0.4,0.9,0.9l-10,80.9c0,0.4-0.4,0.7-0.9,0.7l0,0
					C271.1,193.6,270.6,193.2,270.7,192.7z"/>
				<path class="st23" d="M248.7,192.7l10-80.9c0-0.4,0.4-0.7,0.9-0.7l0,0c0.5,0,1,0.4,0.9,0.9l-10,80.9c0,0.4-0.4,0.7-0.9,0.7l0,0
					C249.1,193.6,248.6,193.2,248.7,192.7z"/>
				<rect x="251.7" y="177" class="st23" width="21.5" height="1.2"/>
			</g>
			<path class="st24" d="M258.7,130.4c-0.5-0.3-1-0.5-1.5-0.9c-0.4-0.4-0.7-0.8-0.6-1.3c-0.1,0-0.3,0.1-0.3,0.2
				c-0.1,0.1-0.1,0.3-0.1,0.4c0,0.1,0,0.2,0.1,0.4c-0.1,0.1-0.2,0.2-0.2,0.4c0,0.2,0,0.4,0,0.5c0,0.2-0.2,0.4-0.2,0.5
				c-0.2,0.4,0.1,0.9-0.1,1.3l0,0c-0.1,0.3-0.2,0.6-0.3,0.9c0.5,0.1,0.9,0.2,1.4,0.3c0.3-0.3,0.5-0.5,0.8-0.8
				c0.4-0.4,0.8-0.7,1.3-0.9c0.1,0,0.1-0.1,0.2-0.1h0c0.4-0.6,0.5-1.4,0.7-2.1c0-0.1,0-0.1,0-0.2c-0.1-0.1-0.2,0-0.3,0
				c-0.3,0.2-0.4,0.5-0.5,0.7C258.8,130,258.8,130.2,258.7,130.4z"/>
			<path class="st25" d="M255.5,132.4c-1,1.6-1.5,6.1,0.3,7.2c2-1.4,2-6.8,2-6.8S256.4,131.7,255.5,132.4z"/>
			<g id="g39743_1_" transform="matrix(-1,0,0,1,25198.801,10807.884)">
				<path id="rect39745_2_" class="st26" d="M24937.5-10682.3h-1.2c-0.8,0-1.4,0.5-1.4,1.2v3.2c0,0.6,0.6,1.2,1.4,1.2h1.2
					c0.8,0,1.4-0.5,1.4-1.2v-3.2C24938.8-10681.8,24938.2-10682.3,24937.5-10682.3z"/>
				<path id="path39755_1_" class="st27" d="M24932.5-10632.8l0.3,2h-4.2l2.8-2L24932.5-10632.8z"/>
				<path id="path39757_1_" class="st28" d="M24930.5-10659.9c0,0,0.2-3.2,4-3.2s3.3,3.2,3.3,3.2l-5.1,27.4h-2L24930.5-10659.9z"/>
				<path id="path39759_2_" class="st29" d="M24932-10684.8c0,2.5,2.5,5.5,5.7,5.5s5.7-3,5.7-5.5c0-2.5-0.4-4.3-5.7-4.3
					S24932-10687.3,24932-10684.8z"/>
				<path id="path39763_1_" class="st27" d="M24942.2-10632.8l0.3,2h-4.2l2.8-2L24942.2-10632.8z"/>
				<path id="path39765_1_" class="st30" d="M24936.2-10659.5c0,0-0.3-3.1,3.5-3.1c3.8,0,3.7,3.1,3.7,3.1l-1.1,27.1h-2
					L24936.2-10659.5z"/>
				<path id="path39767_1_" class="st28" d="M24943.5-10662.7v3.1c0,0-1.3,4.4-6.4,4.5c-0.2,0-0.4,0-0.6,0c-4.8-0.3-6.1-4.5-6.1-4.5
					v-3.1H24943.5L24943.5-10662.7z"/>
				<path id="ellipse39769_2_" class="st31" d="M24936.9-10687.7c-2.8,0-5.1,2-5.3,4.4c-0.2,2.5,2,4.4,4.7,4.4c2.8,0,5.1-2,5.3-4.4
					C24941.8-10685.7,24939.6-10687.7,24936.9-10687.7z"/>
				<path id="path39771_2_" class="st29" d="M24934.5-10688.2c4.3,0,6,1.3,6,1.3l1.8,2.9l-0.6,2.8c0,0-1,1.4-1.8,1.7
					c-0.8,0.3-2.5,0.5-3.8,0s-2.7-3-2.7-3l-0.5-2.6c0,0-2.9-0.1-1.4-0.7c0.9-0.4,0.6-1.6,1.6-2.4
					C24933.6-10688.2,24934.1-10688.2,24934.5-10688.2L24934.5-10688.2z"/>
				<path id="ellipse39773_2_" class="st31" d="M24933.4-10684.3c-0.5,0-1,0.6-1,1.4c0,0.8,0.4,1.4,0.9,1.4c0.5,0,1-0.6,1-1.4
					C24934.4-10683.6,24934-10684.3,24933.4-10684.3z"/>
				<path id="path39775_2_" class="st29" d="M24940.7-10687.8c0,0.9,1.9,4.7,2.3,4.7s0.6-3,0.6-3.9c0-0.9-0.8-1.8-1.5-1.8
					C24940.7-10688.8,24940.7-10688.7,24940.7-10687.8z"/>
				<path id="path39777_2_" class="st29" d="M24932.6-10687.5c0,0.3,3.1,0.3,5.1,0.3s3.6-0.2,3.6-1.4c0-1.2-1.6-1.4-3.6-1.4
					C24933.9-10689.9,24932.6-10687.8,24932.6-10687.5z"/>
				<g id="g39779_1_" transform="matrix(-0.81428574,0.58046423,0.58046423,0.81428574,3854.3915,-2185.6952)">
					<g>
						<g>
							<path class="st31" d="M-22077.6,5312.9c-0.7,1.1-1,2.2-1.7,2.3c-0.7,0.1-0.6-3-0.6-3.7c0.1-0.6,1-1.1,2.3-0.4
								C-22077.1,5311.4-22077,5312-22077.6,5312.9z"/>
						</g>
						<path class="st31" d="M-22079.2,5312.3c-0.1,0.1-0.2,0.1-0.2,0.1c-0.2,0-0.4-0.1-0.4-0.4l0.2-2.4c0-0.2,0.2-0.4,0.4-0.4
							s0.4,0.1,0.4,0.4l-0.2,2.4C-22079.1,5312.1-22079.1,5312.2-22079.2,5312.3z"/>
					</g>
					<path id="path39783_1_" class="st32" d="M-22090.8,5322.2l9.1-0.1c1.2,0,2,0.9,1.8,1.9c-0.2,1-1.3,1.7-2.5,1.7l-10.7,0.7
						c-2.1,0.1-2.1-1.5-1.7-2.5C-22094.1,5322.2-22092,5322.3-22090.8,5322.2z"/>
					<path id="path39785_1_" class="st32" d="M-22081.4,5325.3c1,0,2-0.9,2.2-2l1.4-9.9l-2.3-0.1l-2.9,9.9
						C-22083.3,5324.4-22082.5,5325.3-22081.4,5325.3L-22081.4,5325.3z"/>
				</g>
				<path id="path39761_1_" class="st32" d="M24937-10678.2c4.8,0,6.5,2.9,6.5,8.4l0.6,8.4c0,0-1.7,0.5-6.9,0.5s-8.2-1.2-8.2-1.2
					s0.1-2.3,1.5-7.7C24931.9-10675.2,24932.2-10678.2,24937-10678.2z"/>
			</g>
		</g>
		<path class="st33" d="M263.2,118.1c0,0,2.6,0,3.2,0.1s0,1.8-0.1,1.9C266.3,120.2,264.2,118.9,263.2,118.1z"/>
		<g>
			<path class="st34" d="M342.1,64c0,0-2.5,0.2-2.6-0.1c-0.1-0.3,1-0.5,1-0.5s-1.3-2.7-1-3c0.2-0.2,3.1,2.6,3.1,2.6L342.1,64z"/>
			<g>
				<path class="st35" d="M356.6,66.4c3.3-1.2,4.5,0.5,4.5,1.5c-0.1,1-1.7,2.2-4.1,2.4c-9,0.5-15.2-5.9-15.2-6
					c-0.3-0.9,0.1-1.2,0.9-1.5C347.4,66.6,351.9,68.1,356.6,66.4z"/>
			</g>
			<g>
				<path class="st36" d="M353.5,96.4c0,0-0.4,1.8-1.5,2.4c-0.3,0.7,3.5-1,4.1-1.9c0.4-0.5-0.8-1.2-0.8-1.2L353.5,96.4z"/>
				<path class="st37" d="M352.5,80.4C352.5,80.3,352.5,80.3,352.5,80.4c0.3-0.6,0.5-1.1,0.7-1.7l1.1,0.1c0.8,0.2,1.7,0.4,2.6,0.5
					c0.1,0.4,0,0.7-0.2,1.1H352.5z"/>
				<path class="st38" d="M350.3,85.1c0.8-0.8,6.2-5.3,5.8-5.8c2.5,0.1,9.1-1.8,9.1-1.8c0.6,1.5,0,2.8-0.6,3.2c-2,1.5-7.8,5.1-9.7,6
					c0.6,4.7,0.9,6,0.8,9.1c-0.9,0.5-1.8,0.7-2.4,0.8c-0.6-3.1-2.3-6-3.4-9C349.8,86.9,349.5,86,350.3,85.1z"/>
			</g>
			<g>
				<path class="st34" d="M355.8,63l-0.2,1.9c0,0,2.7-0.4,3.4-1.3l-0.1-1.8L355.8,63z"/>
				<path class="st39" d="M359,61.9l-3.2,1.1l-0.1,1.4c1.2-0.4,2.4-1.4,3.3-1.8L359,61.9z"/>
				<path class="st15" d="M355.4,64.7c0,0,0,2.7-2.6,13.9c0,0,8.1,3.1,12.8-1.2c0,0-1.2-11-6.4-14.3
					C359.2,63.1,356.7,63.9,355.4,64.7z"/>
				<g>
					<g>
						<path class="st34" d="M359.3,61.7c0,0-4,3.5-5.6,2.8c-0.2-0.1-1.1-1.3-1.6-2.2c-0.8-1.3-1.6-3-1.6-4.3
							c0.1-2.1,1.9-5.4,4.4-5.2C357.3,53,363.1,54.5,359.3,61.7z"/>
						<path class="st34" d="M351.9,59.5C351.9,59.5,351.9,59.5,351.9,59.5l-0.2-0.2c-0.4,0.7-1,1.3-1.6,1.9c1.7,0.8,2.8-0.5,2.1-1.8
							C352,59.4,351.9,59.5,351.9,59.5C351.8,59.6,351.8,59.5,351.9,59.5z"/>
						<path class="st40" d="M357.4,59.1c0.5,0.9,1.3,2.8,2.2,2.9c0.8-1.1,1.7-2.6,2.1-3.8c0.3-1.2,0.3-3.6-2-4.7
							c-2.2-1.2-3.4-1.3-4.4-1.2c-0.8,0.1-1.9,0.5-2.9,0.9c-2.7,1.1-1.8,3.5-1.8,3.5c0.8,0.3,2.5-1.2,3.1-0.6
							c0.7,0.6,0.9,1.5,1.5,2.2C355.8,59,356.7,58.4,357.4,59.1z"/>
						<path class="st34" d="M357.6,58.6c-0.1,0.7-0.7,1.5-1.2,1.5c-0.5,0-0.9-0.6-0.9-1.3c0.1-0.7,0.4-1.6,1.1-1.5
							C357.1,57.3,357.6,57.9,357.6,58.6z"/>
						<g>
							
								<linearGradient id="SVGID_2_" gradientUnits="userSpaceOnUse" x1="-1062.949" y1="-5917.8511" x2="-1062.7528" y2="-5916.605" gradientTransform="matrix(-0.9564 0.2921 0.2921 0.9564 1063.8387 6028.6064)">
								<stop  offset="0" style="stop-color:#C9926A"/>
								<stop  offset="1" style="stop-color:#C9926A;stop-opacity:0"/>
							</linearGradient>
							<path class="st41" d="M351,58.3c0,0.3,0.2,1.4,1.1,1.3c1-0.1,0.4-1.3,0.4-1.3S351.5,58.3,351,58.3z"/>
							<path class="st42" d="M351.2,58.2c1-0.2,1.9,0.1,0.9,0.2C351.2,58.6,350.7,58.3,351.2,58.2z"/>
							<path class="st43" d="M352.5,59.4c-0.4-0.4-1-0.1-0.8,0.3"/>
						</g>
						<g>
							<path class="st44" d="M354.6,61.3c0.2,0.1,0.3,0.3,0.3,0.5c0,0.2-0.1,0.4-0.3,0.5c-0.3,0.3-0.7,0.4-1,0.5
								c0.3-0.2,0.7-0.3,0.9-0.6c0.1-0.1,0.2-0.3,0.3-0.4C354.8,61.6,354.7,61.4,354.6,61.3z"/>
						</g>
					</g>
					<path class="st40" d="M359.6,53.6c-0.3-0.7-1.9-2.5-6.2-1.8c-4.3,0.8-2.7,4.9-5.1,6.1c3.4,0,3.3-0.5,4.3-1.4
						c-0.4,1.2,0.2,0.9,0.6-0.2c-0.1,0.9,1.1,1.8,2.1,2.1c0.1-1.1,2.5-3.6,2.5-3.6S359.4,54.4,359.6,53.6z"/>
				</g>
			</g>
			<path class="st34" d="M346.8,79.2c0,0,0.2,1-0.2,1.1c-0.8,0.2-5.5,0-5.5-0.2c0-0.3,3.2-0.2,4.4-1.3
				C345.9,78.3,346.8,79.2,346.8,79.2z"/>
			<g>
				<path class="st45" d="M355.7,67.9c1.2-2.9,3.1-3.3,4.1-2.8c1,0.5,1.7,2.3,0.8,4.2c-3.3,7.1-13.2,10.4-13.4,10.4
					c-1.3-0.3-1.7-0.8-2.2-1.1C348.8,76.4,353.7,72.6,355.7,67.9z"/>
			</g>
		</g>
		<rect x="293.3" y="52.1" class="st22" width="41.5" height="51.7"/>
		<ellipse class="st14" cx="295.2" cy="54" rx="0.6" ry="0.5"/>
		<path class="st14" d="M333.5,54c0,0.3-0.3,0.5-0.6,0.5s-0.6-0.2-0.6-0.5c0-0.3,0.3-0.5,0.6-0.5S333.5,53.7,333.5,54z"/>
		<g>
			<path class="st17" d="M311.7,47.2C311.8,47.2,311.8,47.2,311.7,47.2c0.4,0.8,0.9,1.4,1.6,1.5c0.4,0.1,1.5,0.2,2-0.5
				c0.5-0.7-0.3-1.6-0.4-1.7l-0.9-0.9c-0.3-0.3-0.7-0.7-0.8-1.4h1.6c0,0.1,0.1,0.4,0.3,0.7c0.2,0.3,0.5,0.6,0.8,1
				c0.1,0.2,0.3,0.4,0.4,0.6c0.1,0.2,0.2,0.5,0.2,0.7c0,0.5-0.1,1-0.4,1.4c-0.3,0.4-0.9,0.7-1.4,0.8c-0.5,0.1-1.1,0.1-1.6-0.1
				C312.1,48.9,311.5,48,311.7,47.2C311.7,47.2,311.7,47.2,311.7,47.2z"/>
			<path class="st15" d="M319.7,41.5c0-1.1-1.1-2-2.4-2c-0.9,0-1.4,0.3-2.1,1c-0.7,0.8-2.8,0.8-3.5-0.1c-0.4-0.6-1.2-0.9-2-0.9
				c-1.3,0-2.4,0.9-2.4,2c0,0.5,0.2,0.9,0.5,1.2c0.8,1,3.2,2.1,5.7,2.1c2.9,0,4.4-1,5.1-1.5C319.2,43,319.7,42.3,319.7,41.5z"/>
			<path class="st35" d="M311.7,40.4c-0.4-0.6-1.2-0.9-2-0.9c-1.3,0-2.4,0.9-2.4,2c0,0.5,0.2,0.9,0.5,1.2c0.8,1,3.2,2.1,5.7,2.1
				c0,0,0,0,0.1,0v-3.8C312.9,41.2,312.1,40.9,311.7,40.4z"/>
			<path class="st46" d="M318,41.5c0.1,0.3-0.2,0.6-0.6,0.7c-0.4,0-0.7-0.2-0.8-0.5c-0.1-0.3,0.2-0.6,0.6-0.7
				C317.6,40.9,318,41.1,318,41.5z"/>
			<path class="st47" d="M316.3,40.9c0.4-0.5,1.2-0.5,1.7-0.2c0.5,0.3,0.6,1,0.2,1.5s-1.2,0.5-1.7,0.2C316,42,315.9,41.4,316.3,40.9
				z"/>
			<path class="st47" d="M308.8,40.9c0.4-0.5,1.2-0.5,1.7-0.2c0.5,0.3,0.6,1,0.2,1.5c-0.4,0.5-1.2,0.5-1.7,0.2
				C308.4,42,308.3,41.4,308.8,40.9z"/>
			<path class="st46" d="M310.5,41.5c0.1,0.3-0.2,0.6-0.6,0.7c-0.4,0-0.7-0.2-0.8-0.5c-0.1-0.3,0.2-0.6,0.6-0.7
				C310,40.9,310.4,41.1,310.5,41.5z"/>
		</g>
		<path class="st17" d="M295.7,54c-0.1,0-0.3-0.3-0.1-0.4c0.1,0,17.2-5.2,18.5-5.2c1.3,0,18.2,5.2,18.4,5.2c0.2,0.1,0.1,0.4-0.1,0.4
			c-0.2-0.1-17.2-5.2-18.3-5.2C313.1,48.8,295.9,54,295.7,54z"/>
		<path class="st48" d="M362.3,55.4l-15.3,2.2l-0.1-0.5l1.7-0.7c0,0,0.3-4.7,5.9-5.4C360.7,50.2,362.3,55.4,362.3,55.4z"/>
		<path class="st48" d="M254.9,125.3c1.2,1.7,5.8,2,8.1-0.3c1.9-1.8,3.9-4.9,3.3-5.6c-1.3-1.6-5.6-2.9-8.8-1.4
			C254.4,119.4,253.2,122.8,254.9,125.3z"/>
		<path class="st49" d="M256,123.2l1.6-0.1c0,0,1.6-4.9,3.3-5.7c-0.8-0.2-1.3-0.1-1.8,0.1C258.6,117.6,256.4,119.8,256,123.2z"/>
		<path class="st15" d="M217.2,49.4c19.3-3.6,22.9-22.1,21.8-35.5h-68.5C176.4,29.2,195.4,53.5,217.2,49.4z"/>
		<path class="st15" d="M217.3,203c-7.8-7.2-30.1-6.2-47.6,16.1h64.1C226.5,215.6,224.1,209.2,217.3,203z"/>
		<g>
			<g>
				<text transform="matrix(1.1788 0 0 1 100.3914 113.261)" class="st14 st50 st51 st52">WE ARE</text>
			</g>
			<g>
				<text transform="matrix(1.1788 0 0 1 99.158 135.0452)" class="st14 st50 st53 st52">FOR YOU</text>
			</g>
			<g>
				<text transform="matrix(1.1788 0 0 1 102.0906 125.0784)" class="st14 st54 st55">WORKING</text>
			</g>
		</g>
	</g>
</g>
<g id="DESIGNED_BY_FREEPIK">
	<g>
		<g id="XMLID_29_">
			<g id="XMLID_48_">
				<path id="XMLID_56_" class="st56" d="M259.1,465.9c-0.4,0.4-0.7,0.8-1,1.3l-0.4-0.2c-0.1-0.3-0.3-0.5-0.6-0.4
					c-0.3,0-0.5,0.3-0.5,0.6c0,0.3,0.3,0.5,0.6,0.5c0.1,0,0.1,0,0.2,0l0.4,0.2c-0.2,0.5-0.4,1-0.5,1.6l0.7,0.1
					c0.2-1.2,0.8-2.3,1.6-3.1L259.1,465.9z"/>
				<path id="XMLID_55_" class="st56" d="M264.1,463.8c-0.2,0-0.3,0-0.5,0l-0.1-0.6c0.2-0.1,0.3-0.4,0.2-0.6c0-0.4-0.4-0.6-0.7-0.6
					c-0.4,0-0.6,0.4-0.6,0.7c0,0.2,0.2,0.4,0.4,0.5l0.1,0.6c-0.6,0.1-1.3,0.3-1.9,0.6l0.3,0.6c0.8-0.4,1.8-0.6,2.7-0.6
					c0.4,0,0.9,0,1.3,0.1l0.1-0.7C265.1,463.8,264.6,463.8,264.1,463.8z"/>
				<path id="XMLID_54_" class="st56" d="M270.1,466.1c0.3,0,0.5-0.3,0.5-0.6c0-0.3-0.3-0.5-0.6-0.5c-0.3,0-0.5,0.3-0.5,0.6
					l-0.4,0.3c-0.4-0.4-0.8-0.7-1.3-1l-0.4,0.6c1,0.6,1.8,1.6,2.3,2.6l0.6-0.3c-0.2-0.5-0.5-1-0.9-1.4l0.4-0.3
					C270,466.1,270,466.1,270.1,466.1z"/>
				<path id="XMLID_53_" class="st56" d="M263.6,473c-0.3,0-0.7,0-1,0c-0.8,0-1.6-0.1-2.2-0.2c-0.4-0.1-0.8-0.1-1.1-0.3
					c0.9,1.7,2.8,2.8,4.9,2.8c2.6,0,4.8-1.7,5.4-4.1c-0.6,0.4-1.4,0.7-2.2,1C266.1,472.7,264.9,473,263.6,473z"/>
				<path id="XMLID_49_" class="st56" d="M264.1,465.2c-3,0-5.5,2.4-5.5,5.4c0,0.4,0,0.8,0.1,1.1c0.6,0.4,2.4,0.8,4.8,0.7
					c2.6-0.2,4.8-0.9,6-2c0-0.2,0-0.4,0-0.5C269.2,467.2,266.9,465.2,264.1,465.2z M262.2,471.1c-0.9,0-1.7-0.8-1.7-1.7
					c0-0.9,0.8-1.7,1.7-1.7c0.9,0,1.7,0.8,1.7,1.7C263.8,470.3,263.1,471.1,262.2,471.1z M266.4,470.2c-0.7,0-1.2-0.6-1.2-1.2
					c0-0.7,0.6-1.2,1.2-1.2c0.7,0,1.2,0.6,1.2,1.2C267.7,469.7,267.1,470.2,266.4,470.2z"/>
			</g>
			<path id="XMLID_46_" class="st56" d="M278.6,466.9c-0.3-0.1-0.7-0.3-1.3-0.2c-0.5,0.1-0.8,0.3-0.8,0.9v0.8h2v1.6h-2v4.9h-1.7
				v-4.9h-1.2v-1.6h1.2v-0.8c0-1.5,0.8-2.5,2.3-2.5c0.6,0,1,0.1,1.4,0.3L278.6,466.9z"/>
			<path id="XMLID_44_" class="st56" d="M282.9,469.9c-0.2,0-0.3,0-0.5,0c-0.8,0-1.4,0.5-1.4,1.5v3.5h-1.7v-6.5h1.7v0.7
				c0.4-0.6,1-0.9,1.8-0.9c0.4,0,0.8,0.1,1,0.3L282.9,469.9z"/>
			<path id="XMLID_41_" class="st56" d="M289.8,471.6c0,0.2,0,0.4,0,0.6h-4.6c0.2,0.9,0.8,1.3,1.7,1.3c0.6,0,1.2-0.2,1.6-0.6l1,1.1
				c-0.7,0.7-1.7,1-2.8,1c-2,0-3.4-1.4-3.4-3.4c0-2,1.3-3.4,3.3-3.4C288.5,468.2,289.8,469.5,289.8,471.6z M285.2,471h2.9
				c-0.2-0.8-0.7-1.3-1.4-1.3C285.8,469.7,285.3,470.2,285.2,471z"/>
			<path id="XMLID_38_" class="st56" d="M296.7,471.6c0,0.2,0,0.4,0,0.6h-4.6c0.2,0.9,0.8,1.3,1.7,1.3c0.6,0,1.2-0.2,1.6-0.6l1,1.1
				c-0.7,0.7-1.7,1-2.8,1c-2,0-3.4-1.4-3.4-3.4c0-2,1.3-3.4,3.3-3.4C295.4,468.2,296.7,469.5,296.7,471.6z M292.1,471h2.9
				c-0.2-0.8-0.7-1.3-1.4-1.3C292.7,469.7,292.2,470.2,292.1,471z"/>
			<path id="XMLID_35_" class="st56" d="M304.3,471.6c0,1.9-1.4,3.4-3.1,3.4c-0.9,0-1.5-0.3-1.9-0.8v3.4h-1.7v-9.2h1.7v0.7
				c0.4-0.5,1-0.9,1.9-0.9C302.9,468.2,304.3,469.6,304.3,471.6z M299.1,471.6c0,1,0.7,1.8,1.7,1.8c1,0,1.7-0.8,1.7-1.8
				c0-1-0.6-1.8-1.7-1.8C299.8,469.8,299.1,470.6,299.1,471.6z"/>
			<path id="XMLID_32_" class="st56" d="M307.1,466.2c0,0.6-0.5,1.1-1.1,1.1c-0.6,0-1.1-0.5-1.1-1.1c0-0.6,0.5-1.1,1.1-1.1
				C306.6,465.1,307.1,465.6,307.1,466.2z M306.8,474.8h-1.7v-6.5h1.7V474.8z"/>
			<path id="XMLID_30_" class="st56" d="M309.8,470.6l2.4-2.3h2.1l-3.1,3.1l3.2,3.4h-2.2l-2.5-2.6v2.6H308v-9.6h1.7V470.6z"/>
		</g>
		<g>
			<path class="st56" d="M190.6,474.8v-1c-0.5,0.6-1.3,1.1-2.2,1.1c-1.7,0-2.9-1.3-2.9-3.4c0-2,1.2-3.4,2.9-3.4
				c0.9,0,1.6,0.4,2.2,1.1v-3.4h1v8.8H190.6z M190.6,473v-2.9c-0.4-0.6-1.1-1-1.9-1c-1.3,0-2.1,1.1-2.1,2.5c0,1.4,0.8,2.5,2.1,2.5
				C189.5,474,190.3,473.6,190.6,473z"/>
			<path class="st56" d="M192.9,471.6c0-1.9,1.3-3.4,3.2-3.4c1.9,0,3.1,1.5,3.1,3.4v0.3H194c0.1,1.2,0.9,2.2,2.3,2.2
				c0.7,0,1.5-0.3,2-0.8l0.5,0.6c-0.6,0.6-1.5,1-2.5,1C194.3,474.9,192.9,473.6,192.9,471.6z M196.1,469c-1.4,0-2,1.2-2.1,2.1h4.2
				C198.2,470.2,197.5,469,196.1,469z"/>
			<path class="st56" d="M199.9,473.9l0.5-0.7c0.4,0.5,1.2,0.9,2.1,0.9c1,0,1.5-0.5,1.5-1.1c0-1.6-4-0.6-4-3c0-1,0.9-1.8,2.4-1.8
				c1.1,0,1.9,0.4,2.4,0.9l-0.5,0.7c-0.4-0.5-1.1-0.8-1.9-0.8c-0.9,0-1.4,0.4-1.4,1c0,1.4,4,0.5,4,3c0,1.1-0.9,1.9-2.5,1.9
				C201.4,474.9,200.5,474.6,199.9,473.9z"/>
			<path class="st56" d="M206.1,466.8c0-0.4,0.3-0.7,0.7-0.7c0.4,0,0.7,0.3,0.7,0.7c0,0.4-0.3,0.7-0.7,0.7
				C206.4,467.4,206.1,467.2,206.1,466.8z M206.3,474.8v-6.4h1v6.4H206.3z"/>
			<path class="st56" d="M208.9,476.4l0.5-0.7c0.5,0.6,1.2,0.9,2.1,0.9c1.1,0,2.1-0.5,2.1-1.9v-0.9c-0.5,0.6-1.2,1.1-2.1,1.1
				c-1.7,0-2.9-1.2-2.9-3.3c0-2.1,1.2-3.3,2.9-3.3c0.9,0,1.6,0.4,2.1,1.1v-1h1v6.2c0,2.1-1.5,2.8-3,2.8
				C210.4,477.4,209.7,477.2,208.9,476.4z M213.5,472.9v-2.8c-0.3-0.6-1.1-1-1.9-1c-1.3,0-2.1,1-2.1,2.4c0,1.4,0.8,2.4,2.1,2.4
				C212.4,474,213.2,473.5,213.5,472.9z"/>
			<path class="st56" d="M220.5,474.8v-4.2c0-1.1-0.6-1.5-1.4-1.5c-0.8,0-1.5,0.5-1.9,1v4.7h-1v-6.4h1v0.9c0.5-0.5,1.3-1.1,2.3-1.1
				c1.3,0,2,0.7,2,2.1v4.5H220.5z"/>
			<path class="st56" d="M222.8,471.6c0-1.9,1.3-3.4,3.2-3.4c1.9,0,3.1,1.5,3.1,3.4v0.3h-5.2c0.1,1.2,0.9,2.2,2.3,2.2
				c0.7,0,1.5-0.3,2-0.8l0.5,0.6c-0.6,0.6-1.5,1-2.5,1C224.2,474.9,222.8,473.6,222.8,471.6z M225.9,469c-1.4,0-2,1.2-2.1,2.1h4.2
				C228,470.2,227.4,469,225.9,469z"/>
			<path class="st56" d="M234.9,474.8v-1c-0.5,0.6-1.3,1.1-2.2,1.1c-1.7,0-2.9-1.3-2.9-3.4c0-2,1.2-3.4,2.9-3.4
				c0.9,0,1.6,0.4,2.2,1.1v-3.4h1v8.8H234.9z M234.9,473v-2.9c-0.4-0.6-1.1-1-1.9-1c-1.3,0-2.1,1.1-2.1,2.5c0,1.4,0.8,2.5,2.1,2.5
				C233.8,474,234.6,473.6,234.9,473z"/>
			<path class="st56" d="M240.7,474.8v-8.8h1v3.4c0.5-0.7,1.3-1.1,2.2-1.1c1.7,0,2.9,1.3,2.9,3.4c0,2.1-1.2,3.4-2.9,3.4
				c-0.9,0-1.7-0.5-2.2-1.1v1H240.7z M243.6,474c1.3,0,2.1-1,2.1-2.5c0-1.4-0.8-2.5-2.1-2.5c-0.8,0-1.6,0.5-1.9,1v2.9
				C242,473.6,242.8,474,243.6,474z"/>
			<path class="st56" d="M247.8,476.4c0.1,0.1,0.4,0.1,0.5,0.1c0.4,0,0.7-0.1,1-0.7l0.4-1l-2.7-6.5h1.1l2.1,5.2l2.1-5.2h1.1
				l-3.2,7.7c-0.4,0.9-1,1.3-1.9,1.3c-0.2,0-0.5,0-0.7-0.1L247.8,476.4z"/>
		</g>
	</g>
</g>
</svg>
