<?xml version="1.0" encoding="utf-8"?>
<!-- Generator: Adobe Illustrator 24.0.0, SVG Export Plug-In . SVG Version: 6.00 Build 0)  -->
<svg version="1.1" id="OBJECTS" xmlns="http://www.w3.org/2000/svg" xmlns:xlink="http://www.w3.org/1999/xlink" x="0px" y="0px"
	 viewBox="0 0 500 1709" style="enable-background:new 0 0 500 1709;" xml:space="preserve">
<style type="text/css">
	.st0{opacity:0.42;}
	.st1{fill:#FFFFFF;}
	.st2{fill:#E1E2FF;}
	.st3{fill:#392A51;}
	.st4{opacity:0.42;fill:#FFFFFF;enable-background:new    ;}
	.st5{opacity:0.42;fill:#7970E5;enable-background:new    ;}
	.st6{opacity:0.42;fill:#E1E2FF;enable-background:new    ;}
</style>
<g class="st0">
	<path class="st1" d="M493.9,146.7v256.4c0,4.2-3.8,7.6-8.5,7.6H8.5c-4.7,0-8.5-3.4-8.5-7.6V149.3c0-4.2,3.8-7.6,8.5-7.6h479.8
		C491.4,141.7,493.9,144,493.9,146.7z"/>
</g>
<g class="st0">
	<g>
		<path class="st2" d="M327.8,229.8c-3.2,0.3-6.5,0.2-9.8,0.3s-6.5,0.1-9.8,0.3c-5.7,0.3-11.5,1.1-16.8,3.2c-1.4,0.5-2.7,1.2-4,1.9
			c-1.2,0.7-2.6,1.5-3.5,2.7c-0.3,0.4,0.2,0.7,0.6,0.6c1.2-0.5,2.2-1.4,3.4-2c1.1-0.6,2.3-1.2,3.5-1.7c2.5-1,5.1-1.8,7.8-2.3
			c5.9-1.2,11.9-1.3,17.9-1.5c3.6-0.1,7.2-0.5,10.7-0.8C328.2,230.4,328.2,229.8,327.8,229.8L327.8,229.8z"/>
	</g>
</g>
<g class="st0">
	<g>
		<path class="st3" d="M357.7,241.4C357.6,241.4,357.6,241.4,357.7,241.4c-0.1,0-0.1,0-0.2,0c0,0,0,0-0.1,0h-0.1h-0.1
			c-0.1,0-0.1,0.1,0,0.2h0.1h0.1c0,0,0,0,0.1,0l0,0h0.1C357.7,241.5,357.7,241.5,357.7,241.4L357.7,241.4L357.7,241.4z"/>
	</g>
</g>
<path class="st4" d="M411.1,203.2c0,1.8-1.7,3.2-3.8,3.2c-2.1,0-3.8-1.4-3.8-3.2s1.7-3.2,3.8-3.2S411.1,201.5,411.1,203.2z"/>
<ellipse class="st4" cx="293.7" cy="286.7" rx="3.8" ry="3.2"/>
<path class="st4" d="M461.3,302c0,1.8-1.7,3.2-3.8,3.2c-2.1,0-3.8-1.4-3.8-3.2c0-1.8,1.7-3.2,3.8-3.2
	C459.6,298.8,461.3,300.2,461.3,302z"/>
<path class="st4" d="M422.9,241c0,0.9-0.8,1.6-1.9,1.6c-1,0-1.9-0.7-1.9-1.6c0-0.9,0.8-1.6,1.9-1.6C422,239.4,422.9,240.1,422.9,241
	z"/>
<path class="st4" d="M458.1,286.6c0,0.9-0.8,1.6-1.9,1.6c-1,0-1.9-0.7-1.9-1.6s0.8-1.6,1.9-1.6C457.3,285.1,458.1,285.8,458.1,286.6
	z"/>
<path class="st5" d="M478.7,296.6c0,0.9-0.8,1.6-1.9,1.6c-1,0-1.9-0.7-1.9-1.6s0.8-1.6,1.9-1.6C477.8,295,478.7,295.7,478.7,296.6z"
	/>
<path class="st4" d="M297.2,256.2c0,0.9-0.8,1.6-1.9,1.6c-1,0-1.9-0.7-1.9-1.6s0.8-1.6,1.9-1.6C296.4,254.6,297.2,255.3,297.2,256.2
	z"/>
<g class="st0">
	<g>
		<path class="st1" d="M275.2,273.3c-3.3,11.7-0.9,24.3,5.7,34.5c1.9,2.9,4.1,5.9,6.9,8c0.4,0.3,0.7-0.3,0.5-0.6
			c-1.9-2.4-4-4.6-5.8-7.2c-1.7-2.5-3.1-5.1-4.3-7.8c-2.3-5.3-3.5-11.1-3.5-16.9c0-3.3,0.4-6.6,1.2-9.8
			C276,273.1,275.3,272.9,275.2,273.3L275.2,273.3z"/>
	</g>
</g>
<g class="st0">
	<g>
		<path class="st2" d="M465.8,212.2c0.4,1.8,0.5,3.7,0.6,5.6c0,0.4,0.6,0.4,0.6,0c0.2-1.9-0.3-3.9-0.9-5.7
			C466.1,211.8,465.7,211.9,465.8,212.2L465.8,212.2z"/>
	</g>
</g>
<ellipse class="st2" cx="201.4" cy="242.6" rx="18.1" ry="16.2"/>
<path class="st6" d="M345.1,217.4c-0.2,0.2-0.3,0.4-0.5,0.6c-0.3,0.5-0.5,1.1-0.7,1.7c-0.9,2.7-2,4.7-5.5,5.4
	c-2.4,0.4-5.3-0.1-6.5-2.1c-0.7-1.2-0.6-2.6-0.1-3.9c0.8-2.4,2.6-4.4,4.9-6c2.3-1.5,4.9-2.6,7.7-3.2c0.3-0.1,0.6-0.2,1-0.1
	c0.4,0,0.7,0.2,1,0.4c1,0.7,1.5,1.8,1.4,2.9c-0.1,1.1-0.7,2.1-1.5,3C346,216.5,345.5,216.9,345.1,217.4z"/>
<path class="st2" d="M-219.7-507c0,13.9-12.4,25.3-27.9,25.7v-51.3C-232.1-532.3-219.7-521-219.7-507z"/>
<path class="st2" d="M164.9,273.1c0,3-2.8,5.5-6.2,5.5c-3.4,0-6.2-2.5-6.2-5.5s2.8-5.5,6.2-5.5C162.2,267.6,164.9,270.1,164.9,273.1
	z"/>
<path class="st6" d="M350,204.8c-0.6,1-1.7,1.6-1.6,2.8c0,1.5,1.7,3.1,3.6,2.4c0.6-0.2,1.1-0.7,1.4-1.1c0.7-0.9,1-2.1,0.6-3.1
	C353.4,204.4,350.8,203.1,350,204.8"/>
<ellipse class="st2" cx="324.1" cy="149.3" rx="18.1" ry="16.2"/>
<circle class="st2" cx="192" cy="141.7" r="23.8"/>
<path class="st6" d="M243.3,254.1c-0.6,1-1.7,1.6-1.6,2.8c0,1.5,1.7,3.1,3.6,2.4c0.6-0.2,1.1-0.7,1.4-1.1c0.7-0.9,1-2.1,0.6-3.1
	C246.8,253.7,244.2,252.4,243.3,254.1"/>
<path class="st6" d="M257.9,349.6c-0.6,1-1.7,1.6-1.6,2.8c0,1.5,1.7,3.1,3.6,2.4c0.6-0.2,1.1-0.7,1.4-1.1c0.7-0.9,1-2.1,0.6-3.1
	C261.3,349.1,258.7,347.8,257.9,349.6"/>
<path class="st6" d="M91.4,179.1c-0.6-1.3-1.7-2.1-1.6-3.6c0-1.9,1.7-4.1,3.6-3.1c0.6,0.3,1.1,0.9,1.4,1.5c0.7,1.2,1,2.7,0.6,4
	C94.9,179.7,92.3,181.4,91.4,179.1"/>
<ellipse class="st2" cx="152.5" cy="192.9" rx="15.7" ry="14.2"/>
<path class="st2" d="M312.2,283.5c0,3-2.8,5.5-6.2,5.5c-3.4,0-6.2-2.5-6.2-5.5s2.8-5.5,6.2-5.5C309.5,278,312.2,280.5,312.2,283.5z"
	/>
<g class="st0">
	<path class="st1" d="M269.3,671.3L14,695.8c-4.2,0.4-7.9-3.1-8.4-7.7l-45.5-474.7c-0.4-4.7,2.6-8.8,6.8-9.2l252.6-24.2
		c4.2-0.4,7.9,3.1,8.4,7.7l45.8,477.6C274,668.4,271.9,671.1,269.3,671.3z"/>
</g>
<g class="st0">
	<g>
		<path class="st2" d="M170.7,513.9c-0.6-3.2-0.8-6.5-1.2-9.7c-0.4-3.3-0.7-6.5-1.2-9.7c-0.8-5.6-2.2-11.3-4.8-16.4
			c-0.6-1.3-1.5-2.6-2.3-3.8c-0.8-1.1-1.7-2.4-3-3.2c-0.4-0.3-0.7,0.3-0.5,0.7c0.6,1.1,1.6,2.1,2.3,3.2c0.7,1,1.4,2.2,2,3.3
			c1.2,2.4,2.3,4.9,3,7.5c1.8,5.8,2.4,11.7,3.2,17.7c0.4,3.6,1.2,7.1,1.8,10.6C170.1,514.4,170.7,514.3,170.7,513.9L170.7,513.9z"/>
	</g>
</g>
<g class="st0">
	<g>
		<path class="st3" d="M162,544.8C162,544.7,162,544.7,162,544.8c0-0.1,0-0.1,0-0.2c0,0,0,0,0-0.1l0-0.1l0-0.1c0-0.1-0.1-0.1-0.2,0
			l0,0.1l0,0.1c0,0,0,0,0,0.1l0,0l0,0.1C161.9,544.8,161.9,544.8,162,544.8L162,544.8L162,544.8z"/>
	</g>
</g>
<path class="st4" d="M205.1,594.3c-1.8,0.2-3.3-1.4-3.5-3.5c-0.2-2.1,1-3.9,2.8-4.1c1.8-0.2,3.3,1.4,3.5,3.5
	C208.1,592.3,206.8,594.1,205.1,594.3z"/>
<ellipse transform="matrix(0.9954 -9.536159e-02 9.536159e-02 0.9954 -45.784 12.7785)" class="st4" cx="110.8" cy="485.4" rx="3.2" ry="3.8"/>
<path class="st4" d="M111.6,653.7c-1.8,0.2-3.3-1.4-3.5-3.5c-0.2-2.1,1-3.9,2.8-4.1c1.8-0.2,3.3,1.4,3.5,3.5
	C114.6,651.7,113.3,653.5,111.6,653.7z"/>
<path class="st4" d="M168.6,609.7c-0.9,0.1-1.7-0.6-1.8-1.7c-0.1-1,0.5-2,1.4-2c0.9-0.1,1.7,0.6,1.8,1.7
	C170.1,608.6,169.5,609.6,168.6,609.7z"/>
<path class="st4" d="M126.6,649c-0.9,0.1-1.7-0.6-1.8-1.7c-0.1-1,0.5-2,1.4-2c0.9-0.1,1.7,0.6,1.8,1.7
	C128,648.1,127.4,649,126.6,649z"/>
<path class="st5" d="M118.6,670.5c-0.9,0.1-1.7-0.6-1.8-1.7c-0.1-1,0.5-2,1.4-2c0.9-0.1,1.7,0.6,1.8,1.7
	C120.1,669.5,119.5,670.4,118.6,670.5z"/>
<path class="st4" d="M141.5,486c-0.9,0.1-1.7-0.6-1.8-1.7c-0.1-1,0.5-2,1.4-2c0.9-0.1,1.7,0.6,1.8,1.7
	C143,485,142.4,485.9,141.5,486z"/>
<g class="st0">
	<g>
		<path class="st1" d="M122.4,465.7c-12-2.2-24.3,1.4-33.8,9c-2.7,2.2-5.5,4.6-7.3,7.6c-0.3,0.4,0.4,0.7,0.6,0.4
			c2.2-2.1,4.2-4.4,6.6-6.5c2.3-1.9,4.8-3.6,7.4-5c5.1-2.8,10.7-4.5,16.5-5.1c3.3-0.3,6.6-0.2,9.9,0.3
			C122.7,466.5,122.8,465.8,122.4,465.7L122.4,465.7z"/>
	</g>
</g>
<g class="st0">
	<g>
		<path class="st2" d="M201.4,649.6c-1.8,0.6-3.6,0.9-5.5,1.1c-0.4,0-0.3,0.6,0.1,0.6c1.9,0,3.9-0.7,5.6-1.4
			C201.8,649.9,201.7,649.5,201.4,649.6L201.4,649.6z"/>
	</g>
</g>
<ellipse transform="matrix(0.9954 -9.536170e-02 9.536170e-02 0.9954 -36.4578 15.6871)" class="st2" cx="145.9" cy="389.3" rx="16.2" ry="18.1"/>
<path class="st6" d="M184.7,530c-0.2-0.2-0.4-0.3-0.6-0.4c-0.5-0.3-1.1-0.4-1.8-0.5c-2.8-0.6-4.9-1.5-5.9-5
	c-0.6-2.4-0.4-5.3,1.5-6.7c1.1-0.8,2.5-0.8,3.9-0.5c2.5,0.6,4.6,2.2,6.4,4.3c1.7,2.1,3.1,4.6,3.9,7.4c0.1,0.3,0.3,0.6,0.2,1
	c0,0.4-0.1,0.7-0.3,1c-0.6,1.1-1.6,1.7-2.8,1.7c-1.1,0-2.2-0.5-3.1-1.2C185.7,530.8,185.2,530.3,184.7,530z"/>
<path class="st2" d="M94.3,116.9C80.5,118.2,68,107,66.1,91.6l51.1-4.9C118.3,102.1,108.2,115.6,94.3,116.9z"/>
<path class="st2" d="M112.1,355.9c-3,0.3-5.7-2.3-6.1-5.6c-0.3-3.4,1.9-6.4,4.9-6.7c3-0.3,5.7,2.3,6.1,5.6
	C117.3,352.7,115.1,355.6,112.1,355.9z"/>
<path class="st6" d="M197.7,533.6c-1.1-0.5-1.8-1.5-2.9-1.3c-1.5,0.1-2.9,2-2,3.8c0.3,0.6,0.8,1,1.2,1.3c1,0.6,2.2,0.8,3.1,0.3
	C198.4,537,199.5,534.3,197.7,533.6"/>
<ellipse transform="matrix(0.9954 -9.536348e-02 9.536348e-02 0.9954 -46.7803 26.1761)" class="st2" cx="250.5" cy="502.5" rx="16.2" ry="18.1"/>
<circle class="st2" cx="245.4" cy="370.3" r="23.8"/>
<path class="st6" d="M138.4,432.1c-1.1-0.5-1.8-1.5-2.9-1.3c-1.5,0.1-2.9,2-2,3.8c0.3,0.6,0.8,1,1.2,1.3c1,0.6,2.2,0.8,3.1,0.3
	C139.2,435.6,140.2,432.9,138.4,432.1"/>
<path class="st6" d="M44.8,455.8c-1.1-0.5-1.8-1.5-2.9-1.3c-1.5,0.1-2.9,2-2,3.8c0.3,0.6,0.8,1,1.2,1.3c1,0.6,2.2,0.8,3.1,0.3
	C45.6,459.1,46.6,456.4,44.8,455.8"/>
<path class="st6" d="M198.6,273.8c1.2-0.7,1.9-1.9,3.4-1.9c1.9-0.2,4.2,1.3,3.4,3.3c-0.2,0.6-0.8,1.2-1.4,1.5
	c-1.1,0.8-2.6,1.3-3.9,1C198.4,277.3,196.4,274.9,198.6,273.8"/>
<ellipse transform="matrix(0.9954 -9.536159e-02 9.536159e-02 0.9954 -31.1629 19.7191)" class="st2" cx="190.7" cy="335.9" rx="14.2" ry="15.7"/>
<path class="st2" d="M115.7,503.5c-3,0.3-5.7-2.3-6.1-5.6c-0.3-3.4,1.9-6.4,4.9-6.7c3-0.3,5.7,2.3,6.1,5.6
	C121,500.3,118.7,503.2,115.7,503.5z"/>
<g class="st0">
	<path class="st1" d="M465.7,463.8l176,186.5c2.9,3.1,2.5,8.1-1,11.4L293.9,989c-3.4,3.2-8.5,3.4-11.4,0.3L108.3,804.7
		c-2.9-3.1-2.5-8.1,1-11.4l348.9-329.3C460.4,461.9,463.8,461.9,465.7,463.8z"/>
</g>
<g class="st0">
	<g>
		<path class="st2" d="M401.9,638.3c-2.1,2.4-4.6,4.6-6.9,6.9c-2.3,2.3-4.7,4.5-6.9,6.9c-3.9,4.1-7.6,8.7-10,13.9
			c-0.7,1.3-1.1,2.7-1.6,4.1c-0.4,1.3-0.9,2.9-0.7,4.4c0.1,0.5,0.6,0.4,0.8,0c0.5-1.2,0.6-2.5,1.1-3.8c0.4-1.2,0.8-2.5,1.4-3.6
			c1.1-2.4,2.5-4.8,4.1-7c3.5-4.9,7.8-9.1,12-13.4c2.5-2.5,4.9-5.3,7.2-7.9C402.6,638.4,402.2,638,401.9,638.3L401.9,638.3z"/>
	</g>
</g>
<g class="st0">
	<g>
		<path class="st3" d="M431.6,626.2C431.6,626.3,431.6,626.3,431.6,626.2c-0.1,0.1-0.1,0.1-0.1,0.1c0,0,0,0-0.1,0.1l-0.1,0.1
			l-0.1,0.1c-0.1,0.1,0,0.1,0.1,0.1l0.1-0.1l0.1-0.1c0,0,0,0,0.1-0.1l0,0l0.1-0.1C431.7,626.3,431.7,626.3,431.6,626.2L431.6,626.2
			L431.6,626.2z"/>
	</g>
</g>
<path class="st4" d="M444.2,561.8c1.2,1.3,1,3.5-0.6,4.9c-1.5,1.4-3.7,1.6-5,0.3c-1.2-1.3-1-3.5,0.6-4.9S443.1,560.5,444.2,561.8z"
	/>
<ellipse transform="matrix(0.7273 -0.6864 0.6864 0.7273 -369.0517 477.3897)" class="st4" cx="416.2" cy="703.1" rx="3.8" ry="3.2"/>
<path class="st4" d="M403.6-48.8c1.2,1.3,1,3.5-0.6,4.9c-1.5,1.4-3.7,1.6-5,0.3c-1.2-1.3-1-3.5,0.6-4.9
	C400.1-50,402.3-50.1,403.6-48.8z"/>
<path class="st4" d="M478.8,581.2c0.6,0.7,0.5,1.7-0.3,2.5c-0.7,0.7-1.9,0.8-2.5,0.1c-0.6-0.7-0.5-1.7,0.3-2.5
	C477,580.6,478.2,580.5,478.8,581.2z"/>
<path class="st4" d="M390.7-57.8c0.6,0.7,0.5,1.7-0.3,2.5c-0.7,0.7-1.9,0.8-2.5,0.1s-0.5-1.7,0.3-2.5
	C389.1-58.4,390.1-58.4,390.7-57.8z"/>
<path class="st5" d="M412.5-64.7c0.6,0.7,0.5,1.7-0.3,2.5c-0.7,0.7-1.9,0.8-2.5,0.1s-0.5-1.7,0.3-2.5
	C410.8-65.3,411.9-65.4,412.5-64.7z"/>
<path class="st4" d="M397.8,678.5c0.6,0.7,0.5,1.7-0.3,2.5c-0.7,0.7-1.9,0.8-2.5,0.1c-0.6-0.7-0.5-1.7,0.3-2.5
	C396.1,677.9,397.2,677.8,397.8,678.5z"/>
<g class="st0">
	<g>
		<path class="st1" d="M393.5,706c5.6,10.8,16,18.3,27.8,21.2c3.4,0.8,7,1.5,10.5,1.1c0.5-0.1,0.3-0.7,0-0.8c-3-0.4-6.1-0.6-9.2-1.3
			c-3-0.7-5.8-1.6-8.5-2.7c-5.3-2.3-10.2-5.7-14.1-9.9c-2.3-2.4-4.2-5.1-5.9-8C394,705.3,393.3,705.7,393.5,706L393.5,706z"/>
	</g>
</g>
<g class="st0">
	<g>
		<path class="st2" d="M490.2,530.8c1.5,1,2.9,2.3,4.3,3.7c0.3,0.3,0.7-0.1,0.4-0.4c-1.2-1.5-2.9-2.6-4.6-3.5
			C490.1,530.3,489.9,530.6,490.2,530.8L490.2,530.8z"/>
	</g>
</g>
<ellipse transform="matrix(0.7273 -0.6864 0.6864 0.7273 -417.1071 419.0611)" class="st2" cx="318.7" cy="734.4" rx="18.1" ry="16.2"/>
<path class="st6" d="M406,617.4c0,0.3,0.1,0.5,0,0.8c0.1,0.6,0.4,1.1,0.7,1.7c1.2,2.6,1.8,4.8-0.3,7.7c-1.5,1.9-3.9,3.6-6.2,2.9
	c-1.3-0.4-2.2-1.5-2.7-2.8c-1.1-2.3-1.1-5-0.6-7.7c0.6-2.7,1.8-5.3,3.4-7.6c0.1-0.3,0.3-0.6,0.7-0.8c0.3-0.3,0.6-0.3,1-0.4
	c1.2-0.2,2.3,0.3,3,1.1c0.7,0.9,0.9,2,1,3.2C406,616.1,405.9,616.8,406,617.4z"/>
<path class="st2" d="M48.2,849.9c9.5,10.1,8.3,26.9-2.7,37.8l-35.2-37.3C21.8,840,38.7,839.8,48.2,849.9z"/>
<path class="st2" d="M313.2,781.6c2.1,2.2,1.7,5.9-0.7,8.3c-2.5,2.3-6.2,2.4-8.3,0.3s-1.7-5.9,0.7-8.3
	C307.4,779.4,311.1,779.4,313.2,781.6z"/>
<path class="st6" d="M400.9,604.9c0.3,1.1-0.1,2.3,0.8,3.1c1,1.1,3.4,1.1,4.3-0.7c0.3-0.6,0.3-1.3,0.3-1.8c-0.1-1.1-0.7-2.2-1.7-2.7
	C403.1,602.2,400.3,603.1,400.9,604.9"/>
<ellipse transform="matrix(0.7273 -0.6864 0.6864 0.7273 -305.8669 394.8811)" class="st2" cx="343.9" cy="582.3" rx="18.1" ry="16.2"/>
<circle class="st2" cx="242.7" cy="667.4" r="23.8"/>
<path class="st6" d="M357.1,714c0.3,1.1-0.1,2.3,0.8,3.1c1,1.1,3.4,1.1,4.3-0.7c0.3-0.6,0.3-1.3,0.3-1.8c-0.1-1.1-0.7-2.2-1.7-2.7
	C359.4,711.3,356.6,712.1,357.1,714"/>
<path class="st6" d="M433.3,773.4c0.3,1.1-0.1,2.3,0.8,3.1c1,1.1,3.4,1.1,4.3-0.7c0.3-0.6,0.3-1.3,0.3-1.8c-0.1-1.1-0.7-2.2-1.7-2.7
	C435.4,770.7,432.7,771.5,433.3,773.4"/>
<path class="st6" d="M195.2,763.7c-1.3-0.5-2.7-0.4-3.6-1.5c-1.3-1.4-1.6-4.1,0.5-4.7c0.6-0.2,1.4-0.1,2,0.1
	c1.3,0.4,2.6,1.3,3.2,2.5C198.2,761.7,197.4,764.7,195.2,763.7"/>
<ellipse transform="matrix(0.7273 -0.6864 0.6864 0.7273 -434.306 370.5338)" class="st2" cx="249.1" cy="731.8" rx="15.7" ry="14.2"/>
<path class="st2" d="M427.4,688.1c2.1,2.2,1.7,5.9-0.7,8.3c-2.5,2.3-6.2,2.4-8.3,0.3s-1.7-5.9,0.7-8.3
	C421.7,685.9,425.3,685.9,427.4,688.1z"/>
<g class="st0">
	<path class="st1" d="M662.4,999.6l-168.8,193c-2.8,3.2-7.9,3.2-11.4,0.1l-358.9-314c-3.5-3.1-4.2-8.2-1.4-11.3l167.1-191
		c2.8-3.2,7.9-3.2,11.4-0.1l361.1,315.9C663.8,994.2,664.2,997.6,662.4,999.6z"/>
</g>
<g class="st0">
	<g>
		<path class="st2" d="M482.7,952.7c-2.6-1.9-5-4.1-7.6-6.2c-2.5-2.1-5-4.2-7.6-6.2c-4.5-3.5-9.4-6.7-14.8-8.7
			c-1.4-0.5-2.8-0.9-4.3-1.2c-1.4-0.3-2.9-0.6-4.4-0.3c-0.5,0.1-0.3,0.7,0.1,0.8c1.2,0.4,2.6,0.4,3.9,0.7c1.2,0.3,2.5,0.6,3.8,1
			c2.5,0.9,5,2,7.4,3.4c5.2,3,9.8,6.9,14.5,10.7c2.8,2.3,5.7,4.4,8.6,6.4C482.6,953.5,483,953,482.7,952.7L482.7,952.7z"/>
	</g>
</g>
<g class="st0">
	<g>
		<path class="st3" d="M497.5,981.2C497.5,981.1,497.5,981.1,497.5,981.2c-0.1-0.1-0.1-0.1-0.2-0.1c0,0,0,0-0.1-0.1l-0.1-0.1
			l-0.1-0.1c-0.1-0.1-0.1,0-0.1,0.2l0.1,0.1l0.1,0.1c0,0,0,0,0.1,0.1l0,0l0.1,0.1C497.5,981.2,497.5,981.2,497.5,981.2L497.5,981.2
			L497.5,981.2z"/>
	</g>
</g>
<path class="st4" d="M417.9,339.6c-1.2,1.4-3.4,1.3-5-0.1s-1.9-3.6-0.8-4.9s3.4-1.3,5,0.1C418.7,336.1,419,338.3,417.9,339.6z"/>
<ellipse transform="matrix(0.6585 -0.7526 0.7526 0.6585 -589.0735 648.051)" class="st4" cx="419.5" cy="973.1" rx="3.2" ry="3.8"/>
<path class="st4" d="M390.6,447c-1.2,1.4-3.4,1.3-5-0.1c-1.6-1.4-1.9-3.6-0.8-4.9c1.2-1.4,3.4-1.3,5,0.1
	C391.4,443.5,391.8,445.6,390.6,447z"/>
<path class="st4" d="M401.9,375.8c-0.6,0.7-1.7,0.7-2.5,0c-0.8-0.7-1-1.8-0.4-2.5c0.6-0.7,1.7-0.7,2.5,0
	C402.2,374,402.5,375.1,401.9,375.8z"/>
<path class="st4" d="M398.3,433.3c-0.6,0.7-1.7,0.7-2.5,0c-0.8-0.7-1-1.8-0.4-2.5c0.6-0.7,1.7-0.7,2.5,0
	C398.7,431.6,398.9,432.7,398.3,433.3z"/>
<path class="st5" d="M407.2,454.4c-0.6,0.7-1.7,0.7-2.5,0c-0.8-0.7-1-1.8-0.4-2.5s1.7-0.7,2.5,0
	C407.6,452.6,407.8,453.7,407.2,454.4z"/>
<path class="st4" d="M442.3,952.5c-0.6,0.7-1.7,0.7-2.5,0c-0.8-0.7-1-1.8-0.4-2.5s1.7-0.7,2.5,0
	C442.7,950.7,442.8,951.8,442.3,952.5z"/>
<g class="st0">
	<g>
		<path class="st1" d="M414.4,950.8c-10.2,6.6-16.7,17.7-18.4,29.7c-0.5,3.4-0.8,7.1-0.1,10.6c0.1,0.5,0.7,0.2,0.8-0.1
			c0.2-3.1,0-6.1,0.4-9.2c0.4-3,1-5.9,1.9-8.7c1.8-5.5,4.7-10.7,8.5-15c2.2-2.5,4.6-4.7,7.4-6.6
			C415.2,951.2,414.8,950.6,414.4,950.8L414.4,950.8z"/>
	</g>
</g>
<g class="st0">
	<g>
		<path class="st2" d="M453.1,382.4c-0.9,1.6-2.1,3.1-3.2,4.6c-0.3,0.3,0.2,0.7,0.5,0.4c1.4-1.3,2.3-3.1,3.1-4.9
			C453.6,382.3,453.2,382.1,453.1,382.4L453.1,382.4z"/>
	</g>
</g>
<ellipse transform="matrix(0.6585 -0.7526 0.7526 0.6585 -532.1503 585.5099)" class="st2" cx="379.1" cy="879.1" rx="16.2" ry="18.1"/>
<path class="st6" d="M503.9,954.8c-0.3,0-0.5,0.1-0.8,0.1c-0.6,0.2-1.1,0.5-1.6,0.8c-2.5,1.4-4.6,2.2-7.7,0.4
	c-2.1-1.3-3.9-3.6-3.5-5.9c0.3-1.4,1.3-2.4,2.5-3c2.2-1.3,4.9-1.6,7.6-1.3c2.7,0.4,5.4,1.3,7.9,2.7c0.3,0.1,0.6,0.2,0.8,0.6
	c0.3,0.3,0.4,0.6,0.5,1c0.3,1.2-0.1,2.3-0.9,3.1c-0.8,0.8-1.9,1.1-3.1,1.3C505.1,954.7,504.5,954.7,503.9,954.8z"/>
<path class="st2" d="M154.6,716.4c-9.2,10.5-26,10.9-37.9,1l33.8-38.6C162,689.2,163.8,706,154.6,716.4z"/>
<path class="st2" d="M331.6,878.1c-2,2.3-5.7,2.3-8.3,0.1c-2.6-2.2-3-6-1-8.2c2-2.3,5.7-2.3,8.3-0.1
	C333.2,872.1,333.5,875.8,331.6,878.1z"/>
<path class="st6" d="M370.8,300.6c-1.1,0.4-2.3,0.1-3,1.1c-1,1.1-0.8,3.5,1.1,4.2c0.6,0.2,1.3,0.2,1.8,0.1c1.1-0.2,2.1-0.9,2.5-1.9
	C373.7,302.5,372.6,299.8,370.8,300.6"/>
<ellipse transform="matrix(0.6585 -0.7526 0.7526 0.6585 -49.4434 374.4354)" class="st2" cx="387.9" cy="241.7" rx="16.2" ry="18.1"/>
<circle class="st2" cx="438.5" cy="797" r="23.8"/>
<path class="st6" d="M403.1,915.4c-1.1,0.4-2.3,0.1-3,1.1c-1,1.1-0.8,3.5,1.1,4.2c0.6,0.2,1.3,0.2,1.8,0.1c1.1-0.2,2.1-0.9,2.5-1.9
	C406,917.4,404.9,914.7,403.1,915.4"/>
<path class="st6" d="M351.2,996.9c-1.1,0.4-2.3,0.1-3,1.1c-1,1.1-0.8,3.5,1.1,4.2c0.6,0.2,1.3,0.2,1.8,0.1c1.1-0.2,2.1-0.9,2.5-1.9
	C354.1,998.7,353,996,351.2,996.9"/>
<path class="st6" d="M338.1,758.9c0.4-1.4,0.1-2.7,1.2-3.8c1.3-1.4,4-2,4.8,0c0.3,0.6,0.2,1.4,0.1,2.1c-0.3,1.4-1,2.7-2.2,3.4
	C340.4,761.7,337.3,761.2,338.1,758.9"/>
<ellipse transform="matrix(0.6585 -0.7526 0.7526 0.6585 -481.1527 558.7089)" class="st2" cx="375.1" cy="809.5" rx="14.2" ry="15.7"/>
<path class="st2" d="M435.5,982.9c-2,2.3-5.7,2.3-8.3,0.1c-2.6-2.2-3-6-1-8.2c2-2.3,5.7-2.3,8.3-0.1
	C437.1,976.9,437.5,980.6,435.5,982.9z"/>
<g class="st0">
	<path class="st1" d="M475.7,774.8v256.4c0,4.2-3.8,7.6-8.5,7.6H-9.7c-4.7,0-8.5-3.4-8.5-7.6V777.4c0-4.2,3.8-7.6,8.5-7.6h479.8
		C473.2,769.8,475.7,772.1,475.7,774.8z"/>
</g>
<g class="st0">
	<g>
		<path class="st2" d="M309.6,857.9c-3.2,0.3-6.5,0.2-9.8,0.3c-3.3,0.1-6.5,0.1-9.8,0.3c-5.7,0.3-11.5,1.1-16.8,3.2
			c-1.4,0.5-2.7,1.2-4,1.9c-1.2,0.7-2.6,1.5-3.5,2.7c-0.3,0.4,0.2,0.7,0.6,0.6c1.2-0.5,2.2-1.4,3.4-2c1.1-0.6,2.3-1.2,3.5-1.7
			c2.5-1,5.1-1.8,7.8-2.3c5.9-1.2,11.9-1.3,17.9-1.5c3.6-0.1,7.2-0.5,10.7-0.8C310,858.5,310,857.9,309.6,857.9L309.6,857.9z"/>
	</g>
</g>
<g class="st0">
	<g>
		<path class="st3" d="M339.5,869.5C339.4,869.5,339.4,869.5,339.5,869.5c-0.1,0-0.1,0-0.2,0c0,0,0,0-0.1,0h-0.1H339
			c-0.1,0-0.1,0.1,0,0.2h0.1h0.1c0,0,0,0,0.1,0l0,0h0.1C339.5,869.6,339.5,869.6,339.5,869.5L339.5,869.5L339.5,869.5z"/>
	</g>
</g>
<path class="st4" d="M392.9,831.3c0,1.8-1.7,3.2-3.8,3.2c-2.1,0-3.8-1.4-3.8-3.2s1.7-3.2,3.8-3.2S392.9,829.6,392.9,831.3z"/>
<ellipse class="st4" cx="275.5" cy="914.8" rx="3.8" ry="3.2"/>
<path class="st4" d="M443.1,930.1c0,1.8-1.7,3.2-3.8,3.2c-2.1,0-3.8-1.4-3.8-3.2c0-1.8,1.7-3.2,3.8-3.2
	C441.4,926.9,443.1,928.3,443.1,930.1z"/>
<path class="st4" d="M404.7,869.1c0,0.9-0.8,1.6-1.9,1.6c-1,0-1.9-0.7-1.9-1.6c0-0.9,0.8-1.6,1.9-1.6
	C403.8,867.5,404.7,868.2,404.7,869.1z"/>
<path class="st4" d="M439.9,914.7c0,0.9-0.8,1.6-1.9,1.6c-1,0-1.9-0.7-1.9-1.6c0-0.9,0.8-1.6,1.9-1.6
	C439.1,913.2,439.9,913.9,439.9,914.7z"/>
<path class="st5" d="M460.5,924.7c0,0.9-0.8,1.6-1.9,1.6c-1,0-1.9-0.7-1.9-1.6c0-0.9,0.8-1.6,1.9-1.6
	C459.6,923.1,460.5,923.8,460.5,924.7z"/>
<path class="st4" d="M279,884.3c0,0.9-0.8,1.6-1.9,1.6c-1,0-1.9-0.7-1.9-1.6c0-0.9,0.8-1.6,1.9-1.6C278.2,882.7,279,883.4,279,884.3
	z"/>
<g class="st0">
	<g>
		<path class="st1" d="M257,901.4c-3.3,11.7-0.9,24.3,5.7,34.5c1.9,2.9,4.1,5.9,6.9,8c0.4,0.3,0.7-0.3,0.5-0.6
			c-1.9-2.4-4-4.6-5.8-7.2c-1.7-2.5-3.1-5.1-4.3-7.8c-2.3-5.3-3.5-11.1-3.5-16.9c0-3.3,0.4-6.6,1.2-9.8
			C257.8,901.2,257.1,901,257,901.4L257,901.4z"/>
	</g>
</g>
<g class="st0">
	<g>
		<path class="st2" d="M447.6,840.3c0.4,1.8,0.5,3.7,0.6,5.6c0,0.4,0.6,0.4,0.6,0c0.2-1.9-0.3-3.9-0.9-5.7
			C447.9,839.9,447.5,840,447.6,840.3L447.6,840.3z"/>
	</g>
</g>
<ellipse class="st2" cx="183.2" cy="870.7" rx="18.1" ry="16.2"/>
<path class="st6" d="M326.9,845.5c-0.2,0.2-0.3,0.4-0.5,0.6c-0.3,0.5-0.5,1.1-0.7,1.7c-0.9,2.7-2,4.7-5.5,5.4
	c-2.4,0.4-5.3-0.1-6.5-2.1c-0.7-1.2-0.6-2.6-0.1-3.9c0.8-2.4,2.6-4.4,4.9-6c2.3-1.5,4.9-2.6,7.7-3.2c0.3-0.1,0.6-0.2,1-0.1
	c0.4,0,0.7,0.2,1,0.4c1,0.7,1.5,1.8,1.4,2.9c-0.1,1.1-0.7,2.1-1.5,3C327.8,844.6,327.3,845,326.9,845.5z"/>
<path class="st2" d="M-237.8,121c0,13.9-12.4,25.3-27.9,25.7V95.4C-250.2,95.7-237.8,107.1-237.8,121z"/>
<path class="st2" d="M146.7,901.1c0,3-2.8,5.5-6.2,5.5c-3.4,0-6.2-2.5-6.2-5.5s2.8-5.5,6.2-5.5C144,895.6,146.7,898.1,146.7,901.1z"
	/>
<path class="st6" d="M331.8,832.9c-0.6,1-1.7,1.6-1.6,2.8c0,1.5,1.7,3.1,3.6,2.4c0.6-0.2,1.1-0.7,1.4-1.1c0.7-0.9,1-2.1,0.6-3.1
	C335.2,832.5,332.6,831.2,331.8,832.9"/>
<ellipse class="st2" cx="305.9" cy="777.4" rx="18.1" ry="16.2"/>
<circle class="st2" cx="173.8" cy="769.8" r="23.8"/>
<path class="st6" d="M225.1,882.2c-0.6,1-1.7,1.6-1.6,2.8c0,1.5,1.7,3.1,3.6,2.4c0.6-0.2,1.1-0.7,1.4-1.1c0.7-0.9,1-2.1,0.6-3.1
	C228.6,881.8,226,880.5,225.1,882.2"/>
<path class="st6" d="M239.7,977.7c-0.6,1-1.7,1.6-1.6,2.8c0,1.5,1.7,3.1,3.6,2.4c0.6-0.2,1.1-0.7,1.4-1.1c0.7-0.9,1-2.1,0.6-3.1
	C243.1,977.2,240.5,975.9,239.7,977.7"/>
<path class="st6" d="M73.2,807.2c-0.6-1.3-1.7-2.1-1.6-3.6c0-1.9,1.7-4.1,3.6-3.1c0.6,0.3,1.1,0.9,1.4,1.5c0.7,1.2,1,2.7,0.6,4
	C76.7,807.8,74.1,809.5,73.2,807.2"/>
<ellipse class="st2" cx="134.3" cy="820.9" rx="15.7" ry="14.2"/>
<path class="st2" d="M294,911.6c0,3-2.8,5.5-6.2,5.5c-3.4,0-6.2-2.5-6.2-5.5s2.8-5.5,6.2-5.5C291.3,906.1,294,908.6,294,911.6z"/>
<g class="st0">
	<path class="st1" d="M251.1,1299.4l-255.2,24.5c-4.2,0.4-7.9-3.1-8.4-7.7L-58,841.4c-0.4-4.7,2.6-8.8,6.8-9.2L201.4,808
		c4.2-0.4,7.9,3.1,8.4,7.7l45.8,477.6C255.8,1296.4,253.8,1299.1,251.1,1299.4z"/>
</g>
<g class="st0">
	<g>
		<path class="st2" d="M152.5,1142c-0.6-3.2-0.8-6.5-1.2-9.7c-0.4-3.3-0.7-6.5-1.2-9.7c-0.8-5.6-2.2-11.3-4.8-16.4
			c-0.6-1.3-1.5-2.6-2.3-3.8c-0.8-1.1-1.7-2.4-3-3.2c-0.4-0.3-0.7,0.3-0.5,0.7c0.6,1.1,1.6,2.1,2.3,3.2c0.7,1,1.4,2.2,2,3.3
			c1.2,2.4,2.3,4.9,3,7.5c1.8,5.8,2.4,11.7,3.2,17.7c0.4,3.6,1.2,7.1,1.8,10.6C152,1142.4,152.6,1142.4,152.5,1142L152.5,1142z"/>
	</g>
</g>
<g class="st0">
	<g>
		<path class="st3" d="M143.8,1172.9C143.8,1172.8,143.8,1172.8,143.8,1172.9c0-0.1,0-0.1,0-0.2c0,0,0,0,0-0.1l0-0.1l0-0.1
			c0-0.1-0.1-0.1-0.2,0l0,0.1l0,0.1c0,0,0,0,0,0.1l0,0l0,0.1C143.7,1172.9,143.7,1172.9,143.8,1172.9L143.8,1172.9L143.8,1172.9z"/>
	</g>
</g>
<path class="st4" d="M187,1222.4c-1.8,0.2-3.3-1.4-3.5-3.5c-0.2-2.1,1-3.9,2.8-4.1c1.8-0.2,3.3,1.4,3.5,3.5
	C190,1220.4,188.7,1222.2,187,1222.4z"/>
<ellipse transform="matrix(0.9954 -9.536159e-02 9.536159e-02 0.9954 -105.7596 13.9098)" class="st4" cx="92.7" cy="1113.5" rx="3.2" ry="3.8"/>
<path class="st4" d="M93.4,1281.8c-1.8,0.2-3.3-1.4-3.5-3.5c-0.2-2.1,1-3.9,2.8-4.1c1.8-0.2,3.3,1.4,3.5,3.5
	S95.2,1281.6,93.4,1281.8z"/>
<path class="st4" d="M150.5,1237.7c-0.9,0.1-1.7-0.6-1.8-1.7c-0.1-1,0.5-2,1.4-2c0.9-0.1,1.7,0.6,1.8,1.7
	C152,1236.7,151.4,1237.6,150.5,1237.7z"/>
<path class="st4" d="M108.4,1277.1c-0.9,0.1-1.7-0.6-1.8-1.7c-0.1-1,0.5-2,1.4-2c0.9-0.1,1.7,0.6,1.8,1.7
	C109.8,1276.2,109.2,1277,108.4,1277.1z"/>
<path class="st5" d="M100.4,1298.6c-0.9,0.1-1.7-0.6-1.8-1.7c-0.1-1,0.5-2,1.4-2c0.9-0.1,1.7,0.6,1.8,1.7
	C101.9,1297.5,101.3,1298.5,100.4,1298.6z"/>
<path class="st4" d="M123.3,1114c-0.9,0.1-1.7-0.6-1.8-1.7c-0.1-1,0.5-2,1.4-2c0.9-0.1,1.7,0.6,1.8,1.7S124.2,1114,123.3,1114z"/>
<g class="st0">
	<g>
		<path class="st1" d="M104.2,1093.8c-12-2.2-24.3,1.4-33.8,9c-2.7,2.2-5.5,4.6-7.3,7.6c-0.3,0.4,0.4,0.7,0.6,0.4
			c2.2-2.1,4.2-4.4,6.6-6.5c2.3-1.9,4.8-3.6,7.4-5c5.1-2.8,10.7-4.5,16.5-5.1c3.3-0.3,6.6-0.2,9.9,0.3
			C104.5,1094.5,104.6,1093.8,104.2,1093.8L104.2,1093.8z"/>
	</g>
</g>
<g class="st0">
	<g>
		<path class="st2" d="M183.2,1277.7c-1.8,0.6-3.6,0.9-5.5,1.1c-0.4,0-0.3,0.6,0.1,0.6c1.9,0,3.9-0.7,5.6-1.4
			C183.7,1277.9,183.5,1277.5,183.2,1277.7L183.2,1277.7z"/>
	</g>
</g>
<ellipse transform="matrix(0.9954 -9.536170e-02 9.536170e-02 0.9954 -96.4335 16.8184)" class="st2" cx="127.7" cy="1017.3" rx="16.2" ry="18.1"/>
<path class="st6" d="M166.5,1158c-0.2-0.2-0.4-0.3-0.6-0.4c-0.5-0.3-1.1-0.4-1.8-0.5c-2.8-0.6-4.9-1.5-5.9-5
	c-0.6-2.4-0.4-5.3,1.5-6.7c1.1-0.8,2.5-0.8,3.9-0.5c2.5,0.6,4.6,2.2,6.4,4.3c1.7,2.1,3.1,4.6,3.9,7.4c0.1,0.3,0.3,0.6,0.2,1
	c0,0.4-0.1,0.7-0.3,1c-0.6,1.1-1.6,1.7-2.8,1.7c-1.1,0-2.2-0.5-3.1-1.2C167.5,1158.8,167.1,1158.4,166.5,1158z"/>
<path class="st2" d="M76.2,745c-13.8,1.3-26.4-9.9-28.2-25.3l51.1-4.9C100.2,730.2,90,743.6,76.2,745z"/>
<path class="st2" d="M93.9,984c-3,0.3-5.7-2.3-6.1-5.6s1.9-6.4,4.9-6.7s5.7,2.3,6.1,5.6C99.1,980.7,96.9,983.7,93.9,984z"/>
<path class="st6" d="M179.5,1161.7c-1.1-0.5-1.8-1.5-2.9-1.3c-1.5,0.1-2.9,2-2,3.8c0.3,0.6,0.8,1,1.2,1.3c1,0.6,2.2,0.8,3.1,0.3
	C180.3,1165,181.3,1162.3,179.5,1161.7"/>
<ellipse transform="matrix(0.9954 -9.536348e-02 9.536348e-02 0.9954 -106.7572 27.3075)" class="st2" cx="232.3" cy="1130.6" rx="16.2" ry="18.1"/>
<circle class="st2" cx="227.3" cy="998.4" r="23.8"/>
<path class="st6" d="M120.3,1060.2c-1.1-0.5-1.8-1.5-2.9-1.3c-1.5,0.1-2.9,2-2,3.8c0.3,0.6,0.8,1,1.2,1.3c1,0.6,2.2,0.8,3.1,0.3
	C121,1063.6,122.1,1060.9,120.3,1060.2"/>
<path class="st6" d="M26.6,1083.8c-1.1-0.5-1.8-1.5-2.9-1.3c-1.5,0.1-2.9,2-2,3.8c0.3,0.6,0.8,1,1.2,1.3c1,0.6,2.2,0.8,3.1,0.3
	C27.4,1087.2,28.5,1084.5,26.6,1083.8"/>
<path class="st6" d="M180.5,901.8c1.2-0.7,1.9-1.9,3.4-1.9c1.9-0.2,4.2,1.3,3.4,3.3c-0.2,0.6-0.8,1.2-1.4,1.5
	c-1.1,0.8-2.6,1.3-3.9,1C180.2,905.4,178.3,902.9,180.5,901.8"/>
<ellipse transform="matrix(0.9954 -9.536159e-02 9.536159e-02 0.9954 -91.1385 20.8504)" class="st2" cx="172.6" cy="964" rx="14.2" ry="15.7"/>
<path class="st2" d="M97.6,1131.5c-3,0.3-5.7-2.3-6.1-5.6c-0.3-3.4,1.9-6.4,4.9-6.7c3-0.3,5.7,2.3,6.1,5.6
	C102.8,1128.3,100.6,1131.2,97.6,1131.5z"/>
<g class="st0">
	<path class="st1" d="M464.7,1231.8v256.4c0,4.2-3.8,7.6-8.5,7.6H-20.7c-4.7,0-8.5-3.4-8.5-7.6v-253.8c0-4.2,3.8-7.6,8.5-7.6h479.8
		C462.2,1226.8,464.7,1229.1,464.7,1231.8z"/>
</g>
<g class="st0">
	<g>
		<path class="st2" d="M298.6,1314.9c-3.2,0.3-6.5,0.2-9.8,0.3s-6.5,0.1-9.8,0.3c-5.7,0.3-11.5,1.1-16.8,3.2c-1.4,0.5-2.7,1.2-4,1.9
			c-1.2,0.7-2.6,1.5-3.5,2.7c-0.3,0.4,0.2,0.7,0.6,0.6c1.2-0.5,2.2-1.4,3.4-2c1.1-0.6,2.3-1.2,3.5-1.7c2.5-1,5.1-1.8,7.8-2.3
			c5.9-1.2,11.9-1.3,17.9-1.5c3.6-0.1,7.2-0.5,10.7-0.8C299,1315.5,299,1314.9,298.6,1314.9L298.6,1314.9z"/>
	</g>
</g>
<g class="st0">
	<g>
		<path class="st3" d="M328.5,1326.5C328.4,1326.5,328.4,1326.5,328.5,1326.5c-0.1,0-0.1,0-0.2,0c0,0,0,0-0.1,0h-0.1H328
			c-0.1,0-0.1,0.1,0,0.2h0.1h0.1c0,0,0,0,0.1,0l0,0h0.1C328.5,1326.6,328.5,1326.6,328.5,1326.5L328.5,1326.5L328.5,1326.5z"/>
	</g>
</g>
<path class="st4" d="M381.9,1288.3c0,1.8-1.7,3.2-3.8,3.2c-2.1,0-3.8-1.4-3.8-3.2s1.7-3.2,3.8-3.2S381.9,1286.6,381.9,1288.3z"/>
<ellipse class="st4" cx="264.5" cy="1371.8" rx="3.8" ry="3.2"/>
<path class="st4" d="M432.1,1387.1c0,1.8-1.7,3.2-3.8,3.2c-2.1,0-3.8-1.4-3.8-3.2c0-1.8,1.7-3.2,3.8-3.2
	C430.4,1383.9,432.1,1385.3,432.1,1387.1z"/>
<path class="st4" d="M393.7,1326.1c0,0.9-0.8,1.6-1.9,1.6c-1,0-1.9-0.7-1.9-1.6c0-0.9,0.8-1.6,1.9-1.6
	C392.8,1324.5,393.7,1325.2,393.7,1326.1z"/>
<path class="st4" d="M428.9,1371.7c0,0.9-0.8,1.6-1.9,1.6c-1,0-1.9-0.7-1.9-1.6s0.8-1.6,1.9-1.6
	C428.1,1370.2,428.9,1370.9,428.9,1371.7z"/>
<path class="st5" d="M449.5,1381.7c0,0.9-0.8,1.6-1.9,1.6c-1,0-1.9-0.7-1.9-1.6s0.8-1.6,1.9-1.6
	C448.6,1380.1,449.5,1380.8,449.5,1381.7z"/>
<path class="st4" d="M268,1341.3c0,0.9-0.8,1.6-1.9,1.6c-1,0-1.9-0.7-1.9-1.6s0.8-1.6,1.9-1.6C267.2,1339.7,268,1340.4,268,1341.3z"
	/>
<g class="st0">
	<g>
		<path class="st1" d="M246,1358.4c-3.3,11.7-0.9,24.3,5.7,34.5c1.9,2.9,4.1,5.9,6.9,8c0.4,0.3,0.7-0.3,0.5-0.6
			c-1.9-2.4-4-4.6-5.8-7.2c-1.7-2.5-3.1-5.1-4.3-7.8c-2.3-5.3-3.5-11.1-3.5-16.9c0-3.3,0.4-6.6,1.2-9.8
			C246.8,1358.2,246.1,1358,246,1358.4L246,1358.4z"/>
	</g>
</g>
<g class="st0">
	<g>
		<path class="st2" d="M436.6,1297.3c0.4,1.8,0.5,3.7,0.6,5.6c0,0.4,0.6,0.4,0.6,0c0.2-1.9-0.3-3.9-0.9-5.7
			C436.9,1296.9,436.5,1297,436.6,1297.3L436.6,1297.3z"/>
	</g>
</g>
<ellipse class="st2" cx="172.2" cy="1327.7" rx="18.1" ry="16.2"/>
<path class="st6" d="M315.9,1302.5c-0.2,0.2-0.3,0.4-0.5,0.6c-0.3,0.5-0.5,1.1-0.7,1.7c-0.9,2.7-2,4.7-5.5,5.4
	c-2.4,0.4-5.3-0.1-6.5-2.1c-0.7-1.2-0.6-2.6-0.1-3.9c0.8-2.4,2.6-4.4,4.9-6c2.3-1.5,4.9-2.6,7.7-3.2c0.3-0.1,0.6-0.2,1-0.1
	c0.4,0,0.7,0.2,1,0.4c1,0.7,1.5,1.8,1.4,2.9c-0.1,1.1-0.7,2.1-1.5,3C316.8,1301.6,316.3,1302,315.9,1302.5z"/>
<path class="st2" d="M-237.8,1025c0,13.9-12.4,25.3-27.9,25.7v-51.3C-250.2,999.7-237.8,1011.1-237.8,1025z"/>
<path class="st2" d="M135.7,1358.1c0,3-2.8,5.5-6.2,5.5c-3.4,0-6.2-2.5-6.2-5.5s2.8-5.5,6.2-5.5
	C133,1352.6,135.7,1355.1,135.7,1358.1z"/>
<path class="st6" d="M320.8,1289.9c-0.6,1-1.7,1.6-1.6,2.8c0,1.5,1.7,3.1,3.6,2.4c0.6-0.2,1.1-0.7,1.4-1.1c0.7-0.9,1-2.1,0.6-3.1
	C324.2,1289.5,321.6,1288.2,320.8,1289.9"/>
<ellipse class="st2" cx="294.9" cy="1234.4" rx="18.1" ry="16.2"/>
<circle class="st2" cx="162.8" cy="1226.8" r="23.8"/>
<path class="st6" d="M214.1,1339.2c-0.6,1-1.7,1.6-1.6,2.8c0,1.5,1.7,3.1,3.6,2.4c0.6-0.2,1.1-0.7,1.4-1.1c0.7-0.9,1-2.1,0.6-3.1
	C217.6,1338.8,215,1337.5,214.1,1339.2"/>
<path class="st6" d="M228.7,1434.7c-0.6,1-1.7,1.6-1.6,2.8c0,1.5,1.7,3.1,3.6,2.4c0.6-0.2,1.1-0.7,1.4-1.1c0.7-0.9,1-2.1,0.6-3.1
	C232.1,1434.2,229.5,1432.9,228.7,1434.7"/>
<path class="st6" d="M62.2,1264.2c-0.6-1.3-1.7-2.1-1.6-3.6c0-1.9,1.7-4.1,3.6-3.1c0.6,0.3,1.1,0.9,1.4,1.5c0.7,1.2,1,2.7,0.6,4
	C65.7,1264.8,63.1,1266.5,62.2,1264.2"/>
<ellipse class="st2" cx="123.3" cy="1277.9" rx="15.7" ry="14.2"/>
<path class="st2" d="M283,1368.6c0,3-2.8,5.5-6.2,5.5c-3.4,0-6.2-2.5-6.2-5.5s2.8-5.5,6.2-5.5C280.3,1363.1,283,1365.6,283,1368.6z"
	/>
<g class="st0">
	<path class="st1" d="M240.1,1756.4l-255.2,24.5c-4.2,0.4-7.9-3.1-8.4-7.7L-69,1298.4c-0.4-4.7,2.6-8.8,6.8-9.2l252.6-24.2
		c4.2-0.4,7.9,3.1,8.4,7.7l45.8,477.6C244.8,1753.4,242.8,1756.1,240.1,1756.4z"/>
</g>
<g class="st0">
	<g>
		<path class="st2" d="M141.5,1599c-0.6-3.2-0.8-6.5-1.2-9.7c-0.4-3.3-0.7-6.5-1.2-9.7c-0.8-5.6-2.2-11.3-4.8-16.4
			c-0.6-1.3-1.5-2.6-2.3-3.8c-0.8-1.1-1.7-2.4-3-3.2c-0.4-0.3-0.7,0.3-0.5,0.7c0.6,1.1,1.6,2.1,2.3,3.2c0.7,1,1.4,2.2,2,3.3
			c1.2,2.4,2.3,4.9,3,7.5c1.8,5.8,2.4,11.7,3.2,17.7c0.4,3.6,1.2,7.1,1.8,10.6C141,1599.4,141.6,1599.4,141.5,1599L141.5,1599z"/>
	</g>
</g>
<g class="st0">
	<g>
		<path class="st3" d="M132.8,1629.9C132.8,1629.8,132.8,1629.8,132.8,1629.9c0-0.1,0-0.1,0-0.2c0,0,0,0,0-0.1l0-0.1l0-0.1
			c0-0.1-0.1-0.1-0.2,0l0,0.1l0,0.1c0,0,0,0,0,0.1l0,0l0,0.1C132.7,1629.9,132.7,1629.9,132.8,1629.9L132.8,1629.9L132.8,1629.9z"/>
	</g>
</g>
<path class="st4" d="M176,1679.4c-1.8,0.2-3.3-1.4-3.5-3.5c-0.2-2.1,1-3.9,2.8-4.1c1.8-0.2,3.3,1.4,3.5,3.5
	C179,1677.4,177.7,1679.2,176,1679.4z"/>
<ellipse transform="matrix(0.9954 -9.536159e-02 9.536159e-02 0.9954 -149.39 14.9435)" class="st4" cx="81.7" cy="1570.5" rx="3.2" ry="3.8"/>
<path class="st4" d="M-51.6,1537.8c-1.8,0.2-3.3-1.4-3.5-3.5c-0.2-2.1,1-3.9,2.8-4.1c1.8-0.2,3.3,1.4,3.5,3.5
	C-48.6,1535.8-49.8,1537.6-51.6,1537.8z"/>
<path class="st4" d="M139.5,1694.7c-0.9,0.1-1.7-0.6-1.8-1.7c-0.1-1,0.5-2,1.4-2c0.9-0.1,1.7,0.6,1.8,1.7
	C141,1693.7,140.4,1694.6,139.5,1694.7z"/>
<path class="st4" d="M-36.6,1533.1c-0.9,0.1-1.7-0.6-1.8-1.7c-0.1-1,0.5-2,1.4-2c0.9-0.1,1.7,0.6,1.8,1.7
	C-35.2,1532.2-35.8,1533-36.6,1533.1z"/>
<path class="st5" d="M-44.6,1554.6c-0.9,0.1-1.7-0.6-1.8-1.7c-0.1-1,0.5-2,1.4-2c0.9-0.1,1.7,0.6,1.8,1.7
	C-43.1,1553.5-43.7,1554.5-44.6,1554.6z"/>
<path class="st4" d="M112.3,1571c-0.9,0.1-1.7-0.6-1.8-1.7c-0.1-1,0.5-2,1.4-2c0.9-0.1,1.7,0.6,1.8,1.7S113.2,1571,112.3,1571z"/>
<g class="st0">
	<g>
		<path class="st1" d="M93.2,1550.8c-12-2.2-24.3,1.4-33.8,9c-2.7,2.2-5.5,4.6-7.3,7.6c-0.3,0.4,0.4,0.7,0.6,0.4
			c2.2-2.1,4.2-4.4,6.6-6.5c2.3-1.9,4.8-3.6,7.4-5c5.1-2.8,10.7-4.5,16.5-5.1c3.3-0.3,6.6-0.2,9.9,0.3
			C93.5,1551.5,93.6,1550.8,93.2,1550.8L93.2,1550.8z"/>
	</g>
</g>
<g class="st0">
	<g>
		<path class="st2" d="M38.2,1533.7c-1.8,0.6-3.6,0.9-5.5,1.1c-0.4,0-0.3,0.6,0.1,0.6c1.9,0,3.9-0.7,5.6-1.4
			C38.7,1533.9,38.5,1533.5,38.2,1533.7L38.2,1533.7z"/>
	</g>
</g>
<ellipse transform="matrix(0.9954 -9.536170e-02 9.536170e-02 0.9954 -140.0639 17.8521)" class="st2" cx="116.7" cy="1474.3" rx="16.2" ry="18.1"/>
<path class="st6" d="M155.5,1615c-0.2-0.2-0.4-0.3-0.6-0.4c-0.5-0.3-1.1-0.4-1.8-0.5c-2.8-0.6-4.9-1.5-5.9-5
	c-0.6-2.4-0.4-5.3,1.5-6.7c1.1-0.8,2.5-0.8,3.9-0.5c2.5,0.6,4.6,2.2,6.4,4.3c1.7,2.1,3.1,4.6,3.9,7.4c0.1,0.3,0.3,0.6,0.2,1
	c0,0.4-0.1,0.7-0.3,1c-0.6,1.1-1.6,1.7-2.8,1.7c-1.1,0-2.2-0.5-3.1-1.2C156.5,1615.8,156.1,1615.4,155.5,1615z"/>
<path class="st2" d="M65.2,1202c-13.8,1.3-26.4-9.9-28.2-25.3l51.1-4.9C89.2,1187.2,79,1200.6,65.2,1202z"/>
<path class="st2" d="M82.9,1441c-3,0.3-5.7-2.3-6.1-5.6s1.9-6.4,4.9-6.7c3-0.3,5.7,2.3,6.1,5.6C88.1,1437.7,85.9,1440.7,82.9,1441z"
	/>
<path class="st6" d="M168.5,1618.7c-1.1-0.5-1.8-1.5-2.9-1.3c-1.5,0.1-2.9,2-2,3.8c0.3,0.6,0.8,1,1.2,1.3c1,0.6,2.2,0.8,3.1,0.3
	C169.3,1622,170.3,1619.3,168.5,1618.7"/>
<ellipse transform="matrix(0.9954 -9.536348e-02 9.536348e-02 0.9954 -150.3884 28.3412)" class="st2" cx="221.3" cy="1587.6" rx="16.2" ry="18.1"/>
<circle class="st2" cx="216.3" cy="1455.4" r="23.8"/>
<path class="st6" d="M109.3,1517.2c-1.1-0.5-1.8-1.5-2.9-1.3c-1.5,0.1-2.9,2-2,3.8c0.3,0.6,0.8,1,1.2,1.3c1,0.6,2.2,0.8,3.1,0.3
	C110,1520.6,111.1,1517.9,109.3,1517.2"/>
<path class="st6" d="M15.6,1540.8c-1.1-0.5-1.8-1.5-2.9-1.3c-1.5,0.1-2.9,2-2,3.8c0.3,0.6,0.8,1,1.2,1.3c1,0.6,2.2,0.8,3.1,0.3
	C16.4,1544.2,17.5,1541.5,15.6,1540.8"/>
<path class="st6" d="M169.5,1358.8c1.2-0.7,1.9-1.9,3.4-1.9c1.9-0.2,4.2,1.3,3.4,3.3c-0.2,0.6-0.8,1.2-1.4,1.5
	c-1.1,0.8-2.6,1.3-3.9,1C169.2,1362.4,167.3,1359.9,169.5,1358.8"/>
<ellipse transform="matrix(0.9954 -9.536159e-02 9.536159e-02 0.9954 -134.7689 21.8841)" class="st2" cx="161.6" cy="1421" rx="14.2" ry="15.7"/>
<path class="st2" d="M86.6,1588.5c-3,0.3-5.7-2.3-6.1-5.6c-0.3-3.4,1.9-6.4,4.9-6.7c3-0.3,5.7,2.3,6.1,5.6
	C91.8,1585.3,89.6,1588.2,86.6,1588.5z"/>
</svg>
