<?xml version="1.0" encoding="utf-8"?>
<!-- Generator: Adobe Illustrator 24.0.0, SVG Export Plug-In . SVG Version: 6.00 Build 0)  -->
<svg version="1.1" id="OBJECTS" xmlns="http://www.w3.org/2000/svg" xmlns:xlink="http://www.w3.org/1999/xlink" x="0px" y="0px"
	 viewBox="0 0 500 500" style="enable-background:new 0 0 500 500;" xml:space="preserve">
<style type="text/css">
	.st0{opacity:0.42;}
	.st1{fill:#FFFFFF;}
	.st2{fill:#E1E2FF;}
	.st3{fill:#392A51;}
	.st4{opacity:0.42;fill:#FFFFFF;}
	.st5{opacity:0.42;fill:#7970E5;}
	.st6{opacity:0.42;fill:#E1E2FF;}
</style>
<g class="st0">
	<path class="st1" d="M493.9,146.7v256.4c0,4.2-3.8,7.6-8.5,7.6H8.5c-4.7,0-8.5-3.4-8.5-7.6V149.3c0-4.2,3.8-7.6,8.5-7.6h479.8
		C491.4,141.7,493.9,144,493.9,146.7z"/>
</g>
<g class="st0">
	<g>
		<path class="st2" d="M327.8,229.8c-3.2,0.3-6.5,0.2-9.8,0.3c-3.3,0.1-6.5,0.1-9.8,0.3c-5.7,0.3-11.5,1.1-16.8,3.2
			c-1.4,0.5-2.7,1.2-4,1.9c-1.2,0.7-2.6,1.5-3.5,2.7c-0.3,0.4,0.2,0.7,0.6,0.6c1.2-0.5,2.2-1.4,3.4-2c1.1-0.6,2.3-1.2,3.5-1.7
			c2.5-1,5.1-1.8,7.8-2.3c5.9-1.2,11.9-1.3,17.9-1.5c3.6-0.1,7.2-0.5,10.7-0.8C328.2,230.4,328.2,229.8,327.8,229.8L327.8,229.8z"/>
	</g>
</g>
<g class="st0">
	<g>
		<path class="st3" d="M357.7,241.4C357.6,241.4,357.6,241.4,357.7,241.4c-0.1,0-0.1,0-0.2,0c0,0,0,0-0.1,0c0,0-0.1,0-0.1,0
			c0,0-0.1,0-0.1,0c-0.1,0-0.1,0.1,0,0.2c0,0,0.1,0,0.1,0c0,0,0.1,0,0.1,0c0,0,0,0,0.1,0c0,0,0,0,0,0c0,0,0.1,0,0.1,0
			C357.7,241.5,357.7,241.5,357.7,241.4C357.7,241.4,357.7,241.4,357.7,241.4L357.7,241.4z"/>
	</g>
</g>
<path class="st4" d="M411.1,203.2c0,1.8-1.7,3.2-3.8,3.2c-2.1,0-3.8-1.4-3.8-3.2c0-1.8,1.7-3.2,3.8-3.2
	C409.4,200,411.1,201.5,411.1,203.2z"/>
<ellipse class="st4" cx="293.7" cy="286.7" rx="3.8" ry="3.2"/>
<path class="st4" d="M461.3,302c0,1.8-1.7,3.2-3.8,3.2c-2.1,0-3.8-1.4-3.8-3.2c0-1.8,1.7-3.2,3.8-3.2
	C459.6,298.8,461.3,300.2,461.3,302z"/>
<path class="st4" d="M422.9,241c0,0.9-0.8,1.6-1.9,1.6c-1,0-1.9-0.7-1.9-1.6c0-0.9,0.8-1.6,1.9-1.6C422,239.4,422.9,240.1,422.9,241
	z"/>
<path class="st4" d="M458.1,286.6c0,0.9-0.8,1.6-1.9,1.6c-1,0-1.9-0.7-1.9-1.6c0-0.9,0.8-1.6,1.9-1.6
	C457.3,285.1,458.1,285.8,458.1,286.6z"/>
<path class="st5" d="M478.7,296.6c0,0.9-0.8,1.6-1.9,1.6c-1,0-1.9-0.7-1.9-1.6c0-0.9,0.8-1.6,1.9-1.6
	C477.8,295,478.7,295.7,478.7,296.6z"/>
<path class="st4" d="M297.2,256.2c0,0.9-0.8,1.6-1.9,1.6c-1,0-1.9-0.7-1.9-1.6c0-0.9,0.8-1.6,1.9-1.6
	C296.4,254.6,297.2,255.3,297.2,256.2z"/>
<g class="st0">
	<g>
		<path class="st1" d="M275.2,273.3c-3.3,11.7-0.9,24.3,5.7,34.5c1.9,2.9,4.1,5.9,6.9,8c0.4,0.3,0.7-0.3,0.5-0.6
			c-1.9-2.4-4-4.6-5.8-7.2c-1.7-2.5-3.1-5.1-4.3-7.8c-2.3-5.3-3.5-11.1-3.5-16.9c0-3.3,0.4-6.6,1.2-9.8
			C276,273.1,275.3,272.9,275.2,273.3L275.2,273.3z"/>
	</g>
</g>
<g class="st0">
	<g>
		<path class="st2" d="M465.8,212.2c0.4,1.8,0.5,3.7,0.6,5.6c0,0.4,0.6,0.4,0.6,0c0.2-1.9-0.3-3.9-0.9-5.7
			C466.1,211.8,465.7,211.9,465.8,212.2L465.8,212.2z"/>
	</g>
</g>
<ellipse class="st2" cx="27.5" cy="237" rx="18.1" ry="16.2"/>
<path class="st6" d="M345.1,217.4c-0.2,0.2-0.3,0.4-0.5,0.6c-0.3,0.5-0.5,1.1-0.7,1.7c-0.9,2.7-2,4.7-5.5,5.4
	c-2.4,0.4-5.3-0.1-6.5-2.1c-0.7-1.2-0.6-2.6-0.1-3.9c0.8-2.4,2.6-4.4,4.9-6c2.3-1.5,4.9-2.6,7.7-3.2c0.3-0.1,0.6-0.2,1-0.1
	c0.4,0,0.7,0.2,1,0.4c1,0.7,1.5,1.8,1.4,2.9c-0.1,1.1-0.7,2.1-1.5,3C346,216.5,345.5,216.9,345.1,217.4z"/>
<path class="st2" d="M28.5,193.5c0,13.9-12.4,25.3-27.9,25.7v-51.3C16.1,168.2,28.5,179.6,28.5,193.5z"/>
<path class="st2" d="M53.7,210c0,3-2.8,5.5-6.2,5.5c-3.4,0-6.2-2.5-6.2-5.5s2.8-5.5,6.2-5.5C51,204.5,53.7,207,53.7,210z"/>
<path class="st6" d="M350,204.8c-0.6,1-1.7,1.6-1.6,2.8c0,1.5,1.7,3.1,3.6,2.4c0.6-0.2,1.1-0.7,1.4-1.1c0.7-0.9,1-2.1,0.6-3.1
	C353.4,204.4,350.8,203.1,350,204.8"/>
<ellipse class="st2" cx="500" cy="272.2" rx="18.1" ry="16.2"/>
<circle class="st2" cx="443" cy="331.1" r="23.8"/>
<path class="st6" d="M243.3,254.1c-0.6,1-1.7,1.6-1.6,2.8c0,1.5,1.7,3.1,3.6,2.4c0.6-0.2,1.1-0.7,1.4-1.1c0.7-0.9,1-2.1,0.6-3.1
	C246.8,253.7,244.2,252.4,243.3,254.1"/>
<path class="st6" d="M257.9,349.6c-0.6,1-1.7,1.6-1.6,2.8c0,1.5,1.7,3.1,3.6,2.4c0.6-0.2,1.1-0.7,1.4-1.1c0.7-0.9,1-2.1,0.6-3.1
	C261.3,349.1,258.7,347.8,257.9,349.6"/>
<path class="st6" d="M91.4,179.1c-0.6-1.3-1.7-2.1-1.6-3.6c0-1.9,1.7-4.1,3.6-3.1c0.6,0.3,1.1,0.9,1.4,1.5c0.7,1.2,1,2.7,0.6,4
	C94.9,179.7,92.3,181.4,91.4,179.1"/>
<ellipse class="st2" cx="478.7" cy="406" rx="15.7" ry="14.2"/>
<path class="st2" d="M475.2,379.5c0,3-2.8,5.5-6.2,5.5c-3.4,0-6.2-2.5-6.2-5.5s2.8-5.5,6.2-5.5C472.5,374,475.2,376.5,475.2,379.5z"
	/>
</svg>
