<svg xmlns="http://www.w3.org/2000/svg" xmlns:xlink="http://www.w3.org/1999/xlink" viewBox="0 0 4800 4200" xmlns:v="https://vecta.io/nano"><style><![CDATA[.O,.G,.I,.K,.M{mix-blend-mode:multiply}.BG{fill:#ffb68e}.BH{fill:#fff}.BI{fill:#000538}.BJ{fill:#172755}.BK{fill:#98d8c9}.BL{color-interpolation-filters:sRGB}.BM{flood-color:#fff}.BN{fill:#de5f12}.BO{fill:#003b64}.BP{opacity:.56}.BQ{fill:#004e15}.BR{fill:#2f375f}.BS{fill:#063638}.BT{fill:#f0fffc}.BU{opacity:.18}.BV{fill:#003351}.BW{fill:#0a5558}.BX{fill:#009297}.BY{fill:#003d68}.BZ{fill:#b2f7e9}.Ba{fill:#00a098}.Bb{fill:#ffa600}.Bc{fill:#11b7ae}]]></style><defs><filter  x="2642.25" y="-10292" width="176.28" height="32766" filterUnits="userSpaceOnUse" class="BL"><feFlood class="BM"/><feBlend in="SourceGraphic"/></filter><mask id="B" x="2642.25" y="-10292" width="176.28" height="32766" maskUnits="userSpaceOnUse"/><linearGradient id="C" x1="3070.18" y1="2951.13" x2="2492.23" y2="3575.84" xlink:href="#AZ"><stop offset="0" stop-color="#fff"/><stop offset=".33" stop-color="#ccc"/><stop offset=".57" stop-color="#5e5e5e"/><stop offset=".7"/></linearGradient><filter  x="2140.84" y="-10292" width="296.74" height="32766" filterUnits="userSpaceOnUse" class="BL"><feFlood class="BM"/><feBlend in="SourceGraphic"/></filter><mask id="E" x="2140.84" y="-10292" width="296.74" height="32766" maskUnits="userSpaceOnUse"/><linearGradient id="F" x1="2863.86" y1="2563.01" x2="1890.94" y2="3614.65" xlink:href="#C"/><filter  x="1670.88" y="-10292" width="386.03" height="32766" filterUnits="userSpaceOnUse" class="BL"><feFlood class="BM"/><feBlend in="SourceGraphic"/></filter><mask id="H" x="1670.88" y="-10292" width="386.03" height="32766" maskUnits="userSpaceOnUse"/><linearGradient id="I" x1="2625.43" y1="1779.18" x2="1359.79" y2="3147.23" xlink:href="#C"/><filter  x="1263.24" y="-10292" width="403.11" height="32766" filterUnits="userSpaceOnUse" class="BL"><feFlood class="BM"/><feBlend in="SourceGraphic"/></filter><mask id="K" x="1263.24" y="-10292" width="403.11" height="32766" maskUnits="userSpaceOnUse"/><linearGradient id="L" x1="2245.5" y1="1297.09" x2="923.84" y2="2725.68" xlink:href="#C"/><filter  x="1386.05" y="-10292" width="135.62" height="32766" filterUnits="userSpaceOnUse" class="BL"><feFlood class="BM"/><feBlend in="SourceGraphic"/></filter><mask id="N" x="1386.05" y="-10292" width="135.62" height="32766" maskUnits="userSpaceOnUse"/><linearGradient id="O" x1="1407.55" y1="482.04" x2="1464.45" y2="591.03" xlink:href="#AZ"><stop offset=".06" stop-color="#fff"/><stop offset="1"/></linearGradient><linearGradient id="P" x1="3690.8" y1="2852.24" x2="4330.51" y2="2852.24" gradientTransform="matrix(-0.97, 0.23, 0.23, 0.97, 3652.27, -446.67)" xlink:href="#AZ"><stop offset=".19" stop-color="#ffd234"/><stop offset=".99" stop-color="#ffb000"/></linearGradient><linearGradient id="Q" x1="62.626" y1="3039.634" x2="238.212" y2="3175.212" xlink:href="#P"/><linearGradient id="R" x1="2026.24" y1="4266.89" x2="2228.17" y2="4266.89" gradientTransform="matrix(0.34, 1.4, -0.97, 0.24, 3636.9, -945.37)" xlink:href="#P"/><linearGradient id="S" x1="1263.24" y1="2159.04" x2="1842.15" y2="2159.04" xlink:href="#P"/><linearGradient id="T" x1="1448.7" y1="378.43" x2="1448.7" y2="3436.71" xlink:href="#AZ"><stop offset=".32" stop-color="#004242"/><stop offset=".71" stop-color="#005c5e"/></linearGradient><linearGradient id="U" x1="1260.01" y1="1003.67" x2="1683.84" y2="1003.67" xlink:href="#P"/><linearGradient id="V" x1="1352.14" y1="902.69" x2="1629.58" y2="902.69" xlink:href="#P"/><filter id="W" x="2642.25" y="2938.27" width="176.28" height="569.74" filterUnits="userSpaceOnUse" class="BL"><feFlood class="BM"/><feBlend in="SourceGraphic"/></filter><mask id="X" x="2642.25" y="2938.27" width="176.28" height="569.74" maskUnits="userSpaceOnUse"><g mask="url(#B)" filter="url(#W)"><path class="G" d="M2818.53 2938.27L2642.25 3508h176.28v-569.74z" fill="url(#C)"/></g></mask><linearGradient id="Y" x1="3070.18" y1="2951.13" x2="2492.23" y2="3575.84" xlink:href="#AZ"><stop offset="0" stop-color="#004e55"/><stop offset=".33" stop-color="#00565e"/><stop offset=".57" stop-color="#1f6869"/><stop offset=".7" stop-color="#528986"/></linearGradient><filter id="Z" x="2140.84" y="2538.91" width="296.74" height="969.72" filterUnits="userSpaceOnUse" class="BL"><feFlood class="BM"/><feBlend in="SourceGraphic"/></filter><mask id="a" x="2140.84" y="2538.91" width="296.74" height="969.72" maskUnits="userSpaceOnUse"><g mask="url(#E)" filter="url(#Z)"><path class="I" d="M2437.6 2538.9L2140.84 3498l296.75 10.64V2538.9z" fill="url(#F)"/></g></mask><linearGradient id="b" x1="2863.86" y1="2563.01" x2="1890.94" y2="3614.65" xlink:href="#Y"/><filter id="c" x="1670.88" y="1734.88" width="386.03" height="1317.65" filterUnits="userSpaceOnUse" class="BL"><feFlood class="BM"/><feBlend in="SourceGraphic"/></filter><mask id="d" x="1670.88" y="1734.88" width="386.03" height="1317.65" maskUnits="userSpaceOnUse"><g mask="url(#H)" filter="url(#c)"><path class="K" d="M2056.9 1734.88l-386.03 1247.66 386.03 70V1734.88z" fill="url(#I)"/></g></mask><linearGradient id="e" x1="2625.43" y1="1779.18" x2="1359.79" y2="3147.23" xlink:href="#Y"/><filter id="f" x="1263.24" y="1264.27" width="403.11" height="1317.65" filterUnits="userSpaceOnUse" class="BL"><feFlood class="BM"/><feBlend in="SourceGraphic"/></filter><mask id="g" x="1263.24" y="1264.27" width="403.11" height="1317.65" maskUnits="userSpaceOnUse"><g mask="url(#K)" filter="url(#f)"><path class="M" d="M1666.35 1264.27l-403.1 1302.88 403.1 14.77V1264.27z" fill="url(#L)"/></g></mask><linearGradient id="h" x1="2245.5" y1="1297.09" x2="923.84" y2="2725.68" xlink:href="#Y"/><linearGradient id="i" x1="1451.95" y1="781.07" x2="1573.67" y2="781.07" xlink:href="#P"/><linearGradient id="j" x1="1374.88" y1="603.3" x2="1551.31" y2="603.3" xlink:href="#P"/><linearGradient id="k" x1="1365.62" y1="643.69" x2="1509.67" y2="744.68" xlink:href="#AZ"><stop offset=".17" stop-color="#e0f3f4"/><stop offset=".79" stop-color="#4d98a0"/></linearGradient><filter id="l" x="1386.05" y="521.06" width="135.62" height="119.37" filterUnits="userSpaceOnUse" class="BL"><feFlood class="BM"/><feBlend in="SourceGraphic"/></filter><mask id="m" x="1386.05" y="521.06" width="135.62" height="119.37" maskUnits="userSpaceOnUse"><g mask="url(#N)" filter="url(#l)"><path class="O" d="M1407.45 640.43s-48.16-67.18 0-103.92 114.22 3.57 114.22 3.57-61.6-2-90.7 22.45-25.9 63.02-23.5 77.9z" fill="url(#O)"/></g></mask><linearGradient id="n" x1="1407.55" y1="482.04" x2="1464.45" y2="591.03" xlink:href="#AZ"><stop offset=".06" stop-color="#fff"/></linearGradient><linearGradient id="o" x1="1563.736" y1="583.087" x2="1699.456" y2="537.254" xlink:href="#P"/><linearGradient id="p" x1="2834.64" y1="774.49" x2="2977.88" y2="774.49" gradientTransform="matrix(-0.95, -0.32, -0.32, 0.95, 4267.09, 756.31)" xlink:href="#P"/><linearGradient id="q" x1="3021.16" y1="1791.05" x2="3153.4" y2="1791.05" gradientTransform="matrix(-0.2, -0.98, -0.98, 0.2, 3857.83, 3104.66)" xlink:href="#P"/><linearGradient id="r" x1="1547.59" y1="478.33" x2="1638.29" y2="478.33" xlink:href="#P"/><linearGradient id="s" x1="1315.14" y1="479.73" x2="1394.85" y2="479.73" xlink:href="#P"/><linearGradient id="t" x1="2438.93" y1="2981.77" x2="2548.96" y2="2981.77" gradientTransform="matrix(-0.88, 0.48, 0.48, 0.88, 3447.31, -710.66)" xlink:href="#P"/><linearGradient id="u" x1="928.17" y1="3605.92" x2="1082.62" y2="3605.92" xlink:href="#P"/><linearGradient id="v" x1="623.24" y1="3505.42" x2="952.33" y2="3505.42" xlink:href="#P"/><linearGradient id="w" x1="746.41" y1="3605.92" x2="928.17" y2="3605.92" xlink:href="#P"/><linearGradient id="x" x1="2203.7" y1="2029.19" x2="2271.88" y2="2029.19" xlink:href="#P"/><linearGradient id="y" x1="2255.71" y1="1973.35" x2="2333.08" y2="1973.35" xlink:href="#P"/><linearGradient id="z" x1="2287.52" y1="2023.95" x2="2386.32" y2="2023.95" xlink:href="#P"/><linearGradient id="AA" x1="2067.45" y1="1687.4" x2="2058.38" y2="1687.4" xlink:href="#P"/><linearGradient id="AB" x1="2068.61" y1="1686.36" x2="2028.3" y2="1686.36" xlink:href="#P"/><linearGradient id="AC" x1="2118.5" y1="1687.4" x2="2109.43" y2="1687.4" xlink:href="#P"/><linearGradient id="AD" x1="2119.66" y1="1686.36" x2="2079.35" y2="1686.36" xlink:href="#P"/><linearGradient id="AE" x1="2116.34" y1="1301.14" x2="2016.25" y2="1301.14" xlink:href="#P"/><linearGradient id="AF" x1="3470.9" y1="1771.63" x2="3580.93" y2="1771.63" gradientTransform="matrix(-0.88, 0.48, 0.48, 0.88, 3447.31, -710.66)" xlink:href="#P"/><linearGradient id="AG" x1="1019.53" y1="1878.7" x2="1089.747" y2="1893.03" xlink:href="#P"/><linearGradient id="AH" x1="1189.06" y1="1822.27" x2="1534.27" y2="1822.27" xlink:href="#P"/><linearGradient id="AI" x1="1176.13" y1="1755.32" x2="1232.93" y2="1755.32" xlink:href="#P"/><linearGradient id="AJ" x1="1224.181" y1="1701.519" x2="1291.165" y2="1678.899" xlink:href="#P"/><linearGradient id="AK" x1="2686.07" y1="1904.84" x2="2756.77" y2="1904.84" gradientTransform="matrix(-0.95, -0.32, -0.32, 0.95, 4267.09, 756.31)" xlink:href="#P"/><linearGradient id="AL" x1="1953.86" y1="2319.41" x2="2024.56" y2="2319.41" gradientTransform="matrix(-0.2, -0.98, -0.98, 0.2, 3857.83, 3104.66)" xlink:href="#P"/><linearGradient id="AM" x1="1216.87" y1="1646.58" x2="1261.25" y2="1646.58" xlink:href="#P"/><linearGradient id="AN" x1="1103.13" y1="1647.33" x2="1142.13" y2="1647.33" xlink:href="#P"/><linearGradient id="AO" x1="3404.52" y1="2729.55" x2="3589" y2="2729.55" xlink:href="#P"/><linearGradient id="AP" x1="2444.482" y1="1517.505" x2="2488.84" y2="1573.773" xlink:href="#P"/><path id="AQ" d="M3908.52 3087.5H3444.2a5.85 5.85 0 0 1 0-11.7h464.33a5.85 5.85 0 0 1 0 11.7z"/><path id="AR" d="M3072.9 2487.94h-86.4a2.79 2.79 0 0 1 0-5.58h86.4a2.79 2.79 0 0 1 0 5.58z"/><path id="AS" d="M2750.53 3607.25l-17.5-1.07-14.22 9.17s-18.16 4-23 8 56.1-1.08 56.1-1.08z"/><path id="AT" d="M2732.57 3601.14l18.2 2.02-.34 6.02-17.38-3-.47-5.04z"/><path id="AU" d="M2739.24 1810.93s-22.86 13.3-27.56 31.38c-2.14 8.2 12.35 14.72 12.35 14.72-3.2 20.5-22.33 40.36-22.33 40.36s8.23 1.63 17 13.54c5.07 6.87 21-6.7 20.75-9.23-2.6-27.58 31.3-55.72 22.3-75.58s-22.5-15.2-22.5-15.2z"/><path id="AV" d="M2744.9 1818.73a47.05 47.05 0 0 0-12.34-14.34c-7.94-5.9 4.36-28.85 7.4-27.93s7.45 17 12.8 25.15 19.94 21 14.8 40.75-24.37 34.63-24.37 34.63-4.52-7.63-4.1-11.2 11.27-8.3 11.27-12.6-5.9-1.75-8-3.08 10.63-12.97 2.53-31.4z"/><path id="AW" d="M2810.863 2053.45l2.688-1.377 26.5 51.7-2.688 1.377z"/><path id="AX" d="M1158.46 3040.28l-17.48-1.07-14.22 9.18s-18.16 4-23 8 56.1-1.08 56.1-1.08z"/><path id="AY" d="M1006.8 3040.28l17.5-1.07 14.22 9.18s18.16 4 23 8-56.1-1.08-56.1-1.08z"/><linearGradient id="AZ" gradientUnits="userSpaceOnUse"/></defs><path d="M0 0h4800v4200H0z" class="BH"/><g class="BT"><path d="M843.06 2913.07s-482.7-405.27-446.27-510.32 191 30.14 208.42 15.37S367.53 2289.17 404 2118.8s304.5 67.32 304.5 67.32z"/><path d="M1015.4 3330.4S697.7 2665 568.7 2266.76C445.74 1887 208.2 872.08 1229.5 717.9c618.16-93.33 854.1 337.63 952.6 716.3 44.7 171.8 308.17-170.32 553.4 31.17s314.26 944.76 679.9 978.8c215.07 20 715.28-83.88 874.15 415.77 85.13 267.73-13.36 505.64-13.36 505.64z"/></g><path d="M3084.3 3379.52c-162.86-677.85 194.45-722.22 277.75-578.18 72.05 124.6 183.87 73.76 226.15 51.35 244.65-129.66 396.56-253.63 558.63-134.33 128.44 94.55 17.4 360.54 39.1 504.46 9.33 61.88 55.64 111.82 55.64 111.82s-37.16-128.54-17.52-154.8 29.4 29.6 50 26.93-2.57-80.22 41.27-70.3c69.6 15.74 17.75 148.28 32.2 145.9s78.56-84.1 102-66.63C4534.42 3279.1 4322 3382 4322 3382zm1144.97-242.05s-5.12-39.62 28.94-64 72.9-3 61.25 7.06-43.3 2.82-54.58 26.5-21.34 58.46-35.6 30.45zm135 75.4s-.72-39.94 35.8-60.44 72.8 5 60.1 13.76-43.34-2-57.17 20.32-27.65 55.77-38.75 26.36z" class="BZ"/><path d="M3296.38 2899.8h780.24a4.33 4.33 0 0 1 4.33 4.33v493.36a0 0 0 0 1 0 0h-788.9a0 0 0 0 1 0 0v-493.36a4.33 4.33 0 0 1 4.33-4.33z" class="BH"/><path d="M3314.9 2950.38h744.88v425.75H3314.9z" fill="#00fff1"/><g fill="#00d3cd"><path d="M3908.52 3035H3444.2a5.85 5.85 0 1 1 0-11.7h464.33a5.85 5.85 0 1 1 0 11.7z"/><use xlink:href="#AQ"/><use xlink:href="#AQ" y="52.5"/><path d="M3908.52 3192.48H3444.2a5.86 5.86 0 0 1 0-11.71h464.33a5.86 5.86 0 0 1 0 11.71z"/><use xlink:href="#AQ" y="157.5"/><use xlink:href="#AQ" y="209.95"/></g><path d="M3292.05 3374.02h927.1v23.48h-927.1z" fill="#d7fff7"/><path d="M3554.3 3397.5h664.85v37.4H3554.3z" class="Ba"/><path d="M3292.05 3397.5h262.24v37.4h-262.24z" fill="#00776e"/><g class="BK"><path d="M4300.37 3384.67a2.62 2.62 0 0 1-2-1c-.65-.78-15.9-20-11.3-87 5.2-75.36 31.84-136.23 32.1-136.83a2.64 2.64 0 0 1 4.82 2.16c-.26.6-26.54 60.66-31.67 135.07-4.44 64.34 10 83.13 10.1 83.3a2.65 2.65 0 0 1-.38 3.7 2.74 2.74 0 0 1-1.69.59z"/><path d="M4293.65 3367.57a2.48 2.48 0 0 1-1-.22 2.58 2.58 0 0 1-1.5-1.66l-49.1-165a2.63 2.63 0 0 1 5-1.5l48.2 162a761.5 761.5 0 0 0 76-47.05c40.72-28.76 78.5-80 78.9-80.52a2.63 2.63 0 1 1 4.24 3.11c-.38.52-38.67 52.45-80.08 81.7a751.5 751.5 0 0 1-79.45 48.92 2.65 2.65 0 0 1-1.19.21zm-185.5-63.23a3.16 3.16 0 0 1-2.61-1.41 2.62 2.62 0 0 1 .51-3.33c3.12-16.95 2.47-219.45-28.32-361.53-31.87-147-119.7-202.37-120.58-202.92a2.64 2.64 0 0 1-.86-3.62 2.59 2.59 0 0 1 3.62-.87c.9.55 90.6 57 123 206.3 28.9 133.28 34.93 363.72 26.16 367.22a2.44 2.44 0 0 1-.92.16zm-.14-2.6h0z"/><path d="M4063.65 2883.8c-4 0-22.86-2.2-98.67-31.65-85.13-33.06-138-72.37-138.5-72.77a2.64 2.64 0 0 1-.53-3.69 2.68 2.68 0 0 1 3.7-.53c.5.4 52.83 39.3 137.23 72.07 82.2 31.94 96.38 31.5 96.9 31.3a2.88 2.88 0 0 1 2.85 2.33 2.61 2.61 0 0 1-2.18 2.9 5.4 5.4 0 0 1-.81.05zm26.4 109.45a2.61 2.61 0 0 1-2-.9 2.64 2.64 0 0 1 .24-3.72c.5-.45 51.5-45.64 82.48-104.34 25.07-47.5 8.65-109.6 8.5-110.23a2.632 2.632 0 1 1 5.08-1.38c.7 2.62 17.14 64.7-8.92 114.07-31.43 59.57-83.14 105.38-83.65 105.84a2.65 2.65 0 0 1-1.72.66zm-13.12-67.45a2.63 2.63 0 0 1-2.35-3.82c.22-.45 22.84-46 30.6-113 6.26-54.1-17.06-88.82-17.3-89.16a2.62 2.62 0 0 1 .68-3.66 2.66 2.66 0 0 1 3.66.68c1 1.47 24.67 36.7 18.18 92.74-7.85 67.94-30.88 114.27-31.1 114.74a2.66 2.66 0 0 1-2.36 1.48z"/></g><path d="M1772.65 1735s-46.7-449.33 15.6-463.73 66.38 231.53 141.8 235.93 197.56-80.1 290.8-1.36c72.17 60.95 48.68 139.4 97.83 169.2s115-192.13 173.8-160.7c40.77 21.8-32 71.6-2.37 119.8 18.76 30.54 44.56-38.3 120.93-38.3 112.7 0 109.37 128.1 39.14 152.57s-135.5 14.5-157.7 65.68c-36.92 85.15 116.67 52.35 187 74.44 339.53 106.64 172.63 552.3 320 544 157.86-8.92-928.35 54-928.35 54z" class="BZ"/><g class="BK"><path d="M2178.47 2080.5a3.13 3.13 0 0 1-.94-.15 3 3 0 0 1-1.9-3.79c.65-2 66.6-198.4 184.42-300.65s287.45-113.93 289.15-114a2.8 2.8 0 0 1 3.18 2.81 3 3 0 0 1-2.81 3.18c-1.67.1-169.2 11.57-285.58 112.58-116.56 101.16-182 296-182.67 298a3 3 0 0 1-2.85 2.02zm240.08-348.13a3 3 0 0 1-3-2.52c-.2-1.33-5.06-33 12.36-89.36 17.34-56.07 42.22-93.3 42.47-93.66a3.009 3.009 0 0 1 5 3.35c-.25.37-24.64 36.9-41.7 92.08-17 54.82-12.23 86.32-12.17 86.63a3 3 0 0 1-2.49 3.44 2.67 2.67 0 0 1-.47.04zM2599 2503.5l-4.3-4.18 2.14 2.1h-3v-1c-1.07-26.9-4.08-167.3 42.26-290.2 50.84-134.86 164.75-188.08 165.9-188.6a3 3 0 1 1 2.48 5.46c-1.12.5-112.84 52.8-162.76 185.25-45.94 121.82-42.95 261.17-41.88 287.87.06 1.58.1 2.38-.84 3.3z"/><path d="M2810.58 2092.74a3.52 3.52 0 0 1-.45 0l-81.7-12.24a2.94 2.94 0 0 1-2.19-1.54 3 3 0 0 1-.09-2.69l44-94.82a3 3 0 0 1 5.44 2.53l-42.32 91.2 77.75 11.64a3.008 3.008 0 0 1-.44 6zM2794.2 2162h-.1l-127.57-5a3 3 0 0 1-2.88-3.08l2.76-102.25a3.001 3.001 0 1 1 6 .16l-2.68 99.3 124.6 4.93a3.001 3.001 0 0 1-.12 6zm-165.77 94.6a3 3 0 0 1-2.89-2.22l-32.92-122.77a3 3 0 1 1 5.79-1.55l32.3 120.47 158.33-4.64a3.07 3.07 0 0 1 3.08 2.91 3 3 0 0 1-2.9 3.09l-160.7 4.7z"/></g><rect x="526.33" y="1028.14" width="952.38" height="588.17" rx="2.48" fill="#d4fff5"/><path d="M629.02 1358.4h73.9v258.26h-73.9zm114.95-98.88h73.9v357.14h-73.9zm455.5.98h73.9v357.14h-73.9zm-340.54 140.18h73.9v215.97h-73.9zm456.13.97h73.9v215.97h-73.9zm-341.16-147.3h73.9v362.3h-73.9zm109.2-138.08h85.37v505.17h-85.37z" class="BH"/><path d="M621.33 1307.56h73.9v6h-73.9zm0-19.63h73.9v6h-73.9zm0-19.63h73.9v6h-73.9z" class="BK BP"/><path d="M737.6 1225.45h73.9v6h-73.9zm0-19.63h73.9v6h-73.9zm0-19.62h73.9v6h-73.9z" class="BK BP"/><path d="M852.93 1358.2h73.9v6h-73.9zm0-19.63h73.9v6h-73.9zm0-19.62h73.9v6h-73.9z" class="BK BP"/><path d="M969.2 1204.46h73.9v6h-73.9zm0-19.62h73.9v6h-73.9zm0-19.64h73.9v6h-73.9z" class="BK BP"/><path d="M1088.85 1092.4h73.9v6h-73.9zm0-19.6h73.9v6h-73.9zm0-19.63h73.9v6h-73.9z" class="BK BP"/><path d="M1199.47 1218.5h73.9v6h-73.9zm0-19.6h73.9v6h-73.9zm0-19.63h73.9v6h-73.9z" class="BK BP"/><path d="M1315.06 1341.67h73.9v6h-73.9zm0-19.63h73.9v6h-73.9zm0-19.64h73.9v6h-73.9z" class="BK BP"/><path d="M951.17 1501.08c-44.55 0-75.93-17.28-108.84-35.4-26.5-14.6-53.9-29.68-91-37.12-85.86-17.14-154.56 53.08-155.25 53.8a12 12 0 1 1-17.3-16.63c3.16-3.3 78.58-80.5 177.27-60.7 40.77 8.16 71.12 24.88 97.9 39.63 36.64 20.18 68.3 37.6 118.73 31 38.86-5.1 61.6-28.44 85.7-53.16 29.38-30.15 62.68-64.32 128-64.32 122.62 0 184.3 105.44 186.86 109.93a12 12 0 0 1-20.82 11.92c-.57-1-57.6-97.85-166-97.85-55.15 0-82.16 27.72-110.76 57.07-25.88 26.56-52.64 54-99.75 60.2a187.84 187.84 0 0 1-24.72 1.63z" opacity=".46" class="BK"/><rect x="3197.36" y="1995.04" width="943.62" height="554.25" rx="2.39" fill="#d4fff5"/><g class="BH"><path d="M3224.66 2548.84l155.94-175.93 40.94 48.58 103.1-168.84 66.92 157.55 155.33-256.02 102.42 241.84 152.62-334.48v487.44l-777.28-.14z"/><path d="M4024.85 2091l-29.88-52.9-35.58 50.25 65.46 2.64z"/></g><g class="BK"><path d="M3240.12 2497.08a12 12 0 0 1-10.47-17.84l83-148.83a12 12 0 0 1 22 2.58l9.22 32.55 82.1-114.4a11.84 11.84 0 0 1 10.11-5 12 12 0 0 1 9.78 5.6l88.4 140.26 119.27-226a12 12 0 0 1 21.65.86l84 195.63 173.58-315.36a12 12 0 1 1 21 11.57l-185.42 336.88a11.46 11.46 0 0 1-11.1 6.2 12 12 0 0 1-10.44-7.25l-83.8-195.08-117.25 222.08a12 12 0 0 1-10.16 6.39 11.78 11.78 0 0 1-10.6-5.59l-90-142.7-86.23 120.14a12 12 0 0 1-21.29-3.73l-8.1-28.6-68.83 123.5a12 12 0 0 1-10.42 6.15z" opacity=".28"/><path d="M3618.6 2120.9h62.6v6h-62.6zm-126.06 100.5h62.6v6h-62.6zm-92.34 8.6h62.6v6h-62.6zm321.47-119.64h62.6v6h-62.6zm198-70.58h62.6v6h-62.6zm110.7 82.32h62.6v6h-62.6zm0 35.74h62.6v6h-62.6zm0 35.73h62.6v6h-62.6zm0 35.73h62.6v6h-62.6zm0 35.73h62.6v6h-62.6zm0 35.72h62.6v6h-62.6zm0 35.73h62.6v6h-62.6zm0 35.72h62.6v6h-62.6zm0 35.74h62.6v6h-62.6zm0 35.73h62.6v6h-62.6z" opacity=".57"/></g><path d="M1163.58 3464.14H893s-411.63-448.26-306.46-597.58 223.4 24.26 272 5.08-282.66-365.3-57.54-579.72c184.62-175.83 658.1 45.33 658.1 45.33l104.1 1124.25zm-451.7-811.84s49.3 81.23 25.72 91.05-100.72-77-79.3-107.53 53.57 16.48 53.57 16.48z" class="BZ"/><path d="M684.2 3052.53s-185.1-259.46-317.5-148.42c-90.26 75.7 18.65 269.95-6.36 296.46s-145.72-90.1-252.1.1 137.38 376.74 137.38 376.74l311.23.74z" fill="url(#P)"/><path d="M226.73 3180.28S154.12 3024.27 92 3026c-61.93 1.74-57.62 62.66-16.38 97.6 40.3 34.2 151.1 56.68 151.1 56.68z" fill="url(#Q)"/><path d="M237.17 3189.38s46.54-208.12-8.22-266c-54.56-57.7-84.85 10.1-68.68 86.27 15.82 74.45 76.9 179.73 76.9 179.73z" fill="url(#R)"/><g class="BH"><path d="M373.2 3580.6a3.21 3.21 0 0 1-.46-6.38c11.7-1.72 43.23-9.15 48.6-22.7 1.8-4.57.47-9.6-4.1-15.38-13.92-17.56-68.72 6.27-88.66 16.94a3.21 3.21 0 0 1-3.82-5.06c1.06-1.1 106.2-109.6 140.6-161.54 42-63.43 39.46-109.1 23-130.67-11.14-14.65-29-19.34-48.9-12.84-53.17 17.3-116.64 259.56-117.28 262a3.21 3.21 0 0 1-6.28-1.23c.25-1.93 25.15-192.92-31.1-259.27-29.8-35.14-72.93-50.8-102.56-37.3-25.38 11.6-36.2 42.4-29.67 84.52 16.5 106.5 155.48 276.56 156.88 278.27a3.21 3.21 0 0 1-5 4.07C298.74 3567 163 3401 146.25 3292.7c-7-45.16 5.16-78.45 33.35-91.33 32.7-14.95 78 1.08 110.1 39 43.07 50.8 40.78 167.08 36.27 227.12 20.24-69.58 67.67-216.3 111.53-230.58 22.35-7.28 43.3-1.66 56 15.06 17.75 23.33 21.08 71.86-22.8 138.1-27.57 41.6-99.75 118.82-128.88 149.45 23.8-10.7 65.77-25.84 80.44-7.32 6 7.62 7.73 14.93 5 21.73-7.83 19.74-51.76 26.4-53.63 26.67a3.71 3.71 0 0 1-.43 0z"/><path d="M319.06 3588.62a3.12 3.12 0 0 1-2.88-1.86c-.48-1.08-11.13-27.8 47.5-149.8 58.3-121.3 105.1-160.86 107.06-162.48a3.21 3.21 0 0 1 4.09 4.94c-.47.4-47.8 40.5-105.37 160.32-56.37 117.3-47.46 144.25-47.38 144.5a3.25 3.25 0 0 1-1.78 4.13 3.19 3.19 0 0 1-1.24.25z"/><path d="M319.1 3546.05a3.16 3.16 0 0 1-2.37-1.05c-1.25-1.37-31-34.45-64.08-112.54-33-77.84-61.72-198.24-62-199.45a3.21 3.21 0 1 1 6.24-1.48c.3 1.2 28.9 121.1 61.68 198.42 32.62 77 62.6 110.4 62.9 110.73a3.21 3.21 0 0 1-.22 4.53 3.17 3.17 0 0 1-2.16.84z"/><path d="M219.18 3329.48a3.2 3.2 0 0 1-2.32-1l-56.47-59.14a3.204 3.204 0 1 1 4.63-4.43l56.48 59.14a3.22 3.22 0 0 1-2.32 5.43zm26.18 79.1a3.22 3.22 0 0 1-1.75-.52l-58.5-38.36a3.21 3.21 0 1 1 3.52-5.36l58.5 38.35a3.21 3.21 0 0 1-1.77 5.89zm33.58 75.2a3.16 3.16 0 0 1-1.45-.35l-45.5-23.07a3.21 3.21 0 0 1 2.9-5.72l45.54 23.07a3.21 3.21 0 0 1-1.45 6.07zm26.38 44.1a3 3 0 0 1-.66-.07l-26.37-5.45a3.21 3.21 0 1 1 1.3-6.28l26.37 5.45a3.21 3.21 0 0 1-.64 6.35z"/></g><path d="M2445.22 2585.68s25.5-247.62 340.23-205c60.8 8.23 64.18 17.74 114-18.15 128.33-92.42 251.2 70.9 179.67 261.8-74.47 198.73-39.4 139.4 28.2 164.82s-73.57 315.1-73.57 315.1z" class="Ba"/><g class="BH"><path d="M2904.06 2797.12a110 110 0 1 1 48.23-208.81 2.79 2.79 0 0 1 1.29 3.73l-45.06 92.3h102.72a2.79 2.79 0 0 1 2.79 2.79 110.1 110.1 0 0 1-109.97 109.98zm0-214.38a104.4 104.4 0 1 0 104.35 107.19h-104.35a2.79 2.79 0 0 1-2.51-4l45.77-93.78a104.88 104.88 0 0 0-43.26-9.41zm23 88.82l41.92-74.93s25.06 6.65 39.52 37.46a67.94 67.94 0 0 1 5.67 37.47z"/><path d="M2922.5 2599.42a2.8 2.8 0 0 1-2-4.77l60.77-60.76a2.75 2.75 0 0 1 2-.82h54.9a2.79 2.79 0 0 1 0 5.58h-53.73l-60 59.95a2.82 2.82 0 0 1-1.93.82zm150.4-77.67h-86.4a2.8 2.8 0 0 1 0-5.59h86.4a2.8 2.8 0 0 1 0 5.59zm0-16.9h-86.4a2.79 2.79 0 0 1 0-5.58h86.4a2.79 2.79 0 1 1 0 5.58z"/><use xlink:href="#AR"/><use xlink:href="#AR" y="-16.94"/><path d="M2875 2516.87a2.79 2.79 0 0 1-2.2-4.5l24.52-31.74a2.77 2.77 0 0 1 2-1.08 2.84 2.84 0 0 1 2.16.81l26.92 27 21.1-26.72a2.75 2.75 0 0 1 2.26-1.07 2.81 2.81 0 0 1 2.21 1.19l18.24 25.92a2.79 2.79 0 1 1-4.56 3.21l-16.05-22.9-20.72 26.26a2.79 2.79 0 0 1-2 1 2.86 2.86 0 0 1-2.14-.81l-26.9-26.95-22.58 29.23a2.78 2.78 0 0 1-2.26 1.14z"/><path d="M2953.4 2516.13a2.78 2.78 0 0 1-2.09-1l-23.94-27-22.9 24.05a2.79 2.79 0 0 1-3.8.23l-27.44-22.63a2.792 2.792 0 0 1 3.55-4.31l25.44 21 23.2-24.37a2.66 2.66 0 0 1 2.07-.87 2.8 2.8 0 0 1 2 .94l26 29.32a2.8 2.8 0 0 1-2.09 4.65zm59.77 84.12a14.58 14.58 0 1 1 14.57-14.57 14.59 14.59 0 0 1-14.57 14.57zm0-23.56a9 9 0 1 0 9 9 9 9 0 0 0-9-9zm12.16-11.23h-25.48a2.8 2.8 0 0 1 0-5.59h25.48a2.8 2.8 0 1 1 0 5.59zm-64.26 142.44h-60.85a2.8 2.8 0 0 1 0-5.59h60.85a2.8 2.8 0 0 1 0 5.59zm25.43-347.08h14.88v86.78h-14.88zm-30.47 43.38h13.95v43.4h-13.95zm62.32 0h13.95v43.4h-13.95zm-92.8-23.56h14.88v66.96h-14.88zm-30.48 23.56h14.88v43.4h-14.88z"/></g><path d="M2947.42 2371.43s30.2-135-5.33-172.62-55.05 6.56-44.56 56c10.26 48.3 49.9 116.62 49.9 116.62zm14.38-17.27s57.38-40.08 51.2-65.87-29.77-15.9-39.92 5.93c-9.92 21.37-11.3 59.94-11.3 59.94z" class="Ba"/><path d="M1842.15 1306.62L1534.1 809.45h-75l-195.85 555.22 61.54-.37 291.6 459.33 125.5 1685V1306.98l100.28-.36z" fill="url(#S)"/><g class="BO"><path d="M2131.92 1680.56h-390.05l-125.53 50v1778.07h515.58V1680.56zm759.2 820.84h-380.94l2.42 1007.23h380.94l-2.42-1007.23z"/><path d="M2885.32 2879.77H3266v628.86h-380.68zm-753.4-802.27h380.68v1431.12h-380.68z"/></g><path d="M1666.9 1734.88h390.02v1773.76H1666.9z" fill="#008184"/><path d="M1765.92 1266.53L1459.1 809.45l-327.6 460.26 118.28-.36v2239.3h417.1V1266.9l99.06-.36z" fill="url(#T)"/><path d="M1460.45 1050.77c-90.8 0-193.1-7.66-199.65-36.6-2.08-9.2 0-17.37 6.07-24.26 19.28-21.7 73.88-22.3 76.2-22.32l.08 9.63c-.52 0-51.93.56-68.06 18.75-4.08 4.6-5.37 9.92-3.93 16.26 1.2 5.37 14.77 23.27 138.15 28 71.45 2.73 150.54-.45 182.84-5 41-5.74 69.62-17.1 78.4-31.2 3.28-5.25 3.63-10.63 1-16.44-9.42-21.27-48.9-21.4-49.48-21.42v-9.62c1.82 0 47.22.16 59.3 27.44a25.48 25.48 0 0 1-1.67 24.8c-10.55 16.9-41.1 29.67-86 36-19.56 2.7-73.95 5.98-133.26 5.98z" fill="url(#U)"/><path d="M1497.34 944.74c-73.33 0-140.4-15.72-144.8-38.36a19.44 19.44 0 0 1 4.44-16.77c12.9-15.53 48.55-19 50.06-19.1l1.06 9.58c-9 .83-34.3 5.2-42.7 15.32a10.61 10.61 0 0 0-2.46 9.28c3.87 19.94 105 40.12 201.8 25.63 26.4-4 44.63-11.06 51.35-20a13.67 13.67 0 0 0 2.5-11.93c-6.67-28.72-48.77-28.14-49.16-28.13l-.25-9.62c17.74-.37 53 6.6 59.74 35.76a22.47 22.47 0 0 1-4.12 19.35c-10.7 14.27-37.64 21-58.35 24.07a471.48 471.48 0 0 1-69.11 4.91z" fill="url(#V)"/><path d="M2437.6 2541.32h380.94v967.32H2437.6z" fill="#00d3cd"/><path d="M2818.53 2938.27h380.68v570.37h-380.68z" fill="#00fff1"/><path d="M2056.9 2118.8h380.68v1389.84H2056.9z" class="BX"/><g mask="url(#X)"><path d="M2818.53 2938.27L2642.25 3508h176.28v-569.74z" opacity=".26" fill="url(#Y)"/></g><g mask="url(#a)"><path d="M2437.6 2538.9L2140.84 3498l296.75 10.64V2538.9z" opacity=".54" fill="url(#b)"/></g><g mask="url(#d)"><path d="M2056.9 1734.88l-386.03 1247.66 386.03 70V1734.88z" fill="url(#e)"/></g><g mask="url(#g)"><path d="M1666.35 1264.27l-403.1 1302.88 403.1 14.77V1264.27z" fill="url(#h)"/></g><g class="BN"><path d="M1928.8 1689.3a5.29 5.29 0 0 1-5-3.16L1650 1006.68a4.7 4.7 0 0 1 3.14-6.18 5.45 5.45 0 0 1 6.77 2.86l273.8 679.48a4.7 4.7 0 0 1-3.13 6.17 5.78 5.78 0 0 1-1.8.3zm71.9 0a5.27 5.27 0 0 1-5-3.16L1722 1006.68a4.71 4.71 0 0 1 3.13-6.18 5.45 5.45 0 0 1 6.78 2.86l273.8 679.48a4.69 4.69 0 0 1-3.14 6.17 5.74 5.74 0 0 1-1.87.3z"/><path d="M1751.08 1069.83h-71.68a4.83 4.83 0 1 1 0-9.62h71.68a4.83 4.83 0 1 1 0 9.62zm29.58 74.5H1709a4.83 4.83 0 1 1 0-9.62h71.68a4.83 4.83 0 1 1 0 9.62zm29.58 74.5h-69.14a4.83 4.83 0 1 1 0-9.62h69.14a4.83 4.83 0 1 1 0 9.62zm29.58 74.5h-67.92a4.83 4.83 0 1 1 0-9.62h67.92a4.83 4.83 0 1 1 0 9.62zm29.58 74.5h-70.15a4.83 4.83 0 1 1 0-9.62h70.15a4.83 4.83 0 1 1 0 9.62zm29.6 74.5h-69.7a4.83 4.83 0 1 1 0-9.62h69.7a4.83 4.83 0 1 1 0 9.62zm29.56 74.5h-69.26a4.83 4.83 0 1 1 0-9.62h69.26a4.83 4.83 0 1 1 0 9.62zm30.57 74.5H1891a4.83 4.83 0 1 1 0-9.62h68.15a4.83 4.83 0 1 1 0 9.62z"/></g><path d="M1573.55 871.22c-4.4 0-107.76-1.5-118.76-42.5-6.17-23-.4-133.13-.14-137.8l10.55.47c-2.1 39.12-4.8 117.7-.15 135.05 7.53 28.07 81 34.9 108.62 35.16z" fill="url(#i)"/><path d="M1551.3 581.45c0-44.4-39.5-66-88.22-66s-88.2 21.6-88.2 66a74 74 0 0 0 .73 10.14.57.57 0 0 0 0 .13c.45 8.2 3.42 16.14 7.68 24a77.33 77.33 0 0 0 4.65 7.84c8 12.58 18.36 25.1 25.85 38.3 13.7 24.14 10.55 29.32 10.55 29.32h77.84s-3.48-5.18 10.22-29.32 36.76-45.33 38.1-69.5v-.12a73.43 73.43 0 0 0 .81-10.77z" fill="url(#j)"/><path d="M1502.42 684.33s-15.3 6.8-39.14 6.82-39.13-6.82-39.13-6.82-12.24 8.65-9.1 12.08 4.72 2.86 4.72 2.86-2.2 34.32 8.46 43.47c9.9 8.5 32.7 8.12 35.93 8 3 .1 24.28.47 34.18-8 10.67-9.15 8.46-43.47 8.46-43.47s1.6.57 4.72-2.86-9.1-12.08-9.1-12.08z" fill="url(#k)"/><path d="M1438.12 690.6c0-.5-1.6-30.33-5.07-56.68a21.71 21.71 0 0 1-7.68 0 14.56 14.56 0 0 1-10.89-9c-7.58-18-5.36-32.43 1.06-35.5 1.66-.8 6.1-1.93 11.2 4.87 4 5.24 7 19.6 9.3 35.68a35.47 35.47 0 0 0 11.76-6.47 30.1 30.1 0 0 1-3.25-10.28c-1.1-8.7.94-18.9 5.74-20.2a3.65 3.65 0 0 1 3.16.55c4.28 3.06 3.66 17 3.5 19.78a16 16 0 0 1-4.78 10.78 18.24 18.24 0 0 0 5.14 5.33 8.14 8.14 0 0 0 5.9 1.43l.77 3.13a11.61 11.61 0 0 1-8.71-2 21 21 0 0 1-5.72-5.69 38.57 38.57 0 0 1-13 6.85c3.5 26.07 5 55.3 5.15 57.3zm-19.85-98.66a2.51 2.51 0 0 0-1.09.25c-3.8 1.82-6.84 13.9.6 31.52a11.13 11.13 0 0 0 8.36 7 17.9 17.9 0 0 0 6.49 0c-2.2-15.8-5.1-29.82-8.77-34.7-1-1.3-3.35-4.07-5.58-4.07zm33 4c-1.72.5-4.32 7.93-3.2 16.8a27.57 27.57 0 0 0 2.38 8.15 13 13 0 0 0 3-7.84c.55-9.65-.9-16.45-2.2-17.04z"/><path d="M1485.4 690.6l-3.52-.15c.1-2 1.65-31.23 5.15-57.3a38.39 38.39 0 0 1-13.06-6.84 21 21 0 0 1-5.71 5.68 11.6 11.6 0 0 1-8.71 2l.77-3.13a8.14 8.14 0 0 0 5.9-1.43 18 18 0 0 0 5.14-5.34 16 16 0 0 1-4.78-10.77c-.16-2.76-.78-16.72 3.5-19.78a3.67 3.67 0 0 1 3.17-.55c4.8 1.3 6.83 11.5 5.73 20.2a30.31 30.31 0 0 1-3.24 10.28 35.81 35.81 0 0 0 11.75 6.46c2.3-16.08 5.34-30.43 9.3-35.67 5.12-6.8 9.54-5.67 11.2-4.87 6.42 3.08 8.65 17.53 1.06 35.5a14.55 14.55 0 0 1-10.89 9 21.76 21.76 0 0 1-7.69 0c-3.45 26.36-5.03 56.2-5.06 56.7zm5.5-59.88a17.7 17.7 0 0 0 6.49 0 11.11 11.11 0 0 0 8.36-7c7.43-17.6 4.38-29.7.6-31.52-2.5-1.2-5.5 2.3-6.67 3.84-3.66 4.87-6.57 18.88-8.77 34.68zM1472.2 596c-1.25.58-2.7 7.38-2.12 17.08a13.14 13.14 0 0 0 3 7.86 27.5 27.5 0 0 0 2.39-8.17c1.1-8.85-1.48-16.27-3.27-16.77z"/><g mask="url(#m)"><path d="M1407.45 640.43s-48.16-67.18 0-103.92 114.22 3.57 114.22 3.57-61.6-2-90.7 22.45-25.9 63.02-23.5 77.9z" fill="url(#n)"/></g><path d="M1466.57 706.2h-3.62c-26.27-.55-41.43-5.15-42.06-5.35l1.13-3c.15 0 15.34 4.65 41 5.2s43.12-5.12 43.3-5.18l1.2 3c-.7.15-16.63 5.34-40.94 5.34zm-5.32 14.3a129.8 129.8 0 0 1-30.55-3.86l1-3.08c.18 0 18 4.8 36.06 3.5s27.45-4.73 27.55-4.77l1.34 3c-.4.15-9.92 3.68-28.62 5-2.28.13-4.55.2-6.78.2zm0 7.3a129.51 129.51 0 0 1-30.55-3.87l1-3.07c.18 0 18 4.8 36.06 3.5s27.45-4.74 27.55-4.77l1.34 3c-.4.15-9.92 3.68-28.62 5-2.28.13-4.55.2-6.78.2zm0 7.3a130.4 130.4 0 0 1-30.55-3.86l1-3.08c.18.05 18 4.8 36.06 3.5s27.45-4.73 27.55-4.77l1.34 3c-.4.15-9.92 3.68-28.62 5l-6.78.2z"/><path d="M1573.7 593.44a9.37 9.37 0 0 1-4.08-.92c-4.3-2-6-6.9-3.7-10.82l12.42-21.56a9.22 9.22 0 0 1 11.7-3.46l16.95 7.62 9.35-17.22a8.6 8.6 0 0 1 5.07-4 9.5 9.5 0 0 1 6.72.41l20.2 9.1 10-18.4a9.2 9.2 0 0 1 11.79-3.63l28.57 12.9c4.36 2 6.14 6.77 4 10.74a9.22 9.22 0 0 1-11.79 3.63l-20.7-9.33-10 18.4a9.22 9.22 0 0 1-11.79 3.63l-20.2-9.1-9.36 17.23c-2.15 4-7.43 5.58-11.8 3.63l-17.1-7.7-8.43 14.62a8.94 8.94 0 0 1-7.85 4.25z" fill="url(#o)"/><path d="M1323.7 593.44a8.94 8.94 0 0 1-7.8-4.29l-8.43-14.62-17.1 7.7a9.22 9.22 0 0 1-11.79-3.63l-9.36-17.23-20.22 9.1c-4.36 2-9.64.34-11.8-3.63l-10-18.4-20.68 9.33a9.2 9.2 0 0 1-11.79-3.63c-2.16-4-.38-8.78 4-10.74l28.57-12.9c4.36-2 9.64-.34 11.8 3.63l10 18.4 20.2-9.1a9.55 9.55 0 0 1 6.72-.45 8.57 8.57 0 0 1 5.07 4l9.36 17.22 16.9-7.62a9.21 9.21 0 0 1 11.69 3.46l12.42 21.56c2.26 3.92.6 8.77-3.7 10.82a9.34 9.34 0 0 1-4.06 1z" fill="url(#p)"/><path d="M1480.12 513.53a9.43 9.43 0 0 1-4.64-1.21 7.62 7.62 0 0 1-2.82-11.05l9.57-14-16-9.53a7.6 7.6 0 0 1-2.54-11.1l11.56-16.08-18.83-11.25a7.6 7.6 0 0 1-2.54-11.1l12.4-17.2-19.28-11.5a7.59 7.59 0 0 1-2.53-11.1 9.32 9.32 0 0 1 12.18-2.31L1483.3 402a7.6 7.6 0 0 1 2.53 11.11l-12.35 17.16 18.84 11.25a7.6 7.6 0 0 1 2.54 11.1l-11.56 16.08 15.78 9.42a7.62 7.62 0 0 1 2.65 10.95l-14.1 20.67a9 9 0 0 1-7.49 3.79z" fill="url(#q)"/><path d="M1556.4 519.66a9.22 9.22 0 0 1-6.23-2.35 7.53 7.53 0 0 1 0-11.34l73.1-66.6a9.39 9.39 0 0 1 12.44 0 7.52 7.52 0 0 1 0 11.34l-73.1 66.6a9.21 9.21 0 0 1-6.22 2.35z" fill="url(#r)"/><path d="M1386.05 516a9.26 9.26 0 0 1-6.23-2.34l-62.1-56.6a7.52 7.52 0 0 1 0-11.34 9.41 9.41 0 0 1 12.44 0l62.1 56.6a7.53 7.53 0 0 1 0 11.35 9.25 9.25 0 0 1-6.22 2.34z" fill="url(#s)"/><path d="M866 2040.45H658c-50.46 0-95.8-35.9-102.42-85.93-1.83-13.83-.4-27.34 6.68-38.78 52.2-84.3 129.44 27 155.24 0 8.83-9.25-29.6-109.4 57.63-110.7 88.4-1.33 88.2 85.78 53.5 155.18-18.68 37.38 54.77-14.4 79.44 4.9 12.33 9.65 14.5 23.7 10.56 37.74-6.45 22.9-28.86 37.6-52.63 37.6z" class="BH"/><g class="BT"><path d="M3216 1862.3h208c50.47 0 95.8-35.9 102.42-85.92 1.83-13.84.4-27.35-6.68-38.8-52.2-84.3-129.43 27-155.24 0-8.83-9.25 29.6-109.4-57.63-110.7-88.4-1.33-88.2 85.8-53.5 155.2 18.7 37.37-54.76-14.4-79.43 4.9-12.34 9.64-14.5 23.7-10.57 37.73 6.45 22.9 28.85 37.6 52.63 37.6z"/><circle cx="3234.61" cy="1905.7" r="17.55"/><path d="M3188.66 1727.55a27.7 27.7 0 1 1-27.7-27.7 27.7 27.7 0 0 1 27.7 27.7z"/></g><path d="M820.57 2083.43a23 23 0 1 1-23-23 23 23 0 0 1 23 23zm92.55-329.75a54.19 54.19 0 1 1-54.19-54.18 54.19 54.19 0 0 1 54.19 54.18z" class="BH"/><path d="M1855.32 947.25l-42.24 56.42-71.28 36.54a22.72 22.72 0 0 0-18 4.13c-8.44 6.47-9.6 20.8-7.45 22.38s5.84-1.62 5.84-1.62 8.64-14.08 21.9-16.36c4.84-.83 70.65-29.9 76.32-32.24 21.1-8.72 54.42-52.9 54.42-52.9z" class="BG"/><path d="M1902.18 1111.35l-36.74 176.38 15.7 124.9 17.77-2.06s7.3-57.07 7.3-108.75c0-53 71.7-166.28 64.68-186.5s-72.66-51.63-68.7-3.95z" fill="#003251"/><path d="M1883.3 1427.36l16.2-.98-.67-17.9-17.7 4.15 2.18 14.74z" class="BG"/><path d="M1850.54 1442.35l50.85-2.06-.77-15.6s-18.06-4-29 1.34-20.38 7.73-21.08 16.33z" class="BI"/><path d="M1881.92 1095.82l-92.34 121 42.1 115.4 20.15-5.6s-.35-42-13.33-92c-8-30.9 139.15-88.56 132.14-108.78s-92.64-77.7-88.72-30z" class="BY"/><path d="M1836.32 1345.53l16.2-.97-.68-17.92-17.7 4.15 2.18 14.74z" class="BG"/><path d="M1803.55 1360.53l50.85-2.07-.77-15.6s-18.06-4-29.05 1.35-20.33 7.72-21.03 16.33z" class="BI"/><path d="M1861.6 846.6s-19.15 27.2-17.23 34.72c1.76 6.9 17.28 7.35 16.1 11.4s-14.26 24.64-14.26 24.64 16.68-5.78 23.37-.6a73.23 73.23 0 0 1 5.53 4.78s18.73-63.28 2.3-73.3-15.8-1.65-15.8-1.65z" class="BG"/><path d="M1877.94 910.18s39.3 4.77 78.2 110.7c17.83 48.58 14.5 105 14.5 105l-100.84-27.75c8.3-60-39.86-167.56-25.63-184.83 5.97-7.3 27.34-7.75 33.77-3.1z" fill="#00c0c5"/><path d="M1832.65 927.46s-65.5-46.4-79.9-60.07c-16-15.15-31.87-48.65-35.4-61.24a18 18 0 0 1 1-12.85s-7.8-1.4-11.6-13.6c-2.2-7-1.92-16.18-4.4-13.86s-4.22 18.37 1.93 32.9 15.12 48.4 32.35 76.77c22.85 37.63 98.66 83.4 98.66 83.4z" class="BG"/><g fill="#00c0c5"><path d="M1726.64 825.12l-15.05 9.14s16.22 45.4 47.32 77.93c31.92 33.4 76.2 61.95 84.27 59.08 16-5.65 36.47-30.95 29.27-45.62-1.6-3.3-53.27-10.87-89.9-37.86-34.85-25.7-55.92-62.67-55.92-62.67z"/><path d="M1748.42 1036.85S1806 994.9 1813.08 992s17.32-66.8 49-70.32 16.6 54.17 16.6 54.17-38 33.9-59.67 46.5c-16.46 9.58-75.2 29.57-75.2 29.57z"/></g><path d="M1882.9 885.45s-6.52-5.8-5.28-9.25 7-12 3.72-14.37-4.36.43-6.46-.8-23.37-6.08-29.5-23.47 13.67-24.06 22.55-17.07-.9 13.8-.9 13.8a77 77 0 0 1 24.38 15.93c11 10.93-8.5 35.25-8.5 35.25z" class="BJ"/><g class="BO"><ellipse cx="2593.81" cy="3620.78" rx="185.05" ry="10.95" class="BU"/><ellipse cx="2210.54" cy="3605.16" rx="179.02" ry="11.55" class="BU"/><path d="M3808.93 3538.5c0 6.38-80.15 11.55-179 11.55s-179-5.17-179-11.55 80.15-11.55 179-11.55 179 5.17 179 11.55zm-812.53 78.94c0 4.14-44.88 7.5-100.24 7.5s-100.23-3.36-100.23-7.5 44.87-7.5 100.23-7.5 100.24 3.36 100.24 7.5z" class="BU"/></g><path d="M2933.63 3242.8l14.85 175.4-8.1 165.87 30.4-3.36s25.87-139.5 28.92-178.53c1.24-15.9-8.17-228.08-8.17-228.08s-61.84-12.35-57.9 68.7z" fill="#008184"/><path d="M2966.52 3604.4s-5.43-1.94-7.08-4.27 4-18.6 4-18.6l-19.7 2.18v21.38l24.16 6.42-.62-8.43z" class="BG"/><path d="M2943.78,3601.84s-2.1,12.52,0,15.16,47,3.78,47,3.78l.74-6.55s-9.46-2.22-15-5.05a19.48,19.48,0,0,1-8-8l-3.67,6Z" class="BI"/><path d="M2885.9 3228.25l4.7 190-8.1 165.87 30.4-3.36s25.87-139.5 28.92-178.53l20.32-242.77s-80.18-12.25-76.22 68.8z" class="BX"/><path d="M2914.5 3008.32a28.39 28.39 0 0 0-27.66 22.25c-3.66 16.7-7.56 43.7-7.56 82.93 0 72.63 5.58 107.37 5.58 107.37l111.9-17s-9-79.88 12.8-152.36c11.8-39.2-58.3-43.5-95.05-43.2z" class="BY"/><path d="M2961.3 2895.45s-25.44 21.08-27.53 44.3c-1 10.55 18.23 15.6 18.23 15.6.25 25.9-27.34 51.58-27.34 51.58s13.72 12.28 31.85 15.9c27.3 5.46 25.83-6 25-9.07-8.86-33.44 25.78-81.6 10.63-104.22s-30.84-14.1-30.84-14.1z" class="BG"/><path d="M2969.1 2902.35a58.8 58.8 0 0 0-18.09-15.15c-11-5.62-.55-36.43 3.37-35.9s12.68 19.48 20.93 28.36 28.85 21.75 26.6 47.15-22.92 47.67-22.92 47.67-7.13-8.48-7.34-12.95 12.2-12.54 11.3-17.83-7.63-1-10.54-2.15 10.45-18.17-3.3-39.2z" class="BJ"/><path d="M2952.6 3056.38l-28-49.44-8-.08 14.7-11.74s15.38 8 22.88 15.73 10.6 13.24 10.6 13.24l13.83-16.27 14.85 4.92 3.27 6.7zm43.4 19.9s63.3 23 74.2 9.5c9.3-11.52-11.65-59-55.87-109.07-15.73-17.8-26.7-24.9-26.7-24.9l-10.4 12.44 60 90.22-37.5-28.72c-3.5-3.38-10.6 26.87-3.73 50.52z" fill="#0089ce"/><path d="M2977.25 2964.25l-15.13-8.26 18.36-41.73 20.1 10.47-23.32 39.52z" fill="#63717d"/><path d="M2980.85 2962.5s-8.36-4.57-6.42-13.12 5.52-18.42 6.37-22.6 5.38-2.05 5.23 1.8a73.38 73.38 0 0 1-1.25 9.31s5.66-7.4 6.06-13.1-2.18-15.7 1.76-14.2 10.27 24 8.34 30.7-10.36 14-10.36 14zm-72.22 641.9s-5.43-1.94-7.08-4.27 4-18.6 4-18.6l-19.7 2.18v21.38l24.15 6.42-.62-8.43z" class="BG"/><path d="M2885.9 3601.84s-2.1 12.52 0 15.16 47 3.78 47 3.78l.74-6.55s-9.46-2.22-15-5.05a19.55 19.55 0 0 1-8-8l-3.66 6z" class="BI"/><path d="M2901.16 3055.52s-37.6 49.6-78 35-71.56-74.46-71.56-74.46l10.53-11.6s26.6 36.76 66.74 50c26.5 8.78 43.53-25.1 58.1-37.34 23.82-20.02 43.73 5.4 14.18 38.4z" fill="#0089ce"/><path d="M2266.3 3035l-88.3-10.72c-13.62-1.46-77.56-53.4-77.56-53.4l-32.17-10.42s17.82-1.34 27.37-2.5 10.33 6 10.33 6 64.7 37.14 72.43 37.4c26.63.86 87.9 5.7 87.9 5.7 5.08 6.73 0 27.98 0 27.98z" class="BG"/><g fill="#ffb600"><path d="M2250.53 3201.3s-47.4 180.68-28.77 236.93c6.94 21 17.5 134.8 17.5 134.8s-.55 23.58-12 28c-7.28 2.78 12.4 1.52 12.4 1.52s19.53-34.72 10.3-41.8 8.7-125.6 1.47-139.15c-6.5-12.2 44.25-225.27 44.25-225.27z"/><path d="M2268.74 3202.15s19.43 182.3 38.07 238.55c6.94 21 17.5 134.8 17.5 134.8s-.56 23.58-12 28c-7.28 2.8 12.4 1.52 12.4 1.52s19.53-34.72 10.3-41.8 8.7-125.6 1.47-139.15c-6.5-12.2-22.58-226.9-22.58-226.9z"/></g><path d="M2244.76 3154.4l-29.65 208.77s35.54 3.48 58.6 4.12c21.34.58 34.68 2.18 34.68 2.18l5.08-99.2 11.08 100.3 17.38-1.33s-12.7-171.84-27.9-193.95-17-23.14-17-23.14z" class="BJ"/><path d="M2241.32 3164.18l63.6-7.35s-12-46.15-13.33-70.77a196.25 196.25 0 0 1 .21-27.27c1.6-17.1 8.13-46.54-20.35-51.54-6.6-1.16-12.25-.8-14.64 4.53-14.72 32.77-24 48.27-29.15 59.48 2.74 9.6 14.15 15.36 14.15 15.36 2.44 22.1-2 68.23-.5 77.56z" class="BH"/><path d="M2307.8 3604.74a77.17 77.17 0 0 1 8.09-4.27s.7 4.4 6.06.52 13.6-37 13.6-37 8.44 1.25 11.37 6.22c2.22 3.78-1.4 13.1-1.4 13.1l-.4.08-2.72 26.82h-2.48l.56-25.16a9.73 9.73 0 0 0-5.26 6.17c-2.68 10.24-3.93 14.42-6.92 17.62s-23.3-.22-23.3-.22-.9-1.54 2.83-3.88zm-85.04-2.48a77.17 77.17 0 0 1 8.09-4.27s.7 4.4 6.06.52 13.6-37 13.6-37 8.44 1.25 11.37 6.22c2.22 3.78-1.4 13.1-1.4 13.1l-.4.08-2.7 26.82h-2.48l.56-25.16a9.73 9.73 0 0 0-5.26 6.17c-2.68 10.23-3.93 14.42-6.93 17.62s-23.3-.22-23.3-.22-.92-1.54 2.84-3.88zM2466.92 3200l-49.37 30.72-12.75-20.5a27.16 27.16 0 0 1 8.7-37.37l3.28-2.05a27.17 27.17 0 0 1 37.38 8.71zm-46.78 19.6l35.67-22.2-8.5-13.66a19.09 19.09 0 0 0-26.27-6.12l-3.28 2a19.09 19.09 0 0 0-6.12 26.27z" class="BN"/><path d="M2471.7 3175.3l-82.13 51.1 30.14 77.4 105.4-65.6-53.4-62.9z" class="Bb"/><path d="M2402.25 3258.2l-1.62-2.62 33-20.54 6.4 10.3 25.7-16-6.4-10.3 32.6-20.28 1.62 2.62-29.97 18.65 6.4 10.3-30.93 19.24-6.4-10.3-30.4 18.92z" class="BN"/><g fill="#001abd"><path d="M2449 3221.14a4.5 4.5 0 1 1-6.2-1.44 4.5 4.5 0 0 1 6.2 1.44z"/><path d="M2442.523 3223.197l3.42-2.13 8.18 13.142-3.42 2.13z"/></g><path d="M2525.1 3238.2l6.82-12.04-56.18-53.4-5 3.12 54.37 62.3z" class="BN"/><g class="BG"><path d="M2273.3 3034.83c22.72 19.05 89 70.12 89 70.12l43.7 62.75s-5.86 17.4-.05 21.15c12.82 8.3 20.43-13.55 20.43-13.55-5.4 0-8.66 4.33-11.23 1.5-.77-.85 1.54-11.55 1.54-11.55l-35.95-75.15s-92.74-84.5-102.62-78.6a21.7 21.7 0 0 0-7.88 8.33 12.12 12.12 0 0 0 3.05 15.02z"/><path d="M2290.73 2911.2s-24.17 20.2-27.57 44.57c-1 7.18 16.9 15.64 16.9 15.64-1 17.7-20.83 36.5-20.83 36.5s9-4.45 17.63 4.94c5 5.4 12 4.1 11.54 1.95-4.62-23.22 30.86-71.08 21.35-87.2s-19-16.4-19-16.4z"/></g><path d="M2292.7 2920c-1-.9-7.9-4.83-16.23 0s0 9.2 0 9.2-20.9-4.47-17.25-18 20.32-19.7 33.48-12.68 11 16.67 11 16.67 28.8 4.33 37 21.35c11.15 23.17 3.28 43.28-11.8 50.7-13.46 6.63-37.45 1.4-37.45 1.4l-11.34-30.9s23.18-2.2 23.18-7-6.58-2.63-6.58-2.63 5.3-19.47-4-28.13z" class="BJ"/><path d="M2662.44 3600.45l-18.8-158.56 6.4-215.57s-11.94-48.55 38 10.37-7.6 208.6-5.74 216.22c2.87 11.72 5.74 150.38 5.74 150.38z" class="BV"/><use xlink:href="#AS" class="BI"/><path d="M2726.34 3600.45l-18.8-158.56-35.4-221.63s15.64-26.57 79.8 16.43c5.9 3.95-7.6 208.6-5.74 216.22 2.87 11.72 5.74 150.38 5.74 150.38z" class="BY"/><use xlink:href="#AT" class="BG"/><use xlink:href="#AS" x="-63.9" class="BI"/><use xlink:href="#AT" x="-63.9" class="BG"/><path d="M2461 3002.88l92.16 27.12 112.84-35.2 1.17 50s-91.87 22.74-105.58 23.53-50.68-3.4-76.62-21.7c-16.93-11.93-34-26.22-34-26.22z" class="BH"/><path d="M2667 2909.47s-16.35 26-11.5 47c2.2 9.6 20.58 8.5 20.58 8.5 7.7 22.8-1.3 53.45-1.3 53.45s9.33-2.73 24.76 4.8c8.9 4.33 18-18.14 16.37-20.63-17.47-26.94 2.26-74-17.63-89.63s-31.3-3.5-31.3-3.5z" class="BG"/><path d="M2677 2914.46s-.53-9.68-13.8-9.43c-11.46.22-26.18-25.6-12.42-33.45 16-9.12 27.8 8.42 37.4 19.26 11.42 12.92 16.46 13.67 23.16 15.7 5.14 1.57 14.7 3.8 16.72 14.44 1.18 6.23-5.56 13.2-8.08 16.6a13.07 13.07 0 0 1 9 8.06c2.16 5.9-20.06 27.28-20.06 27.28s-11.2-3.08-12.66-7 7.13-14.58 4.83-19-7.74-.8-9.93 1.15c-.9.8-4.74-2.5-4-10.4.22-2.34 4.13-6.6 4.13-6.6s-8.36-.5-12.27-5.2c-5.26-6.32-2-11.42-2-11.42z" class="BJ"/><path d="M2755.48 3134.76c-3.83-39.06.13-103.3-1.76-113.64s-34-48.2-86.1-26.68c-5.44 2.25-11.6 6.4-17.57 12.28-14.4 14.13-2.45 95.88-3.52 142l-2.9 90.35 18.67 18.35 14.6-31.24L2700 3262l62.1-22.93s-2.78-65.25-6.62-104.3z" class="BH"/><path d="M2762.1 3004.43s-12.8-9.15-26-10.67c-11.37-1.3-22.25 1.62-23.68 4.1-3.1 5.33 28.44 8.37 28.44 8.37s-17.2.93-10.85 4.86c2.85 1.76 27.94 5.9 27.94 5.9z" class="BG"/><path d="M2694.94 2998.2l-4.9 16.48 12.44 186.74-22.97-2 6-184.03-6-15.2 15.42-2z" fill="url(#t)"/><path d="M2919.95 3301.203l-116.42 66.11-46.6-82.062 116.42-66.11z" class="BN"/><path d="M2792.62 3313.35l88.16-50.05-5.62-44.43-3.58.45 5.3 42.03-84.03 47.72-34.85-25.33-2.12 2.92 36.73 26.7z"/><path d="M2790.55 3374.64l13-7.38-45.52-80.16-4.6 2.6 37.12 84.94z" class="BO"/><path d="M2850.795 3283.775l-20.105 11.416-8.478-14.93 20.105-11.416z" class="Bb"/><path d="M2769.2 3245.25l57.35-32.57 21.92 38.6-57.35 32.56zm54.64-22.73L2779 3248l14.8 26.05 44.8-25.44z" class="BN"/><path d="M2810.34 3255.56s17.8-1.2 13.66-23.7c-2.17-11.8-13.32-20.8-13.32-20.8s-23.15-76.38-35.77-103.67c-5.7-12.3-28.55 8.9-18.9 12.34s34.8 86.92 37.86 107.52c1.43 9.68-4.1 17.64.24 19.4 5.9 2.4 7.1-19.06 7.1-19.06s2.78 17.2 9.12 27.95z" class="BG"/><path d="M2792.22 3218.87l-37.57-80.77-36-112.42 32.88-9.65s23.52 82.38 31 93.9 32.27 102 32.27 102z" class="BH"/><path d="M2461 3002.88s-61.06-25.8-59.6-19.8 10.38 11.16 12.4 15.4-.53 18.55 12 22.5 25.12-.6 25.12-.6z" class="BG"/><path d="M412.52 3039.12h1242.43l99.7 36.2H573.7l-161.2-36.2z" class="BH"/><path d="M1754.65 3621.98H573.7V3075.3h1180.94v43.65l-73.96 32.13 73.96 27.18v31l-20.22 41.82 20.22 28.34v27.72l-65.9 32.44h65.9v50.17l-34.83 23.13 34.83 43.88-27.53 45.28 27.53 37.46v39.1l-16.9 15.1 16.9 16.86v11.4z" fill="#9df4e8"/><path d="M573.7 3621.98l-75.7-18.12-5.1-546.67 80.8 18.12v546.67z" class="Bc"/><path d="M953.72 3227.53h-380l190 47.1 190-47.1z" class="BT"/><g class="Bc"><path d="M573.7 3508.63l139.08-28.87H573.7l23.36-75.97-32.26-48.75 8.9 153.6zm0-307.03h180.83l-198.4-23.32 17.58 23.32zm-32.1-100.5h285.2l-270.66-20.36-14.52 20.36zm0 427.9l285.18-10.2-270.66-10.18L541.6 3529z"/><path d="M528.24 3598.97H684.2l-141.45-20.36-14.5 20.36zM572.7 3185l18.45-35.65-35.03-32.18L572.7 3185z"/><path d="M412.52 3586v-48.13l85.5 19-85.5-25.8v-62.1l47.1 2.34-47.1-12.54v-110.1l16.9-26.1-18.2-25v-36.46l77.77-2.25-79.07-20.66v-59.9l12.4-21.32-9.8-20.82v-45.22l72.8 20.22-72.8-35.82v-36.2l115.72 26v545.45L412.52 3586z"/></g><path d="M1296.92 3508.63H797.85l256.72 30.88 242.35-30.88zm398-146.13h-348.6l325.4 50.38 23.18-50.38zm59.72-184.23l-334.28-1.87 408.26 32.87-73.98-31zm-664.42 215.23H591.16l153.3 30.88 345.78-30.88zm364.65-129.5H1096.8l230.86 23.95 127.2-23.95zm195.4 327.1H1292.2l234.8 11.98 123.27-11.98z" class="BT"/><path d="M1532.88 3318.86l-662.62-1.8 483.73 19.18 178.9-17.38zm226.54-199.9l-425.94-1.8 376.8 19.18 49.13-17.38zm-266.74 429.8L1120.5 3550l283.2 14.42 88.97-15.64z" class="Bc"/><path d="M925.97 3148.88h-334.8l93.04 18.74 241.77-18.74zm-21.6 435.47h-334.8l93.04 18.74 241.77-18.74z" class="BT"/><path d="M535.86 3226.1l-124.53-33.66-39.4 22.67 163.93 11zm37.84 185.62l-149.22-33.77 39.48 34.94 109.74-1.17z" class="BH"/><path d="M1769.54 3805.1l-545.5-181v-510.13L2128 3575.22l-45.18 123.73-313.3 106.14z" opacity=".43" class="BO"/><path d="M1224.05 3114s-.8 303 117 438.2c172.48 198 522.44 280.6 522.44 280.6l219.34-133.8 45.17-228.37c-81-42-168.13-99.67-221-171.42-112.5-152.85-94.6-299.2-94.6-299.2z" fill="#dcfeff"/><path d="M2051,3526l-63.57,42.6s44.66,8.44,69.43,55.47,25.95,74.85,25.95,74.85l6.88-166.27Z" opacity=".14" class="BO"/><path d="M1481.4 3140.8a6.88 6.88 0 0 1-1.58-13.58l267.1-63.17a6.82 6.82 0 0 1 8.29 5.11 6.88 6.88 0 0 1-5.12 8.28l-267.1 63.18a6.77 6.77 0 0 1-1.6.19zm24.18 45.7a6.88 6.88 0 0 1-1.81-13.52l247.07-67.9a6.89 6.89 0 0 1 3.65 13.28l-247.08 67.9a7.13 7.13 0 0 1-1.83.24zm17.36 44.5a6.89 6.89 0 0 1-2-13.47l245.87-75.32a6.89 6.89 0 0 1 4 13.17L1525 3230.7a7 7 0 0 1-2.06.29zm-173.42 201.45a6.89 6.89 0 0 1-2.48-13.31l457.45-176.52a6.894 6.894 0 0 1 5 12.85L1352 3432a7 7 0 0 1-2.48.45zm43.85 76.9a6.88 6.88 0 0 1-2.87-13.14l435.27-199a6.89 6.89 0 0 1 5.73 12.53l-435.27 199a6.93 6.93 0 0 1-2.86.61zm65.83 53a6.89 6.89 0 0 1-3-13.1l409.13-194.65a6.88 6.88 0 1 1 5.91 12.42l-409.12 194.65a6.77 6.77 0 0 1-2.92.68zm63.74 48.64a6.88 6.88 0 0 1-3.09-13l393.43-198a6.88 6.88 0 1 1 6.19 12.29l-393.44 198a6.82 6.82 0 0 1-3.09.71zm84.16 41.1a6.89 6.89 0 0 1-3.21-13l369.8-195a6.884 6.884 0 1 1 6.42 12.18l-369.8 195a6.87 6.87 0 0 1-3.21.82zm184.5 119.2a6.88 6.88 0 0 1-3.72-12.67l167.2-107.4a6.884 6.884 0 1 1 7.43 11.59l-167.2 107.4a6.84 6.84 0 0 1-3.71 1.09z" fill="#006370"/><path d="M1837.4 3763.1c-8.06 0-16-4.16-23.13-12.35-13.9-16-22.8-45.44-21.57-69.4l-35.16 17.65a6.87 6.87 0 0 1-9.12-2.86c-9.83-18-6.72-62.47 10.82-86.75 9.5-13.16 21.94-18.77 36-16.2 19.87 3.6 31 21.5 38.5 40.93 8.25-6.3 16-5.8 21.3-4.1a27 27 0 0 1 5.06 2.24l22.37-11.2a26.47 26.47 0 0 1 7.22-8.6c3.8-2.82 10.32-5.64 19.75-2.85a6.88 6.88 0 0 1 1.14 12.76l-17.7 8.86c-4.33 11.6-4.43 31.2-4.5 40.8l-.1 6.83a6.87 6.87 0 0 1-6.32 6.56 7 7 0 0 1-7.3-5.46c-2-9.85-8.42-23.82-16.05-31.6l-10.42 5.23c18.94 20.72 30.4 62.63 23.52 81.5a6.82 6.82 0 0 1-7.21 4.49 33.96 33.96 0 0 1-2.22-.33c-.65 7.82-3.38 14.43-9.35 18.6a27 27 0 0 1-15.56 5.24zm-30-89.1c-3.65 19.72 3.5 51.82 17.28 67.73 10.28 11.86 17.64 6.72 20.4 4.8 3.25-2.27 4.1-7.6 3.57-14.26-10-8.38-17.57-22.6-22-35.87a105.15 105.15 0 0 1-5.38-29.36zm38.67-.3l.4 1.25c.64 1.93 1.6 4.47 2.7 7.45 3.55 9.55 8.06 21.74 10.82 33.7-1.1-13-6.43-29.7-13.93-42.4zm-57.24-67.4c-7 0-13 3.66-18.42 11.1-13 17.93-16 49.55-12.16 65.82l37.42-18.74a34.59 34.59 0 0 1 7.29-12.83c5.8-6.2 12.18-9.72 18.76-10.43-6.17-16.75-14.85-32-28.94-34.53a22.64 22.64 0 0 0-3.96-.38zm82.54 35.65a68.74 68.74 0 0 1 4.27 5.73c.28-2.88.63-5.7 1.1-8.4zm211.46 57.05l87-202.23s-20.4-20-41.82-26.1c-61.47-17.4-131.2 29-131.2 29s83.72 33 86.03 199.32z" fill="#ffb600"/><path d="M934.6 3632.94s18.44-77.53 68.16-96.07 85.1 28.7 79.2 61.55-47.2-15.14-85.1 0-68.12 80.72-68.12 80.72-3.3-7.44 5.86-46.2z" fill="url(#u)"/><path d="M926.24 3670.8S897.6 3501.26 806 3507.2c-75.6 4.9-136.74 39.45-173.6-26.46-45.57-81.54 85.77-202.14 242.08-103.9 136.7 85.9 51.75 293.98 51.75 293.98z" fill="url(#v)"/><path d="M776.57 3622.4c-24-9.93-36.64-37.36-26.8-61.4a37.4 37.4 0 0 1 23.75-22.22c40.43-13.45 74.94 19.64 117.52 67.6 21.55 24.27 37.13 69.7 37.13 69.7s-98.88-31.86-151.6-53.67z" fill="url(#w)"/><g class="BH"><path d="M923.27 3682.8a3.79 3.79 0 0 1-1.27-.23 3.66 3.66 0 0 1-2.16-4.7c.44-1.2 43.35-120.8-39.15-201.83s-208.22-28.64-209.48-28.1a3.66 3.66 0 0 1-2.88-6.73c1.3-.56 131.5-54.85 217.5 29.6s41.34 208.35 40.88 209.6a3.67 3.67 0 0 1-3.43 2.39z"/><path d="M928.17 3679.73a3.66 3.66 0 0 1-3.42-2.34c0-.1-6.58-15-48.42-50.3-42.7-36-101-58-101.6-58.24a3.661 3.661 0 1 1 2.56-6.86c.6.23 60.08 22.7 103.76 59.5 27.3 23 40.1 37.74 45.92 45.75 8.5-27.33 39.32-115.74 85-124.3 16.56-3.12 30.15-.6 40.42 7.42 16.62 13 18.13 35.58 18.18 36.53a3.662 3.662 0 0 1-7.31.44c0-.2-1.4-20.32-15.42-31.24-8.53-6.65-20.16-8.65-34.52-6-48.5 9.1-81.3 125.75-81.63 126.93a3.67 3.67 0 0 1-3.35 2.68zM713.5 3509.08a3.65 3.65 0 0 1-3-5.8l56.64-78.5a3.66 3.66 0 1 1 5.93 4.28l-56.64 78.5a3.62 3.62 0 0 1-2.93 1.52zm95.76-6.72a3.66 3.66 0 0 1-2.1-6.67l57.07-39.7a3.66 3.66 0 1 1 4.18 6l-57.07 39.75a3.64 3.64 0 0 1-2.08.61zm112.2 31.46h-.4l-48.75-5.22a3.661 3.661 0 0 1 .78-7.28l48.75 5.22a3.66 3.66 0 0 1-.39 7.3z"/><path d="M935 3596.43a3.67 3.67 0 0 1-2-.59l-32.18-21.07a3.66 3.66 0 0 1 4-6.13L937 3589.7a3.66 3.66 0 0 1-2 6.72zm-86.85 56.35a3.66 3.66 0 0 1-1.4-7l36.76-15.17-14.17-34.52a3.66 3.66 0 1 1 6.77-2.78l15.56 37.9a3.66 3.66 0 0 1-2 4.78l-40.13 16.56a3.63 3.63 0 0 1-1.39.23zm-87.9-50.68a3.66 3.66 0 0 1-1.07-7.16l49.7-15.17-9.88-37.87a3.66 3.66 0 1 1 7.08-1.85l10.8 41.27a3.66 3.66 0 0 1-2.47 4.43l-53.06 16.2a3.65 3.65 0 0 1-1.1.16zm27.52 25.9a3.66 3.66 0 0 1-1-7.19l62.75-17.4-10.4-37.42a3.664 3.664 0 1 1 7.05-2l11.4 40.9a3.67 3.67 0 0 1-2.55 4.51l-66.3 18.37a3.62 3.62 0 0 1-.98.22z"/></g><path d="M2271.88 2081.4c-8.27 2.43-91.1-73.7-62-101 22.8-21.4 53.9 61.05 62 101z" fill="url(#x)"/><path d="M2274.87 2085.4s93-145.4 43.94-205.7-87.9 32.44-43.94 205.7z" fill="url(#y)"/><path d="M2287.52 2085.4s120.74-31.88 95.27-98.2-63.68 12.43-95.27 98.2z" fill="url(#z)"/><g class="BH"><path d="M2216.165 1993.268l4.658-2.77 53.353 89.68-4.658 2.77zm116 40.73l49.72-18.926 1.928 5.065-49.72 18.926zm14.942-27.46l34.77-13.4 1.948 5.058-34.77 13.4zm10.888-28.988l21.018-12.464 2.77 4.67-21.018 12.464z"/><path d="M2325.07 2046.5l37.677-6.88.976 5.342-37.677 6.88zm-9.5 13.45h26.52v5.42h-26.52zm-14.922 14.223l22.344-4.83 1.145 5.298-22.344 4.83zM2277.52 2086l-5.3-1.12c.13-.6 13-62.5 19.48-122.64 6-56 .1-94.2 0-94.6l5.35-.85c.07.38 6.12 39.28 0 96-6.44 60.4-19.4 122.54-19.52 123.2z"/><path d="M2297.4 1924.36l-31.12-32.33 3.9-3.77 26.97 28.03 23.75-27.9 4.13 3.5-27.63 32.46zm-3.26 42l-30.23-35.4 4.13-3.5 26.6 31.17 32.38-29.05 3.62 4.04-36.5 32.76zm-4.04 32.96l-28.12-23.9 3.52-4.13 24.9 21.17 29.87-21.3 3.16 4.4-33.33 23.76zm-4.27 32.28l-21.7-20.37 3.7-3.96 18.33 17.2 21.4-16.53 3.33 4.3-25.05 19.35zm2.67 56.33l-2-5c.2-.07 18.84-7.87 43.3-46.2 24.82-38.88 31.08-64.77 31.14-65l5.28 1.23c-.26 1.08-6.47 26.95-31.84 66.7-25.56 40.03-45.06 47.95-45.87 48.26z"/></g><path d="M2489.1 2300.65v-30.72s-4.8-22.45-9.66-24.84-8.1 13.9-8.1 13.9l1.74 41.67zm-.4-165.65s2.46-32.92-3.3-40.06c-1.85-2.3-7-11.54-8.44-13.14 0 0-5.7 0-6.3 4.8a27.89 27.89 0 0 0 0 5.89c1.17 12.5.68 42.52.68 42.52z" class="BI"/><path d="M2488.7 2132.46l118.62-94.35c38.82 29.38 126 131.8 126 131.8l42.37-72.62s-124-93.76-165.5-104.36l-121.52 117z" fill="#005e7e"/><g class="BG"><path d="M2727 1936.6s10.2 17.9 7.5 15.42c-18.63-17-109.94-102.07-111-110.1-1.8-13-39.92-86.55-47.45-92s-3.35-5.4-8.56-4.1-11.72-24.48-11.72-24.48 26.64 8.72 36.28 21.13c1.3 1.68 59.08 80.86 64.26 95.24 3.48 9.7 80.05 65.12 80.05 65.12s34.54 49.63-9.36 33.78z"/><use xlink:href="#AU"/></g><use xlink:href="#AV" class="BJ"/><use xlink:href="#AU" class="BG"/><use xlink:href="#AV" class="BJ"/><path d="M2489.1 2281.58l115.48-144.47c35.78-7.63 158.52-62.4 158.52-62.4s68.55 14.36 33.4 70.94c-23.5 37.76-170.76 42.34-177.5 41.47s-129.66 113.16-129.66 113.16z" fill="#0072a2"/><g fill="#00d19d"><path d="M2709.76 2059.12l-.53 20.4 10.45-7.7 1.82 23.18a214.89 214.89 0 0 0 30.41 8.69c47.57 9 64.23-14.6 64.23-14.6s3.74-115.63-61.2-182.06c-19.2-19.63-39.06-19.9-49.8-16.35-4.48 1.5-3.14 31.67-3.14 31.67s50.08 79.8 7.77 136.77z"/><path d="M2710.47 1890h.66a82.81 82.81 0 0 1 18.28 2.13c8.22 1.88 18.4 12 18.4 12l4.84-9.5s-7-6.63-20.25-8a57.51 57.51 0 0 0-12.13.33l-12.55-7.37-5.3 12.26z"/></g><path d="M2720.23 2091.9l98.28-51.9 33.82 66-98.28 51.9-33.82-66z" class="BH"/><path d="M2812.22,2052.65l26.5,51.7Z" class="BQ"/><use xlink:href="#AW" class="BR"/><path d="M2797.72 2060.23l26.5 51.7z" class="BQ"/><use xlink:href="#AW" x="-14.527" y="7.694" class="BR"/><path d="M2783.2 2067.8l26.5 51.7z" class="BQ"/><use xlink:href="#AW" x="-29.029" y="15.235" class="BR"/><path d="M2768.7 2075.4l26.5 51.7z" class="BQ"/><use xlink:href="#AW" x="-43.533" y="22.814" class="BR"/><path d="M2754.2 2083l26.5 51.7z" class="BQ"/><use xlink:href="#AW" x="-58.059" y="30.447" class="BR"/><path d="M2739.7 2090.55l26.5 51.7z" class="BQ"/><use xlink:href="#AW" x="-72.537" y="37.935" class="BR"/><path d="M2752 1910.28s65 64.45 63.8 69c-9.73 37.75-44 85.4-44 85.4s6.23 7.47 9.36 10.23 21.4 3.73.5 7.1c-18.77 3-24.1-13.16-21.4-20.8 4.45-12.6 23.93-62.66 25.66-72.85.44-2.6-80.73-47.83-73.83-74.66 8-31.15 39.92-3.42 39.92-3.42zm-250.88 188.04l4.83 20.8-17.24 13.7v-22.55l12.4-11.95zm.94 167.4l1.83 21.54-14.5 13.38-.28-18.7 12.96-16.22zM2081.55 1231c1.34-6.15 2.92-11.1-2.56-14.22-20.62-11.74-72.56-52.38-77.3-60.78-5.86-10.4-22.67-59.67-22.67-59.67l.87-14.8s-9.47-16.56-12.65-15.8 3.16 14.44 3.64 25.1c.55 12.16 6.5 61.74 22.53 84.84s60.24 75.18 78 68.4c5.1-2 9.02-7.95 10.14-13.07z" class="BG"/><path d="M2097.56 1661.55l-29.54-124.7c-3.4-10.07-5.3-153-5.3-153l46.56 9.64-4.83 133 11 133.5z" class="BW"/><path d="M2045.3 1661.55l-28-124.7c-3.38-10.07 24.54-159.53 24.54-159.53l67.46 16.15-55.58 133 11 133.5z" fill="#0f6d6d"/><path d="M2045 1695.88s-12.25.44-7-3c19.62-12.74 13.23-31.57 13.23-31.57l13.4-1.88-.25 17.8-11 15.2s2.8 4.6-8.38 3.43z" class="BG"/><path d="M2136.07 1698.6c0 5.4-72.5 9.8-161.9 9.8s-161.9-4.4-161.9-9.8 72.48-9.8 161.9-9.8 161.9 4.4 161.9 9.8z" class="BO BU"/><path d="M2058.38 1699.6l.64-14.7 8.43-9.7-3.5 24.4h-5.58z" fill="url(#AA)"/><path d="M2063.93 1671.43s1.45-1.53 4 2.87c2 3.35-1.25 11.6-1.25 11.6a13.7 13.7 0 0 0-9.69 6.56 44.79 44.79 0 0 1-5.36 7.88c-2.66 2.83-23.3-.23-23.3-.23s-.8-1.37 2.52-3.44a67.07 67.07 0 0 1 7.15-3.78s5.32 3.9 10.07.45 15.85-21.9 15.85-21.9z" fill="url(#AB)"/><path d="M2096.06 1695.88s-12.24.44-7-3c19.62-12.74 13.23-31.57 13.23-31.57l13.4-1.88-.25 17.8-11 15.2s2.8 4.6-8.38 3.43z" class="BG"/><path d="M2109.42 1699.6l.65-14.7 8.43-9.7-3.5 24.4h-5.6z" fill="url(#AC)"/><path d="M2115 1671.43s1.45-1.53 4 2.87c2 3.35-1.23 11.6-1.23 11.6a13.71 13.71 0 0 0-9.7 6.56 44.79 44.79 0 0 1-5.36 7.88c-2.66 2.83-23.28-.23-23.28-.23s-.8-1.37 2.5-3.44a67.07 67.07 0 0 1 7.15-3.78s5.32 3.9 10.07.45 15.84-21.9 15.84-21.9z" fill="url(#AD)"/><path d="M2058.4 1209.4c-11.13 1.74-15.3 6.5-20.38 16.55-3.88 7.7-12.62 26.1-21 35.18-5.54 6 21.14 128 21.14 128l78.18 4.3s-19.42-53.36-20.7-88-2.75-77-9.4-85c-10.03-11.98-17.87-12.6-27.84-11.04z" fill="url(#AE)"/><path d="M2050.7 1245.92c1.7-6.06 3.6-10.9-1.68-14.35-19.86-13-69.2-56.75-73.4-65.43-5.2-10.72-14.5-69-14.5-69s9.52-12.68 6.22-14.88c-2.46-1.64-8.9 8.22-8.9 8.22s-2.08-19.2-5.3-18.63-12.17 11.72-6.15 22.3 4.6 67.08 19.17 91.13 55.48 78.75 73.6 73.07c5.24-1.66 9.52-7.35 10.95-12.43zM2038.6 1140s-11 21.5-6.12 39.72c1.45 5.37 16.6 6 16.6 6 4.57 12.8-6.1 32-6.1 32s8.18-10.5 17.1-6.46c5.14 2.33 12-.37 11-1.76-10.2-15 13-56.75 1.5-65.3s-34-4.2-34-4.2z" class="BG"/><path d="M2043.1 1147.4c-8.3-.42-15.38-7.1-15.24-15.4a18.13 18.13 0 0 1 3.37-10c9.54-14.12 23.36 4.6 23.67 8.6s11.37-20.78 37.78 1.6-.3 52.78 10.14 68.45 20.58 8.9 23.34 22.42-15.05 14.74-15.05 14.74 4.6 8-5.53 14.75-24.88-2.15-24.88-2.15-3.52 12.63-14.43 13.5-22.72-31.36-15.5-58.6c8.66-32.6 16-37.74 16.34-45.72s-4.3-2.77-6.45-2.46c-1.92.3.96-8.77-17.57-9.7z" class="BJ"/><path d="M938.9 2422.45c-.15 1.17 2 7.83 6.62 10.93s14.92 3.54 14.92 3.54l1.77 13.78s-11.15-2.8-17.8-9.5-8.2-10-8.2-10zm27.2 17.7s9.52-1.74 12-8.9-2.26-11-2.26-11l8.27 9.9s.85 3.68-6.9 10l-13.3 10.55z" class="BH"/><path d="M1356.36 3058.8c0 5.64-155.64 10.2-347.63 10.2s-347.63-4.57-347.63-10.2 155.64-10.2 347.63-10.2 347.63 4.57 347.63 10.2z" class="BO BU"/><path d="M1042.42 2538.84h-47.48V2558l43.36 9.34 4.12-28.5z" class="BG"/><path d="M1134.28 3033.5l5.1-178.82 24.3-205.28s-11.94-48.55 38 10.37-25.5 198.3-23.64 205.93c2.87 11.72-18.15 170.63-18.15 170.63z" class="BV"/><use xlink:href="#AX" class="BI"/><path d="M1140.5 3034.18l18.2 2-.35 6.02-17.37-3-.48-5.03z" class="BG"/><path d="M1289.56 3033.5l-30-163.7 13.17-196.45s14.86-54.6-50.58-13.6c-38.66 24.24-4.48 181.24-3.4 215.1 1 32.5 45.2 161.47 45.2 161.47z" class="BV"/><use xlink:href="#AX" x="127.7" class="BI"/><path d="M1268.36 3035.83l17.03-1.88.66 8.26-17.37-3-.32-3.38z" class="BG"/><path d="M1035.9 2531.6l43.44-8.4 84-83 24 43.86s-71.17 62.37-83 69.37-46.6 20.23-78 15.9c-20.53-2.82 4.66.5 4.66.5z" class="BH"/><path d="M1181.05 2342.5s-16.35 25.94-11.5 47c2.2 9.6 20.6 8.5 20.6 8.5 7.7 22.8-1.3 53.45-1.3 53.45s9.33-2.73 24.76 4.8c8.9 4.34 18-18.14 16.38-20.63-17.48-26.94 2.25-74.05-17.64-89.63s-31.3-3.5-31.3-3.5z" class="BG"/><path d="M1191.05 2347.5s-.53-9.68-13.8-9.43c-11.45.22-26.17-25.58-12.4-33.45 16-9.12 27.8 8.42 37.4 19.26 11.42 12.92 16.46 13.67 23.16 15.7 5.14 1.56 14.7 3.8 16.72 14.43 1.2 6.23-5.56 13.22-8.08 16.6a13 13 0 0 1 9 8.05c2.17 5.92-20 27.28-20 27.28s-11.2-3.08-12.67-7 7.13-14.58 4.83-19-7.73-.8-9.92 1.15c-.9.8-4.74-2.5-4-10.4.2-2.33 4.12-6.6 4.12-6.6s-8.36-.5-12.27-5.2c-5.3-6.32-2.06-11.43-2.06-11.43z" class="BJ"/><path d="M1269.55 2567.8c-3.84-39.06.12-103.3-1.77-113.64s-34-48.2-86.1-26.68c-5.44 2.25-9.2 4.2-15.18 10.07-14.4 14.13-4.85 98.1-5.9 144.2l-2.9 90.35 18.67 18.36 14.6-31.24 23.07 35.8 62.1-22.93s-2.8-65.24-6.62-104.3z" class="BH"/><path d="M1209 2431.24l-4.9 16.48 12.45 186.74-22.98-2 6-184.03-6-15.2 15.42-2z" fill="url(#AF)"/><path d="M1363.55 2670.25s17-5.34 7.7-26.24c-4.88-11-17.83-17.08-17.83-17.08s-40.44-68.8-59.12-92.37c-8.42-10.62-28.33 20.05-18.14 21.12s56.9 71.63 64.72 90.93c3.66 9.08.16 18.1 4.8 18.82 6.3 1 2.44-20.2 2.44-20.2s6.74 16.07 15.43 25.02z" class="BG"/><path d="M1298.83 2585l-33.68-40.54-26.87-94.28 27.14-1.4s29.26 74.13 36.76 85.63 24 42.64 24 42.64z" class="BH"/><path d="M1031 3033.5l-22.92-198.6-6.48-185.5s11.93-48.55-38 10.37 7.7 178.54 5.82 186.16c-2.87 11.7 36 190.4 36 190.4z" class="BV"/><use xlink:href="#AY" class="BI"/><path d="M1024.77 3034.18l-18.2 2 .34 6.02 17.38-3 .47-5.03z" class="BG"/><path d="M875.72 3033.5l16.22-174.57.58-185.57s-14.85-54.6 50.58-13.6c38.66 24.24-9.27 170.36-10.35 204.2-1 32.5-31.44 172.35-31.44 172.35z" class="BV"/><use xlink:href="#AY" x="-127.7" class="BI"/><path d="M896.92 3035.83l-17.04-1.88-.65 8.26 17.37-3 .32-3.38z" class="BG"/><g class="BX"><path d="M1109.9 2458l-36.44 15-88.2-45.13-1.17 50s66.3 32.8 80 33.6 37.73-19.74 37.73-19.74z"/><path d="M895.73 2567.8c3.83-39.06-.12-103.3 1.76-113.64s34-48.2 86.1-26.68c5.44 2.25 9.2 4.2 15.18 10.07 14.4 14.13 4.84 98.1 5.9 144.2l2.9 90.35-23.53 8-9.75-20.85-12.1 18.76-73.1-5.88s2.78-65.27 6.62-104.33z"/></g><path d="M955.67 2324.44s23.55 19.65 25.42 41.2c.86 9.8-17 14.43-17 14.43-.3 24.07 17.7 50.46 17.7 50.46s-.73 1.92-13.08 13.83c-7.12 6.87-31.7-13.36-30.93-16.22 8.32-31-25-69.75-10.84-90.7s28.73-13 28.73-13z" class="BG"/><path d="M947.7 2332.26s-4.74-4 8-7.82c11-3.32 1.6-33.4-13.93-36.64-18-3.76-32.37 5.46-37.9 27.7-4.16 16.74 14.5 15.8 8.76 19.8-4.4 3.07-12.8 8.14-11.46 18.9.8 6.3 9.36 10.86 12.8 13.3a13.06 13.06 0 0 0-6.12 10.45c-.24 6.3 27.48 19.78 27.48 19.78s9.7-6.38 9.9-10.54-11.27-11.67-10.44-16.6 7.1-3.14 9.8-2c1.1.5 3.74-3.84.6-11.12-.92-2.15-5.95-5-5.95-5s7.8-3.06 10.07-8.73c3.04-7.63-1.6-11.5-1.6-11.5z" class="BJ"/><path d="M956.27 2431.24l4.9 16.48-12.82 105.37h27.73l-10.4-104.67 6.02-15.2-15.43-2z" class="BH"/><path d="M801.73 2670.25s-17-5.34-7.7-26.24c4.87-11 17.83-17.08 17.83-17.08s40.44-68.8 59.12-92.37c8.42-10.62 28.32 20.05 18.14 21.12s-56.92 71.63-64.72 90.93c-3.67 9.08-.16 18.1-4.8 18.82-6.3 1-2.43-20.2-2.43-20.2s-6.74 16.07-15.43 25.02z" class="BG"/><path d="M875.72 2573.8l24.4-29.38 27.07-95c2.42-8.5-2.27-23.4-9.42-18.2h0a44.38 44.38 0 0 0-29.35 29.58c-7.82 25.92-20.34 65.9-25.33 73.56-7.5 11.5-16.16 16.4-16.16 16.4z" class="BX"/><path d="M1107.08 2459.14s55.67-34.75 69.44-34.75 22.58 4.86 19.82 6.85-20 5.83-23.54 8.9 11.18 5.3 6.47 8.6-27.14 2.5-32.8 8.1-43.65 30.63-43.65 30.63z" class="BG"/><path d="M1157.37 2413.9l-2-165.77-4.1-200.43s-9.16-83.3-52.6-15.93 19.3 224.8 18.4 232.9c-1.4 12.45 14.32 155.6 14.32 155.6z" class="BS"/><path d="M991.4 2439.2l18.18.55 13.84 10.83s18.4 5.86 23 10.5-57.9-6.44-57.9-6.44z" class="BI"/><path d="M1017.06 2434.46l34.47-162.15 64.82-169.85s2.62-88.12-67.8-49.75c-6.46 3.52-35.38 219.62-38 227.32-4.08 11.85-20.2 154.94-20.2 154.94z" class="BW"/><path d="M1010.55 2434.6l-19 .35-.2 6.26 18.25-1.45.96-5.16z" class="BG"/><path d="M1133.4 2424.15l17.85-3.46 15.88 7.53s19.23 1.68 24.74 5.18-57.9 6.44-57.9 6.44z" class="BI"/><path d="M1151.05 2415.44l-18.46 4.53 1.17 6.15 17.48-5.43-.2-5.25zm138.27-715.68s14.9 11-1.32 28.37c-8.5 9.1-23.28 10.73-23.28 10.73s-50.2 101.7-76.52 118.5c-11.86 7.58-112.2 13.65-112.2 13.65l.72-39.35s91.55 1.9 101.9 4.3 66.3-104.4 80.5-120.7c6.67-7.67 6.3-17.72 11.08-16.84 6.5 1.2-4.45 20.65-4.45 20.65s12-13.46 23.57-19.3z" class="BG"/><path d="M1241.16 1741.25l-61.5 89.75-109.22-2.55 1.23 50.48s105.72-2.8 118.72-8.68 34.73-48 49.8-77.28c9.83-19.13 18.67-40.5 18.67-40.5z" class="BS"/><path d="M1246.47 1732.7l-5.3 8.55 17.7 11.24 4.4-10.22-16.8-9.57z" class="BH"/><path d="M1040.08 1742.86s24.23 20.66 25.93 43.07c.78 10.18-17.77 14.8-17.77 14.8-.6 25 17.8 52.58 17.8 52.58s-10.1.17-23.06 12.4c-7.47 7-23.44-12.4-22.6-15.38 9-32.1-25.13-72.7-10.23-94.3s29.93-13.18 29.93-13.18z" class="BG"/><path d="M1031.7 1750.9s4.76 4.2 15.43-1.07 12.92-23.25-.5-32.78c-3.68-2.6-18.07-7.9-26.2 12.3 0 0-10.36-5.7-16.7 1.45-9 10.2-1.92 23.66-1.92 23.66s-14.7 1.3-13.68 18a20.65 20.65 0 0 0 8.14 14.63 13.54 13.54 0 0 0-6.47 10.78c-.32 6.53 9 13.3 15.35 10.74 0 0 2.3 3.82 3.83 5.8 4.67 6 9.13 4.3 9.13 4.3s10.14-6.52 10.4-10.82-11.58-12.25-10.66-17.35 7.42-3.18 10.2-1.92c1.14.5 5.34-5.78 2.17-13.37-.93-2.25-4.87-4.9-4.87-4.9 0-2.37 6.7-5 7.9-7.47 3.66-7.73-1.52-11.96-1.52-11.96z" class="BJ"/><path d="M1045.22 2060.74l3 3.72s22.6 22.05 40.38 24.73c57.64 8.7 60.1-36.93 60.1-36.93s-54.57-187-64.33-203.92c-16.5-28.64-49.54-19.26-61.73-13.22-12 5.94-21 15.57-27.36 24.6a29.25 29.25 0 0 0 2.85 37.12c26.2 27.08 83.32 111.07 47.1 163.9z" class="BH"/><path d="M1022.66 1835.12l64.68 107-35.9-115.27a55.07 55.07 0 0 1 14.29.38 67.61 67.61 0 0 1 21.22 6.74c18.65 9.56 32.06 94.27 47.38 139.65l30.8 88.66-22 33.42-15-35.9-11.8 42.62-80.16-4.1s-5.9-64.94-14.17-104.83-32-102.3-33.36-113.15 5.26-36.98 34.03-45.2z" class="BS"/><path d="M1036.8 1829.77l8.68 9.57 8.07 46.88 33.8 55.94-13.92-59.37-24.02-44.7-.1-9.4-12.5 1.08z" fill="url(#AG)"/><path d="M1598.1 1970.86h-493.74v-254.42h493.74z" class="BH"/><g fill="#00445b"><path d="M1564.08 1960.22a5.25 5.25 0 0 0 5.24-5.24v-203.53a5.25 5.25 0 1 0-10.49 0V1955a5.25 5.25 0 0 0 5.25 5.22z"/><path d="M1139.62,1933.58h444.1a5.25,5.25,0,1,0,0-10.5h-444.1a5.25,5.25,0,0,0,0,10.5Z"/></g><path d="M1529 1908.94a5.26 5.26 0 0 0 4.64-7.7l-26.64-50.48a5.24 5.24 0 0 0-4.22-2.78 5.29 5.29 0 0 0-4.62 2.09l-27.5 36.73-46.77-66a5.28 5.28 0 0 0-4.2-2.21h-.08a5.24 5.24 0 0 0-4.18 2.08l-48.12 63.6-47.82-93.15a5.28 5.28 0 0 0-4.58-2.85 5 5 0 0 0-4.67 2.7l-55.75 100.1-55.3-152a5.25 5.25 0 0 0-9.86 3.59l59.22 162.83a5.25 5.25 0 0 0 9.52.76l56.56-101.58 47.15 91.84a5.25 5.25 0 0 0 8.86.78l48.83-64.53 46.8 66a5.23 5.23 0 0 0 4.21 2.21 5.33 5.33 0 0 0 4.27-2.1l26.83-35.85 22.76 43.13a5.23 5.23 0 0 0 4.65 2.79z" fill="url(#AH)"/><path d="M1181.38,1778.86a5.25,5.25,0,0,0,4.95-3.5l10.73-30.38,27.82,17.65a5.25,5.25,0,0,0,5.62-8.86l-33.38-21.18a5.25,5.25,0,0,0-7.76,2.68l-12.92,36.6a5.25,5.25,0,0,0,4.94,7Z" fill="url(#AI)"/><path d="M1408.68 1773.17h-39.9a5.25 5.25 0 0 1 0-10.49h39.9a5.25 5.25 0 0 1 0 10.49zm-10.56 34.2H1438a5.25 5.25 0 0 0 0-10.5h-39.9a5.25 5.25 0 0 0 0 10.5zm89.48 31.54h39.9a5.25 5.25 0 1 0 0-10.49h-39.9a5.25 5.25 0 0 0 0 10.49zm-356.27-24.53h39.9a5.25 5.25 0 1 0 0-10.49h-39.9a5.25 5.25 0 1 0 0 10.49zm0 24.53h39.9a5.25 5.25 0 1 0 0-10.49h-39.9a5.25 5.25 0 1 0 0 10.49zm0 24.55h39.9a5.25 5.25 0 1 0 0-10.49h-39.9a5.25 5.25 0 1 0 0 10.49zm0 24.55h39.9a5.25 5.25 0 1 0 0-10.49h-39.9a5.25 5.25 0 1 0 0 10.49z" fill="#00445b"/><path d="M1247.47 1964.94s-.8 18.5-24.25 14.76c-12.3-2-21.92-13.3-21.92-13.3s-112.38 15.2-141 2.78c-12.92-5.6-38.1-57.1-38.1-57.1l-.56-35.8s47.18 63.06 51 73 123.62-3.37 145.08-.7c10.1 1.24 18.2-4.7 20.16-.23 2.64 6-19.6 7.85-19.6 7.85s17.88 2.46 29.2 8.78z" class="BG"/><path d="M1186.15 1948.2l-108.8-.82-71.73-103.72s-8.7 5-14.84 21.8c-11 30 47.88 105.26 60 112.76s59.2 2 91.92-1.9c21.36-2.53 44-7.14 44-7.14z" class="BW"/><path d="M1196.2 1947.82l-10.06.37.58 20.97 10.94-2.06-1.46-19.28z" class="BH"/><path d="M1229.65 1708.4a4.37 4.37 0 0 1-2-.49 4.32 4.32 0 0 1-1.81-5.82l6.08-11.57a4.3 4.3 0 0 1 5.72-1.86l8.28 4.1 4.58-9.25a4.29 4.29 0 0 1 2.48-2.17 4.37 4.37 0 0 1 3.29.22l9.87 4.9 4.9-9.87a4.3 4.3 0 0 1 5.77-2l14 6.92a4.31 4.31 0 1 1-3.82 7.72l-10.12-5-4.9 9.87a4.3 4.3 0 0 1-5.77 2l-9.88-4.9-4.57 9.25a4.31 4.31 0 0 1-5.77 1.95l-8.37-4.14-4.12 7.86a4.32 4.32 0 0 1-3.84 2.29z" fill="url(#AJ)"/><path d="M1107.3 1708.4a4.3 4.3 0 0 1-3.81-2.3l-4.13-7.86-8.36 4.14a4.29 4.29 0 0 1-5.77-1.95l-4.58-9.25-9.88 4.9a4.3 4.3 0 0 1-5.77-2l-4.88-9.87-10.13 5a4.31 4.31 0 0 1-3.82-7.72l14-6.92a4.3 4.3 0 0 1 5.77 2l4.9 9.87 9.88-4.9a4.31 4.31 0 0 1 5.77 2l4.58 9.25 8.27-4.1a4.3 4.3 0 0 1 5.72 1.86l6.08 11.57a4.3 4.3 0 0 1-3.81 6.31z" fill="url(#AK)"/><path d="M1183.86 1665.48a4.3 4.3 0 0 1-3.65-6.58l4.68-7.53-7.8-5.12a4.31 4.31 0 0 1-1.24-6l5.66-8.63-9.22-6a4.32 4.32 0 0 1-1.24-6l6-9.2-9.44-6.2a4.31 4.31 0 0 1 4.72-7.21l13.05 8.55a4.33 4.33 0 0 1 1.24 6l-6 9.2 9.2 6a4.3 4.3 0 0 1 1.24 6l-5.65 8.63 7.72 5.06a4.31 4.31 0 0 1 1.29 5.88l-6.9 11.1a4.31 4.31 0 0 1-3.66 2.04z" fill="url(#AL)"/><path d="M1221.17 1668.77a4.31 4.31 0 0 1-3-7.35l35.77-35.77a4.31 4.31 0 0 1 6.09 6.09l-35.77 35.77a4.29 4.29 0 0 1-3.09 1.26z" fill="url(#AM)"/><path d="M1137.83 1666.83a4.29 4.29 0 0 1-3-1.26l-30.4-30.4a4.31 4.31 0 1 1 6.09-6.09l30.4 30.4a4.31 4.31 0 0 1-3 7.35z" fill="url(#AN)"/><path d="M3388 3004.63s-71.84-11-107.9-25.1c-15.94-6.22-42.55-69.12-51.83-82.3-5.43-7.7-48.6-17.8-51-16.78-4.77 2.05 19.52 12.2 19.52 12.2-2.2 1.36-10.54.3-11.4 6.94-.53 4.16 19.25-6.23 32.37 8.12s17.55 67.65 49.2 93.5c42 34.3 137 38.84 137 38.84z" class="BG"/><path d="M3477.8 3217.12l-16 170.57 106.4 120.56 29 11.63s-63.46-94.7-81.5-148.34 70.83-136.52 62.76-159.82-105.23-49.53-100.67 5.4z" fill="#003251"/><path d="M3581.73 3521.78l15.52-1.92-9.4-14.43-19.65 2.82 13.53 13.53z" class="BG"/><path d="M3539 3539.7l58.5-2.37-.9-18s-20.77-4.66-33.4 1.55-23.44 8.9-24.2 18.82zm145.48-1.52l58.5-2.37-.9-18s-20.78-4.66-33.4 1.55-23.4 8.9-24.2 18.82z" class="BI"/><path d="M3326.08 2943.65s7.8 40.26 16.1 45c7.62 4.35 21.28-9 23.85-4.54s9.7 33.72 9.7 33.72 9.1-19.73 19.42-21.22c4.6-.66 9-.8 9-.8s-40.14-70.76-63-64.74-15.06 12.6-15.06 12.6z" class="BG"/><path d="M3713.72 3509.34s-101.47-126.47-113.5-148.13c-7.13-12.84-82.73-156.4-82.73-156.4h86.26s26.4 58.42 45.65 139.4c1 4.38 74.24 145.65 74.24 145.65z" class="BY"/><path d="M3742.08 3517.82l-19.45-.73-7.37-11.92 8.4-15.32 18.43 27.97z" class="BG"/><path d="M3407.43 2992.53s47.55-10.68 136.27 96.32c40.7 49.08 60.06 116 60.06 116l-128.4 9.36c-15.08-73.2-115.23-178.2-105.85-204.2 3.94-10.85 28.54-20.2 37.9-17.47z" class="BH"/><path d="M3388.64 3041.12l54.25 46.48 79 61.34a24.86 24.86 0 0 0 5.11 22.16c8.8 10.47 29 12.05 31.28 9.4s-2.06-7.2-2.06-7.2-19.52-10.8-22.2-27.15c-1-6-47.64-46.2-64-66.75-13.8-17.28-44.7-57.13-66.92-67.62a16.26 16.26 0 0 0-18.5 3.27h0a16.33 16.33 0 0 0 4.05 26.06z" class="BG"/><path d="M3378.72 2958s-10.7.8-12.7-3.23-4.68-16.4-9.58-15.6-3.34 4.23-6.23 5-25.35 15.52-46 6.08-9.67-32.72 4.12-34.6 11.44 12.6 11.44 12.6a94.89 94.89 0 0 1 35-8c19.02-.34 23.95 37.74 23.95 37.74z" class="BJ"/><g class="BN"><path d="M3826.65 3545.15a7.66 7.66 0 0 1-8.07-2.74l-620.64-863.35c-2.28-3.17-1.26-7.55 2.3-9.8s8.26-1.48 10.54 1.7l620.64 863.35c2.28 3.17 1.25 7.56-2.3 9.8a8.36 8.36 0 0 1-2.47 1.05zm101.4-24.85a7.68 7.68 0 0 1-8.08-2.73l-620.64-863.36c-2.28-3.17-1.25-7.55 2.3-9.8s8.26-1.48 10.54 1.7l620.64 863.36c2.28 3.17 1.25 7.55-2.3 9.8a8.39 8.39 0 0 1-2.46 1.04z"/><path d="M3362.22 2733.2l-101 24.75c-4.1 1-8.2-1.2-9.1-5s1.67-7.6 5.8-8.6l101.05-24.75c4.1-1 8.18 1.22 9.1 5s-1.72 7.6-5.83 8.6zm67.43 94.8l-101.05 24.75c-4.12 1-8.2-1.2-9.1-5s1.67-7.6 5.78-8.6l101.06-24.75c4.1-1 8.18 1.22 9.1 5s-1.67 7.6-5.78 8.6zm67.42 94.83l-97.46 23.87c-4.12 1-8.2-1.2-9.1-5s1.67-7.6 5.78-8.6l97.47-23.88c4.1-1 8.2 1.22 9.1 5s-1.67 7.6-5.8 8.6zm67.43 94.82l-95.75 23.45c-4.1 1-8.2-1.2-9.1-5s1.67-7.6 5.8-8.6l95.75-23.46c4.1-1 8.2 1.22 9.1 5s-1.67 7.6-5.78 8.6zm67.43 94.82L3533 3136.7c-4.1 1-8.2-1.22-9.1-5s1.67-7.6 5.78-8.6l98.9-24.23c4.1-1 8.18 1.22 9.1 5s-1.68 7.6-5.75 8.6zm67.43 94.83l-98.28 24.08c-4.1 1-8.18-1.22-9.1-5s1.67-7.6 5.78-8.6l98.27-24.07c4.12-1 8.2 1.2 9.1 5s-1.67 7.6-5.78 8.6zm67.42 94.8l-97.64 23.9c-4.1 1-8.2-1.2-9.1-5s1.67-7.6 5.8-8.6l97.64-23.9c4.1-1 8.2 1.2 9.1 5s-1.67 7.63-5.8 8.63zm68.82 94.5l-96.08 23.54c-4.1 1-8.2-1.22-9.1-5s1.67-7.6 5.8-8.6l96.08-23.54c4.1-1 8.2 1.22 9.1 5s-1.67 7.6-5.8 8.6z"/></g><g class="BG"><path d="M3464.46 2601.88l-64.1 63.57c-8.7 10.15-62.26 60.75-62.26 60.75l-31.3 6.66s-4.33 1.58 0-6.75 27.4-10.1 27.4-10.1l47.92-63.58c15.4-20.95 60.47-78.82 60.47-78.82 8.23-.33 21.87 28.28 21.87 28.28zm-21.36 119.8s11.4 240.72 36.16 261.47c16.52 13.85 90.15 101 90.15 101s-.95 28.46-12.13 32.74c-7.1 2.72 12.1 1.5 12.1 1.5s19.05-33.9 10.05-40.8-57.8-101.18-64.84-114.4c-6.34-11.9-2.9-251.42-2.9-251.42z"/><path d="M3435.3 2700.18s81.12 207.84 147.4 271.9c11 10.6 151.12 99.26 151.12 99.26l15 18.28s14.4-8.55-8.4-36.52c-10.72-13.14-15-5-15-5l-117.2-101.4s-74-221.95-84-230.4c-48.3-40.68-88.92-16.12-88.92-16.12z"/></g><path d="M3523.77 2709.9c-6.86-6.83-12.55-10.92-17-13.4l-34.54-25.35a128 128 0 0 1-6.36-38.8c-.07-6.25.34-16 1.26-25.8 1.57-16.7 7.94-45.4-19.85-50.3-6.45-1.13-11.95-.8-14.3 4.4-14.37 32-23.4 47.1-28.44 58 2.67 9.37 13.8 15 13.8 15 6.26 19 20.3 75.77 21.77 84.87l16.17 175.1s34.2 9.8 55 9.67 33.64-4.13 33.64-4.13l15.7-1.85 28.37-7.6s-46.7-161.4-65.24-179.86z" fill="url(#AO)"/><g class="BO"><path d="M3766.7 3075.5l-23-22.15-.74-8.23 25.37 28.6-1.63 1.78z"/><path d="M3727.07 3046.4s6.47-5.23 12-4c4.2.9 8.48 9.67 8.48 9.67s-4.95 5.82 2.52 14.27c6.84 7.74 10 12.48 10.28 16.75s-15.57 16.58-15.57 16.58-1.7-.38-.92-4.6a75.32 75.32 0 0 1 2.28-8.63s3.62 2.4 4.38-4-23.45-36.03-23.45-36.03zm-142.85 77.13l.7-31.93 5.56-6.1-3.85 38.03-2.42.01z"/><path d="M3580 3078.42s8.24 1.2 11.1 6.07c2.17 3.7-1.37 12.78-1.37 12.78s-8.3.94-10.06 7.73c-2.6 10-3.83 14.07-6.75 17.2s-22.75-.22-22.75-.22-.88-1.5 2.77-3.8a72.42 72.42 0 0 1 7.89-4.17s.67 4.3 5.9.5 13.27-36.1 13.27-36.1z"/></g><path d="M3638 2744.3l-48.16 30-12.45-20a26.51 26.51 0 0 1 8.49-36.47l3.2-2a26.5 26.5 0 0 1 36.47 8.49zm-45.64 19.13l34.8-21.66-8.3-13.33a18.62 18.62 0 0 0-25.63-6l-3.2 2a18.61 18.61 0 0 0-6 25.63z" class="BN"/><path d="M3642.63 2720.23l-80.14 49.86 29.4 75.52 102.85-64-52.1-61.38z" class="Bb"/><path d="M3574.87 2801.13l-1.58-2.55 32.2-20.04 6.26 10.05 25.08-15.6-6.26-10.06 31.8-19.8 1.6 2.55-29.25 18.2 6.26 10.06-30.18 18.78-6.25-10.06-29.67 18.46z" class="BN"/><g fill="#001abd"><path d="M3620.53 2765a4.39 4.39 0 1 1-6.05-1.41 4.4 4.4 0 0 1 6.05 1.41z"/><path d="M3614.143 2766.88l3.336-2.077 7.985 12.828-3.336 2.077z"/></g><path d="M3694.74 2781.6l6.66-11.74-54.8-52.1-4.9 3.05 53.05 60.8z" class="BN"/><g class="BG"><path d="M3449 2583.17c22.17 18.58 86.83 68.42 86.83 68.42l42.7 61.22s-5.7 17-.05 20.64c12.5 8.1 19.94-13.22 19.94-13.22-5.27 0-8.45 4.23-11 1.45-.76-.83 1.5-11.27 1.5-11.27l-35.08-73.32s-90.5-82.46-100.13-76.7a21.26 21.26 0 0 0-7.69 8.13 11.84 11.84 0 0 0 2.98 14.66z"/><path d="M3466.05 2462.53s-23.58 19.7-26.9 43.48c-1 7 16.47 15.26 16.47 15.26-1 17.27-20.32 35.62-20.32 35.62s8.76-4.34 17.2 4.82c4.87 5.28 11.68 4 11.26 1.9-4.5-22.66 30.12-69.35 20.84-85.1s-18.56-16-18.56-16z"/></g><path d="M3468 2471.13c-.94-.88-14.23-17.93 0-21 9.8-2.1 24.9 1.27 46.78 37.1 13.08 21.4 6.83 37.56 5.12 61.25-1.05 14.6 1.7 60.05 1.7 60.05l-65.07-49.18s21.74-53.57 21.74-58.28-6.43-2.56-6.43-2.56 5.15-18.94-3.85-27.38z" class="BJ"/><path d="M2565.8 1754.75s18.44.38 17.27-19.88c-.62-10.62-10.85-19.48-10.85-19.48s6.88-10.6-2.35-35.78c-4.16-11.35-11.68-1.8-10.52 7.2 1.47 11.47-6.92 23.08-6.6 41.56.15 8.7-6.6 15.3-2.4 17.2 5.72 2.6 9.9-16.3 9.9-16.3s.5 15.45 5.55 25.48z" class="BG"/><path d="M2555.8 1701.4l-24.92-74.6-52.8-99.37 23.95-28.14 58.9 100.72c6.13 10.8 14.57 39.32 15.6 67.46.58 16 0 35.62 0 35.62z" class="BS"/><path d="M2554.36 1709.97l1.45-8.57 20.73 1.7-3.22 9.23-18.96-2.35z" class="BH"/><path d="M2423.47 2071.57l-2-165.76-4.1-200.44s-9.15-83.3-52.6-15.92 19.3 224.8 18.4 232.9c-1.38 12.45 14.33 155.6 14.33 155.6z" class="BS"/><path d="M2257.5 2096.87l18.18.56 13.83 10.83s18.4 5.86 23 10.48-57.9-6.43-57.9-6.43z" class="BI"/><path d="M2283.16 2092.14l34.47-162.14 64.82-169.84s7.4-105.5-63-67.13c-6.46 3.52-40.15 237-42.8 244.7-4.08 11.84-20.2 154.93-20.2 154.93z" class="BW"/><path d="M2276.66 2092.26l-19 .36-.2 6.26 18.25-1.45.97-5.17z" class="BG"/><path d="M2399.5 2081.83l17.86-3.46 15.87 7.53s19.57 7.47 25.08 11-58.23.65-58.23.65z" class="BI"/><path d="M2417.16 2073.12l-18.46 4.52 1.16 6.15 17.5-5.42-.2-5.25zm124.2-649.62s5 31.44-8.18 49.6c-6 8.25-23.13-.26-23.13-.26-16.64 18.63-20.53 51.58-20.53 51.58s-7.8-6.4-25.6-5.5c-10.25.53-9.8-24.65-7.23-26.37 27.65-18.6 28-71.64 53.34-78.42s31.33 9.37 31.33 9.37z" class="BG"/><path d="M2529.78 1424.2s.9 6.3 12.44 9.2 24.9-9.33 20.87-25.28c-1.1-4.37-8.64-17.73-27.9-7.64 0 0-4.2-11.06-13.66-9.72-13.5 1.9-16.8 16.77-16.8 16.77s-12-8.53-22.1 4.86a20.66 20.66 0 0 0-3.29 16.41 13.55 13.55 0 0 0-11.91 4c-4.48 4.77-1.8 15.93 4.72 18.14 0 0-.72 4.4-.84 6.9-.37 7.63 4.16 9.2 4.16 9.2s12 1.62 14.93-1.5-.87-16.83 3.13-20.1 7.7 2.4 9 5.14c.54 1.14 7.8-.93 10.32-8.77.75-2.3-.53-6.9-.53-6.9 1.56-1.8 8.35.55 10.85-.58 7.85-3.52 6.63-10.1 6.63-10.1z" class="BJ"/><path d="M2339.18 1668.85l-.1 4.8s2.9 31.44 14.7 45c38.25 44 69.7 10.84 69.7 10.84s79.7-177.75 83.23-197c6-32.5-25.23-46.78-38.43-50.1-13-3.26-26.08-1.76-36.78 1a29.26 29.26 0 0 0-21.9 30.11c2.4 37.62-8.6 138.6-70.42 155.34z" class="BH"/><path d="M2468.28 1482.45l-20.14 123.43 47.38-111a54.79 54.79 0 0 1 10.63 9.56 67.18 67.18 0 0 1 11.79 18.88c8 19.37-36.7 92.56-54.47 137l-34 87.47L2391 1759l11.87-37-36.62 24.8-58.36-55.1s37.6-53.27 57.18-89 41.94-98.7 48-107.82 27.93-24.83 55.2-12.44z" class="BS"/><path d="M2482.5 1487.54l.4 12.9-24.25 40.92-10.52 64.5 27.9-54.23 10.7-49.6 6-7.22-10.23-7.3z" fill="url(#AP)"/><path d="M2557 1745.75s-13.14 13-27.85-5.6c-7.7-9.78-7.08-24.64-7.08-24.64s-50.26-36.14-62.9-64.7c-5.7-12.88 26.5-16.16 22.57-6.28s50.5 52.46 64.47 69c6.57 7.75 16.57 8.9 15 13.5-2.16 6.24-19.73-7.53-19.73-7.53s11.44 13.92 15.5 26.24z" class="BG"/><path d="M2523.25 1691.86L2471.8 1597l-16.67-112.27s-9.8-2.22-25.68 6c-28.4 14.6-8.83 103.7-5 117.43s21.13 55.67 47.8 75c17.42 12.62 37.2 24.6 37.2 24.6z" class="BW"/><path d="M2530.9 1698.4l-7.64-6.55-13.8 15.8 9.44 5.9 12-15.16z" class="BH"/></svg>