<svg xmlns="http://www.w3.org/2000/svg" xmlns:xlink="http://www.w3.org/1999/xlink" viewBox="0 0 4800 4200"><defs><style>.cls-1{mask:url(#mask);filter:url(#luminosity-noclip-6);}.cls-10,.cls-2,.cls-4,.cls-6,.cls-8{mix-blend-mode:multiply;}.cls-2{fill:url(#Áåçûìÿííûé_ãðàäèåíò_7);}.cls-3{mask:url(#mask-2);filter:url(#luminosity-noclip-7);}.cls-4{fill:url(#Áåçûìÿííûé_ãðàäèåíò_6);}.cls-5{mask:url(#mask-3);filter:url(#luminosity-noclip-8);}.cls-6{fill:url(#Áåçûìÿííûé_ãðàäèåíò_4);}.cls-7{mask:url(#mask-4);filter:url(#luminosity-noclip-9);}.cls-8{fill:url(#Áåçûìÿííûé_ãðàäèåíò_3);}.cls-9{mask:url(#mask-5);filter:url(#luminosity-noclip-10);}.cls-10{fill:url(#Áåçûìÿííûé_ãðàäèåíò_2);}.cls-11{fill:#fff;}.cls-12{fill:#f0fffc;}.cls-13{fill:#b2f7e9;}.cls-14{fill:#00fff1;}.cls-15{fill:#00d3cd;}.cls-16{fill:#d7fff7;}.cls-17{fill:#00a098;}.cls-18{fill:#00776e;}.cls-19{fill:#98d8c9;}.cls-20{fill:#d4fff5;}.cls-21{opacity:0.56;}.cls-22{opacity:0.46;}.cls-23{opacity:0.28;}.cls-24{opacity:0.57;}.cls-25{fill:url(#Áåçûìÿííûé_ãðàäèåíò_567);}.cls-26{fill:url(#Áåçûìÿííûé_ãðàäèåíò_567-2);}.cls-27{fill:url(#Áåçûìÿííûé_ãðàäèåíò_567-3);}.cls-28{fill:url(#Áåçûìÿííûé_ãðàäèåíò_567-4);}.cls-29,.cls-60,.cls-70,.cls-72{fill:#003b64;}.cls-30{fill:#008184;}.cls-31{fill:url(#Áåçûìÿííûé_ãðàäèåíò_5);}.cls-32{fill:url(#Áåçûìÿííûé_ãðàäèåíò_567-5);}.cls-33{fill:url(#Áåçûìÿííûé_ãðàäèåíò_567-6);}.cls-34{fill:#009297;}.cls-35{mask:url(#mask-6);}.cls-36{opacity:0.26;fill:url(#Áåçûìÿííûé_ãðàäèåíò_621);}.cls-37{mask:url(#mask-7);}.cls-38{opacity:0.54;fill:url(#Áåçûìÿííûé_ãðàäèåíò_621-2);}.cls-39{mask:url(#mask-8);}.cls-40{fill:url(#Áåçûìÿííûé_ãðàäèåíò_621-3);}.cls-41{mask:url(#mask-9);}.cls-42{fill:url(#Áåçûìÿííûé_ãðàäèåíò_621-4);}.cls-43{fill:#de5f12;}.cls-44{fill:url(#Áåçûìÿííûé_ãðàäèåíò_567-7);}.cls-45{fill:url(#Áåçûìÿííûé_ãðàäèåíò_567-8);}.cls-46{fill:url(#Áåçûìÿííûé_ãðàäèåíò_609);}.cls-47{mask:url(#mask-10);}.cls-48{fill:url(#Áåçûìÿííûé_ãðàäèåíò_614);}.cls-49{fill:url(#Áåçûìÿííûé_ãðàäèåíò_567-9);}.cls-50{fill:url(#Áåçûìÿííûé_ãðàäèåíò_567-10);}.cls-51{fill:url(#Áåçûìÿííûé_ãðàäèåíò_567-11);}.cls-52{fill:url(#Áåçûìÿííûé_ãðàäèåíò_567-12);}.cls-53{fill:url(#Áåçûìÿííûé_ãðàäèåíò_567-13);}.cls-54{fill:#ffb68e;}.cls-55{fill:#003251;}.cls-56{fill:#000538;}.cls-57{fill:#003d68;}.cls-58{fill:#00c0c5;}.cls-59{fill:#172755;}.cls-60,.cls-87{opacity:0.18;}.cls-61{fill:#0089ce;}.cls-62{fill:#63717d;}.cls-63{fill:#ffb600;}.cls-64{fill:#ffa600;}.cls-65{fill:#001abd;}.cls-66{fill:#003351;}.cls-67{fill:url(#Áåçûìÿííûé_ãðàäèåíò_567-14);}.cls-68{fill:#9df4e8;}.cls-69{fill:#11b7ae;}.cls-70{opacity:0.43;}.cls-71{fill:#dcfeff;}.cls-72{opacity:0.14;}.cls-73{fill:#006370;}.cls-74{fill:url(#Áåçûìÿííûé_ãðàäèåíò_567-15);}.cls-75{fill:url(#Áåçûìÿííûé_ãðàäèåíò_567-16);}.cls-76{fill:url(#Áåçûìÿííûé_ãðàäèåíò_567-17);}.cls-77{fill:url(#Áåçûìÿííûé_ãðàäèåíò_567-18);}.cls-78{fill:url(#Áåçûìÿííûé_ãðàäèåíò_567-19);}.cls-79{fill:url(#Áåçûìÿííûé_ãðàäèåíò_567-20);}.cls-80{fill:#005e7e;}.cls-81{fill:#0072a2;}.cls-82{fill:#00d19d;}.cls-83{fill:#004e15;}.cls-84{fill:#2f375f;}.cls-85{fill:#0a5558;}.cls-86{fill:#0f6d6d;}.cls-88{fill:url(#Áåçûìÿííûé_ãðàäèåíò_567-21);}.cls-89{fill:url(#Áåçûìÿííûé_ãðàäèåíò_567-22);}.cls-90{fill:url(#Áåçûìÿííûé_ãðàäèåíò_567-23);}.cls-91{fill:url(#Áåçûìÿííûé_ãðàäèåíò_567-24);}.cls-92{fill:url(#Áåçûìÿííûé_ãðàäèåíò_567-25);}.cls-93{fill:url(#Áåçûìÿííûé_ãðàäèåíò_567-26);}.cls-94{fill:#063638;}.cls-95{fill:url(#Áåçûìÿííûé_ãðàäèåíò_567-27);}.cls-96{fill:#00445b;}.cls-97{fill:url(#Áåçûìÿííûé_ãðàäèåíò_567-28);}.cls-98{fill:url(#Áåçûìÿííûé_ãðàäèåíò_567-29);}.cls-99{fill:url(#Áåçûìÿííûé_ãðàäèåíò_567-30);}.cls-100{fill:url(#Áåçûìÿííûé_ãðàäèåíò_567-31);}.cls-101{fill:url(#Áåçûìÿííûé_ãðàäèåíò_567-32);}.cls-102{fill:url(#Áåçûìÿííûé_ãðàäèåíò_567-33);}.cls-103{fill:url(#Áåçûìÿííûé_ãðàäèåíò_567-34);}.cls-104{fill:url(#Áåçûìÿííûé_ãðàäèåíò_567-35);}.cls-105{fill:url(#Áåçûìÿííûé_ãðàäèåíò_567-36);}.cls-106{filter:url(#luminosity-noclip-5);}.cls-107{filter:url(#luminosity-noclip-4);}.cls-108{filter:url(#luminosity-noclip-3);}.cls-109{filter:url(#luminosity-noclip-2);}.cls-110{filter:url(#luminosity-noclip);}</style><filter id="luminosity-noclip" x="2642.25" y="-10292" width="176.28" height="32766" filterUnits="userSpaceOnUse" color-interpolation-filters="sRGB"><feFlood flood-color="#fff" result="bg"/><feBlend in="SourceGraphic" in2="bg"/></filter><mask id="mask" x="2642.25" y="-10292" width="176.28" height="32766" maskUnits="userSpaceOnUse"><g class="cls-110"/></mask><linearGradient id="Áåçûìÿííûé_ãðàäèåíò_7" x1="3070.18" y1="2951.13" x2="2492.23" y2="3575.84" gradientUnits="userSpaceOnUse"><stop offset="0" stop-color="#fff"/><stop offset="0.33" stop-color="#ccc"/><stop offset="0.57" stop-color="#5e5e5e"/><stop offset="0.7"/></linearGradient><filter id="luminosity-noclip-2" x="2140.84" y="-10292" width="296.74" height="32766" filterUnits="userSpaceOnUse" color-interpolation-filters="sRGB"><feFlood flood-color="#fff" result="bg"/><feBlend in="SourceGraphic" in2="bg"/></filter><mask id="mask-2" x="2140.84" y="-10292" width="296.74" height="32766" maskUnits="userSpaceOnUse"><g class="cls-109"/></mask><linearGradient id="Áåçûìÿííûé_ãðàäèåíò_6" x1="2863.86" y1="2563.01" x2="1890.94" y2="3614.65" xlink:href="#Áåçûìÿííûé_ãðàäèåíò_7"/><filter id="luminosity-noclip-3" x="1670.88" y="-10292" width="386.03" height="32766" filterUnits="userSpaceOnUse" color-interpolation-filters="sRGB"><feFlood flood-color="#fff" result="bg"/><feBlend in="SourceGraphic" in2="bg"/></filter><mask id="mask-3" x="1670.88" y="-10292" width="386.03" height="32766" maskUnits="userSpaceOnUse"><g class="cls-108"/></mask><linearGradient id="Áåçûìÿííûé_ãðàäèåíò_4" x1="2625.43" y1="1779.18" x2="1359.79" y2="3147.23" xlink:href="#Áåçûìÿííûé_ãðàäèåíò_7"/><filter id="luminosity-noclip-4" x="1263.24" y="-10292" width="403.11" height="32766" filterUnits="userSpaceOnUse" color-interpolation-filters="sRGB"><feFlood flood-color="#fff" result="bg"/><feBlend in="SourceGraphic" in2="bg"/></filter><mask id="mask-4" x="1263.24" y="-10292" width="403.11" height="32766" maskUnits="userSpaceOnUse"><g class="cls-107"/></mask><linearGradient id="Áåçûìÿííûé_ãðàäèåíò_3" x1="2245.5" y1="1297.09" x2="923.84" y2="2725.68" xlink:href="#Áåçûìÿííûé_ãðàäèåíò_7"/><filter id="luminosity-noclip-5" x="1386.05" y="-10292" width="135.62" height="32766" filterUnits="userSpaceOnUse" color-interpolation-filters="sRGB"><feFlood flood-color="#fff" result="bg"/><feBlend in="SourceGraphic" in2="bg"/></filter><mask id="mask-5" x="1386.05" y="-10292" width="135.62" height="32766" maskUnits="userSpaceOnUse"><g class="cls-106"/></mask><linearGradient id="Áåçûìÿííûé_ãðàäèåíò_2" x1="1407.55" y1="482.04" x2="1464.45" y2="591.03" gradientUnits="userSpaceOnUse"><stop offset="0.06" stop-color="#fff"/><stop offset="1"/></linearGradient><linearGradient id="Áåçûìÿííûé_ãðàäèåíò_567" x1="3690.8" y1="2852.24" x2="4330.51" y2="2852.24" gradientTransform="matrix(-0.97, 0.23, 0.23, 0.97, 3652.27, -446.67)" gradientUnits="userSpaceOnUse"><stop offset="0.19" stop-color="#ffd234"/><stop offset="0.99" stop-color="#ffb000"/></linearGradient><linearGradient id="Áåçûìÿííûé_ãðàäèåíò_567-2" x1="837.68" y1="4084.1" x2="1059.94" y2="4084.1" gradientTransform="matrix(0.79, 0.61, -0.61, 0.79, 1892.16, -697.79)" xlink:href="#Áåçûìÿííûé_ãðàäèåíò_567"/><linearGradient id="Áåçûìÿííûé_ãðàäèåíò_567-3" x1="2026.24" y1="4266.89" x2="2228.17" y2="4266.89" gradientTransform="matrix(0.34, 1.4, -0.97, 0.24, 3636.9, -945.37)" xlink:href="#Áåçûìÿííûé_ãðàäèåíò_567"/><linearGradient id="Áåçûìÿííûé_ãðàäèåíò_567-4" x1="1263.24" y1="2159.04" x2="1842.15" y2="2159.04" gradientTransform="matrix(1, 0, 0, 1, 0, 0)" xlink:href="#Áåçûìÿííûé_ãðàäèåíò_567"/><linearGradient id="Áåçûìÿííûé_ãðàäèåíò_5" x1="1448.7" y1="378.43" x2="1448.7" y2="3436.71" gradientUnits="userSpaceOnUse"><stop offset="0.32" stop-color="#004242"/><stop offset="0.71" stop-color="#005c5e"/></linearGradient><linearGradient id="Áåçûìÿííûé_ãðàäèåíò_567-5" x1="1260.01" y1="1003.67" x2="1683.84" y2="1003.67" gradientTransform="matrix(1, 0, 0, 1, 0, 0)" xlink:href="#Áåçûìÿííûé_ãðàäèåíò_567"/><linearGradient id="Áåçûìÿííûé_ãðàäèåíò_567-6" x1="1352.14" y1="902.69" x2="1629.58" y2="902.69" gradientTransform="matrix(1, 0, 0, 1, 0, 0)" xlink:href="#Áåçûìÿííûé_ãðàäèåíò_567"/><filter id="luminosity-noclip-6" x="2642.25" y="2938.27" width="176.28" height="569.74" filterUnits="userSpaceOnUse" color-interpolation-filters="sRGB"><feFlood flood-color="#fff" result="bg"/><feBlend in="SourceGraphic" in2="bg"/></filter><mask id="mask-6" x="2642.25" y="2938.27" width="176.28" height="569.74" maskUnits="userSpaceOnUse"><g class="cls-1"><polygon class="cls-2" points="2818.53 2938.27 2642.25 3508.01 2818.53 3508.01 2818.53 2938.27"/></g></mask><linearGradient id="Áåçûìÿííûé_ãðàäèåíò_621" x1="3070.18" y1="2951.13" x2="2492.23" y2="3575.84" gradientUnits="userSpaceOnUse"><stop offset="0" stop-color="#004e55"/><stop offset="0.33" stop-color="#00565e"/><stop offset="0.57" stop-color="#1f6869"/><stop offset="0.7" stop-color="#528986"/></linearGradient><filter id="luminosity-noclip-7" x="2140.84" y="2538.91" width="296.74" height="969.72" filterUnits="userSpaceOnUse" color-interpolation-filters="sRGB"><feFlood flood-color="#fff" result="bg"/><feBlend in="SourceGraphic" in2="bg"/></filter><mask id="mask-7" x="2140.84" y="2538.91" width="296.74" height="969.72" maskUnits="userSpaceOnUse"><g class="cls-3"><polygon class="cls-4" points="2437.59 2538.91 2140.84 3498 2437.59 3508.64 2437.59 2538.91"/></g></mask><linearGradient id="Áåçûìÿííûé_ãðàäèåíò_621-2" x1="2863.86" y1="2563.01" x2="1890.94" y2="3614.65" xlink:href="#Áåçûìÿííûé_ãðàäèåíò_621"/><filter id="luminosity-noclip-8" x="1670.88" y="1734.88" width="386.03" height="1317.65" filterUnits="userSpaceOnUse" color-interpolation-filters="sRGB"><feFlood flood-color="#fff" result="bg"/><feBlend in="SourceGraphic" in2="bg"/></filter><mask id="mask-8" x="1670.88" y="1734.88" width="386.03" height="1317.65" maskUnits="userSpaceOnUse"><g class="cls-5"><polygon class="cls-6" points="2056.91 1734.88 1670.88 2982.54 2056.91 3052.53 2056.91 1734.88"/></g></mask><linearGradient id="Áåçûìÿííûé_ãðàäèåíò_621-3" x1="2625.43" y1="1779.18" x2="1359.79" y2="3147.23" xlink:href="#Áåçûìÿííûé_ãðàäèåíò_621"/><filter id="luminosity-noclip-9" x="1263.24" y="1264.27" width="403.11" height="1317.65" filterUnits="userSpaceOnUse" color-interpolation-filters="sRGB"><feFlood flood-color="#fff" result="bg"/><feBlend in="SourceGraphic" in2="bg"/></filter><mask id="mask-9" x="1263.24" y="1264.27" width="403.11" height="1317.65" maskUnits="userSpaceOnUse"><g class="cls-7"><polygon class="cls-8" points="1666.35 1264.27 1263.24 2567.15 1666.35 2581.92 1666.35 1264.27"/></g></mask><linearGradient id="Áåçûìÿííûé_ãðàäèåíò_621-4" x1="2245.5" y1="1297.09" x2="923.84" y2="2725.68" xlink:href="#Áåçûìÿííûé_ãðàäèåíò_621"/><linearGradient id="Áåçûìÿííûé_ãðàäèåíò_567-7" x1="1451.95" y1="781.07" x2="1573.67" y2="781.07" gradientTransform="matrix(1, 0, 0, 1, 0, 0)" xlink:href="#Áåçûìÿííûé_ãðàäèåíò_567"/><linearGradient id="Áåçûìÿííûé_ãðàäèåíò_567-8" x1="1374.88" y1="603.3" x2="1551.31" y2="603.3" gradientTransform="matrix(1, 0, 0, 1, 0, 0)" xlink:href="#Áåçûìÿííûé_ãðàäèåíò_567"/><linearGradient id="Áåçûìÿííûé_ãðàäèåíò_609" x1="1365.62" y1="643.69" x2="1509.67" y2="744.68" gradientUnits="userSpaceOnUse"><stop offset="0.17" stop-color="#e0f3f4"/><stop offset="0.79" stop-color="#4d98a0"/></linearGradient><filter id="luminosity-noclip-10" x="1386.05" y="521.06" width="135.62" height="119.37" filterUnits="userSpaceOnUse" color-interpolation-filters="sRGB"><feFlood flood-color="#fff" result="bg"/><feBlend in="SourceGraphic" in2="bg"/></filter><mask id="mask-10" x="1386.05" y="521.06" width="135.62" height="119.37" maskUnits="userSpaceOnUse"><g class="cls-9"><path class="cls-10" d="M1407.45,640.43s-48.16-67.18,0-103.92,114.22,3.57,114.22,3.57-61.59-2-90.71,22.45S1405.05,625.55,1407.45,640.43Z"/></g></mask><linearGradient id="Áåçûìÿííûé_ãðàäèåíò_614" x1="1407.55" y1="482.04" x2="1464.45" y2="591.03" gradientUnits="userSpaceOnUse"><stop offset="0.06" stop-color="#fff"/><stop offset="1" stop-color="#fff"/></linearGradient><linearGradient id="Áåçûìÿííûé_ãðàäèåíò_567-9" x1="1923.92" y1="466.88" x2="2067.17" y2="466.88" gradientTransform="translate(-408.43 756.31) rotate(-18.66)" xlink:href="#Áåçûìÿííûé_ãðàäèåíò_567"/><linearGradient id="Áåçûìÿííûé_ãðàäèåíò_567-10" x1="2834.64" y1="774.49" x2="2977.88" y2="774.49" gradientTransform="matrix(-0.95, -0.32, -0.32, 0.95, 4267.09, 756.31)" xlink:href="#Áåçûìÿííûé_ãðàäèåíò_567"/><linearGradient id="Áåçûìÿííûé_ãðàäèåíò_567-11" x1="3021.16" y1="1791.05" x2="3153.4" y2="1791.05" gradientTransform="matrix(-0.2, -0.98, -0.98, 0.2, 3857.83, 3104.66)" xlink:href="#Áåçûìÿííûé_ãðàäèåíò_567"/><linearGradient id="Áåçûìÿííûé_ãðàäèåíò_567-12" x1="1547.59" y1="478.33" x2="1638.29" y2="478.33" gradientTransform="matrix(1, 0, 0, 1, 0, 0)" xlink:href="#Áåçûìÿííûé_ãðàäèåíò_567"/><linearGradient id="Áåçûìÿííûé_ãðàäèåíò_567-13" x1="1315.14" y1="479.73" x2="1394.85" y2="479.73" gradientTransform="matrix(1, 0, 0, 1, 0, 0)" xlink:href="#Áåçûìÿííûé_ãðàäèåíò_567"/><linearGradient id="Áåçûìÿííûé_ãðàäèåíò_567-14" x1="2438.93" y1="2981.77" x2="2548.96" y2="2981.77" gradientTransform="matrix(-0.88, 0.48, 0.48, 0.88, 3447.31, -710.66)" xlink:href="#Áåçûìÿííûé_ãðàäèåíò_567"/><linearGradient id="Áåçûìÿííûé_ãðàäèåíò_567-15" x1="928.17" y1="3605.92" x2="1082.62" y2="3605.92" gradientTransform="matrix(1, 0, 0, 1, 0, 0)" xlink:href="#Áåçûìÿííûé_ãðàäèåíò_567"/><linearGradient id="Áåçûìÿííûé_ãðàäèåíò_567-16" x1="623.24" y1="3505.42" x2="952.33" y2="3505.42" gradientTransform="matrix(1, 0, 0, 1, 0, 0)" xlink:href="#Áåçûìÿííûé_ãðàäèåíò_567"/><linearGradient id="Áåçûìÿííûé_ãðàäèåíò_567-17" x1="746.41" y1="3605.92" x2="928.17" y2="3605.92" gradientTransform="matrix(1, 0, 0, 1, 0, 0)" xlink:href="#Áåçûìÿííûé_ãðàäèåíò_567"/><linearGradient id="Áåçûìÿííûé_ãðàäèåíò_567-18" x1="2203.7" y1="2029.19" x2="2271.88" y2="2029.19" gradientTransform="matrix(1, 0, 0, 1, 0, 0)" xlink:href="#Áåçûìÿííûé_ãðàäèåíò_567"/><linearGradient id="Áåçûìÿííûé_ãðàäèåíò_567-19" x1="2255.71" y1="1973.35" x2="2333.08" y2="1973.35" gradientTransform="matrix(1, 0, 0, 1, 0, 0)" xlink:href="#Áåçûìÿííûé_ãðàäèåíò_567"/><linearGradient id="Áåçûìÿííûé_ãðàäèåíò_567-20" x1="2287.52" y1="2023.95" x2="2386.32" y2="2023.95" gradientTransform="matrix(1, 0, 0, 1, 0, 0)" xlink:href="#Áåçûìÿííûé_ãðàäèåíò_567"/><linearGradient id="Áåçûìÿííûé_ãðàäèåíò_567-21" x1="2596.38" y1="1687.4" x2="2605.45" y2="1687.4" gradientTransform="matrix(-1, 0, 0, 1, 4663.83, 0)" xlink:href="#Áåçûìÿííûé_ãðàäèåíò_567"/><linearGradient id="Áåçûìÿííûé_ãðàäèåíò_567-22" x1="2595.22" y1="1686.36" x2="2635.53" y2="1686.36" gradientTransform="matrix(-1, 0, 0, 1, 4663.83, 0)" xlink:href="#Áåçûìÿííûé_ãðàäèåíò_567"/><linearGradient id="Áåçûìÿííûé_ãðàäèåíò_567-23" x1="2545.33" y1="1687.4" x2="2554.4" y2="1687.4" gradientTransform="matrix(-1, 0, 0, 1, 4663.83, 0)" xlink:href="#Áåçûìÿííûé_ãðàäèåíò_567"/><linearGradient id="Áåçûìÿííûé_ãðàäèåíò_567-24" x1="2544.17" y1="1686.36" x2="2584.48" y2="1686.36" gradientTransform="matrix(-1, 0, 0, 1, 4663.83, 0)" xlink:href="#Áåçûìÿííûé_ãðàäèåíò_567"/><linearGradient id="Áåçûìÿííûé_ãðàäèåíò_567-25" x1="2547.49" y1="1301.14" x2="2647.58" y2="1301.14" gradientTransform="matrix(-1, 0, 0, 1, 4663.83, 0)" xlink:href="#Áåçûìÿííûé_ãðàäèåíò_567"/><linearGradient id="Áåçûìÿííûé_ãðàäèåíò_567-26" x1="3470.9" y1="1771.63" x2="3580.93" y2="1771.63" gradientTransform="matrix(-0.88, 0.48, 0.48, 0.88, 3447.31, -710.66)" xlink:href="#Áåçûìÿííûé_ãðàäèåíò_567"/><linearGradient id="Áåçûìÿííûé_ãðàäèåíò_567-27" x1="731.48" y1="2112.3" x2="803.13" y2="2112.3" gradientTransform="matrix(0.98, 0.2, -0.2, 0.98, 725.14, -337.65)" xlink:href="#Áåçûìÿííûé_ãðàäèåíò_567"/><linearGradient id="Áåçûìÿííûé_ãðàäèåíò_567-28" x1="1189.06" y1="1822.27" x2="1534.27" y2="1822.27" gradientTransform="matrix(1, 0, 0, 1, 0, 0)" xlink:href="#Áåçûìÿííûé_ãðàäèåíò_567"/><linearGradient id="Áåçûìÿííûé_ãðàäèåíò_567-29" x1="1176.13" y1="1755.32" x2="1232.93" y2="1755.32" gradientTransform="matrix(1, 0, 0, 1, 0, 0)" xlink:href="#Áåçûìÿííûé_ãðàäèåíò_567"/><linearGradient id="Áåçûìÿííûé_ãðàäèåíò_567-30" x1="1244.37" y1="1417.88" x2="1315.07" y2="1417.88" gradientTransform="translate(-408.43 756.31) rotate(-18.66)" xlink:href="#Áåçûìÿííûé_ãðàäèåíò_567"/><linearGradient id="Áåçûìÿííûé_ãðàäèåíò_567-31" x1="2686.07" y1="1904.84" x2="2756.77" y2="1904.84" gradientTransform="matrix(-0.95, -0.32, -0.32, 0.95, 4267.09, 756.31)" xlink:href="#Áåçûìÿííûé_ãðàäèåíò_567"/><linearGradient id="Áåçûìÿííûé_ãðàäèåíò_567-32" x1="1953.86" y1="2319.41" x2="2024.56" y2="2319.41" gradientTransform="matrix(-0.2, -0.98, -0.98, 0.2, 3857.83, 3104.66)" xlink:href="#Áåçûìÿííûé_ãðàäèåíò_567"/><linearGradient id="Áåçûìÿííûé_ãðàäèåíò_567-33" x1="1216.87" y1="1646.58" x2="1261.25" y2="1646.58" gradientTransform="matrix(1, 0, 0, 1, 0, 0)" xlink:href="#Áåçûìÿííûé_ãðàäèåíò_567"/><linearGradient id="Áåçûìÿííûé_ãðàäèåíò_567-34" x1="1103.13" y1="1647.33" x2="1142.13" y2="1647.33" gradientTransform="matrix(1, 0, 0, 1, 0, 0)" xlink:href="#Áåçûìÿííûé_ãðàäèåíò_567"/><linearGradient id="Áåçûìÿííûé_ãðàäèåíò_567-35" x1="3404.52" y1="2729.55" x2="3589" y2="2729.55" gradientTransform="matrix(1, 0, 0, 1, 0, 0)" xlink:href="#Áåçûìÿííûé_ãðàäèåíò_567"/><linearGradient id="Áåçûìÿííûé_ãðàäèåíò_567-36" x1="1717.29" y1="1647.63" x2="1788.94" y2="1647.63" gradientTransform="translate(2675.23 -851.15) rotate(51.75)" xlink:href="#Áåçûìÿííûé_ãðàäèåíò_567"/></defs><title>career-image</title><g id="Ñëîé_2" data-name="Ñëîé 2"><rect class="cls-11" width="4800" height="4200"/></g><g id="Ñëîé_1" data-name="Ñëîé 1"><path class="cls-12" d="M843.06,2913.07S360.37,2507.8,396.79,2402.75s191,30.14,208.42,15.37S367.53,2289.17,404,2118.8s304.5,67.32,304.5,67.32Z"/><path class="cls-12" d="M1015.39,3330.41S697.69,2665,568.71,2266.76C445.74,1887,208.2,872.08,1229.49,717.89c618.16-93.33,854.1,337.63,952.61,716.29,44.69,171.79,308.17-170.32,553.41,31.17s314.26,944.76,679.89,978.79c215.07,20,715.28-83.88,874.15,415.77,85.13,267.73-13.36,505.64-13.36,505.64Z"/><path class="cls-13" d="M3084.31,3379.52c-162.86-677.85,194.45-722.22,277.75-578.18,72.05,124.6,183.87,73.76,226.15,51.35,244.65-129.66,396.56-253.63,558.63-134.33,128.44,94.55,17.41,360.54,39.1,504.46,9.33,61.88,55.64,111.82,55.64,111.82s-37.16-128.54-17.52-154.81,29.41,29.59,50,26.93-2.57-80.22,41.27-70.3c69.6,15.74,17.75,148.28,32.19,145.91s78.56-84.09,102-66.63C4534.42,3279.1,4322,3382,4322,3382Z"/><path class="cls-13" d="M4229.27,3137.47s-5.12-39.62,28.94-64,72.89-3,61.25,7.06-43.29,2.82-54.58,26.49S4243.54,3165.48,4229.27,3137.47Z"/><path class="cls-13" d="M4364.27,3212.87s-.72-39.94,35.81-60.44,72.79,5,60.11,13.76-43.34-2-57.17,20.32S4375.37,3242.28,4364.27,3212.87Z"/><path class="cls-11" d="M3296.38,2899.81h780.24a4.33,4.33,0,0,1,4.33,4.33V3397.5a0,0,0,0,1,0,0h-788.9a0,0,0,0,1,0,0V2904.14A4.33,4.33,0,0,1,3296.38,2899.81Z"/><rect class="cls-14" x="3314.91" y="2950.38" width="744.88" height="425.75"/><path class="cls-15" d="M3908.52,3035H3444.19a5.85,5.85,0,1,1,0-11.7h464.33a5.85,5.85,0,1,1,0,11.7Z"/><path class="cls-15" d="M3908.52,3087.5H3444.19a5.85,5.85,0,0,1,0-11.7h464.33a5.85,5.85,0,0,1,0,11.7Z"/><path class="cls-15" d="M3908.52,3140H3444.19a5.85,5.85,0,0,1,0-11.7h464.33a5.85,5.85,0,0,1,0,11.7Z"/><path class="cls-15" d="M3908.52,3192.48H3444.19a5.86,5.86,0,0,1,0-11.71h464.33a5.86,5.86,0,0,1,0,11.71Z"/><path class="cls-15" d="M3908.52,3245H3444.19a5.85,5.85,0,0,1,0-11.7h464.33a5.85,5.85,0,0,1,0,11.7Z"/><path class="cls-15" d="M3908.52,3297.45H3444.19a5.85,5.85,0,0,1,0-11.7h464.33a5.85,5.85,0,0,1,0,11.7Z"/><rect class="cls-16" x="3292.05" y="3374.02" width="927.09" height="23.48"/><rect class="cls-17" x="3554.3" y="3397.5" width="664.85" height="37.41"/><rect class="cls-18" x="3292.05" y="3397.5" width="262.24" height="37.41"/><path class="cls-19" d="M4300.37,3384.67a2.62,2.62,0,0,1-2-1c-.65-.78-15.91-20-11.29-87,5.2-75.36,31.84-136.23,32.1-136.83A2.64,2.64,0,0,1,4324,3162c-.26.59-26.54,60.66-31.67,135.07-4.44,64.34,10,83.13,10.11,83.31a2.65,2.65,0,0,1-.38,3.7A2.74,2.74,0,0,1,4300.37,3384.67Z"/><path class="cls-19" d="M4293.65,3367.57a2.48,2.48,0,0,1-1-.22,2.58,2.58,0,0,1-1.5-1.66l-49.11-165a2.63,2.63,0,0,1,5-1.5l48.2,162a761.5,761.5,0,0,0,76-47.05c40.72-28.76,78.51-80,78.89-80.52a2.63,2.63,0,1,1,4.24,3.11c-.38.52-38.67,52.45-80.08,81.71a751.5,751.5,0,0,1-79.45,48.92A2.65,2.65,0,0,1,4293.65,3367.57Z"/><path class="cls-19" d="M4108.14,3304.34a3.16,3.16,0,0,1-2.61-1.41,2.62,2.62,0,0,1,.51-3.33c3.12-16.95,2.47-219.45-28.32-361.53-31.87-147-119.69-202.37-120.58-202.92a2.64,2.64,0,0,1-.86-3.62,2.59,2.59,0,0,1,3.62-.87c.9.55,90.59,57,123,206.3,28.9,133.28,34.93,363.72,26.16,367.22A2.44,2.44,0,0,1,4108.14,3304.34Zm-.14-2.6h0Z"/><path class="cls-19" d="M4063.65,2883.81c-4,0-22.86-2.2-98.67-31.65-85.13-33.06-138-72.37-138.49-72.77a2.64,2.64,0,0,1-.53-3.69,2.68,2.68,0,0,1,3.7-.53c.51.4,52.83,39.3,137.23,72.07,82.2,31.94,96.38,31.5,96.9,31.29a2.88,2.88,0,0,1,2.85,2.33,2.61,2.61,0,0,1-2.18,2.9A5.4,5.4,0,0,1,4063.65,2883.81Z"/><path class="cls-19" d="M4090.05,2993.25a2.61,2.61,0,0,1-2-.9,2.64,2.64,0,0,1,.24-3.72c.51-.45,51.5-45.64,82.48-104.34,25.07-47.51,8.65-109.6,8.49-110.23a2.63,2.63,0,1,1,5.08-1.38c.71,2.62,17.14,64.69-8.92,114.07-31.43,59.57-83.14,105.38-83.65,105.84A2.65,2.65,0,0,1,4090.05,2993.25Z"/><path class="cls-19" d="M4076.93,2925.8a2.63,2.63,0,0,1-2.35-3.82c.22-.45,22.84-46,30.59-113,6.26-54.1-17.06-88.82-17.29-89.16a2.62,2.62,0,0,1,.68-3.66,2.66,2.66,0,0,1,3.66.68c1,1.47,24.67,36.7,18.18,92.74-7.85,67.94-30.88,114.27-31.11,114.74A2.66,2.66,0,0,1,4076.93,2925.8Z"/><path class="cls-13" d="M1772.65,1735s-46.7-449.33,15.6-463.73,66.38,231.53,141.79,235.93,197.56-80.11,290.79-1.36c72.17,60.95,48.68,139.41,97.83,169.21s115-192.13,173.8-160.71c40.77,21.8-32,71.6-2.37,119.79,18.76,30.54,44.56-38.3,120.93-38.3,112.71,0,109.37,128.1,39.14,152.57s-135.5,14.49-157.7,65.68c-36.92,85.15,116.67,52.35,187,74.44,339.53,106.64,172.63,552.3,320,544,157.86-8.92-928.35,54-928.35,54Z"/><path class="cls-19" d="M2178.47,2080.51a3.13,3.13,0,0,1-.94-.15,3,3,0,0,1-1.9-3.79c.65-2,66.61-198.4,184.42-300.65s287.45-113.93,289.15-114a2.8,2.8,0,0,1,3.18,2.81,3,3,0,0,1-2.81,3.18c-1.67.1-169.19,11.57-285.58,112.58-116.56,101.16-182,296-182.67,298A3,3,0,0,1,2178.47,2080.51Z"/><path class="cls-19" d="M2418.55,1732.37a3,3,0,0,1-3-2.52c-.21-1.33-5.06-33,12.36-89.36,17.34-56.07,42.22-93.29,42.47-93.66a3,3,0,0,1,5,3.35c-.25.37-24.64,36.91-41.7,92.08-17,54.82-12.23,86.32-12.17,86.63a3,3,0,0,1-2.49,3.44A2.67,2.67,0,0,1,2418.55,1732.37Z"/><path class="cls-19" d="M2599,2503.49l-4.3-4.18,2.14,2.11-3,0,0-1c-1.07-26.89-4.08-167.31,42.26-290.21,50.84-134.86,164.75-188.08,165.9-188.6a3,3,0,1,1,2.48,5.46c-1.12.51-112.84,52.8-162.76,185.25-45.94,121.82-42.95,261.17-41.88,287.87C2599.9,2501.77,2599.93,2502.57,2599,2503.49Z"/><path class="cls-19" d="M2810.58,2092.74a3.52,3.52,0,0,1-.45,0l-81.71-12.24a2.94,2.94,0,0,1-2.19-1.54,3,3,0,0,1-.09-2.69l44-94.82a3,3,0,0,1,5.44,2.53l-42.32,91.19,77.75,11.64a3,3,0,0,1-.44,6Z"/><path class="cls-19" d="M2794.19,2162h-.11L2666.51,2157a3,3,0,0,1-2.88-3.08l2.76-102.25a3,3,0,1,1,6,.16l-2.68,99.29,124.6,4.93a3,3,0,0,1-.12,6Z"/><path class="cls-19" d="M2628.43,2256.61a3,3,0,0,1-2.89-2.22l-32.92-122.77a3,3,0,1,1,5.79-1.55l32.31,120.47,158.33-4.64a3.07,3.07,0,0,1,3.08,2.91,3,3,0,0,1-2.9,3.09l-160.7,4.71Z"/><rect class="cls-20" x="526.33" y="1028.14" width="952.38" height="588.17" rx="2.48"/><rect class="cls-11" x="629.02" y="1358.4" width="73.9" height="258.26"/><rect class="cls-11" x="743.97" y="1259.52" width="73.9" height="357.14"/><rect class="cls-11" x="1199.47" y="1260.49" width="73.9" height="357.14"/><rect class="cls-11" x="858.93" y="1400.68" width="73.9" height="215.97"/><rect class="cls-11" x="1315.06" y="1401.65" width="73.9" height="215.97"/><rect class="cls-11" x="973.89" y="1254.36" width="73.9" height="362.3"/><rect class="cls-11" x="1083.11" y="1116.28" width="85.37" height="505.17"/><g class="cls-21"><rect class="cls-19" x="621.33" y="1307.56" width="73.9" height="6"/><rect class="cls-19" x="621.33" y="1287.93" width="73.9" height="6"/><rect class="cls-19" x="621.33" y="1268.31" width="73.9" height="6"/></g><g class="cls-21"><rect class="cls-19" x="737.61" y="1225.45" width="73.9" height="6"/><rect class="cls-19" x="737.61" y="1205.82" width="73.9" height="6"/><rect class="cls-19" x="737.61" y="1186.19" width="73.9" height="6"/></g><g class="cls-21"><rect class="cls-19" x="852.93" y="1358.2" width="73.9" height="6"/><rect class="cls-19" x="852.93" y="1338.57" width="73.9" height="6"/><rect class="cls-19" x="852.93" y="1318.95" width="73.9" height="6"/></g><g class="cls-21"><rect class="cls-19" x="969.21" y="1204.46" width="73.9" height="6"/><rect class="cls-19" x="969.21" y="1184.84" width="73.9" height="6"/><rect class="cls-19" x="969.21" y="1165.21" width="73.9" height="6"/></g><g class="cls-21"><rect class="cls-19" x="1088.85" y="1092.41" width="73.9" height="6"/><rect class="cls-19" x="1088.85" y="1072.79" width="73.9" height="6"/><rect class="cls-19" x="1088.85" y="1053.17" width="73.9" height="6"/></g><g class="cls-21"><rect class="cls-19" x="1199.47" y="1218.51" width="73.9" height="6"/><rect class="cls-19" x="1199.47" y="1198.89" width="73.9" height="6"/><rect class="cls-19" x="1199.47" y="1179.27" width="73.9" height="6"/></g><g class="cls-21"><rect class="cls-19" x="1315.06" y="1341.67" width="73.9" height="6"/><rect class="cls-19" x="1315.06" y="1322.04" width="73.9" height="6"/><rect class="cls-19" x="1315.06" y="1302.41" width="73.9" height="6"/></g><g class="cls-22"><path class="cls-19" d="M951.17,1501.08c-44.55,0-75.93-17.28-108.84-35.41-26.5-14.59-53.89-29.68-91-37.12-85.86-17.14-154.56,53.08-155.25,53.79a12,12,0,1,1-17.3-16.63c3.16-3.29,78.58-80.49,177.27-60.69,40.77,8.16,71.12,24.88,97.89,39.63,36.64,20.18,68.31,37.6,118.73,31,38.86-5.1,61.61-28.44,85.69-53.16,29.38-30.15,62.68-64.32,128-64.32,122.62,0,184.3,105.44,186.86,109.93a12,12,0,0,1-20.82,11.92c-.57-1-57.59-97.85-166-97.85-55.15,0-82.16,27.72-110.76,57.07-25.88,26.56-52.64,54-99.75,60.21A187.84,187.84,0,0,1,951.17,1501.08Z"/></g><rect class="cls-20" x="3197.36" y="1995.04" width="943.62" height="554.25" rx="2.39"/><polygon class="cls-11" points="3224.66 2548.84 3380.6 2372.91 3421.54 2421.49 3524.65 2252.65 3591.57 2410.2 3746.9 2154.18 3849.32 2396.02 4001.94 2061.54 4001.94 2548.98 3224.66 2548.84"/><polygon class="cls-11" points="4024.85 2090.99 3994.97 2038.1 3959.39 2088.35 4024.85 2090.99"/><g class="cls-23"><path class="cls-19" d="M3240.12,2497.08a12,12,0,0,1-10.47-17.84l83-148.83a12,12,0,0,1,22,2.58l9.22,32.55,82.11-114.4a11.84,11.84,0,0,1,10.11-5,12,12,0,0,1,9.78,5.6L3534.26,2392,3653.53,2166a12,12,0,0,1,21.65.86l84,195.63,173.58-315.36a12,12,0,1,1,21,11.57l-185.42,336.88a11.46,11.46,0,0,1-11.1,6.2,12,12,0,0,1-10.44-7.25L3663,2199.45l-117.25,222.08a12,12,0,0,1-10.16,6.39,11.78,11.78,0,0,1-10.6-5.59l-90-142.71-86.23,120.14a12,12,0,0,1-21.29-3.73l-8.1-28.59-68.83,123.49A12,12,0,0,1,3240.12,2497.08Z"/></g><g class="cls-24"><rect class="cls-19" x="3618.6" y="2120.9" width="62.6" height="6"/></g><g class="cls-24"><rect class="cls-19" x="3492.54" y="2221.41" width="62.6" height="6"/></g><g class="cls-24"><rect class="cls-19" x="3400.2" y="2230" width="62.6" height="6"/></g><g class="cls-24"><rect class="cls-19" x="3721.67" y="2110.36" width="62.59" height="6"/></g><g class="cls-24"><rect class="cls-19" x="3919.67" y="2039.78" width="62.6" height="6"/></g><g class="cls-24"><rect class="cls-19" x="4030.37" y="2122.11" width="62.59" height="6"/></g><g class="cls-24"><rect class="cls-19" x="4030.37" y="2157.84" width="62.59" height="6"/></g><g class="cls-24"><rect class="cls-19" x="4030.37" y="2193.57" width="62.59" height="6"/></g><g class="cls-24"><rect class="cls-19" x="4030.37" y="2229.3" width="62.59" height="6"/></g><g class="cls-24"><rect class="cls-19" x="4030.37" y="2265.03" width="62.59" height="6"/></g><g class="cls-24"><rect class="cls-19" x="4030.37" y="2300.75" width="62.59" height="6"/></g><g class="cls-24"><rect class="cls-19" x="4030.37" y="2336.48" width="62.59" height="6"/></g><g class="cls-24"><rect class="cls-19" x="4030.37" y="2372.21" width="62.59" height="6"/></g><g class="cls-24"><rect class="cls-19" x="4030.37" y="2407.94" width="62.59" height="6"/></g><g class="cls-24"><rect class="cls-19" x="4030.37" y="2443.67" width="62.59" height="6"/></g><path class="cls-13" d="M1163.58,3464.14H893s-411.63-448.26-306.46-597.58,223.4,24.26,272,5.08S575.88,2506.33,801,2291.92c184.62-175.83,658.11,45.33,658.11,45.33L1563.2,3461.5Z"/><path class="cls-13" d="M711.87,2652.29s49.29,81.23,25.72,91.05-100.72-77-79.29-107.53S711.87,2652.29,711.87,2652.29Z"/><path class="cls-25" d="M684.2,3052.53s-185.1-259.46-317.5-148.42c-90.26,75.7,18.65,269.95-6.36,296.46s-145.72-90.1-252.1.09S245.62,3577.4,245.62,3577.4l311.23.74Z"/><path class="cls-26" d="M226.73,3180.28S154.12,3024.27,92,3026c-61.93,1.74-57.62,62.66-16.38,97.6C115.92,3157.8,226.73,3180.28,226.73,3180.28Z"/><path class="cls-27" d="M237.17,3189.38s46.54-208.12-8.22-266c-54.56-57.7-84.85,10.11-68.68,86.27C176.09,3084.1,237.17,3189.38,237.17,3189.38Z"/><path class="cls-11" d="M373.2,3580.6a3.21,3.21,0,0,1-.46-6.38c11.7-1.72,43.23-9.15,48.6-22.69,1.81-4.57.47-9.6-4.11-15.38-13.92-17.56-68.72,6.27-88.66,16.94a3.21,3.21,0,0,1-3.82-5.06c1.06-1.09,106.19-109.6,140.61-161.54,42-63.43,39.46-109.09,23-130.67-11.14-14.65-29-19.34-48.91-12.84-53.17,17.31-116.64,259.56-117.28,262a3.21,3.21,0,0,1-6.28-1.23c.25-1.93,25.15-192.92-31.11-259.27-29.8-35.14-72.93-50.81-102.56-37.29-25.38,11.6-36.2,42.41-29.67,84.52,16.5,106.51,155.48,276.56,156.88,278.27a3.21,3.21,0,0,1-5,4.07C298.74,3567,163,3401,146.25,3292.7c-7-45.16,5.16-78.45,33.35-91.33,32.7-14.95,78,1.08,110.11,39,43.07,50.79,40.78,167.08,36.27,227.12,20.24-69.58,67.67-216.3,111.53-230.58,22.35-7.28,43.29-1.66,56,15.06,17.75,23.33,21.08,71.86-22.81,138.1-27.57,41.61-99.75,118.82-128.88,149.45,23.79-10.7,65.77-25.84,80.44-7.32,6,7.62,7.73,14.93,5,21.73-7.83,19.74-51.76,26.4-53.63,26.67A3.71,3.71,0,0,1,373.2,3580.6Z"/><path class="cls-11" d="M319.06,3588.62a3.12,3.12,0,0,1-2.88-1.86c-.48-1.08-11.13-27.79,47.5-149.79,58.29-121.31,105.09-160.86,107.06-162.48a3.21,3.21,0,0,1,4.09,4.94c-.47.39-47.8,40.51-105.37,160.32C313.09,3557.05,322,3584,322.08,3584.24a3.25,3.25,0,0,1-1.78,4.13A3.19,3.19,0,0,1,319.06,3588.62Z"/><path class="cls-11" d="M319.11,3546.05a3.16,3.16,0,0,1-2.37-1.05c-1.25-1.37-31-34.45-64.08-112.54-33-77.84-61.72-198.24-62-199.45a3.21,3.21,0,1,1,6.24-1.48c.29,1.2,28.9,121.09,61.68,198.42,32.62,77,62.61,110.4,62.91,110.73a3.21,3.21,0,0,1-.22,4.53A3.17,3.17,0,0,1,319.11,3546.05Z"/><path class="cls-11" d="M219.18,3329.48a3.2,3.2,0,0,1-2.32-1l-56.47-59.14a3.2,3.2,0,1,1,4.63-4.43l56.48,59.14a3.22,3.22,0,0,1-2.32,5.43Z"/><path class="cls-11" d="M245.36,3408.58a3.22,3.22,0,0,1-1.75-.52l-58.49-38.36a3.21,3.21,0,1,1,3.52-5.36l58.49,38.35a3.21,3.21,0,0,1-1.77,5.89Z"/><path class="cls-11" d="M278.94,3483.77a3.16,3.16,0,0,1-1.45-.35L232,3460.35a3.21,3.21,0,0,1,2.9-5.72l45.54,23.07a3.21,3.21,0,0,1-1.45,6.07Z"/><path class="cls-11" d="M305.32,3527.87a3,3,0,0,1-.66-.07l-26.37-5.45a3.21,3.21,0,1,1,1.3-6.28l26.37,5.45a3.21,3.21,0,0,1-.64,6.35Z"/><path class="cls-17" d="M2445.22,2585.68s25.51-247.62,340.23-205c60.8,8.23,64.18,17.74,114-18.15,128.33-92.42,251.2,70.91,179.67,261.8-74.47,198.73-39.39,139.41,28.2,164.82s-73.57,315.09-73.57,315.09Z"/><path class="cls-11" d="M2904.06,2797.12a110,110,0,1,1,48.23-208.81,2.79,2.79,0,0,1,1.29,3.73l-45.06,92.31h102.72a2.79,2.79,0,0,1,2.79,2.79A110.1,110.1,0,0,1,2904.06,2797.12Zm0-214.38a104.4,104.4,0,1,0,104.35,107.19H2904.06a2.79,2.79,0,0,1-2.51-4l45.77-93.78A104.88,104.88,0,0,0,2904.06,2582.74Z"/><path class="cls-11" d="M2927.05,2671.56l41.92-74.93s25.06,6.65,39.52,37.46a67.94,67.94,0,0,1,5.67,37.47Z"/><path class="cls-11" d="M2922.49,2599.42a2.8,2.8,0,0,1-2-4.77l60.77-60.76a2.75,2.75,0,0,1,2-.82h54.89a2.79,2.79,0,0,1,0,5.58h-53.73l-60,59.95A2.82,2.82,0,0,1,2922.49,2599.42Z"/><path class="cls-11" d="M3072.9,2521.75h-86.39a2.8,2.8,0,0,1,0-5.59h86.39a2.8,2.8,0,0,1,0,5.59Z"/><path class="cls-11" d="M3072.9,2504.84h-86.39a2.79,2.79,0,0,1,0-5.58h86.39a2.79,2.79,0,1,1,0,5.58Z"/><path class="cls-11" d="M3072.9,2487.94h-86.39a2.79,2.79,0,0,1,0-5.58h86.39a2.79,2.79,0,0,1,0,5.58Z"/><path class="cls-11" d="M3072.9,2471h-86.39a2.79,2.79,0,0,1,0-5.58h86.39a2.79,2.79,0,0,1,0,5.58Z"/><path class="cls-11" d="M2875,2516.87a2.79,2.79,0,0,1-2.2-4.5l24.52-31.74a2.77,2.77,0,0,1,2-1.08,2.84,2.84,0,0,1,2.16.81l26.92,27,21.1-26.72a2.75,2.75,0,0,1,2.26-1.07,2.81,2.81,0,0,1,2.21,1.19l18.24,25.92a2.79,2.79,0,1,1-4.56,3.21L2951.6,2487l-20.72,26.26a2.79,2.79,0,0,1-2,1,2.86,2.86,0,0,1-2.14-.81l-26.9-26.95-22.58,29.23A2.78,2.78,0,0,1,2875,2516.87Z"/><path class="cls-11" d="M2953.41,2516.13a2.78,2.78,0,0,1-2.09-1l-23.94-27-22.9,24.05a2.79,2.79,0,0,1-3.8.23l-27.44-22.63a2.79,2.79,0,0,1,3.55-4.31l25.44,21,23.2-24.37a2.66,2.66,0,0,1,2.07-.87,2.8,2.8,0,0,1,2,.94l26,29.32a2.8,2.8,0,0,1-2.09,4.65Z"/><path class="cls-11" d="M3013.17,2600.25a14.58,14.58,0,1,1,14.57-14.57A14.59,14.59,0,0,1,3013.17,2600.25Zm0-23.56a9,9,0,1,0,9,9A9,9,0,0,0,3013.17,2576.69Z"/><path class="cls-11" d="M3025.33,2565.46h-25.48a2.8,2.8,0,0,1,0-5.59h25.48a2.8,2.8,0,1,1,0,5.59Z"/><path class="cls-11" d="M2961.07,2707.9h-60.85a2.8,2.8,0,0,1,0-5.59h60.85a2.8,2.8,0,0,1,0,5.59Z"/><rect class="cls-11" x="2986.51" y="2360.82" width="14.88" height="86.78"/><rect class="cls-11" x="2956.03" y="2404.21" width="13.95" height="43.39"/><rect class="cls-11" x="3018.35" y="2404.21" width="13.95" height="43.39"/><rect class="cls-11" x="2925.55" y="2380.64" width="14.88" height="66.96"/><rect class="cls-11" x="2895.07" y="2404.21" width="14.88" height="43.39"/><path class="cls-17" d="M2947.42,2371.43s30.2-135-5.33-172.62-55.05,6.56-44.56,56C2907.79,2303.11,2947.42,2371.43,2947.42,2371.43Z"/><path class="cls-17" d="M2961.79,2354.16s57.38-40.08,51.21-65.87-29.77-15.91-39.92,5.93C2963.16,2315.59,2961.79,2354.16,2961.79,2354.16Z"/><polygon class="cls-28" points="1842.15 1306.62 1534.1 809.45 1459.09 809.45 1263.24 1364.67 1324.78 1364.3 1616.37 1823.63 1741.87 3508.64 1741.87 1306.98 1842.15 1306.62"/><polygon class="cls-29" points="2131.92 1680.56 1741.87 1680.56 1616.34 1730.57 1616.34 3508.64 2131.92 3508.64 2131.92 1680.56"/><polygon class="cls-29" points="2891.12 2501.41 2510.18 2501.41 2512.6 3508.64 2893.54 3508.64 2891.12 2501.41"/><rect class="cls-29" x="2885.32" y="2879.77" width="380.68" height="628.86"/><rect class="cls-29" x="2131.92" y="2077.51" width="380.68" height="1431.12"/><rect class="cls-30" x="1666.89" y="1734.88" width="390.02" height="1773.76"/><polygon class="cls-31" points="1765.92 1266.53 1459.09 809.45 1131.48 1269.71 1249.76 1269.35 1249.76 3508.64 1666.86 3508.64 1666.86 1266.89 1765.92 1266.53"/><path class="cls-32" d="M1460.45,1050.77c-90.79,0-193.09-7.66-199.65-36.6-2.08-9.21,0-17.37,6.07-24.26,19.28-21.71,73.88-22.3,76.19-22.32l.08,9.63c-.52,0-51.93.56-68.06,18.75-4.08,4.6-5.37,9.92-3.93,16.26,1.21,5.37,14.77,23.27,138.15,28,71.45,2.73,150.54-.45,182.84-5,41-5.74,69.62-17.11,78.41-31.2,3.28-5.25,3.63-10.63,1-16.44-9.42-21.27-48.91-21.41-49.48-21.42l0-9.62c1.82,0,47.22.16,59.31,27.44a25.48,25.48,0,0,1-1.67,24.8c-10.55,16.9-41.09,29.67-86,36C1574.15,1047.5,1519.76,1050.77,1460.45,1050.77Z"/><path class="cls-33" d="M1497.34,944.74c-73.33,0-140.4-15.72-144.8-38.36a19.44,19.44,0,0,1,4.44-16.77c12.9-15.53,48.55-19,50.06-19.09l1.06,9.58c-9,.83-34.31,5.21-42.7,15.32a10.61,10.61,0,0,0-2.46,9.28c3.87,19.94,105,40.12,201.8,25.63,26.4-4,44.63-11.06,51.35-20a13.67,13.67,0,0,0,2.5-11.93c-6.67-28.72-48.77-28.14-49.16-28.13l-.25-9.62c17.74-.37,53,6.6,59.74,35.76a22.47,22.47,0,0,1-4.12,19.35c-10.7,14.27-37.64,21-58.35,24.07A471.48,471.48,0,0,1,1497.34,944.74Z"/><rect class="cls-15" x="2437.59" y="2541.32" width="380.94" height="967.32"/><rect class="cls-14" x="2818.53" y="2938.27" width="380.68" height="570.37"/><rect class="cls-34" x="2056.91" y="2118.8" width="380.68" height="1389.84"/><g class="cls-35"><polygon class="cls-36" points="2818.53 2938.27 2642.25 3508.01 2818.53 3508.01 2818.53 2938.27"/></g><g class="cls-37"><polygon class="cls-38" points="2437.59 2538.91 2140.84 3498 2437.59 3508.64 2437.59 2538.91"/></g><g class="cls-39"><polygon class="cls-40" points="2056.91 1734.88 1670.88 2982.54 2056.91 3052.53 2056.91 1734.88"/></g><g class="cls-41"><polygon class="cls-42" points="1666.35 1264.27 1263.24 2567.15 1666.35 2581.92 1666.35 1264.27"/></g><path class="cls-43" d="M1928.79,1689.31a5.29,5.29,0,0,1-5-3.16L1650,1006.68a4.7,4.7,0,0,1,3.14-6.18,5.45,5.45,0,0,1,6.77,2.86l273.81,679.48a4.7,4.7,0,0,1-3.13,6.17A5.78,5.78,0,0,1,1928.79,1689.31Z"/><path class="cls-43" d="M2000.71,1689.31a5.27,5.27,0,0,1-5-3.16L1722,1006.68a4.71,4.71,0,0,1,3.13-6.18,5.45,5.45,0,0,1,6.78,2.86l273.81,679.48a4.69,4.69,0,0,1-3.14,6.17A5.74,5.74,0,0,1,2000.71,1689.31Z"/><path class="cls-43" d="M1751.08,1069.83H1679.4a4.83,4.83,0,1,1,0-9.62h71.68a4.83,4.83,0,1,1,0,9.62Z"/><path class="cls-43" d="M1780.66,1144.33H1709a4.83,4.83,0,1,1,0-9.62h71.68a4.83,4.83,0,1,1,0,9.62Z"/><path class="cls-43" d="M1810.24,1218.84H1741.1a4.83,4.83,0,1,1,0-9.62h69.14a4.83,4.83,0,1,1,0,9.62Z"/><path class="cls-43" d="M1839.82,1293.34H1771.9a4.83,4.83,0,1,1,0-9.62h67.92a4.83,4.83,0,1,1,0,9.62Z"/><path class="cls-43" d="M1869.4,1367.85h-70.15a4.83,4.83,0,1,1,0-9.62h70.15a4.83,4.83,0,1,1,0,9.62Z"/><path class="cls-43" d="M1899,1442.35h-69.71a4.83,4.83,0,1,1,0-9.62H1899a4.83,4.83,0,1,1,0,9.62Z"/><path class="cls-43" d="M1928.56,1516.86H1859.3a4.83,4.83,0,1,1,0-9.62h69.26a4.83,4.83,0,1,1,0,9.62Z"/><path class="cls-43" d="M1959.13,1591.36H1891a4.83,4.83,0,1,1,0-9.62h68.15a4.83,4.83,0,1,1,0,9.62Z"/><path class="cls-44" d="M1573.55,871.22c-4.39,0-107.76-1.49-118.76-42.49-6.17-23-.39-133.13-.14-137.81l10.55.47c-2.09,39.12-4.8,117.7-.15,135.05,7.53,28.07,81,34.9,108.62,35.16Z"/><path class="cls-45" d="M1551.31,581.45c0-44.4-39.5-66-88.22-66s-88.21,21.61-88.21,66a74,74,0,0,0,.73,10.14.57.57,0,0,0,0,.13c.45,8.21,3.42,16.14,7.68,24a77.33,77.33,0,0,0,4.65,7.84c8,12.58,18.36,25.09,25.85,38.29,13.69,24.14,10.55,29.32,10.55,29.32h77.84s-3.48-5.18,10.22-29.32,36.76-45.33,38.1-69.51v-.12A73.43,73.43,0,0,0,1551.31,581.45Z"/><path class="cls-46" d="M1502.42,684.33s-15.3,6.79-39.14,6.82-39.13-6.82-39.13-6.82-12.24,8.65-9.1,12.08,4.72,2.86,4.72,2.86-2.21,34.32,8.46,43.47c9.9,8.5,32.7,8.12,35.93,8,3,.09,24.28.47,34.18-8,10.67-9.15,8.46-43.47,8.46-43.47s1.59.57,4.72-2.86S1502.42,684.33,1502.42,684.33Z"/><path d="M1438.12,690.6c0-.49-1.6-30.33-5.07-56.68a21.71,21.71,0,0,1-7.68,0,14.56,14.56,0,0,1-10.89-9c-7.58-18-5.36-32.43,1.06-35.51,1.66-.8,6.1-1.93,11.21,4.87,4,5.24,7,19.6,9.29,35.68a35.47,35.47,0,0,0,11.76-6.47,30.1,30.1,0,0,1-3.25-10.28c-1.1-8.7.94-18.9,5.74-20.21a3.65,3.65,0,0,1,3.16.55c4.28,3.06,3.66,17,3.49,19.78a16,16,0,0,1-4.78,10.78,18.24,18.24,0,0,0,5.14,5.33,8.14,8.14,0,0,0,5.9,1.43l.77,3.13a11.61,11.61,0,0,1-8.71-2,21,21,0,0,1-5.72-5.69,38.57,38.57,0,0,1-13,6.85c3.5,26.07,5,55.29,5.15,57.3Zm-19.85-98.66a2.51,2.51,0,0,0-1.09.25c-3.79,1.82-6.84,13.91.59,31.52a11.13,11.13,0,0,0,8.36,7,17.9,17.9,0,0,0,6.49,0c-2.2-15.8-5.1-29.82-8.77-34.7C1422.84,594.7,1420.5,591.94,1418.27,591.94Zm33,4c-1.72.51-4.32,7.93-3.2,16.79a27.57,27.57,0,0,0,2.38,8.15,13,13,0,0,0,3-7.84C1454,603.39,1452.55,596.59,1451.24,596Z"/><path d="M1485.39,690.6l-3.52-.15c.11-2,1.65-31.23,5.15-57.3a38.39,38.39,0,0,1-13.06-6.84,21,21,0,0,1-5.71,5.68,11.6,11.6,0,0,1-8.71,2l.77-3.13a8.14,8.14,0,0,0,5.9-1.43,18,18,0,0,0,5.14-5.34,16,16,0,0,1-4.78-10.77c-.16-2.76-.78-16.72,3.49-19.78a3.67,3.67,0,0,1,3.17-.55c4.79,1.31,6.83,11.51,5.73,20.21a30.31,30.31,0,0,1-3.24,10.28,35.81,35.81,0,0,0,11.75,6.46c2.29-16.08,5.34-30.43,9.29-35.67,5.12-6.8,9.54-5.67,11.21-4.87,6.42,3.08,8.65,17.53,1.06,35.51a14.55,14.55,0,0,1-10.89,9,21.76,21.76,0,0,1-7.69,0C1487,660.27,1485.42,690.11,1485.39,690.6Zm5.5-59.88a17.7,17.7,0,0,0,6.49,0,11.11,11.11,0,0,0,8.36-7c7.43-17.61,4.38-29.7.59-31.52-2.5-1.19-5.5,2.29-6.67,3.84C1496,600.91,1493.09,614.92,1490.89,630.72ZM1472.21,596c-1.25.58-2.71,7.38-2.12,17.08a13.14,13.14,0,0,0,3,7.86,27.5,27.5,0,0,0,2.39-8.17C1476.59,603.92,1474,596.5,1472.21,596Z"/><g class="cls-47"><path class="cls-48" d="M1407.45,640.43s-48.16-67.18,0-103.92,114.22,3.57,114.22,3.57-61.59-2-90.71,22.45S1405.05,625.55,1407.45,640.43Z"/></g><path d="M1466.57,706.19c-1.19,0-2.39,0-3.62,0-26.27-.55-41.43-5.15-42.06-5.35l1.13-3c.15,0,15.34,4.65,41,5.19s43.12-5.12,43.29-5.18l1.2,3C1506.82,701,1490.88,706.19,1466.57,706.19Z"/><path d="M1461.25,720.51a129.8,129.8,0,0,1-30.55-3.86l1-3.08c.18,0,18,4.79,36.06,3.51s27.45-4.73,27.55-4.77l1.34,3c-.4.15-9.92,3.68-28.62,5C1465.75,720.44,1463.48,720.51,1461.25,720.51Z"/><path d="M1461.25,727.81a129.51,129.51,0,0,1-30.55-3.87l1-3.07c.18,0,18,4.79,36.06,3.51s27.45-4.74,27.55-4.77l1.34,3c-.4.15-9.92,3.68-28.62,5C1465.75,727.74,1463.48,727.81,1461.25,727.81Z"/><path d="M1461.25,735.1a130.4,130.4,0,0,1-30.55-3.86l1-3.08c.18.05,18,4.79,36.06,3.51s27.45-4.73,27.55-4.77l1.34,3c-.4.15-9.92,3.68-28.62,5C1465.75,735,1463.48,735.1,1461.25,735.1Z"/><path class="cls-49" d="M1573.71,593.44a9.37,9.37,0,0,1-4.08-.92c-4.3-2-6-6.9-3.7-10.82l12.42-21.56a9.22,9.22,0,0,1,11.7-3.46L1607,564.3l9.35-17.22a8.6,8.6,0,0,1,5.07-4,9.5,9.5,0,0,1,6.72.41l20.19,9.1,10-18.39a9.2,9.2,0,0,1,11.79-3.63l28.57,12.89c4.36,2,6.14,6.77,4,10.74a9.22,9.22,0,0,1-11.79,3.63l-20.69-9.33-10,18.4a9.22,9.22,0,0,1-11.79,3.63l-20.19-9.11-9.36,17.23c-2.15,4-7.43,5.58-11.79,3.63l-17.09-7.71-8.43,14.62A8.94,8.94,0,0,1,1573.71,593.44Z"/><path class="cls-50" d="M1323.69,593.44a8.94,8.94,0,0,1-7.8-4.29l-8.43-14.62-17.09,7.71a9.22,9.22,0,0,1-11.79-3.63l-9.36-17.23L1249,570.49c-4.36,2-9.64.34-11.8-3.63l-10-18.4-20.68,9.33a9.2,9.2,0,0,1-11.79-3.63c-2.16-4-.38-8.78,4-10.74l28.57-12.89c4.36-2,9.64-.34,11.79,3.63l10,18.39,20.19-9.1A9.55,9.55,0,0,1,1276,543a8.57,8.57,0,0,1,5.07,4l9.36,17.22,16.91-7.62a9.21,9.21,0,0,1,11.69,3.46l12.42,21.56c2.26,3.92.61,8.77-3.7,10.82A9.34,9.34,0,0,1,1323.69,593.44Z"/><path class="cls-51" d="M1480.12,513.53a9.43,9.43,0,0,1-4.64-1.21,7.62,7.62,0,0,1-2.82-11.05l9.57-14-16-9.53a7.6,7.6,0,0,1-2.54-11.1l11.56-16.08-18.83-11.25a7.6,7.6,0,0,1-2.54-11.1L1466.28,411,1447,399.49a7.59,7.59,0,0,1-2.53-11.1,9.32,9.32,0,0,1,12.18-2.31L1483.29,402a7.6,7.6,0,0,1,2.53,11.11l-12.35,17.16,18.84,11.25a7.6,7.6,0,0,1,2.54,11.1l-11.56,16.08,15.78,9.42a7.62,7.62,0,0,1,2.65,10.95l-14.11,20.67A9,9,0,0,1,1480.12,513.53Z"/><path class="cls-52" d="M1556.39,519.66a9.22,9.22,0,0,1-6.23-2.35,7.53,7.53,0,0,1,0-11.34l73.11-66.61a9.39,9.39,0,0,1,12.44,0,7.52,7.52,0,0,1,0,11.34l-73.1,66.61A9.21,9.21,0,0,1,1556.39,519.66Z"/><path class="cls-53" d="M1386.05,516a9.26,9.26,0,0,1-6.23-2.34l-62.1-56.6a7.52,7.52,0,0,1,0-11.34,9.41,9.41,0,0,1,12.44,0l62.11,56.59a7.53,7.53,0,0,1,0,11.35A9.25,9.25,0,0,1,1386.05,516Z"/><path class="cls-11" d="M866,2040.45H658c-50.46,0-95.81-35.9-102.42-85.93-1.83-13.83-.4-27.34,6.68-38.78,52.19-84.3,129.44,27,155.24,0,8.83-9.25-29.59-109.39,57.63-110.71,88.4-1.33,88.2,85.78,53.5,155.18-18.68,37.38,54.77-14.39,79.44,4.89,12.33,9.65,14.5,23.7,10.56,37.74C912.18,2025.73,889.77,2040.45,866,2040.45Z"/><path class="cls-12" d="M3216,1862.3h208c50.47,0,95.81-35.89,102.42-85.92,1.83-13.84.4-27.35-6.68-38.79-52.19-84.3-129.43,27-155.24,0-8.83-9.25,29.59-109.39-57.63-110.71-88.4-1.33-88.2,85.79-53.5,155.19,18.69,37.37-54.76-14.4-79.43,4.89-12.34,9.64-14.51,23.7-10.57,37.73C3169.82,1847.58,3192.22,1862.3,3216,1862.3Z"/><circle class="cls-12" cx="3234.61" cy="1905.7" r="17.55"/><path class="cls-12" d="M3188.66,1727.55a27.7,27.7,0,1,1-27.7-27.7A27.7,27.7,0,0,1,3188.66,1727.55Z"/><path class="cls-11" d="M820.57,2083.43a23,23,0,1,1-23-23A23,23,0,0,1,820.57,2083.43Z"/><path class="cls-11" d="M913.12,1753.68a54.19,54.19,0,1,1-54.19-54.18A54.19,54.19,0,0,1,913.12,1753.68Z"/><path class="cls-54" d="M1855.32,947.25l-42.24,56.42-71.28,36.54a22.72,22.72,0,0,0-18,4.13c-8.44,6.47-9.6,20.8-7.45,22.38s5.84-1.62,5.84-1.62,8.64-14.08,21.9-16.36c4.84-.83,70.65-29.9,76.32-32.24,21.11-8.72,54.42-52.9,54.42-52.9Z"/><path class="cls-55" d="M1902.18,1111.35l-36.74,176.38,15.69,124.89,17.77-2.06s7.3-57.07,7.3-108.75c0-53,71.7-166.28,64.68-186.51S1898.22,1063.67,1902.18,1111.35Z"/><polygon class="cls-54" points="1883.31 1427.36 1899.5 1426.38 1898.83 1408.47 1881.13 1412.62 1883.31 1427.36"/><path class="cls-56" d="M1850.54,1442.35l50.85-2.06-.77-15.61s-18.06-4-29,1.34S1851.24,1433.75,1850.54,1442.35Z"/><path class="cls-57" d="M1881.92,1095.82l-92.34,121,42.1,115.39,20.15-5.6s-.35-42-13.33-92c-8-30.9,139.15-88.56,132.14-108.78S1878,1048.13,1881.92,1095.82Z"/><polygon class="cls-54" points="1836.32 1345.53 1852.51 1344.56 1851.83 1326.64 1834.14 1330.79 1836.32 1345.53"/><path class="cls-56" d="M1803.55,1360.53l50.85-2.07-.77-15.61s-18.06-4-29.05,1.35S1804.25,1351.92,1803.55,1360.53Z"/><path class="cls-54" d="M1861.61,846.6s-19.15,27.21-17.23,34.72c1.76,6.9,17.28,7.35,16.11,11.39s-14.26,24.64-14.26,24.64,16.68-5.78,23.37-.59c3,2.32,5.53,4.78,5.53,4.78s18.73-63.28,2.29-73.29S1861.61,846.6,1861.61,846.6Z"/><path class="cls-58" d="M1877.94,910.18s39.31,4.77,78.19,110.69c17.83,48.58,14.51,105,14.51,105l-100.84-27.75c8.31-60-39.86-167.56-25.63-184.83C1850.14,906,1871.51,905.54,1877.94,910.18Z"/><path class="cls-54" d="M1832.65,927.46s-65.49-46.4-79.89-60.07c-16-15.15-31.87-48.65-35.4-61.24a18,18,0,0,1,1-12.85s-7.79-1.41-11.61-13.61c-2.19-7-1.92-16.18-4.4-13.86s-4.22,18.37,1.93,32.91,15.12,48.4,32.35,76.77c22.85,37.63,98.66,83.4,98.66,83.4Z"/><path class="cls-58" d="M1726.64,825.12l-15.05,9.14s16.22,45.41,47.32,77.93c31.92,33.39,76.19,61.95,84.27,59.08,16-5.65,36.47-30.95,29.27-45.62-1.61-3.3-53.27-10.87-89.89-37.86C1747.71,862.1,1726.64,825.12,1726.64,825.12Z"/><path class="cls-58" d="M1748.42,1036.85S1806,994.9,1813.08,992s17.32-66.79,49-70.32,16.6,54.17,16.6,54.17-38,33.9-59.67,46.51c-16.46,9.58-75.19,29.57-75.19,29.57Z"/><path class="cls-59" d="M1882.9,885.45s-6.52-5.8-5.28-9.25,7-12,3.72-14.37-4.36.43-6.46-.81-23.37-6.08-29.5-23.47,13.67-24.06,22.55-17.07-.91,13.79-.91,13.79a77,77,0,0,1,24.38,15.93C1902.39,861.13,1882.9,885.45,1882.9,885.45Z"/><ellipse class="cls-60" cx="2593.81" cy="3620.78" rx="185.05" ry="10.95"/><ellipse class="cls-60" cx="2210.54" cy="3605.16" rx="179.02" ry="11.55"/><path class="cls-60" d="M3808.93,3538.51c0,6.38-80.15,11.55-179,11.55s-179-5.17-179-11.55,80.15-11.55,179-11.55S3808.93,3532.13,3808.93,3538.51Z"/><path class="cls-60" d="M2996.4,3617.44c0,4.14-44.88,7.5-100.24,7.5s-100.23-3.36-100.23-7.5,44.87-7.5,100.23-7.5S2996.4,3613.3,2996.4,3617.44Z"/><path class="cls-30" d="M2933.63,3242.81l14.85,175.41-8.11,165.87,30.4-3.36s25.87-139.5,28.92-178.53c1.24-15.9-8.17-228.08-8.17-228.08S2929.68,3161.77,2933.63,3242.81Z"/><path class="cls-54" d="M2966.52,3604.39s-5.43-1.94-7.08-4.27,4-18.59,4-18.59l-19.71,2.18v21.38l24.16,6.42-.62-8.43Z"/><path class="cls-56" d="M2943.78,3601.84s-2.1,12.52,0,15.16,47,3.78,47,3.78l.74-6.55s-9.46-2.22-15-5.05a19.48,19.48,0,0,1-8-8l-3.67,6Z"/><path class="cls-34" d="M2885.9,3228.25l4.69,190-8.11,165.87,30.4-3.36s25.87-139.5,28.92-178.53c1.25-15.9,20.32-242.77,20.32-242.77S2881.94,3147.21,2885.9,3228.25Z"/><path class="cls-57" d="M2914.5,3008.32a28.39,28.39,0,0,0-27.66,22.25c-3.66,16.69-7.56,43.69-7.56,82.93,0,72.63,5.58,107.37,5.58,107.37l111.9-17s-9-79.88,12.79-152.36C3021.35,3012.32,2951.24,3008,2914.5,3008.32Z"/><path class="cls-54" d="M2961.29,2895.45s-25.44,21.08-27.53,44.3c-1,10.55,18.23,15.61,18.23,15.61.25,25.91-27.34,51.58-27.34,51.58s13.72,12.28,31.85,15.9c27.29,5.46,25.83-6,25-9.07-8.86-33.44,25.78-81.6,10.63-104.22S2961.29,2895.45,2961.29,2895.45Z"/><path class="cls-59" d="M2969.09,2902.35A58.8,58.8,0,0,0,2951,2887.2c-11-5.62-.55-36.43,3.37-35.91s12.68,19.48,20.93,28.36,28.85,21.75,26.59,47.15-22.92,47.67-22.92,47.67-7.13-8.48-7.34-12.95,12.19-12.54,11.31-17.83-7.63-1-10.54-2.15S2982.85,2923.37,2969.09,2902.35Z"/><path class="cls-61" d="M2952.61,3056.38l-28-49.44-8-.08,14.7-11.74s15.38,8,22.88,15.73,10.61,13.24,10.61,13.24l13.83-16.27,14.85,4.92,3.27,6.7Z"/><path class="cls-61" d="M2996,3076.27s63.29,23,74.2,9.51c9.31-11.52-11.65-59-55.87-109.07-15.73-17.81-26.71-24.9-26.71-24.9l-10.4,12.44,60,90.22s-34-25.34-37.49-28.72S2989.14,3052.62,2996,3076.27Z"/><polygon class="cls-62" points="2977.25 2964.25 2962.12 2955.99 2980.48 2914.26 3000.57 2924.73 2977.25 2964.25"/><path class="cls-54" d="M2980.85,2962.49s-8.36-4.57-6.42-13.12,5.52-18.42,6.37-22.6,5.38-2.05,5.23,1.79a73.38,73.38,0,0,1-1.25,9.31s5.66-7.4,6.06-13.11-2.18-15.7,1.76-14.19,10.27,24,8.34,30.71-10.36,14-10.36,14Z"/><path class="cls-54" d="M2908.63,3604.39s-5.43-1.94-7.08-4.27,4-18.59,4-18.59l-19.7,2.18v21.38l24.15,6.42-.62-8.43Z"/><path class="cls-56" d="M2885.9,3601.84s-2.11,12.52,0,15.16,47,3.78,47,3.78l.74-6.55s-9.46-2.22-15-5.05a19.55,19.55,0,0,1-8-8l-3.66,6Z"/><path class="cls-61" d="M2901.16,3055.52s-37.6,49.6-78,35-71.56-74.46-71.56-74.46l10.53-11.6s26.61,36.76,66.74,50c26.51,8.78,43.53-25.1,58.11-37.34C2910.8,2997.1,2930.71,3022.53,2901.16,3055.52Z"/><path class="cls-54" d="M2266.29,3035s-74.69-9.26-88.31-10.72-77.56-53.41-77.56-53.41l-32.17-10.42s17.82-1.34,27.37-2.51,10.33,6,10.33,6,64.69,37.14,72.43,37.39c26.63.86,87.91,5.69,87.91,5.69C2271.37,3013.75,2266.29,3035,2266.29,3035Z"/><path class="cls-63" d="M2250.53,3201.29s-47.41,180.68-28.77,236.93c6.94,21,17.49,134.79,17.49,134.79s-.55,23.58-12,28c-7.28,2.78,12.41,1.52,12.41,1.52s19.53-34.72,10.3-41.8,8.69-125.61,1.47-139.15c-6.5-12.2,44.25-225.27,44.25-225.27Z"/><path class="cls-63" d="M2268.74,3202.15s19.43,182.3,38.07,238.55c6.94,21,17.5,134.79,17.5,134.79s-.56,23.58-12,28c-7.28,2.79,12.41,1.52,12.41,1.52s19.53-34.72,10.3-41.8,8.69-125.61,1.47-139.15c-6.5-12.2-22.58-226.89-22.58-226.89Z"/><path class="cls-59" d="M2244.76,3154.41l-29.65,208.77s35.54,3.48,58.61,4.12c21.34.58,34.68,2.18,34.68,2.18l5.08-99.2,11.08,100.3,17.38-1.33s-12.69-171.84-27.9-193.95-17-23.14-17-23.14Z"/><path class="cls-11" d="M2241.32,3164.18l63.6-7.35s-12-46.15-13.33-70.77a196.25,196.25,0,0,1,.21-27.27c1.61-17.11,8.13-46.54-20.35-51.54-6.6-1.16-12.25-.81-14.64,4.53-14.72,32.77-24,48.27-29.15,59.48,2.74,9.6,14.15,15.36,14.15,15.36C2244.25,3108.72,2239.8,3154.85,2241.32,3164.18Z"/><path class="cls-43" d="M2307.81,3604.74a77.17,77.17,0,0,1,8.09-4.27s.69,4.4,6.06.52,13.59-37,13.59-37,8.44,1.25,11.37,6.22c2.22,3.78-1.41,13.1-1.41,13.1l-.4.08-2.72,26.82h-2.48l.56-25.16a9.73,9.73,0,0,0-5.26,6.17c-2.68,10.24-3.93,14.42-6.92,17.62s-23.31-.22-23.31-.22S2304.07,3607.08,2307.81,3604.74Z"/><path class="cls-43" d="M2222.76,3602.26a77.17,77.17,0,0,1,8.09-4.27s.69,4.4,6.06.52,13.59-37,13.59-37,8.44,1.25,11.37,6.22c2.22,3.78-1.41,13.1-1.41,13.1l-.41.08-2.71,26.82h-2.48l.56-25.16a9.73,9.73,0,0,0-5.26,6.17c-2.68,10.23-3.93,14.42-6.93,17.62s-23.31-.22-23.31-.22S2219,3604.6,2222.76,3602.26Z"/><path class="cls-43" d="M2466.92,3200l-49.37,30.72-12.75-20.51a27.16,27.16,0,0,1,8.7-37.37l3.28-2.05a27.17,27.17,0,0,1,37.38,8.71Zm-46.78,19.61,35.67-22.19-8.5-13.66a19.09,19.09,0,0,0-26.27-6.12l-3.28,2a19.09,19.09,0,0,0-6.12,26.27Z"/><polygon class="cls-64" points="2471.69 3175.3 2389.56 3226.4 2419.7 3303.8 2525.1 3238.21 2471.69 3175.3"/><polygon class="cls-43" points="2402.25 3258.21 2400.63 3255.59 2433.64 3235.05 2440.05 3245.36 2465.75 3229.37 2459.34 3219.06 2491.93 3198.78 2493.55 3201.4 2463.58 3220.05 2469.99 3230.36 2439.06 3249.6 2432.65 3239.29 2402.25 3258.21"/><path class="cls-65" d="M2449,3221.14a4.5,4.5,0,1,1-6.2-1.44A4.5,4.5,0,0,1,2449,3221.14Z"/><rect class="cls-65" x="2446.26" y="3221.09" width="4.03" height="15.48" transform="translate(-1336.43 1781.28) rotate(-31.9)"/><polygon class="cls-43" points="2525.1 3238.21 2531.92 3226.17 2475.74 3172.78 2470.73 3175.9 2525.1 3238.21"/><path class="cls-54" d="M2273.29,3034.83c22.72,19.05,89,70.12,89,70.12L2406,3167.7s-5.86,17.39-.05,21.15c12.82,8.29,20.43-13.55,20.43-13.55-5.4,0-8.66,4.33-11.23,1.49-.77-.85,1.54-11.55,1.54-11.55l-35.95-75.15s-92.74-84.5-102.62-78.61a21.7,21.7,0,0,0-7.88,8.33A12.12,12.12,0,0,0,2273.29,3034.83Z"/><path class="cls-54" d="M2290.73,2911.19s-24.17,20.19-27.57,44.57c-1,7.18,16.89,15.64,16.89,15.64-1,17.7-20.83,36.5-20.83,36.5s9-4.45,17.63,4.94c5,5.41,12,4.09,11.54,1.95-4.62-23.22,30.86-71.08,21.35-87.2S2290.73,2911.19,2290.73,2911.19Z"/><path class="cls-59" d="M2292.7,2920c-1-.9-7.89-4.83-16.23,0s0,9.21,0,9.21-20.89-4.47-17.25-18,20.32-19.7,33.48-12.68,11,16.67,11,16.67,28.79,4.33,37,21.35c11.15,23.17,3.28,43.28-11.8,50.71-13.46,6.63-37.45,1.41-37.45,1.41l-11.34-30.91s23.18-2.2,23.18-7-6.58-2.63-6.58-2.63S2302,2928.66,2292.7,2920Z"/><path class="cls-66" d="M2662.44,3600.45l-18.8-158.56,6.41-215.57s-11.94-48.55,38,10.37-7.61,208.6-5.74,216.22c2.87,11.72,5.74,150.38,5.74,150.38Z"/><path class="cls-56" d="M2750.53,3607.25l-17.49-1.07-14.22,9.17s-18.16,4-23,8,56.09-1.08,56.09-1.08Z"/><path class="cls-57" d="M2726.34,3600.45l-18.79-158.56-35.41-221.63s15.64-26.57,79.79,16.43c5.9,3.95-7.61,208.6-5.74,216.22,2.87,11.72,5.74,150.38,5.74,150.38Z"/><polygon class="cls-54" points="2732.57 3601.14 2750.76 3603.16 2750.42 3609.18 2733.04 3606.18 2732.57 3601.14"/><path class="cls-56" d="M2686.63,3607.25l-17.49-1.07-14.22,9.17s-18.16,4-23,8,56.09-1.08,56.09-1.08Z"/><polygon class="cls-54" points="2668.67 3601.14 2686.86 3603.16 2686.52 3609.18 2669.14 3606.18 2668.67 3601.14"/><path class="cls-11" d="M2461,3002.88l92.16,27.12L2666,2994.79l1.17,50s-91.87,22.74-105.58,23.53-50.68-3.41-76.62-21.69c-16.93-11.93-34-26.22-34-26.22Z"/><path class="cls-54" d="M2667,2909.47s-16.35,26-11.49,47c2.2,9.59,20.58,8.51,20.58,8.51,7.71,22.79-1.29,53.45-1.29,53.45s9.33-2.73,24.76,4.8c8.89,4.33,18-18.14,16.37-20.63-17.47-26.94,2.26-74-17.63-89.63S2667,2909.47,2667,2909.47Z"/><path class="cls-59" d="M2677,2914.46s-.53-9.68-13.81-9.43c-11.46.22-26.18-25.59-12.42-33.45,16-9.12,27.81,8.42,37.4,19.26,11.42,12.92,16.46,13.67,23.16,15.7,5.14,1.57,14.69,3.8,16.72,14.44,1.18,6.23-5.56,13.21-8.08,16.6a13.07,13.07,0,0,1,9,8.06c2.16,5.91-20.06,27.28-20.06,27.28s-11.19-3.08-12.66-7,7.13-14.58,4.83-19-7.74-.8-9.93,1.15c-.9.8-4.74-2.5-4-10.39.22-2.34,4.13-6.59,4.13-6.59s-8.36-.51-12.27-5.21C2673.75,2919.56,2677,2914.46,2677,2914.46Z"/><path class="cls-11" d="M2755.48,3134.76c-3.83-39.06.13-103.29-1.76-113.64s-34-48.2-86.1-26.68c-5.44,2.25-11.6,6.41-17.57,12.28-14.41,14.13-2.45,95.88-3.52,142s-2.89,90.35-2.89,90.35l18.67,18.35,14.61-31.24L2700,3262l62.1-22.93S2759.32,3173.82,2755.48,3134.76Z"/><path class="cls-54" d="M2762.09,3004.43s-12.81-9.15-26-10.67c-11.37-1.31-22.25,1.62-23.68,4.09-3.09,5.33,28.44,8.37,28.44,8.37s-17.19.93-10.85,4.86c2.85,1.76,27.94,5.89,27.94,5.89Z"/><polygon class="cls-67" points="2694.94 2998.21 2690.05 3014.69 2702.49 3201.43 2679.52 3199.42 2685.53 3015.39 2679.52 3000.2 2694.94 2998.21"/><rect class="cls-43" x="2771.51" y="3245.99" width="133.88" height="94.37" transform="translate(6932.84 4755.31) rotate(150.41)"/><polygon points="2792.62 3313.35 2880.78 3263.3 2875.16 3218.87 2871.58 3219.32 2876.89 3261.35 2792.86 3309.07 2758.01 3283.74 2755.89 3286.66 2792.62 3313.35"/><polygon class="cls-29" points="2790.55 3374.64 2803.54 3367.26 2758.02 3287.1 2753.43 3289.7 2790.55 3374.64"/><rect class="cls-64" x="2824.96" y="3273.36" width="23.12" height="17.17" transform="translate(6923.68 4735.29) rotate(150.41)"/><path class="cls-43" d="M2769.19,3245.25l57.35-32.57,21.92,38.61-57.35,32.56Zm54.64-22.73L2779,3248l14.79,26.05,44.8-25.44Z"/><path class="cls-54" d="M2810.34,3255.56s17.8-1.2,13.66-23.7c-2.17-11.8-13.32-20.79-13.32-20.79s-23.15-76.38-35.77-103.67c-5.69-12.31-28.55,8.91-18.9,12.34s34.81,86.92,37.86,107.52c1.43,9.68-4.1,17.64.24,19.41,5.89,2.41,7.11-19.06,7.11-19.06S2804,3244.81,2810.34,3255.56Z"/><path class="cls-11" d="M2792.22,3218.87l-37.57-80.77-36-112.42,32.88-9.65s23.52,82.38,31,93.89,32.27,102,32.27,102Z"/><path class="cls-54" d="M2461,3002.88s-61.06-25.81-59.6-19.81,10.38,11.16,12.4,15.39-.53,18.55,12,22.51,25.12-.59,25.12-.59Z"/><polygon class="cls-11" points="412.52 3039.12 1654.95 3039.12 1754.65 3075.31 573.71 3075.31 412.52 3039.12"/><polygon class="cls-68" points="1754.65 3621.98 573.71 3621.98 573.71 3075.31 1754.65 3075.31 1754.65 3118.96 1680.69 3151.09 1754.65 3178.27 1754.65 3185 1754.65 3209.27 1734.43 3251.09 1754.65 3279.43 1754.65 3307.15 1688.76 3339.59 1754.65 3339.59 1754.65 3355.04 1754.65 3366.13 1754.65 3389.76 1719.82 3412.89 1754.65 3456.77 1727.12 3502.05 1754.65 3539.51 1754.65 3554.37 1754.65 3578.61 1737.74 3593.72 1754.65 3610.58 1754.65 3621.98"/><polygon class="cls-69" points="573.71 3621.98 498.01 3603.86 492.92 3057.19 573.71 3075.31 573.71 3621.98"/><polygon class="cls-12" points="953.72 3227.53 573.71 3227.53 763.72 3274.64 953.72 3227.53"/><polygon class="cls-69" points="573.71 3508.63 712.79 3479.76 573.71 3479.76 597.07 3403.79 564.81 3355.04 573.71 3508.63"/><polygon class="cls-69" points="573.71 3201.59 754.54 3201.59 556.13 3178.27 573.71 3201.59"/><polygon class="cls-69" points="541.61 3101.09 826.79 3101.09 556.13 3080.73 541.61 3101.09"/><polygon class="cls-69" points="541.61 3529 826.79 3518.81 556.13 3508.63 541.61 3529"/><polygon class="cls-69" points="528.24 3598.97 684.2 3598.97 542.75 3578.61 528.24 3598.97"/><polygon class="cls-69" points="572.71 3185 591.16 3149.35 556.13 3117.17 572.71 3185"/><polygon class="cls-69" points="412.52 3585.99 412.52 3537.86 498.01 3556.86 412.52 3531.05 412.52 3468.96 459.63 3471.3 412.52 3458.76 412.52 3348.65 429.42 3322.54 411.22 3297.55 411.22 3261.09 488.99 3258.84 409.92 3238.18 409.92 3178.27 422.31 3156.95 412.52 3136.13 412.52 3090.91 485.33 3111.13 412.52 3075.31 412.52 3039.12 528.24 3065.13 528.24 3610.58 412.52 3585.99"/><polygon class="cls-12" points="1296.92 3508.63 797.85 3508.63 1054.57 3539.51 1296.92 3508.63"/><polygon class="cls-12" points="1694.93 3362.51 1346.34 3362.51 1671.75 3412.89 1694.93 3362.51"/><polygon class="cls-12" points="1754.65 3178.27 1420.37 3176.4 1828.63 3209.27 1754.65 3178.27"/><polygon class="cls-12" points="1090.23 3393.49 591.16 3393.49 744.45 3424.37 1090.23 3393.49"/><polygon class="cls-12" points="1454.88 3263.99 1096.81 3263.99 1327.67 3287.94 1454.88 3263.99"/><polygon class="cls-12" points="1650.28 3591.11 1292.21 3591.11 1527.01 3603.09 1650.28 3591.11"/><polygon class="cls-69" points="1532.88 3318.86 870.26 3317.06 1353.99 3336.24 1532.88 3318.86"/><polygon class="cls-69" points="1759.42 3118.97 1333.48 3117.17 1710.29 3136.35 1759.42 3118.97"/><polygon class="cls-69" points="1492.68 3548.77 1120.5 3549.99 1403.71 3564.41 1492.68 3548.77"/><polygon class="cls-12" points="925.97 3148.88 591.16 3148.88 684.2 3167.62 925.97 3148.88"/><polygon class="cls-12" points="904.36 3584.35 569.55 3584.35 662.59 3603.09 904.36 3584.35"/><polygon class="cls-11" points="535.86 3226.1 411.33 3192.44 371.93 3215.11 535.86 3226.1"/><polygon class="cls-11" points="573.71 3411.72 424.49 3377.95 463.97 3412.89 573.71 3411.72"/><polygon class="cls-70" points="1769.54 3805.09 1224.05 3624.09 1224.05 3113.96 2128.01 3575.22 2082.83 3698.95 1769.54 3805.09"/><path class="cls-71" d="M1224.05,3114s-.8,303,117,438.2c172.48,198,522.44,280.61,522.44,280.61L2082.83,3699h0L2128,3470.63c-81-42-168.13-99.67-221-171.42C1794.5,3146.36,1812.41,3000,1812.41,3000Z"/><path class="cls-72" d="M2051,3526l-63.57,42.6s44.66,8.44,69.43,55.47,25.95,74.85,25.95,74.85l6.88-166.27Z"/><path class="cls-73" d="M1481.4,3140.81a6.88,6.88,0,0,1-1.58-13.58l267.09-63.17a6.82,6.82,0,0,1,8.29,5.11,6.88,6.88,0,0,1-5.12,8.28L1483,3140.62A6.77,6.77,0,0,1,1481.4,3140.81Z"/><path class="cls-73" d="M1505.58,3186.5a6.88,6.88,0,0,1-1.81-13.52l247.07-67.89a6.89,6.89,0,0,1,3.65,13.28l-247.08,67.89A7.13,7.13,0,0,1,1505.58,3186.5Z"/><path class="cls-73" d="M1522.94,3231a6.89,6.89,0,0,1-2-13.47l245.87-75.32a6.89,6.89,0,0,1,4,13.17L1525,3230.71A7,7,0,0,1,1522.94,3231Z"/><path class="cls-73" d="M1349.52,3432.45a6.89,6.89,0,0,1-2.48-13.31l457.45-176.52a6.89,6.89,0,0,1,5,12.85L1352,3432A7,7,0,0,1,1349.52,3432.45Z"/><path class="cls-73" d="M1393.37,3509.35a6.88,6.88,0,0,1-2.87-13.14l435.27-199a6.89,6.89,0,0,1,5.73,12.53l-435.27,199A6.93,6.93,0,0,1,1393.37,3509.35Z"/><path class="cls-73" d="M1459.2,3562.36a6.89,6.89,0,0,1-3-13.1l409.13-194.65a6.88,6.88,0,1,1,5.91,12.42l-409.12,194.65A6.77,6.77,0,0,1,1459.2,3562.36Z"/><path class="cls-73" d="M1522.94,3611a6.88,6.88,0,0,1-3.09-13l393.43-198a6.88,6.88,0,1,1,6.19,12.29l-393.44,198A6.82,6.82,0,0,1,1522.94,3611Z"/><path class="cls-73" d="M1607.09,3652.09a6.89,6.89,0,0,1-3.21-13l369.8-195a6.88,6.88,0,1,1,6.42,12.18l-369.8,195A6.87,6.87,0,0,1,1607.09,3652.09Z"/><path class="cls-73" d="M1791.61,3771.31a6.88,6.88,0,0,1-3.72-12.67l167.19-107.41a6.88,6.88,0,1,1,7.43,11.59l-167.19,107.4A6.84,6.84,0,0,1,1791.61,3771.31Z"/><path class="cls-63" d="M1837.39,3763.09c-8.06,0-16-4.16-23.13-12.35-13.9-16-22.79-45.44-21.57-69.39L1757.53,3699a6.87,6.87,0,0,1-9.12-2.86c-9.83-18-6.72-62.47,10.82-86.75,9.5-13.16,21.94-18.77,36-16.21,19.87,3.61,31,21.49,38.51,40.93,8.25-6.29,16-5.81,21.31-4.11a27,27,0,0,1,5.06,2.24l22.37-11.19a26.47,26.47,0,0,1,7.22-8.6c3.8-2.82,10.32-5.64,19.75-2.85a6.88,6.88,0,0,1,1.14,12.76l-17.7,8.86c-4.33,11.61-4.43,31.19-4.49,40.81,0,2.77,0,5.11-.1,6.83a6.87,6.87,0,0,1-6.32,6.56,7,7,0,0,1-7.3-5.46c-2-9.85-8.42-23.82-16.05-31.59l-10.42,5.23c18.94,20.72,30.39,62.63,23.52,81.49a6.82,6.82,0,0,1-7.21,4.49c-.74-.08-1.48-.2-2.22-.33-.65,7.82-3.38,14.43-9.35,18.6A27,27,0,0,1,1837.39,3763.09Zm-30-89.09c-3.65,19.72,3.49,51.82,17.28,67.73,10.28,11.86,17.64,6.72,20.41,4.79,3.25-2.27,4.09-7.6,3.57-14.26-10-8.38-17.57-22.59-22-35.87a105.15,105.15,0,0,1-5.38-29.36Zm38.67-.29c.14.42.27.84.41,1.25.64,1.93,1.59,4.47,2.69,7.45,3.55,9.55,8.06,21.74,10.82,33.71C1858.89,3703.13,1853.55,3686.43,1846.05,3673.71Zm-57.24-67.4c-7,0-13,3.66-18.42,11.09-13,17.93-16,49.55-12.16,65.82l37.42-18.74a34.59,34.59,0,0,1,7.29-12.83c5.81-6.21,12.18-9.72,18.76-10.43-6.17-16.75-14.85-32-28.94-34.53A22.64,22.64,0,0,0,1788.81,3606.31Zm82.54,35.65a68.74,68.74,0,0,1,4.27,5.73c.28-2.88.63-5.69,1.09-8.4Z"/><path class="cls-63" d="M2082.83,3699l87-202.23s-20.39-20-41.82-26.09c-61.47-17.39-131.21,29-131.21,29S2080.52,3532.68,2082.83,3699Z"/><path class="cls-74" d="M934.61,3632.94s18.44-77.53,68.16-96.07,85.11,28.71,79.21,61.55-47.19-15.14-85.11,0-68.12,80.72-68.12,80.72S925.44,3671.7,934.61,3632.94Z"/><path class="cls-75" d="M926.24,3670.81S897.6,3501.26,806,3507.19c-75.61,4.9-136.74,39.45-173.59-26.46-45.57-81.54,85.77-202.14,242.08-103.9C1011.19,3462.74,926.24,3670.81,926.24,3670.81Z"/><path class="cls-76" d="M776.57,3622.4c-24-9.93-36.64-37.36-26.8-61.4a37.4,37.4,0,0,1,23.75-22.22c40.43-13.45,74.94,19.64,117.52,67.6,21.55,24.27,37.13,69.69,37.13,69.69S829.29,3644.21,776.57,3622.4Z"/><path class="cls-11" d="M923.27,3682.8a3.79,3.79,0,0,1-1.27-.23,3.66,3.66,0,0,1-2.16-4.7c.44-1.21,43.35-120.8-39.15-201.83s-208.22-28.64-209.48-28.1a3.66,3.66,0,0,1-2.88-6.73c1.31-.56,131.49-54.85,217.49,29.6s41.34,208.35,40.88,209.6A3.67,3.67,0,0,1,923.27,3682.8Z"/><path class="cls-11" d="M928.17,3679.73a3.66,3.66,0,0,1-3.42-2.34c0-.1-6.58-15-48.42-50.3-42.69-36-101-58-101.6-58.24a3.66,3.66,0,1,1,2.56-6.86c.6.23,60.08,22.7,103.76,59.5,27.3,23,40.09,37.74,45.92,45.75,8.49-27.33,39.32-115.74,85-124.31,16.56-3.12,30.15-.61,40.42,7.42,16.62,13,18.13,35.58,18.18,36.53a3.66,3.66,0,0,1-7.31.44c0-.21-1.41-20.32-15.42-31.24-8.53-6.65-20.16-8.65-34.52-6-48.51,9.1-81.31,125.75-81.63,126.93a3.67,3.67,0,0,1-3.35,2.68Z"/><path class="cls-11" d="M713.49,3509.08a3.65,3.65,0,0,1-3-5.8l56.64-78.5a3.66,3.66,0,1,1,5.93,4.28l-56.64,78.5A3.62,3.62,0,0,1,713.49,3509.08Z"/><path class="cls-11" d="M809.26,3502.36a3.66,3.66,0,0,1-2.1-6.67L864.23,3456a3.66,3.66,0,1,1,4.18,6l-57.07,39.75A3.64,3.64,0,0,1,809.26,3502.36Z"/><path class="cls-11" d="M921.47,3533.82l-.39,0-48.75-5.22a3.66,3.66,0,0,1,.78-7.28l48.75,5.22a3.66,3.66,0,0,1-.39,7.3Z"/><path class="cls-11" d="M935,3596.43a3.67,3.67,0,0,1-2-.59l-32.18-21.07a3.66,3.66,0,0,1,4-6.13L937,3589.71a3.66,3.66,0,0,1-2,6.72Z"/><path class="cls-11" d="M848.15,3652.78a3.66,3.66,0,0,1-1.4-7l36.76-15.17-14.17-34.52a3.66,3.66,0,1,1,6.77-2.78l15.56,37.9a3.66,3.66,0,0,1-2,4.78l-40.13,16.56A3.63,3.63,0,0,1,848.15,3652.78Z"/><path class="cls-11" d="M760.26,3602.09a3.66,3.66,0,0,1-1.07-7.16l49.69-15.17L799,3541.89a3.66,3.66,0,1,1,7.08-1.85l10.81,41.27a3.66,3.66,0,0,1-2.47,4.43l-53.06,16.19A3.65,3.65,0,0,1,760.26,3602.09Z"/><path class="cls-11" d="M787.78,3628a3.66,3.66,0,0,1-1-7.19l62.75-17.39L839.14,3566a3.66,3.66,0,1,1,7.05-2l11.41,40.9a3.67,3.67,0,0,1-2.55,4.51l-66.29,18.37A3.62,3.62,0,0,1,787.78,3628Z"/><path class="cls-77" d="M2271.88,2081.41c-8.27,2.43-91.09-73.69-62-101C2232.69,1959,2263.78,2041.46,2271.88,2081.41Z"/><path class="cls-78" d="M2274.87,2085.41s93-145.39,43.94-205.7S2230.92,1912.15,2274.87,2085.41Z"/><path class="cls-79" d="M2287.52,2085.41s120.74-31.88,95.27-98.19S2319.11,1999.65,2287.52,2085.41Z"/><rect class="cls-11" x="2242.49" y="1984.39" width="5.42" height="104.35" transform="translate(-725.65 1434.44) rotate(-30.75)"/><rect class="cls-11" x="2331.33" y="2024.53" width="53.2" height="5.42" transform="translate(-566.89 971.31) rotate(-20.84)"/><rect class="cls-11" x="2346.77" y="1999.86" width="37.26" height="5.42" transform="translate(-561.55 983.56) rotate(-21.06)"/><rect class="cls-11" x="2356.27" y="1982.24" width="24.44" height="5.43" transform="matrix(0.86, -0.51, 0.51, 0.86, -679.34, 1474.52)"/><rect class="cls-11" x="2325.13" y="2043.21" width="38.3" height="5.43" transform="translate(-329.31 454.26) rotate(-10.35)"/><rect class="cls-11" x="2315.58" y="2059.95" width="26.52" height="5.42"/><rect class="cls-11" x="2300.84" y="2071.93" width="22.86" height="5.42" transform="translate(-386.07 535.26) rotate(-12.2)"/><path class="cls-11" d="M2277.52,2086l-5.31-1.12c.13-.61,13-62.49,19.48-122.64,6-56,.09-94.21,0-94.59l5.35-.85c.07.38,6.12,39.28,0,96C2290.6,2023.21,2277.65,2085.34,2277.52,2086Z"/><polygon class="cls-11" points="2297.4 1924.36 2266.28 1892.03 2270.18 1888.26 2297.15 1916.29 2320.9 1888.39 2325.03 1891.9 2297.4 1924.36"/><polygon class="cls-11" points="2294.14 1966.36 2263.91 1930.95 2268.04 1927.44 2294.65 1958.61 2327.03 1929.56 2330.65 1933.6 2294.14 1966.36"/><polygon class="cls-11" points="2290.09 1999.32 2261.97 1975.42 2265.49 1971.29 2290.39 1992.46 2320.26 1971.15 2323.42 1975.56 2290.09 1999.32"/><polygon class="cls-11" points="2285.83 2031.61 2264.12 2011.24 2267.83 2007.28 2286.16 2024.49 2307.55 2007.96 2310.88 2012.26 2285.83 2031.61"/><path class="cls-11" d="M2288.51,2087.93l-2-5c.19-.07,18.84-7.87,43.29-46.2,24.82-38.88,31.08-64.77,31.14-65l5.28,1.23c-.26,1.08-6.47,26.95-31.84,66.71C2308.82,2079.7,2289.32,2087.62,2288.51,2087.93Z"/><path class="cls-56" d="M2489.1,2300.65v-30.72s-4.79-22.45-9.66-24.84-8.1,13.89-8.1,13.89l1.74,41.67Z"/><path class="cls-56" d="M2488.71,2135s2.46-32.92-3.3-40.06c-1.85-2.31-7-11.54-8.44-13.14,0,0-5.7,0-6.29,4.79a27.89,27.89,0,0,0,0,5.89c1.17,12.5.68,42.52.68,42.52Z"/><path class="cls-80" d="M2488.71,2132.46l118.62-94.35c38.82,29.38,126,131.8,126,131.8l42.37-72.62s-124-93.76-165.49-104.36l-121.52,117Z"/><path class="cls-54" d="M2727,1936.61s10.2,17.89,7.5,15.42c-18.63-17-109.94-102.07-111-110.11-1.79-13-39.92-86.55-47.45-92s-3.35-5.39-8.56-4.1-11.72-24.48-11.72-24.48,26.64,8.72,36.28,21.13c1.3,1.68,59.08,80.86,64.26,95.24,3.48,9.69,80.05,65.12,80.05,65.12S2770.9,1952.46,2727,1936.61Z"/><path class="cls-54" d="M2739.24,1810.93s-22.86,13.31-27.56,31.38c-2.14,8.21,12.35,14.72,12.35,14.72-3.21,20.51-22.33,40.36-22.33,40.36s8.23,1.63,17,13.54c5.07,6.87,21-6.69,20.75-9.23-2.6-27.58,31.29-55.72,22.3-75.58S2739.24,1810.93,2739.24,1810.93Z"/><path class="cls-59" d="M2744.9,1818.73a47.05,47.05,0,0,0-12.34-14.34c-7.94-5.89,4.36-28.85,7.39-27.93s7.45,17,12.8,25.15,19.94,21,14.81,40.75-24.37,34.63-24.37,34.63-4.52-7.63-4.09-11.19,11.27-8.3,11.27-12.6-5.89-1.75-8-3.08S2753,1837.15,2744.9,1818.73Z"/><path class="cls-54" d="M2739.24,1810.93s-22.86,13.31-27.56,31.38c-2.14,8.21,12.35,14.72,12.35,14.72-3.21,20.51-22.33,40.36-22.33,40.36s8.23,1.63,17,13.54c5.07,6.87,21-6.69,20.75-9.23-2.6-27.58,31.29-55.72,22.3-75.58S2739.24,1810.93,2739.24,1810.93Z"/><path class="cls-59" d="M2744.9,1818.73a47.05,47.05,0,0,0-12.34-14.34c-7.94-5.89,4.36-28.85,7.39-27.93s7.45,17,12.8,25.15,19.94,21,14.81,40.75-24.37,34.63-24.37,34.63-4.52-7.63-4.09-11.19,11.27-8.3,11.27-12.6-5.89-1.75-8-3.08S2753,1837.15,2744.9,1818.73Z"/><path class="cls-81" d="M2489.1,2281.58l115.48-144.47c35.78-7.63,158.52-62.39,158.52-62.39s68.55,14.36,33.4,70.94C2773,2183.42,2625.74,2188,2619,2187.13s-129.66,113.16-129.66,113.16Z"/><path class="cls-82" d="M2709.76,2059.12l-.53,20.4,10.45-7.71,1.82,23.18a214.89,214.89,0,0,0,30.41,8.69c47.57,9,64.23-14.59,64.23-14.59s3.74-115.63-61.21-182.06c-19.2-19.63-39.06-19.89-49.8-16.35-4.48,1.49-3.14,31.67-3.14,31.67S2752.07,2002.16,2709.76,2059.12Z"/><path class="cls-82" d="M2710.47,1890h.66a82.81,82.81,0,0,1,18.28,2.13c8.22,1.88,18.4,12,18.4,12l4.84-9.49s-7-6.63-20.25-8a57.51,57.51,0,0,0-12.13.33l-12.55-7.37-5.3,12.26Z"/><polygon class="cls-11" points="2720.23 2091.89 2818.51 2039.98 2852.33 2105.98 2754.05 2157.89 2720.23 2091.89"/><path class="cls-83" d="M2812.22,2052.65l26.5,51.7Z"/><rect class="cls-84" x="2823.96" y="2049.45" width="3.02" height="58.09" transform="translate(-636.96 1517.25) rotate(-27.13)"/><path class="cls-83" d="M2797.72,2060.23l26.49,51.7Z"/><rect class="cls-84" x="2809.45" y="2057.03" width="3.02" height="58.09" transform="translate(-642.03 1511.58) rotate(-27.13)"/><path class="cls-83" d="M2783.21,2067.81l26.49,51.7Z"/><rect class="cls-84" x="2794.94" y="2064.62" width="3.02" height="58.09" transform="translate(-647.08 1505.75) rotate(-27.13)"/><path class="cls-83" d="M2768.71,2075.39l26.49,51.7Z"/><rect class="cls-84" x="2780.44" y="2072.19" width="3.02" height="58.09" transform="translate(-652.13 1499.98) rotate(-27.13)"/><path class="cls-83" d="M2754.2,2083l26.49,51.69Z"/><rect class="cls-84" x="2765.93" y="2079.77" width="3.02" height="58.09" transform="translate(-657.2 1494.25) rotate(-27.13)"/><path class="cls-83" d="M2739.69,2090.55l26.49,51.69Z"/><rect class="cls-84" x="2751.43" y="2087.35" width="3.02" height="58.09" transform="translate(-662.23 1488.38) rotate(-27.13)"/><path class="cls-54" d="M2752,1910.28s65,64.45,63.81,69c-9.73,37.75-44,85.39-44,85.39s6.23,7.47,9.36,10.23,21.4,3.73.49,7.11c-18.77,3-24.11-13.16-21.41-20.8,4.45-12.6,23.93-62.66,25.66-72.85.44-2.61-80.73-47.83-73.83-74.66C2720.08,1882.55,2752,1910.28,2752,1910.28Z"/><polygon class="cls-54" points="2501.12 2098.32 2505.95 2119.11 2488.71 2132.82 2488.71 2110.27 2501.12 2098.32"/><polygon class="cls-54" points="2502.06 2265.72 2503.89 2287.26 2489.38 2300.64 2489.1 2281.94 2502.06 2265.72"/><path class="cls-54" d="M2081.55,1231c1.34-6.15,2.92-11.1-2.56-14.22-20.62-11.74-72.56-52.38-77.3-60.78-5.86-10.39-22.67-59.67-22.67-59.67l.87-14.81s-9.47-16.56-12.65-15.79,3.16,14.44,3.64,25.1c.55,12.16,6.51,61.74,22.53,84.84s60.24,75.18,78,68.4C2076.52,1242.06,2080.43,1236.12,2081.55,1231Z"/><path class="cls-85" d="M2097.56,1661.55s-26.13-114.62-29.54-124.69-5.3-153-5.3-153l46.56,9.64-4.83,133,11,133.49Z"/><path class="cls-86" d="M2045.3,1661.55s-24.62-114.62-28-124.69,24.54-159.53,24.54-159.53l67.46,16.15-55.58,133,11,133.49Z"/><path class="cls-54" d="M2045,1695.88s-12.25.44-7-3c19.62-12.74,13.23-31.57,13.23-31.57l13.4-1.88-.25,17.81-11,15.21S2056.19,1697.05,2045,1695.88Z"/><g class="cls-87"><path class="cls-29" d="M2136.07,1698.59c0,5.41-72.49,9.8-161.91,9.8s-161.9-4.39-161.9-9.8,72.48-9.8,161.9-9.8S2136.07,1693.18,2136.07,1698.59Z"/></g><polygon class="cls-88" points="2058.38 1699.6 2059.02 1684.9 2067.45 1675.21 2063.96 1699.6 2058.38 1699.6"/><path class="cls-89" d="M2063.93,1671.43s1.45-1.53,4,2.87c2,3.35-1.25,11.6-1.25,11.6a13.7,13.7,0,0,0-9.69,6.56,44.79,44.79,0,0,1-5.36,7.88c-2.66,2.83-23.29-.23-23.29-.23s-.79-1.37,2.52-3.44a67.07,67.07,0,0,1,7.15-3.78s5.32,3.89,10.07.45S2063.93,1671.43,2063.93,1671.43Z"/><path class="cls-54" d="M2096.06,1695.88s-12.24.44-7-3c19.62-12.74,13.23-31.57,13.23-31.57l13.4-1.88-.25,17.81-11,15.21S2107.24,1697.05,2096.06,1695.88Z"/><polygon class="cls-90" points="2109.42 1699.6 2110.07 1684.9 2118.5 1675.21 2115.01 1699.6 2109.42 1699.6"/><path class="cls-91" d="M2115,1671.43s1.45-1.53,4,2.87c2,3.35-1.23,11.6-1.23,11.6a13.71,13.71,0,0,0-9.7,6.56,44.79,44.79,0,0,1-5.36,7.88c-2.66,2.83-23.28-.23-23.28-.23s-.8-1.37,2.51-3.44a67.07,67.07,0,0,1,7.15-3.78s5.32,3.89,10.07.45S2115,1671.43,2115,1671.43Z"/><path class="cls-92" d="M2058.41,1209.41c-11.13,1.74-15.31,6.49-20.38,16.55-3.88,7.69-12.62,26.1-21,35.18-5.54,6,21.14,128,21.14,128l78.18,4.31s-19.42-53.36-20.71-88-2.75-77-9.39-85C2076.22,1208.47,2068.38,1207.85,2058.41,1209.41Z"/><path class="cls-54" d="M2050.71,1245.92c1.71-6.06,3.59-10.9-1.68-14.35-19.86-13-69.2-56.75-73.41-65.43-5.21-10.72-14.5-69-14.5-69s9.52-12.68,6.22-14.88c-2.46-1.64-8.9,8.22-8.9,8.22s-2.08-19.19-5.31-18.63-12.17,11.72-6.15,22.3,4.6,67.08,19.17,91.13,55.48,78.75,73.61,73.07C2045,1256.69,2049.28,1251,2050.71,1245.92Z"/><path class="cls-54" d="M2038.61,1140s-11,21.49-6.12,39.72c1.45,5.37,16.61,6,16.61,6,4.57,12.8-6.11,32-6.11,32s8.18-10.5,17.1-6.46c5.14,2.33,12-.37,11-1.76-10.21-15,13-56.75,1.51-65.29S2038.61,1140,2038.61,1140Z"/><path class="cls-59" d="M2043.11,1147.4c-8.3-.42-15.38-7.1-15.24-15.41a18.13,18.13,0,0,1,3.37-10c9.54-14.12,23.36,4.61,23.67,8.6s11.37-20.78,37.78,1.59-.3,52.78,10.14,68.45,20.58,8.9,23.34,22.42-15.05,14.74-15.05,14.74,4.61,8-5.53,14.75-24.88-2.15-24.88-2.15-3.52,12.63-14.43,13.51-22.72-31.36-15.49-58.61c8.66-32.61,16-37.74,16.34-45.72s-4.3-2.77-6.45-2.46C2058.76,1157.42,2061.64,1148.34,2043.11,1147.4Z"/><path class="cls-11" d="M938.89,2422.45c-.15,1.17,2,7.83,6.62,10.93s14.92,3.54,14.92,3.54l1.77,13.78s-11.15-2.79-17.79-9.5-8.2-10-8.2-10Z"/><path class="cls-11" d="M966.11,2440.15s9.52-1.74,12-8.91-2.26-11-2.26-11l8.27,9.91s.85,3.68-6.9,10-13.29,10.55-13.29,10.55Z"/><path class="cls-60" d="M1356.36,3058.8c0,5.64-155.64,10.21-347.63,10.21s-347.63-4.57-347.63-10.21,155.64-10.21,347.63-10.21S1356.36,3053.16,1356.36,3058.8Z"/><polygon class="cls-54" points="1042.42 2538.84 994.94 2538.84 994.94 2557.99 1038.3 2567.33 1042.42 2538.84"/><path class="cls-66" d="M1134.28,3033.49l5.1-178.82,24.3-205.28s-11.94-48.55,38,10.37-25.51,198.31-23.64,205.93c2.87,11.72-18.15,170.63-18.15,170.63Z"/><path class="cls-56" d="M1158.46,3040.28l-17.48-1.07-14.22,9.18s-18.16,4-23,8,56.09-1.08,56.09-1.08Z"/><polygon class="cls-54" points="1140.5 3034.18 1158.7 3036.19 1158.35 3042.21 1140.98 3039.21 1140.5 3034.18"/><path class="cls-66" d="M1289.56,3033.49l-30-163.69,13.17-196.45s14.86-54.6-50.58-13.59c-38.66,24.24-4.48,181.24-3.41,215.09,1,32.51,45.2,161.47,45.2,161.47Z"/><path class="cls-56" d="M1286.16,3040.28l-17.48-1.07-14.22,9.18s-18.16,4-23,8,56.09-1.08,56.09-1.08Z"/><polygon class="cls-54" points="1268.36 3035.83 1285.39 3033.95 1286.05 3042.21 1268.68 3039.21 1268.36 3035.83"/><path class="cls-11" d="M1035.91,2531.59l43.44-8.39,84-83,24,43.86s-71.17,62.37-83,69.37-46.6,20.23-78,15.9c-20.53-2.82,4.66.5,4.66.5Z"/><path class="cls-54" d="M1181.05,2342.51s-16.35,25.94-11.49,47c2.21,9.59,20.59,8.51,20.59,8.51,7.71,22.8-1.3,53.45-1.3,53.45s9.33-2.73,24.76,4.8c8.89,4.34,18-18.14,16.38-20.63-17.48-26.94,2.25-74.05-17.64-89.63S1181.05,2342.51,1181.05,2342.51Z"/><path class="cls-59" d="M1191.05,2347.49s-.53-9.68-13.81-9.43c-11.45.22-26.17-25.58-12.41-33.45,16-9.12,27.81,8.42,37.39,19.26,11.42,12.92,16.46,13.67,23.16,15.71,5.14,1.56,14.69,3.79,16.72,14.43,1.19,6.23-5.56,13.22-8.08,16.61a13,13,0,0,1,9,8.05c2.17,5.92-20,27.28-20,27.28s-11.2-3.08-12.67-7,7.13-14.58,4.83-19-7.73-.8-9.92,1.15c-.91.81-4.74-2.5-4-10.39.21-2.33,4.12-6.59,4.12-6.59s-8.36-.5-12.27-5.2C1187.81,2352.6,1191.05,2347.49,1191.05,2347.49Z"/><path class="cls-11" d="M1269.55,2567.79c-3.84-39.06.12-103.29-1.77-113.64s-34-48.2-86.09-26.68c-5.44,2.25-9.2,4.2-15.18,10.07-14.41,14.13-4.85,98.09-5.91,144.2s-2.89,90.35-2.89,90.35l18.67,18.36,14.61-31.24,23.07,35.81,62.11-22.93S1273.38,2606.85,1269.55,2567.79Z"/><polygon class="cls-93" points="1209 2431.24 1204.11 2447.72 1216.56 2634.46 1193.58 2632.45 1199.59 2448.42 1193.58 2433.23 1209 2431.24"/><path class="cls-54" d="M1363.55,2670.25s17-5.34,7.71-26.24c-4.88-11-17.83-17.08-17.83-17.08s-40.44-68.8-59.12-92.37c-8.42-10.62-28.33,20.05-18.14,21.12s56.91,71.63,64.72,90.93c3.66,9.08.16,18.11,4.79,18.82,6.29,1,2.44-20.2,2.44-20.2S1354.86,2661.3,1363.55,2670.25Z"/><path class="cls-11" d="M1298.83,2585l-33.68-40.54-26.87-94.28,27.14-1.39s29.26,74.13,36.76,85.63,24,42.64,24,42.64Z"/><path class="cls-66" d="M1031,3033.49l-22.92-198.59-6.48-185.51s11.93-48.55-38,10.37,7.69,178.54,5.82,186.16c-2.87,11.71,36,190.4,36,190.4Z"/><path class="cls-56" d="M1006.81,3040.28l17.49-1.07,14.22,9.18s18.16,4,23,8-56.09-1.08-56.09-1.08Z"/><polygon class="cls-54" points="1024.77 3034.18 1006.58 3036.19 1006.92 3042.21 1024.3 3039.21 1024.77 3034.18"/><path class="cls-66" d="M875.72,3033.49l16.22-174.57.58-185.57s-14.85-54.6,50.58-13.59c38.66,24.24-9.27,170.36-10.35,204.21-1,32.51-31.44,172.35-31.44,172.35Z"/><path class="cls-56" d="M879.11,3040.28l17.49-1.07,14.22,9.18s18.16,4,23,8-56.09-1.08-56.09-1.08Z"/><polygon class="cls-54" points="896.92 3035.83 879.88 3033.95 879.23 3042.21 896.6 3039.21 896.92 3035.83"/><path class="cls-34" d="M1109.9,2458l-36.44,15-88.21-45.13-1.17,50s66.3,32.79,80,33.59,37.73-19.74,37.73-19.74Z"/><path class="cls-34" d="M895.73,2567.79c3.83-39.06-.12-103.29,1.76-113.64s34-48.2,86.1-26.68c5.44,2.25,9.2,4.2,15.18,10.07,14.4,14.13,4.84,98.09,5.91,144.2s2.89,90.35,2.89,90.35l-23.53,8-9.75-20.85L962.2,2678l-73.09-5.88S891.89,2606.85,895.73,2567.79Z"/><path class="cls-54" d="M955.67,2324.44s23.55,19.65,25.42,41.21c.86,9.79-17,14.43-17,14.43-.31,24.07,17.7,50.46,17.7,50.46s-.73,1.92-13.08,13.83c-7.12,6.87-31.69-13.36-30.93-16.22,8.32-31-25-69.75-10.84-90.7S955.67,2324.44,955.67,2324.44Z"/><path class="cls-59" d="M947.69,2332.26s-4.74-4,8-7.82c11-3.32,1.59-33.4-13.93-36.64-18-3.76-32.37,5.46-37.91,27.7-4.16,16.74,14.5,15.81,8.76,19.81-4.41,3.07-12.81,8.14-11.46,18.89.79,6.29,9.36,10.86,12.81,13.3a13.06,13.06,0,0,0-6.12,10.45c-.24,6.3,27.48,19.78,27.48,19.78s9.7-6.38,9.9-10.54-11.27-11.67-10.44-16.59,7.11-3.14,9.79-2c1.11.49,3.74-3.84.61-11.12-.92-2.15-5.95-5-5.95-5s7.79-3.06,10.07-8.73C952.34,2336.12,947.69,2332.26,947.69,2332.26Z"/><polygon class="cls-11" points="956.27 2431.24 961.16 2447.72 948.34 2553.09 976.07 2553.09 965.68 2448.42 971.7 2433.23 956.27 2431.24"/><path class="cls-54" d="M801.73,2670.25s-17-5.34-7.71-26.24c4.87-11,17.83-17.08,17.83-17.08s40.44-68.8,59.12-92.37c8.42-10.62,28.32,20.05,18.14,21.12s-56.92,71.63-64.72,90.93c-3.67,9.08-.16,18.11-4.8,18.82-6.29,1-2.43-20.2-2.43-20.2S810.42,2661.3,801.73,2670.25Z"/><path class="cls-34" d="M875.72,2573.8l24.4-29.38,27.07-95c2.42-8.5-2.27-23.4-9.42-18.21h0a44.38,44.38,0,0,0-29.35,29.58c-7.82,25.92-20.34,65.91-25.33,73.56-7.49,11.51-16.16,16.39-16.16,16.39Z"/><path class="cls-54" d="M1107.08,2459.14s55.67-34.75,69.44-34.75,22.58,4.86,19.82,6.85-20,5.83-23.54,8.91,11.18,5.31,6.47,8.6-27.14,2.51-32.8,8.1-43.65,30.63-43.65,30.63Z"/><path class="cls-94" d="M1157.37,2413.9l-2-165.77-4.09-200.43s-9.16-83.31-52.61-15.93,19.3,224.81,18.41,232.9c-1.39,12.45,14.32,155.59,14.32,155.59Z"/><path class="cls-56" d="M991.4,2439.2l18.18.55,13.84,10.83s18.39,5.86,23,10.49-57.89-6.44-57.89-6.44Z"/><path class="cls-85" d="M1017.06,2434.46l34.47-162.15,64.82-169.85s2.62-88.12-67.79-49.75c-6.46,3.52-35.38,219.62-38,227.32-4.08,11.85-20.21,154.94-20.21,154.94Z"/><polygon class="cls-54" points="1010.55 2434.59 991.55 2434.94 991.34 2441.2 1009.59 2439.75 1010.55 2434.59"/><path class="cls-56" d="M1133.39,2424.15l17.85-3.46,15.88,7.53s19.23,1.68,24.74,5.18-57.9,6.44-57.9,6.44Z"/><polygon class="cls-54" points="1151.05 2415.44 1132.59 2419.97 1133.76 2426.12 1151.24 2420.69 1151.05 2415.44"/><path class="cls-54" d="M1289.32,1699.76s14.89,11-1.32,28.37c-8.5,9.1-23.28,10.73-23.28,10.73s-50.21,101.69-76.52,118.49C1176.34,1864.93,1076,1871,1076,1871l.72-39.35s91.55,1.91,101.91,4.31,66.3-104.39,80.49-120.7c6.67-7.67,6.29-17.72,11.08-16.84,6.5,1.19-4.45,20.65-4.45,20.65S1277.76,1705.61,1289.32,1699.76Z"/><path class="cls-94" d="M1241.16,1741.25,1179.67,1831l-109.22-2.55,1.23,50.48s105.72-2.81,118.72-8.68,34.73-48,49.8-77.28c9.83-19.13,18.67-40.49,18.67-40.49Z"/><polygon class="cls-11" points="1246.47 1732.7 1241.16 1741.25 1258.87 1752.49 1263.28 1742.27 1246.47 1732.7"/><path class="cls-54" d="M1040.08,1742.86s24.23,20.66,25.93,43.07c.78,10.18-17.77,14.8-17.77,14.8-.6,25,17.81,52.58,17.81,52.58s-10.1.17-23.06,12.4c-7.47,7-23.44-12.41-22.61-15.38,9-32.11-25.13-72.7-10.23-94.29S1040.08,1742.86,1040.08,1742.86Z"/><path class="cls-59" d="M1031.71,1750.89s4.76,4.2,15.43-1.07,12.92-23.25-.5-32.78c-3.68-2.61-18.07-7.89-26.2,12.29,0,0-10.36-5.71-16.71,1.45-9,10.21-1.92,23.66-1.92,23.66s-14.7,1.31-13.68,18a20.65,20.65,0,0,0,8.14,14.63,13.54,13.54,0,0,0-6.47,10.78c-.32,6.53,9,13.29,15.35,10.74,0,0,2.3,3.82,3.83,5.8,4.67,6,9.13,4.3,9.13,4.3s10.14-6.52,10.4-10.82-11.58-12.25-10.66-17.35,7.42-3.18,10.19-1.92c1.14.51,5.34-5.78,2.17-13.37-.93-2.25-4.87-4.91-4.87-4.91,0-2.37,6.71-5,7.89-7.47C1036.89,1755.12,1031.71,1750.89,1031.71,1750.89Z"/><path class="cls-11" d="M1045.22,2060.74l3,3.72s22.6,22.05,40.38,24.73c57.64,8.69,60.09-36.93,60.09-36.93s-54.57-187-64.33-203.92c-16.51-28.64-49.54-19.26-61.73-13.22-12,5.94-21,15.57-27.36,24.6a29.25,29.25,0,0,0,2.85,37.12C1024.32,1923.92,1081.44,2007.91,1045.22,2060.74Z"/><path class="cls-94" d="M1022.66,1835.12l64.68,107-35.91-115.27a55.07,55.07,0,0,1,14.29.38,67.61,67.61,0,0,1,21.22,6.74c18.65,9.56,32.06,94.27,47.38,139.65s30.79,88.66,30.79,88.66l-22,33.42-15-35.9-11.79,42.62-80.16-4.11s-5.9-64.94-14.17-104.83S990,1891.18,988.63,1880.33,993.89,1843.35,1022.66,1835.12Z"/><polygon class="cls-95" points="1036.79 1829.77 1045.47 1839.34 1053.54 1886.22 1087.35 1942.16 1073.43 1882.79 1049.41 1838.08 1049.3 1828.69 1036.79 1829.77"/><rect class="cls-11" x="1104.38" y="1716.44" width="493.74" height="254.42" transform="translate(2702.49 3687.3) rotate(180)"/><path class="cls-96" d="M1564.08,1960.22a5.25,5.25,0,0,0,5.24-5.24V1751.45a5.25,5.25,0,1,0-10.49,0V1955A5.25,5.25,0,0,0,1564.08,1960.22Z"/><path class="cls-96" d="M1139.62,1933.58h444.1a5.25,5.25,0,1,0,0-10.5h-444.1a5.25,5.25,0,0,0,0,10.5Z"/><path class="cls-97" d="M1529,1908.94a5.26,5.26,0,0,0,4.64-7.7L1507,1850.76a5.24,5.24,0,0,0-4.22-2.78,5.29,5.29,0,0,0-4.62,2.09l-27.49,36.73-46.77-66a5.28,5.28,0,0,0-4.2-2.21h-.08a5.24,5.24,0,0,0-4.18,2.08l-48.12,63.59-47.82-93.15a5.28,5.28,0,0,0-4.58-2.85,5,5,0,0,0-4.67,2.7l-55.75,100.11-55.3-152a5.25,5.25,0,0,0-9.86,3.59l59.22,162.83a5.25,5.25,0,0,0,9.52.76l56.56-101.58,47.15,91.84a5.25,5.25,0,0,0,8.86.78l48.83-64.53,46.8,66a5.23,5.23,0,0,0,4.21,2.21,5.33,5.33,0,0,0,4.27-2.1l26.83-35.85,22.76,43.13A5.23,5.23,0,0,0,1529,1908.94Z"/><path class="cls-98" d="M1181.38,1778.86a5.25,5.25,0,0,0,4.95-3.5l10.73-30.38,27.82,17.65a5.25,5.25,0,0,0,5.62-8.86l-33.38-21.18a5.25,5.25,0,0,0-7.76,2.68l-12.92,36.6a5.25,5.25,0,0,0,4.94,7Z"/><path class="cls-96" d="M1408.68,1773.17h-39.91a5.25,5.25,0,0,1,0-10.49h39.91a5.25,5.25,0,0,1,0,10.49Z"/><path class="cls-96" d="M1398.12,1807.36H1438a5.25,5.25,0,0,0,0-10.5h-39.9a5.25,5.25,0,0,0,0,10.5Z"/><path class="cls-96" d="M1487.6,1838.91h39.9a5.25,5.25,0,1,0,0-10.49h-39.9a5.25,5.25,0,0,0,0,10.49Z"/><path class="cls-96" d="M1131.33,1814.37h39.9a5.25,5.25,0,1,0,0-10.49h-39.9a5.25,5.25,0,1,0,0,10.49Z"/><path class="cls-96" d="M1131.33,1838.91h39.9a5.25,5.25,0,1,0,0-10.49h-39.9a5.25,5.25,0,1,0,0,10.49Z"/><path class="cls-96" d="M1131.33,1863.45h39.9a5.25,5.25,0,1,0,0-10.49h-39.9a5.25,5.25,0,1,0,0,10.49Z"/><path class="cls-96" d="M1131.33,1888h39.9a5.25,5.25,0,1,0,0-10.49h-39.9a5.25,5.25,0,1,0,0,10.49Z"/><path class="cls-54" d="M1247.47,1964.94s-.8,18.5-24.25,14.76c-12.31-2-21.92-13.31-21.92-13.31s-112.38,15.2-141,2.78c-12.92-5.6-38.09-57.11-38.09-57.11l-.56-35.81s47.18,63.06,51,73,123.62-3.37,145.08-.71c10.09,1.24,18.21-4.69,20.16-.23,2.64,6-19.61,7.85-19.61,7.85S1236.16,1958.62,1247.47,1964.94Z"/><path class="cls-85" d="M1186.15,1948.19l-108.79-.82-71.73-103.72s-8.7,5-14.84,21.79c-11,30,47.88,105.26,60,112.76s59.21,2,91.92-1.9c21.36-2.53,44-7.14,44-7.14Z"/><polygon class="cls-11" points="1196.21 1947.82 1186.15 1948.19 1186.73 1969.16 1197.67 1967.1 1196.21 1947.82"/><path class="cls-99" d="M1229.65,1708.39a4.37,4.37,0,0,1-2-.49,4.32,4.32,0,0,1-1.81-5.82l6.08-11.57a4.3,4.3,0,0,1,5.72-1.86l8.28,4.09,4.58-9.25a4.29,4.29,0,0,1,2.48-2.17,4.37,4.37,0,0,1,3.29.22l9.87,4.89,4.89-9.87a4.3,4.3,0,0,1,5.77-2l14,6.92a4.31,4.31,0,1,1-3.82,7.72l-10.12-5-4.89,9.87a4.3,4.3,0,0,1-5.77,2l-9.88-4.89-4.57,9.25a4.31,4.31,0,0,1-5.77,1.95l-8.37-4.14-4.12,7.86A4.32,4.32,0,0,1,1229.65,1708.39Z"/><path class="cls-100" d="M1107.31,1708.39a4.3,4.3,0,0,1-3.81-2.3l-4.13-7.86-8.36,4.14a4.29,4.29,0,0,1-5.77-1.95l-4.58-9.25-9.88,4.89a4.3,4.3,0,0,1-5.77-2l-4.88-9.87-10.13,5a4.31,4.31,0,0,1-3.82-7.72l14-6.92a4.3,4.3,0,0,1,5.77,2l4.89,9.87,9.88-4.89a4.31,4.31,0,0,1,5.77,2l4.58,9.25,8.27-4.09a4.3,4.3,0,0,1,5.72,1.86l6.08,11.57a4.3,4.3,0,0,1-3.81,6.31Z"/><path class="cls-101" d="M1183.86,1665.48a4.3,4.3,0,0,1-3.65-6.58l4.68-7.53-7.81-5.12a4.31,4.31,0,0,1-1.24-6l5.66-8.63-9.22-6a4.32,4.32,0,0,1-1.24-6l6-9.21-9.44-6.19a4.31,4.31,0,0,1,4.72-7.21l13.05,8.55a4.33,4.33,0,0,1,1.24,6l-6,9.21,9.21,6a4.3,4.3,0,0,1,1.24,6l-5.65,8.63,7.72,5.06a4.31,4.31,0,0,1,1.29,5.88l-6.9,11.1A4.31,4.31,0,0,1,1183.86,1665.48Z"/><path class="cls-102" d="M1221.17,1668.77a4.31,4.31,0,0,1-3-7.35l35.77-35.77a4.31,4.31,0,0,1,6.09,6.09l-35.77,35.77A4.29,4.29,0,0,1,1221.17,1668.77Z"/><path class="cls-103" d="M1137.83,1666.83a4.29,4.29,0,0,1-3-1.26l-30.39-30.39a4.31,4.31,0,1,1,6.09-6.09l30.39,30.39a4.31,4.31,0,0,1-3,7.35Z"/><path class="cls-54" d="M3388,3004.63s-71.84-11-107.91-25.09c-15.94-6.22-42.55-69.12-51.83-82.29-5.43-7.71-48.59-17.8-51-16.78-4.77,2.05,19.52,12.21,19.52,12.21-2.21,1.36-10.54.31-11.39,6.94-.53,4.16,19.25-6.23,32.37,8.12s17.55,67.65,49.21,93.5c42,34.29,137,38.84,137,38.84Z"/><path class="cls-55" d="M3477.81,3217.12l-16,170.57,106.4,120.56,29,11.63s-63.46-94.7-81.49-148.34,70.83-136.52,62.76-159.82S3473.25,3162.19,3477.81,3217.12Z"/><polygon class="cls-54" points="3581.73 3521.78 3597.25 3519.86 3587.85 3505.43 3568.2 3508.25 3581.73 3521.78"/><path class="cls-56" d="M3539,3539.69l58.5-2.37-.9-18s-20.77-4.66-33.4,1.55S3539.76,3529.78,3539,3539.69Z"/><path class="cls-56" d="M3684.48,3538.18l58.49-2.37-.89-18s-20.78-4.66-33.41,1.55S3685.28,3528.27,3684.48,3538.18Z"/><path class="cls-54" d="M3326.08,2943.65s7.8,40.26,16.09,45c7.62,4.35,21.28-9,23.85-4.54s9.7,33.72,9.7,33.72,9.1-19.73,19.42-21.22c4.61-.66,9-.81,9-.81s-40.14-70.76-63-64.74S3326.08,2943.65,3326.08,2943.65Z"/><path class="cls-57" d="M3713.72,3509.34s-101.47-126.47-113.49-148.13c-7.13-12.84-82.73-156.41-82.73-156.41h86.26s26.4,58.42,45.65,139.4c1,4.38,74.24,145.65,74.24,145.65Z"/><polygon class="cls-54" points="3742.08 3517.82 3722.63 3517.09 3715.26 3505.17 3723.65 3489.85 3742.08 3517.82"/><path class="cls-11" d="M3407.43,2992.53s47.55-10.68,136.27,96.32c40.69,49.08,60.06,116,60.06,116l-128.39,9.36C3460.29,3141,3360.14,3036,3369.52,3010,3373.46,2999.15,3398.06,2989.79,3407.43,2992.53Z"/><path class="cls-54" d="M3388.64,3041.12l54.25,46.48,79,61.34a24.86,24.86,0,0,0,5.11,22.16c8.8,10.47,29,12.05,31.28,9.41s-2.06-7.2-2.06-7.2-19.52-10.8-22.21-27.15c-1-6-47.64-46.21-64-66.75-13.8-17.28-44.71-57.13-66.92-67.62a16.26,16.26,0,0,0-18.5,3.27h0A16.33,16.33,0,0,0,3388.64,3041.12Z"/><path class="cls-59" d="M3378.72,2958s-10.71.81-12.7-3.23-4.68-16.39-9.58-15.59-3.34,4.23-6.23,5-25.35,15.52-46,6.08-9.67-32.72,4.12-34.6,11.44,12.6,11.44,12.6a94.89,94.89,0,0,1,35-8C3373.79,2919.92,3378.72,2958,3378.72,2958Z"/><path class="cls-43" d="M3826.65,3545.15a7.66,7.66,0,0,1-8.07-2.74l-620.64-863.35c-2.28-3.17-1.26-7.55,2.29-9.79s8.26-1.48,10.54,1.69l620.64,863.35c2.28,3.17,1.25,7.56-2.29,9.79A8.36,8.36,0,0,1,3826.65,3545.15Z"/><path class="cls-43" d="M3928.06,3520.31a7.68,7.68,0,0,1-8.08-2.73l-620.64-863.36c-2.28-3.17-1.25-7.55,2.29-9.79s8.26-1.48,10.54,1.69l620.64,863.36c2.28,3.17,1.25,7.55-2.29,9.79A8.39,8.39,0,0,1,3928.06,3520.31Z"/><path class="cls-43" d="M3362.22,2733.19l-101,24.75c-4.11,1-8.19-1.21-9.11-5s1.67-7.6,5.79-8.61l101.05-24.75c4.11-1,8.18,1.22,9.1,5S3366.33,2732.18,3362.22,2733.19Z"/><path class="cls-43" d="M3429.65,2828l-101.05,24.75c-4.12,1-8.19-1.21-9.11-5s1.67-7.6,5.78-8.61l101.06-24.75c4.11-1,8.18,1.22,9.1,5S3433.76,2827,3429.65,2828Z"/><path class="cls-43" d="M3497.07,2922.83l-97.46,23.87c-4.12,1-8.19-1.21-9.11-5s1.67-7.6,5.78-8.6l97.47-23.88c4.11-1,8.19,1.22,9.11,5S3501.19,2921.82,3497.07,2922.83Z"/><path class="cls-43" d="M3564.5,3017.65l-95.75,23.45c-4.11,1-8.19-1.21-9.11-5s1.67-7.6,5.79-8.6l95.75-23.46c4.11-1,8.19,1.22,9.1,5S3568.61,3016.64,3564.5,3017.65Z"/><path class="cls-43" d="M3631.93,3112.47,3533,3136.7c-4.11,1-8.19-1.22-9.1-5s1.67-7.6,5.78-8.61l98.9-24.23c4.11-1,8.18,1.22,9.1,5S3636,3111.46,3631.93,3112.47Z"/><path class="cls-43" d="M3699.36,3207.29l-98.28,24.08c-4.11,1-8.18-1.22-9.1-5s1.67-7.6,5.78-8.61l98.27-24.07c4.12-1,8.19,1.21,9.11,5S3703.47,3206.29,3699.36,3207.29Z"/><path class="cls-43" d="M3766.78,3302.11,3669.14,3326c-4.11,1-8.19-1.21-9.11-5s1.67-7.6,5.79-8.61l97.64-23.91c4.11-1,8.19,1.21,9.11,5S3770.9,3301.11,3766.78,3302.11Z"/><path class="cls-43" d="M3835.61,3396.59l-96.08,23.54c-4.11,1-8.19-1.22-9.11-5s1.67-7.6,5.79-8.61l96.08-23.54c4.11-1,8.19,1.22,9.11,5S3839.73,3395.58,3835.61,3396.59Z"/><path class="cls-54" d="M3464.46,2601.88s-55.4,53.42-64.09,63.57-62.26,60.75-62.26,60.75l-31.3,6.66s-4.33,1.58,0-6.75S3334.2,2716,3334.2,2716s43.45-57.49,47.92-63.58c15.39-20.95,60.47-78.82,60.47-78.82C3450.82,2573.27,3464.46,2601.88,3464.46,2601.88Z"/><path class="cls-54" d="M3443.1,2721.67s11.4,240.72,36.16,261.47c16.52,13.85,90.15,101,90.15,101s-.95,28.46-12.13,32.74c-7.11,2.72,12.11,1.49,12.11,1.49s19.05-33.89,10.05-40.79-57.8-101.18-64.84-114.4c-6.34-11.9-2.9-251.42-2.9-251.42Z"/><path class="cls-54" d="M3435.31,2700.18s81.12,207.84,147.4,271.91c11,10.59,151.12,99.26,151.12,99.26l15,18.28s14.4-8.55-8.39-36.52c-10.72-13.14-15-5-15-5L3608.23,2946.7s-74-221.95-84-230.4C3475.94,2675.62,3435.31,2700.18,3435.31,2700.18Z"/><path class="cls-104" d="M3523.77,2709.89c-6.86-6.83-12.55-10.92-17-13.39l-34.54-25.35a128,128,0,0,1-6.36-38.8c-.07-6.25.34-16,1.26-25.8,1.57-16.7,7.94-45.41-19.85-50.29-6.45-1.13-11.95-.79-14.29,4.41-14.37,32-23.4,47.1-28.44,58,2.67,9.37,13.81,15,13.81,15,6.26,19,20.3,75.77,21.77,84.87l16.17,175.11s34.19,9.8,55,9.67,33.64-4.13,33.64-4.13l15.7-1.85,28.37-7.59S3542.31,2728.36,3523.77,2709.89Z"/><polygon class="cls-29" points="3766.7 3075.5 3743.7 3053.35 3742.96 3045.12 3768.33 3073.72 3766.7 3075.5"/><path class="cls-29" d="M3727.07,3046.39s6.47-5.23,12-4c4.19.91,8.48,9.67,8.48,9.67s-4.95,5.82,2.52,14.27c6.84,7.74,10,12.48,10.28,16.75s-15.57,16.58-15.57,16.58-1.71-.38-.92-4.61a75.32,75.32,0,0,1,2.28-8.63s3.62,2.41,4.38-4S3727.07,3046.39,3727.07,3046.39Z"/><polygon class="cls-29" points="3584.22 3123.53 3584.93 3091.6 3590.49 3085.49 3586.64 3123.52 3584.22 3123.53"/><path class="cls-29" d="M3580,3078.42s8.24,1.21,11.09,6.07c2.17,3.69-1.37,12.78-1.37,12.78s-8.29.94-10.06,7.73c-2.61,10-3.83,14.07-6.75,17.19s-22.75-.22-22.75-.22-.88-1.51,2.77-3.79a72.42,72.42,0,0,1,7.89-4.17s.67,4.29,5.91.5S3580,3078.42,3580,3078.42Z"/><path class="cls-43" d="M3638,2744.29l-48.16,30-12.45-20a26.51,26.51,0,0,1,8.49-36.47l3.2-2a26.5,26.5,0,0,1,36.47,8.49Zm-45.64,19.13,34.81-21.66-8.3-13.33a18.62,18.62,0,0,0-25.63-6l-3.2,2a18.61,18.61,0,0,0-6,25.63Z"/><polygon class="cls-64" points="3642.63 2720.23 3562.49 2770.09 3591.89 2845.61 3694.74 2781.61 3642.63 2720.23"/><polygon class="cls-43" points="3574.87 2801.13 3573.29 2798.58 3605.5 2778.54 3611.76 2788.59 3636.84 2772.99 3630.58 2762.93 3662.37 2743.14 3663.96 2745.69 3634.71 2763.89 3640.97 2773.95 3610.79 2792.73 3604.54 2782.67 3574.87 2801.13"/><path class="cls-65" d="M3620.53,2765a4.39,4.39,0,1,1-6.05-1.41A4.4,4.4,0,0,1,3620.53,2765Z"/><rect class="cls-65" x="3617.81" y="2764.91" width="3.93" height="15.11" transform="translate(-918.36 2331.34) rotate(-31.9)"/><polygon class="cls-43" points="3694.74 2781.61 3701.4 2769.87 3646.59 2717.77 3641.69 2720.82 3694.74 2781.61"/><path class="cls-54" d="M3449,2583.17c22.17,18.58,86.83,68.42,86.83,68.42l42.7,61.22s-5.71,17-.05,20.64c12.51,8.09,19.94-13.22,19.94-13.22-5.27,0-8.45,4.23-11,1.45-.76-.83,1.5-11.27,1.5-11.27l-35.08-73.32s-90.49-82.46-100.13-76.71a21.26,21.26,0,0,0-7.69,8.13A11.84,11.84,0,0,0,3449,2583.17Z"/><path class="cls-54" d="M3466.05,2462.53s-23.58,19.7-26.89,43.48c-1,7,16.47,15.26,16.47,15.26-1,17.27-20.32,35.62-20.32,35.62s8.76-4.34,17.2,4.82c4.87,5.28,11.68,4,11.26,1.9-4.51-22.66,30.12-69.35,20.84-85.09S3466.05,2462.53,3466.05,2462.53Z"/><path class="cls-59" d="M3468,2471.13c-.94-.88-14.23-17.93,0-21,9.79-2.09,24.91,1.27,46.78,37.1,13.08,21.41,6.83,37.56,5.12,61.25-1.05,14.6,1.71,60.05,1.71,60.05l-65.07-49.18s21.74-53.57,21.74-58.28-6.43-2.56-6.43-2.56S3477,2479.57,3468,2471.13Z"/><path class="cls-54" d="M2565.8,1754.75s18.44.38,17.27-19.88c-.62-10.62-10.85-19.48-10.85-19.48s6.88-10.6-2.35-35.78c-4.16-11.35-11.68-1.81-10.52,7.19,1.47,11.47-6.92,23.08-6.6,41.56.15,8.69-6.61,15.29-2.4,17.21,5.72,2.61,9.9-16.3,9.9-16.3S2560.76,1744.72,2565.8,1754.75Z"/><path class="cls-94" d="M2555.81,1701.4l-24.92-74.6-52.8-99.37,23.95-28.14s52.78,89.92,58.91,100.72,14.57,39.32,15.59,67.46c.58,16,0,35.62,0,35.62Z"/><polygon class="cls-11" points="2554.36 1709.97 2555.81 1701.4 2576.54 1703.09 2573.32 1712.32 2554.36 1709.97"/><path class="cls-94" d="M2423.47,2071.57l-2-165.76-4.1-200.44s-9.15-83.31-52.61-15.92,19.31,224.81,18.41,232.9c-1.38,12.45,14.33,155.59,14.33,155.59Z"/><path class="cls-56" d="M2257.51,2096.87l18.18.56,13.83,10.83s18.4,5.86,23,10.48-57.9-6.43-57.9-6.43Z"/><path class="cls-85" d="M2283.16,2092.14,2317.63,1930l64.82-169.84s7.4-105.5-63-67.13c-6.46,3.52-40.15,237-42.81,244.7-4.08,11.84-20.2,154.93-20.2,154.93Z"/><polygon class="cls-54" points="2276.66 2092.26 2257.65 2092.62 2257.44 2098.88 2275.69 2097.43 2276.66 2092.26"/><path class="cls-56" d="M2399.49,2081.83l17.86-3.46,15.87,7.53s19.57,7.47,25.08,11-58.23.65-58.23.65Z"/><polygon class="cls-54" points="2417.16 2073.12 2398.7 2077.64 2399.86 2083.79 2417.35 2078.37 2417.16 2073.12"/><path class="cls-54" d="M2541.36,1423.5s5,31.44-8.18,49.61c-6,8.25-23.13-.26-23.13-.26-16.64,18.63-20.53,51.58-20.53,51.58s-7.8-6.41-25.6-5.51c-10.25.53-9.79-24.65-7.23-26.37,27.65-18.61,28-71.64,53.34-78.42S2541.36,1423.5,2541.36,1423.5Z"/><path class="cls-59" d="M2529.78,1424.19s.9,6.29,12.44,9.19,24.91-9.33,20.87-25.28c-1.1-4.37-8.64-17.73-27.91-7.64,0,0-4.19-11.06-13.66-9.72-13.51,1.91-16.8,16.77-16.8,16.77s-12-8.53-22.11,4.86a20.66,20.66,0,0,0-3.29,16.41,13.55,13.55,0,0,0-11.91,4c-4.48,4.77-1.79,15.93,4.72,18.14,0,0-.72,4.39-.84,6.89-.37,7.63,4.16,9.19,4.16,9.19s12,1.62,14.93-1.5-.87-16.83,3.13-20.11,7.71,2.39,9,5.14c.54,1.14,7.81-.93,10.32-8.77.75-2.31-.53-6.89-.53-6.89,1.56-1.79,8.35.55,10.85-.58C2531,1430.77,2529.78,1424.19,2529.78,1424.19Z"/><path class="cls-11" d="M2339.18,1668.85l-.1,4.8s2.91,31.44,14.71,45c38.25,44,69.69,10.84,69.69,10.84s79.69-177.75,83.23-197c6-32.51-25.23-46.78-38.43-50.09-13-3.26-26.08-1.76-36.78,1a29.26,29.26,0,0,0-21.9,30.11C2412,1551.13,2401,1652.11,2339.18,1668.85Z"/><path class="cls-94" d="M2468.28,1482.45l-20.14,123.43,47.38-111a54.79,54.79,0,0,1,10.63,9.56,67.18,67.18,0,0,1,11.79,18.88c8,19.37-36.71,92.56-54.47,137s-34,87.47-34,87.47L2391,1759l11.87-37-36.62,24.81-58.36-55.1s37.61-53.27,57.18-89,41.94-98.7,48-107.82S2441,1470.06,2468.28,1482.45Z"/><polygon class="cls-105" points="2482.51 1487.54 2482.91 1500.45 2458.66 1541.37 2448.14 1605.88 2476.03 1551.65 2486.73 1502.05 2492.74 1494.83 2482.51 1487.54"/><path class="cls-54" d="M2557,1745.75s-13.14,13-27.85-5.6c-7.71-9.78-7.08-24.64-7.08-24.64s-50.26-36.14-62.89-64.69c-5.7-12.88,26.51-16.16,22.57-6.28s50.5,52.46,64.47,69c6.57,7.75,16.57,8.89,15,13.5-2.16,6.24-19.73-7.53-19.73-7.53S2552.93,1733.43,2557,1745.75Z"/><path class="cls-85" d="M2523.25,1691.86,2471.81,1597l-16.67-112.27s-9.8-2.22-25.68,6c-28.4,14.61-8.83,103.69-5,117.43s21.13,55.67,47.8,75c17.42,12.62,37.19,24.59,37.19,24.59Z"/><polygon class="cls-11" points="2530.89 1698.41 2523.25 1691.86 2509.45 1707.66 2518.89 1713.57 2530.89 1698.41"/></g></svg>