<?xml version="1.0" encoding="utf-8"?>
<!-- Generator: Adobe Illustrator 24.0.0, SVG Export Plug-In . SVG Version: 6.00 Build 0)  -->
<svg version="1.1" id="Layer_1" xmlns="http://www.w3.org/2000/svg" xmlns:xlink="http://www.w3.org/1999/xlink" x="0px" y="0px"
	 viewBox="0 0 2000 2000" style="enable-background:new 0 0 2000 2000;" xml:space="preserve">
<style type="text/css">
	.st0{fill:#FFFFFF;}
	.st1{opacity:0.2;fill:#93E3F1;}
	.st2{fill:#9FEEF7;}
	.st3{opacity:0.64;fill:#FFFFFF;}
	.st4{fill:#C4F3FB;}
	.st5{fill:#73CABE;}
	.st6{fill:#10115A;}
	.st7{opacity:0.2;}
	.st8{fill:#93E3F1;}
	.st9{clip-path:url(#SVGID_4_);}
	.st10{fill:#07085B;}
	.st11{fill:#FFE44D;}
	.st12{fill:#8694A1;}
	.st13{fill:#FFC0BB;}
	.st14{fill:#E8A33B;}
	.st15{fill:#FF5B7E;}
	.st16{fill:#A3A3A3;}
	.st17{fill:#122F5B;}
	.st18{fill:#224887;}
	.st19{fill:#FC8D84;}
	.st20{fill:#FEB546;}
	.st21{fill:#333333;}
	.st22{fill:#F99893;}
	.st23{opacity:0.3;fill:#E87B50;}
	.st24{fill:#F44E7A;}
	.st25{fill:#1E1E1E;}
	.st26{fill:#3A2645;}
	.st27{fill:#4F2305;}
	.st28{fill:#632D07;}
	.st29{fill:#3C2340;}
</style>
<g>
	<rect class="st0" width="2000" height="2000"/>
	<path class="st1" d="M351.5,930.9c68.3-2.7,37,101.9,27.5,129.7c19.6,15.8,36.4,32.1,50.5,48.1c-1.7-35.7-24.9-60.2-19.4-83
		c6.2-25.6,28.6-48.3,50.9-6.5c17.6,33.1-12.7,78.4-26,95.8c24,28.1,40.1,54.7,50.5,75.2c3.7-41.6-19.9-73.1-11-98.4
		c9.8-27.7,36.9-49.7,56.2,0.1c15.9,41.2-26.5,89.6-41.8,105.2c9.1,19,12.8,31.5,13.2,32.8c7.6,25.1,13.6,49.8,18.2,73.9
		c4.1-36.6-10.8-67.8,0.1-89.7c13.1-26.3,42.4-44.3,54.8,8.7c9.8,41.9-33.5,82.3-52,97.3c8.6,50.5,11.3,98.1,10.3,141.9
		c14.6-31.2,15.3-85.4,37.5-109.6c14.6-15.9,28.4-13.9,37.4-9.4c7.7,3.8,12.9,11.4,14.5,20.8c8.7,52.7-66.5,94.9-89.6,106.5
		c-1.8,53.8-9.3,101.5-18.3,140.8c7.7-16.1,19.2-40.4,24.6-53.3c8.6-20.3,29.6-43.8,48.5-47.4c0.8-0.2,1.6-0.3,2.3-0.4
		c14.4-1.7,26.3,9,28.9,24.2c9.9,59.4-86.9,86.6-107.9,91.7c-0.1,0.3-0.1,0.6-0.2,0.8c-24.9,98.6-60.8,157.8-62.4,160.2l-7.8-5.3
		c0.4-0.6,34.6-56.9,58.9-148.9c-71.4-53-65.4-115.7-44.9-128.7c21.2-13.4,54.8-3.7,48.8,40.6c-3.5,25.7-1.8,53,0.3,71.4
		c9.4-39.5,17.4-88.2,19.4-143.6c-114.5-29.7-84-107.6-54.5-113.1c29.9-5.6,40.8,14.3,42.3,51.2c1,24.5,7.9,44.2,12.4,54.7
		c1.1-42.9-1.4-89.7-9.7-139.3c-20.6,9-74.6,28-98.4-5.9c-29.7-42.4-0.3-60.2,25.5-57.6c23.7,2.4,37.3,41.5,71.6,56.4
		c-4.9-27.5-11.4-55.8-20.2-84.7c-0.1-0.5-7.5-25.5-28.5-60.2c-19.9,11.7-71.5,37.5-99.2,7.7c-34.8-37.4-7.3-58.9,19-60
		c23.4-1,41.2,33.3,75.3,44.3c-18.4-28.9-45.9-63.3-85.6-95.6c-20.7,12-70.9,36.2-98,7c-34.8-37.4-7.3-58.9,19-60
		c23.7-1,41.7,34.3,76.8,44.8l0.6-0.9c-8-11.5-24.9-35.9-33.6-47c-11.6-14.9-18.9-42.3-11.2-61.2C335,934,351.5,930.9,351.5,930.9z"
		/>
	<g>
		<g>
			<g>
				<path class="st2" d="M481.1,1760.1c0,0,157.1-145,103-193.1c0,0-6.8-21.4-65.7,33.8c0,0-29.4,2.6-23.4-31.7
					c6-34.3,62.2-74.5,40.2-111.2c-22-36.7-48.5,12.4-70.8,17.3c-22.3,4.9,17.2-127.9-7.4-149.5c-24.7-21.6-44.1,29.8-61.1,32
					s-28.1-167.1-109.2-156.9c-81.1,10.2-9,91,18.7,136.7c27.7,45.7-41.7,6.4-59.8,51.1c-18.1,44.7,122.2,40.9,100.1,83.2
					c-22,42.3-54.1,6.8-68.7,38.9c-23.6,51.9,118.8,32.7,107.5,69.6c-9,29.5-52-2.4-62.2,19.5S375.5,1726.1,481.1,1760.1z"/>
				<path class="st3" d="M587.7,1570.6c-0.5-0.5-0.9-1.1-1.4-1.6c-3.8,6.6-8.4,13.8-13.6,21.1c-19.2,26.9-51.9,61.4-99.3,73.8
					c-5.2-27.8-12.7-57.5-22.5-88.8c26.4-65.6,57.3-98.2,78.6-113.9c1.8-1.4,3.6-2.6,5.4-3.8c-0.4-0.6-0.8-1.2-1.1-1.8
					c-1.7,1.1-3.5,2.4-5.3,3.7c-21.3,15.7-52.1,48-78.6,112.8c0-0.1-0.1-0.3-0.1-0.4c-10.1-32.2-22.7-66.1-37.4-101.5
					c0.3-3.1,3-32.9,10.9-67.5c5.7-24.8,15-55.9,29.2-80.1c-0.6-0.3-1.2-0.6-1.8-0.9c-14.3,24.4-23.6,55.5-29.4,80.4
					c-6.6,28.9-9.7,54.6-10.6,64.1c-11.3-27-23.9-54.8-37.8-83.3c-38.6-79.6-77.9-146.2-98.6-179.9c-0.7,0.2-1.4,0.4-2,0.6
					c20.6,33.5,60.1,100.3,98.8,180.3c6.5,13.4,13.2,27.6,19.9,42.4c-7-3.2-27.9-12.5-55.8-21.1c-23.5-7.2-55.7-15-89.7-17.1
					c0,0.1-0.1,0.2-0.1,0.3c-0.2,0.6-0.4,1.2-0.6,1.8c34,2,66.3,9.8,89.9,17.1c31.9,9.8,54.6,20.5,57.7,22
					c14.7,32.7,29.4,68.2,42.4,104.7c-44.5-17.9-121.4-19.6-159.5-19.3c-0.2,0.7-0.4,1.4-0.6,2.1c38.2-0.4,116.8,1.3,161,19.8
					c18.4,52,33.4,106,40.3,157c-39.9-3.1-81.4-33.1-109.4-57.8c-17.3-15.3-31.6-30.5-40.9-41c-0.5,0.4-1,0.9-1.5,1.4
					c9.3,10.5,23.7,25.8,41.1,41.2c28.3,25,70.4,55.4,111,58.4c2.9,22,4.3,43.4,3.7,63.8c0.3,0.1,0.7,0.2,1,0.3c0,0,0.4-0.3,1-0.9
					c0.6-28.1-2.2-59.2-8.4-93.1c3.1-0.8,6.2-1.7,9.2-2.7c17.7-5.9,34.6-15.2,50.3-27.8c14.9-11.9,28.7-26.8,41.1-44.2
					C579.4,1584.2,583.9,1577.2,587.7,1570.6z"/>
			</g>
			<path class="st4" d="M499.6,1740.3c0,0-23.4-136-163.9-219.1l3.9,50.7l-20.1-57.2c0,0-83.5-44.6-149.4-59
				c0,0,79.2,141.4,105.3,166.3l46.3,13l-39,17.6c0,0,42.5,79.8,112.7,114.8C465.8,1802.5,499.6,1740.3,499.6,1740.3z"/>
			<g>
				<g>
					<g>
						<path class="st4" d="M109.2,1640.1c18.8,43.2,43.5,74.3,71.3,96.4c16.1-10.5,35.5-22.7,35.5-22.7l-15.7,36.6
							c113.1,70.7,260.5,14.7,260.5,14.7c-39.8-95.7-89.7-143.3-139.3-163.6c-8.7,11.1-21.5,27.7-21.5,27.7l5.2-33.5
							c-24.9-7.4-49.4-8.4-72.3-5.8c-2.6,17.4-6,37.1-6,37.1l-15.8-33.4C152.1,1606.6,109.2,1640.1,109.2,1640.1z"/>
					</g>
					<g>
						<path class="st2" d="M321.3,1601.7c-8.7,11.1-21.5,27.7-21.5,27.7l5.2-33.5c-24.9-7.4-49.4-8.4-72.3-5.8
							c-2.6,17.4-6,37.1-6,37.1l-15.8-33.4c-58.8,12.9-101.8,46.4-101.8,46.4c125.5,95.5,351.5,125.1,351.5,125.1
							C420.9,1669.5,371,1622,321.3,1601.7z"/>
					</g>
				</g>
			</g>
		</g>
		<g>
			<path class="st4" d="M1364.8,1767c0,0-100.3-207.3,20-467.3l44.3,72.1l-27.4-97.9c0,0,76.2-148.1,156.9-237.1
				c0,0,25.3,273.5,12.2,334.5l-53.8,66.4l73.5-17.6c0,0,17.5,152-49.1,273.3C1474.8,1814.7,1364.8,1767,1364.8,1767z"/>
			<g>
				<path class="st4" d="M1843.3,1288.3c5.8,79.1-7.6,145.9-32.9,202.2c-33.7-1.3-73.8-2-73.8-2l54.3,39.6
					c-119,201.2-394.3,248.2-394.3,248.2c-15.6-173.8,23.7-286.3,84.6-359.1c22.6,8.5,56,21.6,56,21.6l-35.3-44.1
					c32.9-32.4,70.3-55.3,108-71.4c18.2,23,39.5,48.7,39.5,48.7l-2.5-62.4C1749.1,1277,1843.3,1288.3,1843.3,1288.3z"/>
				<path class="st2" d="M1481.1,1417.2c22.6,8.5,56,21.6,56,21.6l-35.3-44.1c32.9-32.4,70.3-55.3,108-71.4
					c18.2,23,39.5,48.7,39.5,48.7l-2.5-62.4c102.2-32.5,196.4-21.2,196.4-21.2c-118.3,248.2-446.7,487.9-446.7,487.9
					C1380.9,1602.5,1420.2,1489.9,1481.1,1417.2z"/>
			</g>
			<g>
				<path class="st2" d="M1856.3,1565.3c-48.8-8.9-93.6-6.5-134.2,3.2c-5.9,18.4-13.4,40.3-13.4,40.3l-14.1-32.4
					c-150.7,50.1-235.3,196.5-235.3,196.5c106.6,21.1,185.5,7.9,243.5-19.9c-0.9-12.9-2.5-32-2.5-32l20.8,22.4
					c27-15.5,48.9-34.2,66.6-53.6c-10.9-11.6-22.8-25-22.8-25l38.9,5.9C1844.6,1617.4,1856.3,1565.3,1856.3,1565.3z"/>
				<path class="st4" d="M1702.7,1753c-0.9-12.9-2.5-32-2.5-32l20.8,22.4c27-15.5,48.9-34.2,66.6-53.6c-10.9-11.6-22.8-25-22.8-25
					l38.9,5.9c40.9-53.3,52.6-105.3,52.6-105.3c-180.2,46.3-397.1,207.6-397.1,207.6C1565.7,1794.1,1644.6,1780.9,1702.7,1753z"/>
			</g>
		</g>
		<path class="st5" d="M1801.5,1768.8c0,0-37.1,42.6-118.9,47.3c-81.8,4.7-109.5-11.8-231.1,2.6c-121.6,14.4-162.5,58.5-312.3,67.6
			c-210.8,12.9-293.7-22.6-485.1-30.6c-128-5.3-190.6,9.9-291.5-5.3c-120.6-18.2-153.4-80-153.4-80h84.5L1801.5,1768.8z"/>
		<path class="st6" d="M146.6,1760.4h1707.9c4.6,0,8.4,3.8,8.4,8.4l0,0c0,4.6-3.8,8.4-8.4,8.4H146.6c-4.6,0-8.4-3.8-8.4-8.4l0,0
			C138.2,1764.2,142,1760.4,146.6,1760.4z"/>
	</g>
	<g>
		<g>
			<g>
				<g>
					<g>
						<defs>
							<ellipse id="SVGID_1_" cx="991.5" cy="346.7" rx="321" ry="220.6"/>
						</defs>
						<clipPath id="SVGID_2_">
							<use xlink:href="#SVGID_1_"  style="overflow:visible;"/>
						</clipPath>
					</g>
				</g>
			</g>
			<g>
				<g>
					<g class="st7">
						<ellipse class="st8" cx="991.5" cy="346.7" rx="321" ry="220.6"/>
					</g>
					<g>
						<defs>
							<ellipse id="SVGID_3_" cx="991.5" cy="346.7" rx="321" ry="220.6"/>
						</defs>
						<clipPath id="SVGID_4_">
							<use xlink:href="#SVGID_3_"  style="overflow:visible;"/>
						</clipPath>
						<g class="st9">
							<path class="st10" d="M965.1,464.7l4.4,10.1c0,0-41.1,46.7-46.2,50.9c-5.1,4.2-87.6-61.9-84.9-67
								c2.7-5.1,36.7-53.1,38.8-56.7C879.4,398.4,960.6,458.7,965.1,464.7z"/>
							<path class="st11" d="M920.6,241.9c47-59.6,133.7-68.5,187.1-16.5c43.9,42.6,48.8,111.8,12,164
								c-25.8,36.6-65.7,56.1-105.6,56.7c-11.5,0.2-22.7,5.3-30,14.6l-14.6,14.2L877.2,402l9.8-16.8c7.4-9.4,10.5-21.6,7.9-33
								C886.6,315.5,894.7,274.6,920.6,241.9z"/>
							<path class="st12" d="M860.5,428.4l87.2,68.8c5.6,4.4,13.8,3.5,18.2-2.2l0,0c4.4-5.6,3.5-13.8-2.2-18.2L876.6,408
								c-5.6-4.4-13.8-3.5-18.2,2.2l0,0C853.9,415.8,854.9,424,860.5,428.4z"/>
							<path class="st12" d="M840.8,453.4l87.2,68.8c5.6,4.4,13.8,3.5,18.2-2.2l0,0c4.4-5.6,3.5-13.8-2.2-18.2L856.9,433
								c-5.6-4.4-13.8-3.5-18.2,2.2l0,0C834.2,440.8,835.1,449,840.8,453.4z"/>
							<path class="st12" d="M862.2,516c29.3,23.1,53.3,19.8,61.1,9.8l0,0l-84.9-67l0,0C830.6,468.7,832.9,492.9,862.2,516z"/>
							<g>
								<path class="st0" d="M937.3,445.6L937.3,445.6c1.8,1,4.1,0.3,5.2-1.5c9.6-15.4,53.8-80.7,110.8-72.1c2,0.3,4-1.1,4.5-3.2
									l0,0c0.5-2.1-0.7-4.3-2.8-4.6c-62.6-9.6-108.7,59.1-119,76C934.8,442.2,935.4,444.6,937.3,445.6z"/>
							</g>
							<g>
								<path class="st0" d="M913,426.4L913,426.4c-1.4-1.6-1.3-3.9,0.2-5.4c12.8-12.9,66-71.1,44.4-124.6c-0.8-1.9,0.2-4.1,2-5.1
									l0,0c2-1,4.3-0.3,5.1,1.7c23.9,58.6-32.3,119.5-46.2,133.4C916.9,428,914.4,428,913,426.4z"/>
							</g>
							<g>
								<path class="st0" d="M1037.5,370.4l14.7,2c1.8,0.3,2.7-1,1.8-2.7l0,0c-0.8-1.6-2.8-3.1-4.5-3.3l-8.2-1.1
									c-0.6-0.1-1.3-0.6-1.5-1.2l-5.5-13.2c-0.2-0.5-0.8-1-1.4-1.1l-15.9-3.4c-0.6-0.1-1.2-0.6-1.4-1.1l-5.7-13.6
									c-0.2-0.5-0.9-1.1-1.5-1.2l-14.7-2.4c-0.6-0.1-1.2-0.5-1.4-1.1l-7.8-15.4c-0.3-0.5-0.9-1-1.5-1.1l-12.9-1.4
									c-0.6-0.1-1.2-0.6-1.5-1.1l-4.5-9.5c-0.8-1.6-2.8-3.1-4.4-3.3l0,0c-1.8-0.2-2.6,1-1.8,2.7l7.4,15.5c0.3,0.5,0.9,1,1.5,1.1
									l13.1,1.4c0.6,0.1,1.2,0.5,1.5,1.1l7.6,15c0.3,0.5,0.9,1,1.4,1.1l14.2,2.3c0.6,0.1,1.2,0.6,1.5,1.2l5.6,13.3
									c0.2,0.5,0.8,1,1.4,1.1l15.9,3.4c0.6,0.1,1.2,0.6,1.4,1.1l5.8,13.7C1036.2,369.8,1036.9,370.3,1037.5,370.4z"/>
							</g>
						</g>
					</g>
				</g>
				<g class="st7">
					<ellipse class="st8" cx="559.9" cy="525.6" rx="83.3" ry="41.7"/>
				</g>
				<g class="st7">
					<path class="st8" d="M1360.7,525.6c0,23,37.3,41.7,83.4,41.7c46,0,83.3-18.7,83.3-41.7c0-23-37.3-41.7-83.3-41.7
						C1398,483.9,1360.7,502.6,1360.7,525.6z"/>
				</g>
				<g class="st7">
					<path class="st8" d="M571.5,627.4c0,9.5,10.7,17.2,24,17.2c13.3,0,24-7.7,24-17.2c0-9.5-10.7-17.2-24-17.2
						C582.2,610.2,571.5,617.9,571.5,627.4z"/>
				</g>
				<g class="st7">
					<path class="st8" d="M1378.8,627.4c0,9.8,11.2,17.8,25,17.8c13.8,0,25-8,25-17.8c0-9.8-11.2-17.8-25-17.8
						C1390,609.6,1378.8,617.5,1378.8,627.4z"/>
				</g>
			</g>
			<g>
				<g>
					<g>
						<defs>
							<ellipse id="SVGID_5_" cx="991.5" cy="346.7" rx="321" ry="220.6"/>
						</defs>
						<clipPath id="SVGID_6_">
							<use xlink:href="#SVGID_5_"  style="overflow:visible;"/>
						</clipPath>
					</g>
				</g>
			</g>
		</g>
		<g>
			<g>
				<path class="st13" d="M753.4,1203.5c4.2,11.8,8.2,20.3,0.4,23.6c-6.9,2.9-25.2,0.6-25.2,0.6c-5.9-6.3,2.6-23.4,2.6-23.4
					C742,1202.2,753.4,1203.5,753.4,1203.5z"/>
				<path class="st14" d="M710,861.5c0,0,63.6,42.4,55.9,343c-12.2,7.6-30.5,3.8-30.5,3.8s-8.7-154.2-22.9-216.4
					C697.4,926.1,710,861.5,710,861.5z"/>
				<path class="st15" d="M662.8,1221h149.1c2.4,0,4.4-2,4.4-4.4v-106.8c0-2.4-2-4.4-4.4-4.4H662.8c-2.4,0-4.4,2-4.4,4.4v106.8
					C658.4,1219,660.4,1221,662.8,1221z"/>
				<path class="st13" d="M758.3,1221c-0.7-12-15.5-18.7-24.5-16.9c-9,1.8-16.9,21.7-12.8,24.5C725,1231.4,758,1227,758.3,1221z"/>
				<path class="st16" d="M812.9,1191.6h6.6c1.7,0,3-1.3,3-3v-50.9c0-1.7-1.3-3-3-3h-6.6c-1.7,0-3,1.3-3,3v50.9
					C809.9,1190.3,811.3,1191.6,812.9,1191.6z"/>
				<polygon class="st13" points="683.2,1727 683.2,1700.4 713.7,1692 720.4,1694.9 721.6,1727 712,1755 				"/>
				<polygon class="st17" points="749.4,1180.7 727.8,1707.8 677.5,1707.8 633.1,1309.4 691.3,1130.9 				"/>
				<polygon class="st13" points="488.5,1727 488.5,1700.4 519,1692 525.8,1694.9 526.9,1727 517.3,1755 				"/>
				<path class="st13" d="M882.8,1040.5c-0.9,0.8-0.6,2.3,0.6,2.6c8.9,2.4,36.8,10.2,36.7,12.6c-0.1,2.9-25.2-3.5-26.7-1.3
					c-1.5,2.2,23.2,7.8,22.6,10.8c-0.6,3-22.9-2.8-23.6-1.6c-0.7,1.2,20.1,9,20.8,11c0.7,2-22.5-3.7-23.8-2.5
					c-1.3,1.2,13.4,10.4,12.8,11.8c-0.6,1.4-0.9,2.4-39.9-9l-15.2-5.1l-10.2-10.9l7.6-16.2c0,0,48.9-18.6,50.7-17.4
					C896.9,1026.7,896.5,1028.4,882.8,1040.5z"/>
				<path class="st18" d="M727.8,1181.8l-197.2,525.9l-48.3-3.9c0,0,60.1-482.2,96.1-528c36-45.9,114.8-36,114.8-36L727.8,1181.8z"
					/>
				<path class="st13" d="M705.9,869.8c0,0-24.4,14.4-43.3,0l0,0l4.5-35.3l37.8-7.8L705.9,869.8L705.9,869.8z"/>
				<path class="st19" d="M705.4,849.8l-0.6-23l-38.3,11.9l-1.1,8.6C673.9,850.4,690.1,854.2,705.4,849.8z"/>
				<path class="st20" d="M852.4,1022.9c-19.3,4.6-64.7,2.3-99.1-0.4c-0.3-28.5-1.4-55-3.9-73.6c-8.9-66.1-39.5-87.4-39.5-87.4
					c-30.5,3.6-51.7-12.6-51.7-12.6c-40.9,0.5-64.6,22.7-64.6,22.7c-62.8,54.2-15.3,165.2-15.3,165.2l-17.3,146.6
					c38.9,13.3,198.1,5.3,198.1,5.3s-7.8-46.7-6.6-94.2c50.5-2.8,99.8-10.9,99.8-10.9C854.4,1072.7,852.4,1022.9,852.4,1022.9z"/>
				<path class="st0" d="M642.3,924.2c-0.1,21.9,9.5,43.1,24.7,58.2c7.6,7.6,16.4,13.9,25.9,18.9c9.5,5,19.5,9.2,30,12
					c1.3,0.4,2.6,0.8,3.9,1.2l3.9,1c2.6,0.6,5.2,1.3,7.9,1.9l8,1.5l4,0.8l4,0.6c5.4,0.8,10.7,1.6,16.2,2l8.1,0.8
					c2.7,0.2,5.4,0.3,8.1,0.5c21.7,1.1,43.6,0.7,65.4-0.4c-21.7,2.8-43.6,4.4-65.6,3.9c-21.9-0.6-44-2.9-65.3-9.2
					c-10.6-3-21-7.3-30.7-12.6c-9.7-5.4-18.8-12.1-26.4-20.2c-3.9-4-7.2-8.5-10.2-13.2c-2.9-4.8-5.4-9.7-7.4-14.9
					c-1.9-5.2-3.3-10.6-4.1-16C642,935.2,641.7,929.6,642.3,924.2z"/>
				<path class="st0" d="M852.4,1083.6c-23.8,5.3-48.1,8.9-72.4,11c-24.4,2.2-48.9,2.8-73.4,1.3c-24.4-1.7-49-5.3-72.1-13.9
					c-11.5-4.3-22.7-9.9-32.5-17.4c-9.7-7.5-18.2-16.9-23.6-27.9c6.3,10.5,14.9,19.3,24.9,26.1c9.9,6.9,21,12,32.4,15.9
					c11.4,3.9,23.2,6.7,35.2,8.7c11.9,2,24,3.3,36.1,4.1c24.2,1.6,48.6,1.1,72.8-0.3c12.1-0.8,24.3-1.8,36.4-3
					C828.3,1087,840.4,1085.4,852.4,1083.6z"/>
				<g>
					<path class="st17" d="M766.4,1761l-88.7-0.3c-2.7,0-5-2.2-4.9-5l0,0c0-2.7,2.2-5,5-4.9l88.7,0.3c2.7,0,5,2.2,4.9,5l0,0
						C771.4,1758.8,769.1,1761,766.4,1761z"/>
					<path class="st20" d="M677.4,1720.6l-3.3,27.6c-0.4,3.4,1.5,6.5,4,6.5l86.9,0.3c2.3,0,4.5-1.4,5.7-4c1.2-2.7,1.5-6.8-2.4-12.3
						c-7.7-10.9-32.8-13.7-45.4-22.9c-0.3-0.2-0.6-0.3-0.9-0.3l-40-0.1C679.7,1715.3,677.7,1717.6,677.4,1720.6z"/>
					<g>
						<path class="st0" d="M716.2,1731.4L716.2,1731.4c-0.6-0.4-0.9-1.4-0.5-2.3c1.7-3.8,7.1-13,17.9-11c0.6,0.1,1,0.9,0.9,1.8l0,0
							c-0.1,0.8-0.7,1.4-1.3,1.3c-9.7-1.7-14.3,6.4-15.7,9.6C717.4,1731.5,716.7,1731.8,716.2,1731.4z"/>
					</g>
					<g>
						<path class="st0" d="M725.2,1735L725.2,1735c-0.6-0.4-0.9-1.4-0.5-2.3c1.7-3.8,7.1-13,17.9-11c0.6,0.1,1,0.9,0.9,1.8l0,0
							c-0.1,0.8-0.7,1.4-1.3,1.3c-9.7-1.7-14.3,6.4-15.7,9.6C726.4,1735.1,725.8,1735.3,725.2,1735z"/>
					</g>
					<g>
						<path class="st0" d="M733.6,1738.4L733.6,1738.4c-0.6-0.4-0.9-1.4-0.5-2.3c1.7-3.8,7.1-13,17.9-11c0.6,0.1,1,0.9,0.9,1.8l0,0
							c-0.1,0.8-0.7,1.4-1.3,1.3c-9.7-1.7-14.3,6.4-15.7,9.6C734.8,1738.4,734.1,1738.7,733.6,1738.4z"/>
					</g>
				</g>
				<g>
					<path class="st17" d="M573.7,1761l-88.7-0.3c-2.7,0-5-2.2-4.9-5l0,0c0-2.7,2.2-5,5-4.9l88.7,0.3c2.7,0,5,2.2,4.9,5l0,0
						C578.7,1758.8,576.4,1761,573.7,1761z"/>
					<path class="st20" d="M484.7,1720.6l-3.3,27.6c-0.4,3.4,1.5,6.5,4,6.5l86.9,0.3c2.3,0,4.5-1.4,5.7-4c1.2-2.7,1.5-6.8-2.4-12.3
						c-7.7-10.9-32.8-13.7-45.4-22.9c-0.3-0.2-0.6-0.3-0.9-0.3l-40-0.1C487,1715.3,485,1717.6,484.7,1720.6z"/>
					<g>
						<path class="st0" d="M523.5,1731.4L523.5,1731.4c-0.6-0.4-0.9-1.4-0.5-2.3c1.7-3.8,7.1-13,17.9-11c0.6,0.1,1,0.9,0.9,1.8l0,0
							c-0.1,0.8-0.7,1.4-1.3,1.3c-9.7-1.7-14.3,6.4-15.7,9.6C524.7,1731.5,524,1731.8,523.5,1731.4z"/>
					</g>
					<g>
						<path class="st0" d="M532.5,1735L532.5,1735c-0.6-0.4-0.9-1.4-0.5-2.3c1.7-3.8,7.1-13,17.9-11c0.6,0.1,1,0.9,0.9,1.8l0,0
							c-0.1,0.8-0.7,1.4-1.3,1.3c-9.7-1.7-14.3,6.4-15.7,9.6C533.7,1735.1,533.1,1735.3,532.5,1735z"/>
					</g>
					<g>
						<path class="st0" d="M540.9,1738.4L540.9,1738.4c-0.6-0.4-0.9-1.4-0.5-2.3c1.7-3.8,7.1-13,17.9-11c0.6,0.1,1,0.9,0.9,1.8l0,0
							c-0.1,0.8-0.7,1.4-1.3,1.3c-9.7-1.7-14.3,6.4-15.7,9.6C542,1738.4,541.4,1738.7,540.9,1738.4z"/>
					</g>
				</g>
				<g>
					<path class="st21" d="M741.5,744.9l-0.1,33.2l-17.7-41.4c0,0,14.1-9.8,15.2-7.2C740,732.1,741.5,744.9,741.5,744.9z"/>
					<path class="st22" d="M731.8,779.2c-2,6.6,0.7,13.3,5.9,14.9c5.3,1.6,11.2-2.5,13.2-9.1c2-6.6-0.7-13.3-5.9-14.9
						C739.7,768.6,733.8,772.6,731.8,779.2z"/>
					<path class="st13" d="M739.6,782.6c0-1.6,0.1-3.3,0.2-4.9c0.5-6.6-0.1-13.5-2.3-20.4c-7-22.4-28.3-37.7-51.8-37.3
						c-31.6,0.6-55.2,27.8-52.3,58.4c-3.5-1.5-7.3-1.6-10.4,0.2c-6,3.4-7.5,12.3-3.2,19.9c4.3,7.6,12.6,10.9,18.7,7.5
						c0.8-0.5,1.6-1.1,2.2-1.7c5.1,25.8,28.3,43.9,53.8,41.1C719.7,842.5,739.5,822.8,739.6,782.6z"/>
					<path class="st22" d="M698.5,771.8c0.6,3,1.1,6,1.7,8.8c0.6,2.8,1.4,5.8,2.9,7.6l0.3,0.3c0.1,0.1,0.1,0.2,0.3,0.4
						c0.3,0.3,0.7,0.6,1,1c0.6,0.8,1.1,1.7,1.2,2.6c0.4,2-0.4,3.9-1.5,5.2c-2.3,2.7-5.8,3.5-8.8,3.2c2.9-1,5.5-2.4,6.9-4.6
						c0.6-1.1,0.9-2.2,0.6-3.2c-0.1-0.5-0.4-0.9-0.7-1.4c-0.1-0.2-0.4-0.4-0.6-0.6l-0.5-0.4l-0.5-0.5c-1.2-1.5-1.8-3-2.2-4.6
						c-0.4-1.6-0.6-3.1-0.7-4.7C697.6,777.8,697.8,774.7,698.5,771.8z"/>
					<path class="st21" d="M681.6,778.5c0.3,2.6-1.6,4.9-4.1,5.1c-2.6,0.3-4.9-1.6-5.1-4.1c-0.3-2.6,1.6-4.9,4.1-5.1
						C679.1,774.1,681.4,775.9,681.6,778.5z"/>
					<path class="st21" d="M721.7,776.7c0.3,2.6-1.6,4.9-4.1,5.1c-2.6,0.3-4.9-1.6-5.1-4.1c-0.3-2.6,1.6-4.9,4.1-5.1
						C719.1,772.3,721.4,774.2,721.7,776.7z"/>
					<path class="st22" d="M678.8,810.9c1.4,0.9,2.8,1.6,4.3,2.3c1.5,0.7,2.9,1.3,4.5,1.7c3,0.9,6.2,1.5,9.4,1.3
						c3.2-0.1,6.3-0.9,9.2-2.1c2.9-1.3,5.5-3.2,8-5.3c-1.1,1.2-2.2,2.4-3.5,3.4c-1.3,1-2.7,1.9-4.1,2.7c-1.5,0.8-3,1.4-4.6,1.8
						c-1.6,0.4-3.3,0.6-4.9,0.7c-3.3,0.1-6.6-0.5-9.7-1.7C684.2,814.6,681.3,813,678.8,810.9z"/>
					<path class="st21" d="M685.8,767.2c-2.5-0.4-4.8-0.6-7-0.6c-2.2,0-4.4,0.3-6.4,0.9c-2,0.6-4,1.4-5.9,2.6
						c-1,0.5-1.8,1.3-2.8,1.9c-1,0.7-1.8,1.5-2.9,2.2c0.4-1.2,0.9-2.3,1.6-3.4c0.7-1,1.4-2.1,2.4-2.9c1.8-1.9,4.2-3.1,6.7-3.9
						c2.5-0.7,5.2-0.8,7.7-0.2C681.6,764.4,684,765.5,685.8,767.2z"/>
					<path class="st21" d="M706.4,766.3c1.6-1.9,3.8-3.3,6.2-4.2c2.4-0.9,5.1-1.1,7.7-0.7c2.6,0.4,5.1,1.4,7.1,3.1
						c1.1,0.7,1.9,1.7,2.7,2.6c0.8,1,1.4,2.1,1.9,3.2c-1.2-0.6-2.1-1.3-3.1-1.8c-1.1-0.5-2-1.2-3-1.5c-2-1-4.1-1.5-6.2-1.9
						c-2.1-0.3-4.3-0.4-6.5-0.1C711.1,765.2,708.8,765.6,706.4,766.3z"/>
					<path class="st21" d="M737.7,714.2c0,0,15.6-1.9-2.8-12.5c-18.3-10.5-64.4-19-90,0.2c0,0-7.5-11-15.1-6.9
						c-7.6,4.1,7,10.2,7,10.2s-10.4,1.3-12.7,6.9c-1.7,4.1,4.6,3.3,8,2.6c-5.7,1.9-26,19.7-7.5,63.4c3.9-1.5,21.5-38.3,21.5-38.3
						s57,20.8,48.1-1.5c0,0,59.6,25.3,47.5-1.5C741.7,736.7,763,734.9,737.7,714.2z"/>
					<path class="st21" d="M624.6,778.2c0,0,4.1-2.2,9.3,0.8c5.2,3,6.8,16.1,6.8,16.1s24.5,10.9,12.6-49.5
						c-12.7-64.3-17.8,8.1-17.8,8.1L624.6,778.2z"/>
				</g>
			</g>
			<g>
				<polygon class="st13" points="1295.3,1727.6 1295.3,1704.9 1269.4,1697.7 1263.6,1700.2 1262.6,1727.6 1270.8,1751.4 				"/>
				<path class="st21" d="M1211.2,1760.1l89.9,0.9c1.5,0,2.8-1.2,2.8-2.7l0-3.9c0-1.5-1.2-2.8-2.7-2.8l-89.9-0.9
					c-1.5,0-2.8,1.2-2.8,2.7l0,3.9C1208.4,1758.8,1209.6,1760.1,1211.2,1760.1z"/>
				<path class="st15" d="M1299.8,1722.7l2.9,26.4c0.4,3.3-1.5,6.2-3.9,6.2l-84.1-0.8c-2.2,0-4.3-1.4-5.5-3.9
					c-1.2-2.6-1.3-6.5,2.5-11.7c7.5-10.2,31.5-12.7,43.9-21.1c0.4-0.3,1-0.5,1.5-0.5l38.3,0.4
					C1297.6,1717.6,1299.5,1719.8,1299.8,1722.7z"/>
				<g>
					<path class="st21" d="M1262.1,1732.6L1262.1,1732.6c0.6-0.4,0.8-1.4,0.5-2.1c-1.6-3.6-6.7-12.5-17.2-10.8
						c-0.6,0.1-1,0.9-0.9,1.7l0,0c0.1,0.8,0.6,1.3,1.2,1.2c9.4-1.5,13.7,6.3,15,9.3C1261,1732.6,1261.6,1732.9,1262.1,1732.6z"/>
				</g>
				<g>
					<path class="st21" d="M1253.3,1735.9L1253.3,1735.9c0.6-0.4,0.8-1.4,0.5-2.1c-1.6-3.6-6.7-12.5-17.2-10.8
						c-0.6,0.1-1,0.9-0.9,1.7l0,0c0.1,0.8,0.6,1.3,1.2,1.2c9.4-1.5,13.7,6.3,15,9.3C1252.2,1735.9,1252.8,1736.2,1253.3,1735.9z"/>
				</g>
				<g>
					<path class="st21" d="M1245.2,1739L1245.2,1739c0.6-0.4,0.8-1.4,0.5-2.1c-1.6-3.6-6.7-12.5-17.2-10.8c-0.6,0.1-1,0.9-0.9,1.7
						l0,0c0.1,0.8,0.6,1.3,1.2,1.2c9.4-1.5,13.7,6.3,15,9.3C1244.1,1739,1244.7,1739.3,1245.2,1739z"/>
				</g>
				<path class="st23" d="M1277.6,1751.5c6-15.7,14.8-19.2,20.8-19.5c1.4-0.1,2.5,1,2.7,2.3l1.6,14.7c0.4,3.3-1.5,6.2-3.9,6.2
					l-18.8-0.2C1278.2,1755,1276.9,1753.2,1277.6,1751.5z"/>
				<polygon class="st13" points="1476.5,1727.6 1476.5,1704.9 1450.5,1697.7 1444.7,1700.2 1443.8,1727.6 1451.9,1751.4 				"/>
				<path class="st21" d="M1392.4,1760.1l89.9,0.9c1.5,0,2.8-1.2,2.8-2.7l0-3.9c0-1.5-1.2-2.8-2.7-2.8l-89.9-0.9
					c-1.5,0-2.8,1.2-2.8,2.7l0,3.9C1389.6,1758.8,1390.8,1760.1,1392.4,1760.1z"/>
				<path class="st15" d="M1481,1722.7l2.9,26.4c0.4,3.3-1.5,6.2-3.9,6.2l-84.1-0.8c-2.2,0-4.3-1.4-5.5-3.9
					c-1.2-2.6-1.3-6.5,2.5-11.7c7.5-10.2,31.5-12.7,43.9-21.1c0.4-0.3,1-0.5,1.5-0.5l38.3,0.4
					C1478.8,1717.6,1480.7,1719.8,1481,1722.7z"/>
				<g>
					<path class="st21" d="M1443.3,1732.6L1443.3,1732.6c0.6-0.4,0.8-1.4,0.5-2.1c-1.6-3.6-6.7-12.5-17.2-10.8
						c-0.6,0.1-1,0.9-0.9,1.7l0,0c0.1,0.8,0.6,1.3,1.2,1.2c9.4-1.5,13.7,6.3,15,9.3C1442.2,1732.6,1442.8,1732.9,1443.3,1732.6z"/>
				</g>
				<g>
					<path class="st21" d="M1434.5,1735.9L1434.5,1735.9c0.6-0.4,0.8-1.4,0.5-2.1c-1.6-3.6-6.7-12.5-17.2-10.8
						c-0.6,0.1-1,0.9-0.9,1.7l0,0c0.1,0.8,0.6,1.3,1.2,1.2c9.4-1.5,13.7,6.3,15,9.3C1433.4,1735.9,1434,1736.2,1434.5,1735.9z"/>
				</g>
				<g>
					<path class="st21" d="M1426.4,1739L1426.4,1739c0.6-0.4,0.8-1.4,0.5-2.1c-1.6-3.6-6.7-12.5-17.2-10.8c-0.6,0.1-1,0.9-0.9,1.7
						l0,0c0.1,0.8,0.6,1.3,1.2,1.2c9.4-1.5,13.7,6.3,15,9.3C1425.3,1739,1425.8,1739.3,1426.4,1739z"/>
				</g>
				<path class="st23" d="M1458.8,1751.5c6-15.7,14.8-19.2,20.8-19.5c1.4-0.1,2.5,1,2.7,2.3l1.6,14.7c0.4,3.3-1.5,6.2-3.9,6.2
					l-18.8-0.2C1459.3,1755,1458.1,1753.2,1458.8,1751.5z"/>
				<path class="st13" d="M985.8,1040.9c0.9,0.9,0.4,2.4-0.9,2.7c-9.7,1.8-40.1,7.6-40.2,10.1c-0.1,3,27.2-1.5,28.5,1
					c1.4,2.5-25.4,6.2-25,9.5c0.4,3.3,24.6-0.9,25.3,0.4c0.6,1.3-22.2,7.8-23.1,9.9c-0.9,2.1,24.3-1.9,25.5-0.5
					c1.2,1.4-15.2,9.9-14.7,11.4c0.6,1.5,0.7,2.6,43.3-6l16.6-4.1l11.8-10.7l-6.7-17.9c0,0-50.4-24.1-52.4-22.9
					C972.1,1024.9,972.3,1026.8,985.8,1040.9z"/>
				<g>
					<g>
						<path class="st24" d="M1260.6,874.5l-117.2,130.3l-127.2,32c0,0-3.8,17.7,3.2,42.2c0.1,0.4,125.9-3.4,143.2-10.3
							c22.2-8.9,112.7-100.2,112.7-100.2L1260.6,874.5z"/>
					</g>
				</g>
				<path class="st10" d="M1391.8,774.5c0,0,12.5-52.3-16.4-72.1c-28.9-19.8-59.6-17.9-80.6-6.3c-21,11.6-33.8,52.5-24.5,76
					l69.6-21.8L1391.8,774.5z"/>
				<polygon class="st13" points="1358.3,821.1 1360.7,880.2 1308.9,875.5 1317.1,823.6 				"/>
				<path class="st22" d="M1313.2,848.3l3.9-24.7l41.2-2.5l0.8,20.5C1350.6,849.3,1335.6,857.1,1313.2,848.3z"/>
				<path class="st22" d="M1284.3,778.1c2.8,6.6,0.9,13.8-4.4,16.1c-5.3,2.3-11.9-1.2-14.7-7.8c-2.8-6.6-0.9-13.8,4.4-16.1
					C1274.9,768,1281.5,771.5,1284.3,778.1z"/>
				<path class="st13" d="M1276.6,782.5c-0.2-1.7-0.5-3.4-0.8-5.1c-1.3-6.8-1.4-14,0-21.4c4.7-23.9,24.9-42.3,49.1-44.6
					c32.7-3.1,60.3,22.2,60.9,54.2c3.4-2,7.3-2.5,10.8-1.1c6.7,2.8,9.2,11.8,5.7,20.2c-3.5,8.3-11.8,12.8-18.4,10
					c-0.9-0.4-1.8-0.9-2.5-1.5c-2.2,27.3-24.1,48.7-50.8,48.8C1304.3,842.1,1281.4,824.1,1276.6,782.5z"/>
				<path class="st22" d="M1317.8,766.5c-0.2,3.2-0.4,6.3-0.7,9.3c-0.3,3-0.8,6.1-2.1,8.2l-0.3,0.3c-0.1,0.1-0.1,0.2-0.3,0.4
					c-0.3,0.4-0.7,0.7-0.9,1.2c-0.5,0.8-0.9,1.8-1,2.9c-0.2,2.1,0.9,4,2.2,5.2c2.7,2.5,6.4,2.9,9.5,2.3c-3.1-0.7-6-1.9-7.7-4
					c-0.8-1-1.2-2.2-1-3.2c0.1-0.5,0.3-1,0.6-1.5c0.1-0.3,0.4-0.4,0.5-0.7l0.4-0.5l0.5-0.6c1.1-1.7,1.5-3.4,1.7-5
					c0.2-1.7,0.3-3.3,0.2-4.9C1319.4,772.7,1318.9,769.5,1317.8,766.5z"/>
				<path class="st21" d="M1336,771.5c0,2.7,2.2,4.8,4.9,4.8c2.7,0,4.8-2.2,4.8-4.9c0-2.7-2.2-4.8-4.9-4.8
					C1338.2,766.6,1336,768.8,1336,771.5z"/>
				<path class="st21" d="M1294.4,774.4c0,2.7,2.2,4.8,4.9,4.8c2.7,0,4.8-2.2,4.8-4.9c0-2.7-2.2-4.8-4.9-4.8
					C1296.6,769.5,1294.4,771.7,1294.4,774.4z"/>
				<path class="st10" d="M1330.4,760.3c2.5-0.7,4.8-1.1,7.2-1.4c2.3-0.3,4.6-0.2,6.7,0.1c2.2,0.4,4.3,0.9,6.4,2
					c1.1,0.4,2,1.1,3.2,1.6c1.1,0.6,2,1.3,3.2,1.9c-0.6-1.2-1.2-2.3-2-3.3c-0.9-1-1.7-2-2.8-2.8c-2.1-1.7-4.7-2.8-7.4-3.2
					c-2.7-0.4-5.5-0.2-8,0.7C1334.4,756.9,1332.1,758.3,1330.4,760.3z"/>
				<path class="st10" d="M1309,761.8c-1.9-1.8-4.3-3-6.9-3.6c-2.6-0.6-5.4-0.6-8,0.2c-2.6,0.7-5.1,2.1-7,4c-1,0.9-1.7,2-2.5,3.1
					c-0.7,1.1-1.2,2.3-1.6,3.5c1.1-0.7,2-1.6,3-2.3c1-0.6,1.9-1.4,3-2c1.9-1.3,4-2.1,6.1-2.7c2.1-0.6,4.4-0.9,6.7-0.9
					C1304.1,761.2,1306.4,761.4,1309,761.8z"/>
				<path class="st10" d="M1385,766.4c3.2-2.7,5.6-2.5,5.6-2.5l-1.4-16.9l-5.2-10.2c0,0-20.5-27.5-21.2-28.2
					c-0.7-0.7-16.4-9.6-17.4-10.1c-1-0.5-23,2.8-23,2.8s-38.7-8.1-32.3,12.2c6.4,20.3,34.7,31,36.1,30.2c-4.6-4.6-5-17.5-5-17.5
					C1341.3,747.9,1379.1,764,1385,766.4z"/>
				<path class="st0" d="M1305.6,803.3c1.1,6.1,6.7,10.8,13.7,11c6.9,0.2,12.8-4.2,14.2-10.3L1305.6,803.3z"/>
				<path class="st13" d="M1373.9,866.2l-73-0.2l-9.2,43.1l40,104.8c0,0,40-43.1,40-49.3c0-6.2,18.5-52.4,15.4-58.5
					C1384.1,899.9,1373.9,866.2,1373.9,866.2z"/>
				<path class="st25" d="M1241.1,1163.7c30.9,45.4,92.6,111,92.6,111l0,0l-28.5,440.2c0,0-41.2,4.4-55.4-6.3
					C1249.9,1708.6,1239.1,1291.2,1241.1,1163.7z"/>
				<path class="st26" d="M1252.8,1180.6c0.1-6.4-11.9,12.5-11.7,7.4c4.7-106.9,154.6-17.3,154.6-17.3l31.5-6.5l57.8,548.9
					c0,0-37.6,8.1-59.2,0l-92.2-433.1C1333.7,1280.1,1300.7,1266.2,1252.8,1180.6z"/>
				<g>
					<path class="st27" d="M1388.6,1438.1c221.6-9.5,180.4,28.1,181.4-127.6l-210.1,4.7C1363.6,1410.1,1353.5,1435.4,1388.6,1438.1z
						"/>
					<path class="st27" d="M1493.3,1271.3l0.6,25.3c0.1,2.7-2.1,5-4.8,5.1h0c-2.7,0.1-5-2.1-5.1-4.8l-0.6-24.4
						c-0.2-7.1-6.1-12.8-13.2-12.6l-20.5,0.5c-7.1,0.2-12.8,6.1-12.6,13.2l0.6,24.4c0.1,2.7-2.1,5-4.9,5.1l0,0
						c-2.7,0.1-5-2.1-5.1-4.8l-0.6-25.3c-0.3-12.5,9.6-23,22.2-23.3l20.8-0.5C1482.6,1248.8,1493,1258.7,1493.3,1271.3z"/>
					<path class="st28" d="M1363.8,1340.9c0,0,174.2-3.9,200.4-4.5c14.7-0.8,12.4-4,11.8-35.5c0.7-32.7,3.2-17.4-196.9-16.3
						c-20.4,1-27.6-4-25.3,23C1354.9,1327,1350.8,1339.9,1363.8,1340.9z"/>
					
						<rect x="1423.7" y="1333.6" transform="matrix(0.9998 -2.228484e-02 2.228484e-02 0.9998 -29.5171 32.9138)" class="st20" width="76.6" height="14.4"/>
				</g>
				<path class="st13" d="M1446,1267.8c1.1-0.6,2.3-0.6,2.7,0.6c2.4,6.4,4.7,8.6,6.7,8.7c3,0.2,3.5-2.4,5.1-2.6
					c2.1-0.2,3.4,1.5,5.7,1.1c2.7-0.4,2.5-2.5,3.8-3.3c1.3-0.8,2.9,1.1,5.2,0.2c1.3-0.5,1.5-2.3,2.2-2.7c1.1-0.7,2.3,1.8,4.3,0.5
					c1.4-0.8,3.3-16.2-1.2-31.7l-5.5-16.2l-11.7-10.8l-17.2,8.2c0,0-8.1,23.4-8.1,32.4C1438,1263.9,1440.4,1271,1446,1267.8z"/>
				<path class="st29" d="M1367.4,873c0,0-36.4,22.1-65.3,0c0,0-16.4,43.4-14.9,44.9c1.6,1.6,18.7,48.3,18.7,49.9
					c0,1.6,20.2,20.3,29.6,6.2c9.3-14,15.6-12.5,28-42.1c12.5-29.6,21.8-39,18.7-42.1C1379.1,886.8,1367.4,873,1367.4,873z"/>
				<path class="st15" d="M1371.7,866c0,0,73.9,6.2,89.3,30.8c15.4,24.7,52.4,166.4,49.3,209.5c-3.1,43.1-30.8,126.3-30.8,126.3
					s-24.6,3.1-33.9-12.3c0,0,18.5-117.1,15.4-126.3c-3.1-9.2-37-104.8-37-104.8l6.2,188c0,0-73.9,46.2-191,9.2
					c0,0-15.4-305.1,24.6-314.3l37-6.2l15.4,89.4L1371.7,866z"/>
			</g>
		</g>
	</g>
</g>
</svg>
