<svg height="512pt" viewBox="0 0 512 512.001" width="512pt" xmlns="http://www.w3.org/2000/svg"><path d="m383.921875 21.988281c-17.335937 17.335938-24.425781 40.875-21.21875 63.65625l-37.980469 37.976563-27.957031-18.636719c-6.890625-4.597656-16.207031-2.734375-20.804687 4.160156-4.59375 6.894531-2.730469 16.210938 4.160156 20.804688l22.964844 15.3125-20.796876 20.796875-27.957031-18.640625c-6.890625-4.59375-16.207031-2.734375-20.804687 4.160156-4.59375 6.894531-2.730469 16.210937 4.164062 20.808594l22.960938 15.308593-20.796875 20.796876-27.957031-18.640626c-6.890626-4.59375-16.207032-2.730468-20.804688 4.164063-4.59375 6.894531-2.730469 16.207031 4.164062 20.804687l22.964844 15.308594-26.546875 26.546875-21.21875-21.21875c-5.855469-5.859375-15.355469-5.859375-21.214843 0l-31.828126 31.828125c-17.589843 17.589844-17.589843 46.058594 0 63.648438l-31.855468 31.855468c-22.5625-3.1875-46.304688 3.871094-63.621094 21.1875-29.25 29.25-29.25 76.839844 0 106.089844 29.246094 29.246094 76.835938 29.246094 106.085938 0 17.316406-17.316406 24.375-41.0625 21.1875-63.625l31.855468-31.855468c17.589844 17.589843 46.058594 17.59375 63.652344 0l31.824219-31.824219c5.859375-5.859375 5.859375-15.359375 0-21.21875l-21.214844-21.21875 39.273437-39.273438 27.957032 18.636719c6.867187 4.578125 16.191406 2.765625 20.804687-4.160156 4.597657-6.894532 2.734375-16.210938-4.160156-20.804688l-22.964844-15.308594 20.796875-20.796874 27.957032 18.636718c6.867187 4.578125 16.1875 2.765625 20.804687-4.160156 4.597656-6.894531 2.734375-16.210938-4.160156-20.804688l-22.964844-15.308593 20.796875-20.796875 27.957031 18.636718c6.871094 4.578126 16.195313 2.757813 20.808594-4.160156 4.59375-6.894531 2.730469-16.210937-4.164063-20.808594l-22.964843-15.308593 25.25-25.246094c22.824219 3.214844 46.355469-3.917969 63.652343-21.21875 29.316407-29.316406 29.324219-76.769531 0-106.089844-29.3125-29.316406-76.765624-29.320312-106.085937 0zm-277.117187 446.859375c-17.550782 17.546875-46.105469 17.546875-63.652344 0-17.550782-17.550781-17.550782-46.105468 0-63.652344 17.546875-17.550781 46.101562-17.550781 63.652344 0 17.546874 17.546876 17.546874 46.101563 0 63.652344zm30.757812-73.195312c-2.730469-4.128906-5.910156-8.042969-9.542969-11.675782-3.632812-3.632812-7.546875-6.8125-11.675781-9.542968l22.285156-22.285156 21.21875 21.21875zm85.933594-22.285156c-5.847656 5.851562-15.367188 5.851562-21.214844 0l-63.652344-63.652344c-5.847656-5.847656-5.847656-15.367188 0-21.214844l21.214844-21.21875 84.871094 84.871094zm10.609375-74.257813-21.214844-21.21875 30.789063-30.789063 25.460937 16.972657zm56.671875-56.671875-25.460938-16.972656 20.796875-20.796875 25.460938 16.972656zm42.433594-42.433594-25.460938-16.976562 20.796875-20.796875 25.460937 16.976562zm42.433593-42.4375-25.460937-16.972656 24.1875-24.1875c2.757812 4.152344 5.945312 8.0625 9.550781 11.667969s7.515625 6.792969 11.667969 9.550781zm93.148438-50.710937c-17.589844 17.589843-46.0625 17.59375-63.652344 0-17.589844-17.585938-17.59375-46.058594 0-63.648438 17.585937-17.589843 46.058594-17.59375 63.652344 0 17.585937 17.585938 17.59375 46.058594 0 63.648438zm0 0"/><path d="m85.582031 426.40625c-5.855469-5.859375-15.355469-5.859375-21.214843 0-5.859376 5.859375-5.859376 15.359375 0 21.21875 5.859374 5.859375 15.359374 5.859375 21.214843 0 5.859375-5.859375 5.859375-15.359375 0-21.21875zm0 0"/><path d="m447.574219 64.429688c-5.859375-5.859376-15.359375-5.859376-21.21875 0-5.855469 5.859374-5.855469 15.359374 0 21.214843 5.859375 5.859375 15.359375 5.859375 21.21875 0 5.859375-5.855469 5.859375-15.355469 0-21.214843zm0 0"/></svg>