<svg id="OBJECTS" xmlns="http://www.w3.org/2000/svg" xmlns:xlink="http://www.w3.org/1999/xlink" viewBox="0 0 280.08 224.61"><defs><style>.cls-1{fill:none;}.cls-2{clip-path:url(#clip-path);}.cls-3{fill:#683e65;}.cls-4{fill:#c18db8;}.cls-5{fill:#327f87;}.cls-6{fill:#11393d;}.cls-7{fill:#164353;}.cls-8{fill:#4b9fa3;}.cls-9{fill:#f3a17a;}.cls-10{fill:#d86;}.cls-11{fill:#bbdefb;}.cls-12{fill:#88bfe2;}.cls-13{fill:#145b6b;}.cls-14{fill:#ed7d66;}.cls-15{fill:#1a4850;}.cls-16{fill:#f2ae40;}.cls-17{fill:#ffc24e;}.cls-18{fill:#dd774e;}.cls-19{fill:#d14e4e;}.cls-20{fill:#154948;}.cls-21{fill:#1e5e5e;}.cls-22{fill:#e56361;}.cls-23{fill:#cdcfd0;}.cls-24{fill:#fff;}</style><clipPath id="clip-path" transform="translate(-321.99 -89.01)"><rect class="cls-1" x="138.24" y="24.24" width="454.64" height="305.95"/></clipPath></defs><title>team-image</title><g class="cls-2"><rect class="cls-3" x="108.23" y="144.79" width="7.77" height="40.9"/><path class="cls-3" d="M433,236.24c-13.95.44-21.32.09-22.66,0a1.29,1.29,0,0,0-.48.05c-.19.05-.49.13-.84.25a1.91,1.91,0,0,0-1.21,1.84h0c0,1,.77,3.09,1.63,3.22,18.62,2.84,41.94.61,45.53-1C459.27,238.73,448.48,235.75,433,236.24Z" transform="translate(-321.99 -89.01)"/><path class="cls-4" d="M408.88,238s-2.31-8.57,9.2-9.31,34.43-.73,36.85,2.94a5.19,5.19,0,0,1,0,6.37S410.12,241.07,408.88,238Z" transform="translate(-321.99 -89.01)"/><path class="cls-3" d="M410.1,284a4.92,4.92,0,0,1,2.62-4.54c4.62-2.23,13.08-6.45,21.38-6.45,8.73,0,18.36,4.18,22.88,6.41a4.94,4.94,0,0,1,2.58,4.54l0,2.49s-8.79-5.66-25.43-5.66-24,5.58-24,5.58Z" transform="translate(-321.99 -89.01)"/><path class="cls-3" d="M462.31,286.38a2.73,2.73,0,1,1-2.71-3.06A2.9,2.9,0,0,1,462.31,286.38Z" transform="translate(-321.99 -89.01)"/><path class="cls-3" d="M412.83,286.38a2.73,2.73,0,1,1-2.7-3.06A2.89,2.89,0,0,1,412.83,286.38Z" transform="translate(-321.99 -89.01)"/><path class="cls-5" d="M427,313.62H347a2.48,2.48,0,0,1-2.32-2.62h0a2.48,2.48,0,0,1,2.32-2.62H427a2.48,2.48,0,0,1,2.32,2.62h0A2.48,2.48,0,0,1,427,313.62Z" transform="translate(-321.99 -89.01)"/><path class="cls-5" d="M599.75,292.11H406.49a2.48,2.48,0,0,1-2.32-2.62h0a2.48,2.48,0,0,1,2.32-2.62H599.75a2.48,2.48,0,0,1,2.32,2.62h0A2.48,2.48,0,0,1,599.75,292.11Z" transform="translate(-321.99 -89.01)"/><path class="cls-3" d="M523.63,189.4s-1,29.41-4.68,44.39l-12.74-2.2,10.08-42.19Z" transform="translate(-321.99 -89.01)"/><path class="cls-3" d="M508.92,175.32c1.95-3.81,5.32-6.47,9.77-6.3s11.2.39,13.45,5.86a14.7,14.7,0,0,1-.43,11.56c-1.92,4-5.26,5.74-9.11,6.42-4.3.75-11.3,1.11-14.19-3.32A10.86,10.86,0,0,1,507,183,20.42,20.42,0,0,1,508.92,175.32Z" transform="translate(-321.99 -89.01)"/><path class="cls-4" d="M506.22,175.32c1.94-3.81,5.32-6.47,9.77-6.3s11.2.39,13.45,5.86a14.66,14.66,0,0,1-.44,11.56c-1.92,4-5.25,5.74-9.1,6.42-4.3.75-11.31,1.11-14.19-3.32a10.86,10.86,0,0,1-1.42-6.55A20.42,20.42,0,0,1,506.22,175.32Z" transform="translate(-321.99 -89.01)"/><rect class="cls-3" x="179.05" y="144.79" width="7.77" height="40.9"/><path class="cls-3" d="M503.79,236.24c-14,.44-21.33.09-22.67,0a1.24,1.24,0,0,0-.47.05c-.2.05-.5.13-.84.25a1.92,1.92,0,0,0-1.22,1.84h0c0,1,.77,3.09,1.63,3.22,18.62,2.84,41.94.61,45.53-1C530.09,238.73,519.3,235.75,503.79,236.24Z" transform="translate(-321.99 -89.01)"/><path class="cls-4" d="M479.7,238s-2.31-8.57,9.2-9.31,34.43-.73,36.85,2.94a5.19,5.19,0,0,1,0,6.37S481,241.07,479.7,238Z" transform="translate(-321.99 -89.01)"/><path class="cls-3" d="M480.92,284a5,5,0,0,1,2.62-4.54c4.62-2.23,13.08-6.45,21.38-6.45,8.73,0,18.36,4.18,22.88,6.41a4.93,4.93,0,0,1,2.58,4.54l0,2.49s-8.79-5.66-25.43-5.66-24,5.58-24,5.58Z" transform="translate(-321.99 -89.01)"/><path class="cls-3" d="M533.13,286.38a2.73,2.73,0,1,1-2.71-3.06A2.9,2.9,0,0,1,533.13,286.38Z" transform="translate(-321.99 -89.01)"/><path class="cls-3" d="M483.65,286.38a2.73,2.73,0,1,1-2.7-3.06A2.89,2.89,0,0,1,483.65,286.38Z" transform="translate(-321.99 -89.01)"/><path class="cls-6" d="M491.59,289.43l.06-2.25c.05-2.09-1.56-6.59-1.52-8s-4.8,1-4.8,1a8.49,8.49,0,0,1-1.76,4.66c-1.05,1.21-1.27,3.4-1.28,4.6Z" transform="translate(-321.99 -89.01)"/><path class="cls-6" d="M466,289.43a34.56,34.56,0,0,0-1.51-10.05s-4.28-2.4-5.24,1.45-5.4,4.62-7.66,4.89c-1.66.2-1.88,2.64-1.88,3.71Z" transform="translate(-321.99 -89.01)"/><path class="cls-6" d="M506.73,213.1l-28.39-1.37s-22.94,6-26.69,10.22,6.24,59,6.24,59H466l-2.9-46.47s23.29-.77,30.16-4.24S506.73,213.1,506.73,213.1Z" transform="translate(-321.99 -89.01)"/><path class="cls-7" d="M484.14,280.94s-3-59.58-.16-62.27,31.2-6.94,31.2-6.94-.06,16.18-7.65,21.2-12.84,6.2-12.84,6.2l-3.63,41.81Z" transform="translate(-321.99 -89.01)"/><path class="cls-5" d="M492.43,158.14c-9.23,3.09-12.85,11-17.83,25.77s9.91,13.66,9.91,13.66Z" transform="translate(-321.99 -89.01)"/><path class="cls-8" d="M513.74,223.23s-1.52-8.89-8.32-9.43c-7.33-.58-16,3.95-18.38,1.59-4.32-4.26-6-3.14-6-3.14-2.29-6.46,2.73-8.55,2.2-15.54a121.94,121.94,0,0,1,.52-22.14c.64-5.63,1.56-9.84,2.34-11.07,2.71-4.27,6.66-6.57,13.87-6.66.88,0,1.81,0,2.8.07,9,.51,15.82,7.17,16.67,12.11C520.14,172.83,515.94,227.41,513.74,223.23Z" transform="translate(-321.99 -89.01)"/><path class="cls-5" d="M503.2,160.33s4.68,1.81,8.22,11,3.7,14.18,7.33,14,12.17-5.13,9.5-17.55-8.42-1.26-8.42-1.26a17.57,17.57,0,0,0-14.91-8.92Z" transform="translate(-321.99 -89.01)"/><path class="cls-9" d="M526.76,143.76s2.93,23.73.6,28.2-6.48,2.26-6.67-4.2,2.48-12.68,2.78-23.28Z" transform="translate(-321.99 -89.01)"/><path class="cls-9" d="M526.18,145.28a3.44,3.44,0,0,1-3-.39,8.9,8.9,0,0,1-2.68-6.54s.4-.37.77.3.67,1.63,1.41,1.82.69-2.28.5-2.91-1.21-6.34.12-6.07a.12.12,0,0,1,0,0c.09.52.94,5.48,1.22,5.48h0c.29,0,.17-4.78.82-5.53s.89,0,.89,0a3.93,3.93,0,0,0-.11,1.29s.39-.54.76-.15a4.12,4.12,0,0,0,.08,1.44s.25-.25.53.87C527.69,135.52,527.64,144.65,526.18,145.28Z" transform="translate(-321.99 -89.01)"/><path class="cls-10" d="M526.18,132.77a1.67,1.67,0,0,0-.27,1.16,21.58,21.58,0,0,1-.2,3.78c-.17.63-.42.18-.24-.39S525.43,132.92,526.18,132.77Z" transform="translate(-321.99 -89.01)"/><path class="cls-10" d="M527,134.07c-.44.11-.37,1-.29,1.45a10.33,10.33,0,0,1-.06,3c-.21.39-.24,0-.14-.51s-.2-3.33.05-3.77S527,134.07,527,134.07Z" transform="translate(-321.99 -89.01)"/><path class="cls-10" d="M522.89,140.46a3.29,3.29,0,0,1,1.36,1.58S524.15,140.28,522.89,140.46Z" transform="translate(-321.99 -89.01)"/><path class="cls-10" d="M524.57,137c-.37.36-.74-1.83-1.11-3.54s-.12-2-.12-2a.12.12,0,0,1,0,0C523.44,132.06,524.29,137,524.57,137Z" transform="translate(-321.99 -89.01)"/><path class="cls-10" d="M523.57,139.46s.19.13.46.28a1.89,1.89,0,0,0,.48.21.7.7,0,0,0,.14,0l.08,0,.08,0a1.19,1.19,0,0,1,.33.22,6.36,6.36,0,0,1,.69,1,1.45,1.45,0,0,0,.24.31.51.51,0,0,0,.11.1s0,0-.14-.05a1,1,0,0,1-.34-.25c-.24-.23-.49-.62-.77-.91a.64.64,0,0,0-.19-.16l-.08,0h-.07l-.16-.05a2.09,2.09,0,0,1-.49-.33A2.19,2.19,0,0,1,523.57,139.46Z" transform="translate(-321.99 -89.01)"/><path class="cls-5" d="M500,156.84v2s-12.11,1.53-16.21,15.69c.64-5.63,1.56-9.84,2.34-11.07C488.86,159.23,492.81,156.93,500,156.84Z" transform="translate(-321.99 -89.01)"/><path class="cls-10" d="M496.93,150.88l.67,9.86s2.21,1.75,7.9-1.13c0,0-1.6-7.71,1.58-12.35,0,0-.87.05-1-1.07C506.07,146.19,503.66,152.55,496.93,150.88Z" transform="translate(-321.99 -89.01)"/><path class="cls-9" d="M500.87,189.63S480,185.13,476,187.52s-2.32,7.19,3.38,7.73,11.34-2.15,20.73-1.95Z" transform="translate(-321.99 -89.01)"/><path class="cls-9" d="M500.87,189.63s3.82-1.71,4.71-1.31,2.65,2.75,2.65,2.75-5,3.62-8.16,2.23S500.87,189.63,500.87,189.63Z" transform="translate(-321.99 -89.01)"/><path class="cls-11" d="M502,164l-.84-2.18c-3.85.32-5-1.79-5-1.79l-1.2,1.79c.23-4.24,2.34-5.51,2.34-5.51a3.51,3.51,0,0,0,.64,2.05l.91,2.24,1.69-1.94c2,.45,4.58-2.54,4.58-2.54l1.46,1.46C507.08,161.08,502,164,502,164Z" transform="translate(-321.99 -89.01)"/><path class="cls-12" d="M501.16,161.82c-3.85.32-5-1.79-5-1.79.56-1.51,1.3-1.37,1.3-1.37l1.39,2.61,1.53-1.21Z" transform="translate(-321.99 -89.01)"/><path class="cls-13" d="M494.07,148A26.53,26.53,0,0,1,492,136.17c.52-6.1,8.66-7.5,14.15-4.5,0,0-1.63-1.8-1-2.3s1.73,2.7,1.73,2.7,1.74-.6,2,0-1.77.93-1.77.93,3.54,2.21.23,14Z" transform="translate(-321.99 -89.01)"/><path class="cls-9" d="M493.67,144.37s-1.95-2.21-2.19.37c-.28,3,2.12,4.19,2.59,3.24S493.67,144.37,493.67,144.37Z" transform="translate(-321.99 -89.01)"/><path class="cls-9" d="M507.39,144.52s2-2.21,2.2.37c.28,3-2.13,4.2-2.6,3.25S507.39,144.52,507.39,144.52Z" transform="translate(-321.99 -89.01)"/><path class="cls-9" d="M500.32,155.19c-4.34,0-6.79-3.2-6.79-12.82,0-5,2.23-8,7.1-8s6.91,3,6.91,8C507.54,152.7,504.81,155.19,500.32,155.19Z" transform="translate(-321.99 -89.01)"/><path class="cls-14" d="M506.11,145.8a1,1,0,0,1-.86,1.09.91.91,0,0,1-1.12-.7,1,1,0,0,1,.85-1.09A.93.93,0,0,1,506.11,145.8Z" transform="translate(-321.99 -89.01)"/><path class="cls-14" d="M497.17,146.07a.94.94,0,0,1-1.06.83,1,1,0,0,1-.94-1,.93.93,0,0,1,1.05-.83A1,1,0,0,1,497.17,146.07Z" transform="translate(-321.99 -89.01)"/><path class="cls-15" d="M504.12,140.81a.2.2,0,0,1-.16-.07,2.29,2.29,0,0,0-1.67-.68.23.23,0,0,1-.22-.24.22.22,0,0,1,.21-.25,2.67,2.67,0,0,1,2,.83.27.27,0,0,1,0,.35A.22.22,0,0,1,504.12,140.81Z" transform="translate(-321.99 -89.01)"/><path class="cls-15" d="M495.94,140.81a.2.2,0,0,1-.15-.06.27.27,0,0,1,0-.35,2.64,2.64,0,0,1,2-.83.23.23,0,0,1,.21.25.24.24,0,0,1-.22.24,2.28,2.28,0,0,0-1.68.68A.19.19,0,0,1,495.94,140.81Z" transform="translate(-321.99 -89.01)"/><path class="cls-15" d="M503.74,143.42c0,.61-.24,1.1-.54,1.1s-.54-.49-.54-1.1.24-1.11.54-1.11S503.74,142.81,503.74,143.42Z" transform="translate(-321.99 -89.01)"/><path class="cls-15" d="M497.94,143.42c0,.61-.24,1.1-.54,1.1s-.54-.49-.54-1.1.24-1.11.54-1.11S497.94,142.81,497.94,143.42Z" transform="translate(-321.99 -89.01)"/><path class="cls-14" d="M500.35,144.22c.39-.28,1.42,4,.31,4.27S499.87,144.55,500.35,144.22Z" transform="translate(-321.99 -89.01)"/><path class="cls-15" d="M497.94,149.94s3.83.55,5.8-.51c0,0-1.11,2.94-3.2,2.68A3.12,3.12,0,0,1,497.94,149.94Z" transform="translate(-321.99 -89.01)"/><path class="cls-13" d="M507.09,145.61a28.65,28.65,0,0,0-2-9.44s-3.25,1.69-4,1.29.68-1.29.68-1.29-5.35,2-5.67,1.59,1.77-1.59,1.77-1.59l-3.33,1.29a30.42,30.42,0,0,0-.61,8.15,16.94,16.94,0,0,1-1.61-4.72c-.17-1.93.58-7.42,5.6-7.82s7.84.89,9.09,3.49S508.17,142.37,507.09,145.61Z" transform="translate(-321.99 -89.01)"/><path class="cls-3" d="M571.19,189.4s-1,29.41-4.68,44.39l-12.75-2.2,10.09-42.19Z" transform="translate(-321.99 -89.01)"/><path class="cls-3" d="M556.48,175.32c1.94-3.81,5.31-6.47,9.76-6.3s11.2.39,13.45,5.86a14.65,14.65,0,0,1-.43,11.56c-1.92,4-5.25,5.74-9.11,6.42-4.29.75-11.3,1.11-14.18-3.32a10.79,10.79,0,0,1-1.42-6.55A20.42,20.42,0,0,1,556.48,175.32Z" transform="translate(-321.99 -89.01)"/><path class="cls-4" d="M553.77,175.32c2-3.81,5.32-6.47,9.77-6.3s11.2.39,13.45,5.86a14.65,14.65,0,0,1-.43,11.56c-1.92,4-5.26,5.74-9.11,6.42-4.29.75-11.3,1.11-14.18-3.32a10.72,10.72,0,0,1-1.42-6.55A20.41,20.41,0,0,1,553.77,175.32Z" transform="translate(-321.99 -89.01)"/><rect class="cls-3" x="226.61" y="144.79" width="7.77" height="40.9"/><path class="cls-3" d="M551.34,236.24c-14,.44-21.32.09-22.66,0a1.29,1.29,0,0,0-.48.05c-.19.05-.49.13-.84.25a1.91,1.91,0,0,0-1.21,1.84h0c0,1,.77,3.09,1.63,3.22,18.62,2.84,41.94.61,45.53-1C577.65,238.73,566.86,235.75,551.34,236.24Z" transform="translate(-321.99 -89.01)"/><path class="cls-4" d="M527.26,238s-2.32-8.57,9.2-9.31,34.43-.73,36.85,2.94a5.19,5.19,0,0,1,0,6.37S528.5,241.07,527.26,238Z" transform="translate(-321.99 -89.01)"/><path class="cls-3" d="M528.48,284a4.92,4.92,0,0,1,2.62-4.54c4.62-2.23,13.08-6.45,21.38-6.45,8.72,0,18.36,4.18,22.88,6.41a5,5,0,0,1,2.58,4.54l0,2.49s-8.79-5.66-25.43-5.66-24,5.58-24,5.58Z" transform="translate(-321.99 -89.01)"/><path class="cls-3" d="M580.68,286.38a2.73,2.73,0,1,1-2.7-3.06A2.89,2.89,0,0,1,580.68,286.38Z" transform="translate(-321.99 -89.01)"/><path class="cls-3" d="M531.21,286.38a2.73,2.73,0,1,1-2.71-3.06A2.9,2.9,0,0,1,531.21,286.38Z" transform="translate(-321.99 -89.01)"/><path class="cls-16" d="M556.4,138.23c-3.17,2.21-6.51,17.2-4.23,28.94s15.34.43,15.34.43,5.89-19.71,2.62-23.5S556.4,138.23,556.4,138.23Z" transform="translate(-321.99 -89.01)"/><path class="cls-9" d="M555.77,164s-6.35.31-8.91,3.66S541,184,541,184l-.6-19-2.26-.14s-3.15,27.19-1.77,29.3,3.34,4.45,8.95-6.33A248.85,248.85,0,0,0,555.77,164Z" transform="translate(-321.99 -89.01)"/><path class="cls-9" d="M540.4,165.14a2.52,2.52,0,0,1-2.28.89c-1.61-.9-1.68-7-1.94-8.51-.5-2.82,0-3.17,0-3.17s0-.26,0-.38c-.07-1.18.47-1.2.47-1.2a2.36,2.36,0,0,1-.13-.41c-.06-.31-.06-.67.31-.66.54,0,.68,1,.7,1.22a2,2,0,0,1,0-.41.42.42,0,0,1,.09-.26c.08-.1.23-.05.5.33.72,1,1.77,5.34,1.77,5.34s.32-2.32.82-.4S541.34,164,540.4,165.14Z" transform="translate(-321.99 -89.01)"/><path class="cls-10" d="M539.89,157.93c.06,1.15.25,2.41.25,2.41a4.85,4.85,0,0,0-.74,2.39,4,4,0,0,1,0-2.13A13.51,13.51,0,0,0,539.89,157.93Z" transform="translate(-321.99 -89.01)"/><path class="cls-10" d="M538.88,157.58a27.68,27.68,0,0,0-1.35-4.59v-.48a.42.42,0,0,1,.09-.26A23.47,23.47,0,0,1,538.88,157.58Z" transform="translate(-321.99 -89.01)"/><path class="cls-10" d="M538,158.14a40.37,40.37,0,0,0-1.38-5.37,2.36,2.36,0,0,1-.13-.41C537.13,152.38,537.88,157.23,538,158.14Z" transform="translate(-321.99 -89.01)"/><path class="cls-10" d="M537.14,158.66s-.62-4.28-.94-4.31c0-.14,0-.26,0-.38C536.94,154.59,537.14,158.66,537.14,158.66Z" transform="translate(-321.99 -89.01)"/><path class="cls-11" d="M552.69,164.61s5.15-1.55,9.38-.7c3.11.63,9.28.24,11.34,4.69,2.54,5.52-3,14.33-6.55,20a36.3,36.3,0,0,0-4.68,13.52s-9.37,3.07-17.45-.92l-.6-13S538.31,176,552.69,164.61Z" transform="translate(-321.99 -89.01)"/><path class="cls-7" d="M551.63,231.6s4.54,2.4,5.62,2.31c11.68-1,14.33-12.18,13.32-16.58-2.72-11.8-8.21-16.6-8.21-16.6a19.18,19.18,0,0,1-5.11.91,63.9,63.9,0,0,1-8.36-.09c-.8-.05-1.51-.11-2.12-.16l-2-.21c-1.5,3.27-2.91,10.75-4,18-.05.38-.11.76-.17,1.12-.82,5.49-3.31,10.18-1.13,12C543.74,236,551.63,231.6,551.63,231.6Z" transform="translate(-321.99 -89.01)"/><path class="cls-9" d="M557.58,232.34c3.5-12.49-2.39-23.74-2.39-23.74-11.2-2.53-28.66-1.12-30.52,0-2.42,1.45-5.23,12.49-5.43,13.85-.61,4.14-6.09,33.11-9.35,45.25a26.42,26.42,0,0,1-4.83,8h0a4.13,4.13,0,0,0-1.57.94,3.66,3.66,0,0,0-.56.7h6.44a10.18,10.18,0,0,0,1.25-1.84,2.81,2.81,0,0,1,3-1.42c.61.6.7,3.31.72,4H515c.26-.76,1.18-4.27.9-5.57-.23-1.06-.93-3.5-1.23-4.66a4.39,4.39,0,0,1-.16-.95c.84-4,3.73-17.59,8.77-28.56,3.41-7.42,4.85-11,5.69-16.78C540.13,222.25,557.58,232.34,557.58,232.34Z" transform="translate(-321.99 -89.01)"/><path class="cls-7" d="M509.34,278c.65,0,1.9-1.53,2.78-2.3s1.29-.69,1.29-.69a5.69,5.69,0,0,1,.86,3H515c.26-.76,1.18-4.27.9-5.57A26.81,26.81,0,0,1,515,268c-2.37-1.52-4.4,3.63-7.45,6.53-1.54,1.46-2.49,1.21-2.49,1.21h0a7.51,7.51,0,0,0-1.89.66,3.3,3.3,0,0,0-1.46,1.67Z" transform="translate(-321.99 -89.01)"/><path class="cls-10" d="M552.52,230.82l-5-14c-11.2-2.53-15.8,3-18.83,3-4.86.1-5.3,9.43-4.23,15.19.55,2.92,10,42.14,9.63,44.08-.47,2.36-3.65,6.92-4.83,8h0a4.13,4.13,0,0,0-1.57.94,3.66,3.66,0,0,0-.56.7h6.44a10.18,10.18,0,0,0,1.25-1.84,2.81,2.81,0,0,1,3-1.42c.61.6.71,3.31.72,3.95h.76c.26-.76,1.18-4.26.9-5.57-.23-1.06-1-3.49-1.23-4.66-1.43-6.27-2.61-7.9-3.51-25.08-.49-9.39,0-16.48-3.44-21.21C531.9,232.91,544.9,234,552.52,230.82Z" transform="translate(-321.99 -89.01)"/><path class="cls-7" d="M533.49,289.43c.65,0,1.9-1.52,2.78-2.29s1.29-.69,1.29-.69a5.54,5.54,0,0,1,.86,3h.76c.26-.76,1.18-4.26.9-5.57a27.86,27.86,0,0,1-.93-4.51c-2.37-1.52-4.4,3.63-7.45,6.53-1.54,1.46-2.49,1.21-2.49,1.21h0a7.86,7.86,0,0,0-1.89.67,3.26,3.26,0,0,0-1.46,1.66Z" transform="translate(-321.99 -89.01)"/><path class="cls-9" d="M555.19,208.6c-11.2-2.53-28.66-1.12-30.52,0-2.42,1.45,2.78,11.23,5.38,10.9,11.13.74,14.2,11.08,27.53,12.84a22.77,22.77,0,0,0,1.36-12A36.1,36.1,0,0,0,555.19,208.6Z" transform="translate(-321.99 -89.01)"/><path class="cls-9" d="M560.3,160.33c-3.78.15-5.89-4-6.09-9.16,0-.57,0-1.15,0-1.74a24.45,24.45,0,0,1,.73-5c2-7.87,11.9-4.12,11.9-4.12C574.54,144.73,566.88,160.09,560.3,160.33Z" transform="translate(-321.99 -89.01)"/><path class="cls-15" d="M560.46,149.32c0,.5-.29.89-.57.87s-.49-.44-.46-.95.28-.9.57-.88S560.49,148.81,560.46,149.32Z" transform="translate(-321.99 -89.01)"/><path class="cls-14" d="M561.86,151.36a.93.93,0,0,1-.86,1,.88.88,0,0,1-1-.74.94.94,0,0,1,.87-1A.88.88,0,0,1,561.86,151.36Z" transform="translate(-321.99 -89.01)"/><path class="cls-14" d="M555.1,150.62a.79.79,0,0,1-.89.55c0-.57,0-1.15,0-1.74a.78.78,0,0,1,.21,0A1,1,0,0,1,555.1,150.62Z" transform="translate(-321.99 -89.01)"/><path class="cls-15" d="M560.54,149.17s-.24-1.16-.6-1.19-1,.75-1,.75l-.67-.55.65.28s.56-.88,1.06-.7S560.54,149.17,560.54,149.17Z" transform="translate(-321.99 -89.01)"/><path class="cls-15" d="M556.28,148.59c0,.5-.28.9-.57.88s-.49-.45-.46-1,.29-.89.57-.87S556.31,148.08,556.28,148.59Z" transform="translate(-321.99 -89.01)"/><path class="cls-15" d="M556.4,148.45s-.24-1.16-.6-1.19-1,.74-1,.74l-.67-.55.65.29s.56-.89,1.06-.7S556.4,148.45,556.4,148.45Z" transform="translate(-321.99 -89.01)"/><path class="cls-17" d="M561.09,146.54a.25.25,0,0,1-.16-.11,1.29,1.29,0,0,0-1.22-.64.23.23,0,0,1,0-.46,1.66,1.66,0,0,1,1.61.85.26.26,0,0,1-.06.32A.22.22,0,0,1,561.09,146.54Z" transform="translate(-321.99 -89.01)"/><path class="cls-17" d="M556.53,145.34a.18.18,0,0,1-.12-.05,1.2,1.2,0,0,0-1.33-.19.2.2,0,0,1-.27-.12.25.25,0,0,1,.1-.31,1.61,1.61,0,0,1,1.76.26.26.26,0,0,1,0,.33A.18.18,0,0,1,556.53,145.34Z" transform="translate(-321.99 -89.01)"/><path class="cls-18" d="M556.88,150s-1.76,0-1.59.72a4.62,4.62,0,0,0,1.19,1.62S557.28,150.9,556.88,150Z" transform="translate(-321.99 -89.01)"/><path class="cls-15" d="M555.52,153.59a4.53,4.53,0,0,0,4.11.14,2.28,2.28,0,0,1-2.79,1A2.43,2.43,0,0,1,555.52,153.59Z" transform="translate(-321.99 -89.01)"/><path class="cls-10" d="M564.85,154.7c-.76,2.31-3.67,6.31-6.76,5.17,0,0,.43,2.29-.85,3.54,0,0-.89,1,.44,2,2.41,1.77,6.44,1,6.86.25a18.21,18.21,0,0,1,.25-6.24,19.91,19.91,0,0,1,1.16-4.29C565.12,155.74,564.85,154.7,564.85,154.7Z" transform="translate(-321.99 -89.01)"/><path class="cls-17" d="M556.14,138.7s-3,2.22-1.94,5.13c0,0,5.41-.2,8.52,1.78,0,0,0-2.89,2.18-2.39A8.34,8.34,0,0,0,556.14,138.7Z" transform="translate(-321.99 -89.01)"/><path class="cls-17" d="M570.55,154.26c-1.51,2.1-6,7.56-6,7.56-.09-5.35.8-6.52.8-6.52,1.1.17,2.68-2.77,2.25-3.75-.54-1.22-1.36-.84-1.92-.36a6,6,0,0,1-1.78-4.18c0-.93,1.52-3.49-1.17-4.78s-7.44-1.14-7.44-1.14a4.17,4.17,0,0,1,3-4.05c3.94-1.46,12.2.32,13.74,6.54C572.87,147,572.33,151.77,570.55,154.26Z" transform="translate(-321.99 -89.01)"/><path class="cls-17" d="M572,143.58c1.63,7.67.29,21.21-5.09,27.77s-5.49,10.54-5.49,10.54-4.67-3.26,2.42-19.16c3.11-7,6.81-12.3,5.57-15.72S572,143.58,572,143.58Z" transform="translate(-321.99 -89.01)"/><path class="cls-9" d="M565.44,197.81c-1.84,2.12-20.11-.65-23.84-1.63a4.74,4.74,0,0,1-.54-.18c-1.77-.78-1.47-3.33,0-2.72a4.13,4.13,0,0,0,1.16.06c4.53-.17,19.91-2.78,19.91-2.78s5.83-20.63,7.54-22a3.08,3.08,0,0,1,3.25-.61C576.76,174.08,567.41,195.56,565.44,197.81Z" transform="translate(-321.99 -89.01)"/><path class="cls-10" d="M542.22,193.34a6.54,6.54,0,0,0-.62,2.84,4.74,4.74,0,0,1-.54-.18,1.91,1.91,0,0,1-.85-.69,10.54,10.54,0,0,0,1.8-2Z" transform="translate(-321.99 -89.01)"/><path class="cls-7" d="M556.14,207.76s-29.32-2.13-32.51,0-8.45,22.52-8.45,22.52,3.67,2.79,4.38,0,3.57,1.47,7.27,3.63,7.54,0,10.31,1.25a3.93,3.93,0,0,0,4.48-.41s18,3.32,26-6.23Z" transform="translate(-321.99 -89.01)"/><path class="cls-19" d="M422.5,154.74s19.2-2.13,21.15.94-7.82,10.68-13.73,8.32S420.11,157.34,422.5,154.74Z" transform="translate(-321.99 -89.01)"/><path class="cls-11" d="M450.14,202.6c-.08,1.64-.17,3.31-.24,5-.07,1.51-.14,3-.2,4.59-.08,2-.15,3.94-.21,6a77.4,77.4,0,0,0-16.44-2.22,80.58,80.58,0,0,0-17.26,2.22c-.1-2.32-.21-4.58-.31-6.74-.07-1.38-.14-2.71-.22-4-.14-2.8-.29-5.44-.46-8-1.92-30.2-4.19-40.84-.11-43.71.91-.63,5.69-.18,10.09.39,4.11.54,7.89,1.2,7.89,1.2s3.61-.16,7.57-.36c4.26-.22,8.93-.48,10-.64C454,155.71,451.6,174.84,450.14,202.6Z" transform="translate(-321.99 -89.01)"/><path class="cls-12" d="M426.18,156.38s-.91,2.67,2.66,5.42l1.85-1.8,1.63,5.1,1.38-5.1,1.48,2.42s4.23-1.33,3.65-5.4Z" transform="translate(-321.99 -89.01)"/><path class="cls-10" d="M436.87,146.13,433,149.52a7.34,7.34,0,0,1-4.8.37,30.19,30.19,0,0,1,.09,7.91l4.05,2.65s2.59-1.4,4.25-2.27C436.54,158.18,435.93,150.24,436.87,146.13Z" transform="translate(-321.99 -89.01)"/><path class="cls-15" d="M427.1,147.61s-3.41-6.16-3.09-12c.15-2.95,1.49-4.1,1.49-4.1a4.68,4.68,0,0,1,.08-4.29s1.61,2.09,7.24,1.43c5.43-.64,6,3.74,6,3.74,3.88.65,1.26,13.91-1.44,15.26Z" transform="translate(-321.99 -89.01)"/><path class="cls-9" d="M425.65,141.92s-2-2.2-2.2.38c-.28,3,2.13,4.19,2.6,3.24S425.65,141.92,425.65,141.92Z" transform="translate(-321.99 -89.01)"/><path class="cls-9" d="M439.36,142.08s2-2.21,2.2.37c.28,3-2.12,4.2-2.59,3.24S439.36,142.08,439.36,142.08Z" transform="translate(-321.99 -89.01)"/><path class="cls-9" d="M432.3,152.75c-4.34,0-6.8-3.21-6.8-12.82,0-5,2.24-8,7.11-8s6.91,3,6.91,8C439.52,150.26,436.79,152.75,432.3,152.75Z" transform="translate(-321.99 -89.01)"/><path class="cls-14" d="M438.08,143.36a1,1,0,0,1-.85,1.09.91.91,0,0,1-1.12-.7,1,1,0,0,1,.85-1.09A.92.92,0,0,1,438.08,143.36Z" transform="translate(-321.99 -89.01)"/><path class="cls-14" d="M429.15,143.63a.94.94,0,0,1-1.06.83,1,1,0,0,1-.95-1,.94.94,0,0,1,1.06-.83A1,1,0,0,1,429.15,143.63Z" transform="translate(-321.99 -89.01)"/><path class="cls-15" d="M436.1,138.37a.2.2,0,0,1-.16-.07,2.29,2.29,0,0,0-1.67-.69.23.23,0,0,1-.23-.23.25.25,0,0,1,.21-.26,2.71,2.71,0,0,1,2,.84.27.27,0,0,1,0,.35A.24.24,0,0,1,436.1,138.37Z" transform="translate(-321.99 -89.01)"/><path class="cls-15" d="M427.91,138.37a.24.24,0,0,1-.15-.06.27.27,0,0,1,0-.35,2.71,2.71,0,0,1,2-.84.25.25,0,0,1,.21.26.23.23,0,0,1-.23.23,2.35,2.35,0,0,0-1.67.69A.2.2,0,0,1,427.91,138.37Z" transform="translate(-321.99 -89.01)"/><path class="cls-15" d="M435.72,141c0,.61-.24,1.1-.54,1.1s-.55-.49-.55-1.1.25-1.11.55-1.11S435.72,140.37,435.72,141Z" transform="translate(-321.99 -89.01)"/><path class="cls-15" d="M429.92,141c0,.61-.25,1.1-.55,1.1s-.54-.49-.54-1.1.25-1.11.54-1.11S429.92,140.37,429.92,141Z" transform="translate(-321.99 -89.01)"/><path class="cls-14" d="M432.32,141c.4-.28,1.43,4,.32,4.27S431.85,141.31,432.32,141Z" transform="translate(-321.99 -89.01)"/><path class="cls-15" d="M429.92,146.4s3.83.43,5.8-.39c0,0-1.11,2.26-3.21,2.06A2.87,2.87,0,0,1,429.92,146.4Z" transform="translate(-321.99 -89.01)"/><path class="cls-15" d="M426.84,133a26.52,26.52,0,0,0,11.27,1.37s1.41,2,1.24,9c0,0,3.89-12.67-7.46-12.67s-6.24,12.38-6.24,12.38S424.73,135.37,426.84,133Z" transform="translate(-321.99 -89.01)"/><path class="cls-11" d="M438.83,157c-.4,2.2-3.65,5.4-3.65,5.4L433.7,160l-1.41,1-1.6-1-1.85,1.8h0s-3-4.22-2.65-5.42,2.27-1.83,2.27-1.83a2.83,2.83,0,0,0,2.12,2.91l1.68,2.31,1.56-1.72c1.9-.05,2.58-3,2.58-3A4.78,4.78,0,0,1,438.83,157Z" transform="translate(-321.99 -89.01)"/><path class="cls-12" d="M430.56,158.05l1.73,3-1.6-1-1.85,1.8C428.9,161.64,430,159.15,430.56,158.05Z" transform="translate(-321.99 -89.01)"/><path class="cls-12" d="M435.18,162.42,433.7,160l-1.41,1,1.75-2.54S435.84,160.55,435.18,162.42Z" transform="translate(-321.99 -89.01)"/><path class="cls-20" d="M435.13,213.56v-.07l-2.7,0-2.71,0v.07c-19.34.53-24.75,4-26.53,9.89,0,0,5.12,7,7.39,8.89,1.78,1.47,15.84,1.53,21.85,1.48s20.06,0,21.84-1.48c2.27-1.86,7.39-8.89,7.39-8.89C459.88,217.6,454.47,214.09,435.13,213.56Z" transform="translate(-321.99 -89.01)"/><path class="cls-12" d="M421.3,289.49a57.35,57.35,0,0,0-1.25-10.36s-5.52-2.57-6.09,1.65a6.17,6.17,0,0,1-5.14,5.57c-1,.24-1.19,1.94-1.21,3.14Z" transform="translate(-321.99 -89.01)"/><path class="cls-21" d="M402.93,227.22c3.51,20,6.43,39.57,10.16,54.41h8.09c-.46-3.83-.9-8.54-1.34-12.37q-1.51-13.31-2.92-26.62-.92-8.76-1.75-17.53c-.4-4.24-4-7.09-7.7-6h0C404.28,220,402.29,223.57,402.93,227.22Z" transform="translate(-321.99 -89.01)"/><path class="cls-12" d="M443.55,289.49a57.35,57.35,0,0,1,1.25-10.36s5.52-2.57,6.09,1.65a6.17,6.17,0,0,0,5.14,5.57c1,.24,1.19,1.94,1.21,3.14Z" transform="translate(-321.99 -89.01)"/><path class="cls-21" d="M461.92,227.22c-3.51,20-6.43,39.57-10.16,54.41h-8.09c.46-3.83.9-8.54,1.34-12.37q1.51-13.31,2.92-26.62.92-8.76,1.75-17.53c.4-4.24,4-7.09,7.7-6h0C460.57,220,462.56,223.57,461.92,227.22Z" transform="translate(-321.99 -89.01)"/><path class="cls-22" d="M450.38,155.72a17.82,17.82,0,0,0-5.77.55,4.17,4.17,0,0,1-.62,2.18c-1.11,1.68-2.21,3.36-3.24,5.1,1.12,12.94,4,40.15,8.95,48.65.06-1.55.13-3.08.2-4.59.07-1.7,0-3.38.24-5A177.63,177.63,0,0,0,450.38,155.72Z" transform="translate(-321.99 -89.01)"/><path class="cls-22" d="M420.75,156.86a5.14,5.14,0,0,1-.14-1.22c-2.88-.28-5.3-.35-5.92.08-4.08,2.87-1.81,13.51.11,43.71.17,2.52.32,5.16.46,8,.08,1.31.15,2.64.22,4,5.91-10.44,8.16-35.3,8.94-48.1A14.57,14.57,0,0,1,420.75,156.86Z" transform="translate(-321.99 -89.01)"/><path class="cls-19" d="M414.69,155.72s-2,.63-5.19,8.72c-3.95,10-9.11,28.1-7.13,31.18,3.59,5.55,8.49,4.76,11.26-12.46C413.63,183.16,416.52,159.5,414.69,155.72Z" transform="translate(-321.99 -89.01)"/><path class="cls-19" d="M450.38,155.72s2,.63,5.2,8.72c3.95,10,9.1,28.1,7.12,31.18-3.58,5.55-8.49,4.76-11.25-12.46C451.45,183.16,448.55,159.5,450.38,155.72Z" transform="translate(-321.99 -89.01)"/><path class="cls-9" d="M460.69,194.05s-25.1-.34-26.18-.47a7.58,7.58,0,0,1-1.4-.4c-1-.36-2.27-.86-3.06-1.2l-.79-.33.28-.28,2.89-2.92s2,.66,3.36,1.1l.95.28c1.15.32,22-6.91,23.95-2.88A7.64,7.64,0,0,1,460.69,194.05Z" transform="translate(-321.99 -89.01)"/><path class="cls-19" d="M441.94,175.52s8-17.37,6.48-19.8S435.8,149.54,441.94,175.52Z" transform="translate(-321.99 -89.01)"/><path class="cls-19" d="M423.54,174.57s-7.28-16-6.52-19.15,5.58-1.61,6.58-.87C427,157.07,425.47,171.41,423.54,174.57Z" transform="translate(-321.99 -89.01)"/><path class="cls-10" d="M435.79,189.55a2.85,2.85,0,0,1-.55,1.61,8.75,8.75,0,0,1-2.13,2c-1-.36-2.27-.86-3.06-1.2l-.51-.61,2.89-2.92S434.4,189.11,435.79,189.55Z" transform="translate(-321.99 -89.01)"/><path class="cls-9" d="M404.39,194.05a7.64,7.64,0,0,1,0-7.1c1.92-4,22.08,3.2,23.24,2.88s3.83-2.55,5.06-2c.82.4,2,1.52,1.93,2.31-.13,1.42-3,3.27-4.05,3.4S404.39,194.05,404.39,194.05Z" transform="translate(-321.99 -89.01)"/><rect class="cls-23" x="139.11" y="115.75" width="12.31" height="76.87"/><path class="cls-24" d="M475.29,208.45H459.22a3.43,3.43,0,0,1-2.62-1.27l-6-7.11h33.33l-6,7.11A3.43,3.43,0,0,1,475.29,208.45Z" transform="translate(-321.99 -89.01)"/><path class="cls-24" d="M475,279.08H459.55a1.51,1.51,0,0,0-1.33.85l-3.09,5.79h24.25l-3.09-5.79A1.52,1.52,0,0,0,475,279.08Z" transform="translate(-321.99 -89.01)"/><path class="cls-23" d="M126.28,195h38a1.8,1.8,0,0,1,1.8,1.8v3.65a0,0,0,0,1,0,0H124.47a0,0,0,0,1,0,0v-3.65A1.8,1.8,0,0,1,126.28,195Z"/><path class="cls-23" d="M51.64,104.31H238.89a0,0,0,0,1,0,0v6.76a1.1,1.1,0,0,1-1.1,1.1h-185a1.1,1.1,0,0,1-1.1-1.1v-6.76A0,0,0,0,1,51.64,104.31Z"/><rect class="cls-24" x="48.02" y="101.43" width="194.49" height="5.18" rx="1.08"/><path class="cls-9" d="M399.4,159.07S386,170.22,382,169.49c-1.54-.28-3.69-2.71-5.73-5.61a106.61,106.61,0,0,1-6.32-10.42l-10.36-28.52s6,1.24,10.43,9.55c3.59,6.7,8.24,15.17,11.3,20.71l3.22,5.83,14-6.07Z" transform="translate(-321.99 -89.01)"/><path class="cls-9" d="M407.78,148.79a7.88,7.88,0,0,1,.09,1,11.21,11.21,0,0,1-2.29,5.51,14.14,14.14,0,0,1-2.95,2.39.27.27,0,0,0-.12.06c-1.86,1.16-3.94,2-4.49.68a5,5,0,0,1,.46-4.39c.78-3.54,4.35-6.72,4.35-6.72s.72.48,0,1.78a3.05,3.05,0,0,0-.46,2.23s3.84-1.78,4.41-3.07S408.36,146.84,407.78,148.79Z" transform="translate(-321.99 -89.01)"/><path class="cls-10" d="M402.35,150.51c-.59,1.44-.3,2.82-1.27,3.55a3.73,3.73,0,0,0,1.29-2.72Z" transform="translate(-321.99 -89.01)"/><path class="cls-10" d="M407.78,148.79a.41.41,0,0,0-.63,0,11.28,11.28,0,0,0-1,1.72,4.57,4.57,0,0,1-1.58,1.07,2.69,2.69,0,0,0,1.22-.52C406.43,150.57,407.08,148.58,407.78,148.79Z" transform="translate(-321.99 -89.01)"/><path class="cls-10" d="M407.54,150.51s-.39-.43-.71.3a6,6,0,0,1-1.76,2.23l-.68.45s.39.08,1.11-.45S407,150.2,407.54,150.51Z" transform="translate(-321.99 -89.01)"/><path class="cls-10" d="M407,152.91s0-.7-.58-.3a9.58,9.58,0,0,0-1.22,1.45,7,7,0,0,1-.82.68,1.91,1.91,0,0,0,1-.68C405.86,153.49,406.84,152.2,407,152.91Z" transform="translate(-321.99 -89.01)"/><path class="cls-10" d="M402.51,157.76c-1.86,1.16-3.94,2-4.49.68a5,5,0,0,1,.46-4.39,5,5,0,0,0,0,1.95c.24.49-.05,1.33.52,2S401.28,158.59,402.51,157.76Z" transform="translate(-321.99 -89.01)"/><path class="cls-12" d="M381.31,155.2c-1.12,1.26-4.12,4.89-5.05,8.68a106.61,106.61,0,0,1-6.32-10.42l-10.36-28.52s6,1.24,10.43,9.55C373.6,141.19,378.25,149.66,381.31,155.2Z" transform="translate(-321.99 -89.01)"/><path class="cls-11" d="M381.73,156s-4.5,4.16-4.73,8.93l-1.89-.55s1-9.52,5.57-10.29C380.68,154.05,381.86,155,381.73,156Z" transform="translate(-321.99 -89.01)"/><path class="cls-10" d="M395.52,311c-1.43-1.31-5.09-6.88-5.84-9.68-1.06-3.95-2.32-9.39-3.61-15.32H380.6c1.79,6.47,2.94,11.87,3.46,14.31a5.44,5.44,0,0,1-.2,1.14c-.16.6-.46,9.6-.46,9.6h12.26l-.11,0Z" transform="translate(-321.99 -89.01)"/><path class="cls-9" d="M354.4,286h-6.48c1.21,7.54,2.16,13.93,2.16,13.93V311h7.05c-.68-3.33-2.64-13.3-2.64-17.51C354.49,291,354.46,288.5,354.4,286Z" transform="translate(-321.99 -89.01)"/><path class="cls-6" d="M387.6,292.78c-3.85-16.72-8.62-42-9.23-46.23-.4-2.71-.76-11.31-1.71-21.86-.24-12-1.47-39.57-7.46-55.19l-14.1.37c.57,12.4-10.08,25.8,2.89,40.15,1.69,5.36,7.29,23.53,8.1,31.53,1,9.45,2.52,13.63,7.36,24.17,4.18,9.12,7.15,19.75,8.92,27.06Z" transform="translate(-321.99 -89.01)"/><path class="cls-7" d="M339.82,223.94h0c.9,5.28,2.18,8.82,2.89,13.27,1,6.47-1.9,15.86,1.05,26.29,1.39,4.93,4,21.24,5.39,30.25h5.35c0-.08,0-.17,0-.25,0-21.95-2.68-48.11-2.28-58.06.17-4.19.8-10.14,1.47-15.55,0,0,2.07-15.74,4.09-17,8.27-5.4,11.43-33.34,11.43-33.34l-21.1,1.1s-12.29,11.54-9.06,32.06c0,0,0,.21,0,.58C338.49,212.91,339,219.14,339.82,223.94Z" transform="translate(-321.99 -89.01)"/><path class="cls-23" d="M382.78,311s-.54-8.24.88-10.39,5.35,2,5.35,2l3.5-1.8a5.78,5.78,0,0,0,2.65,4.68c2.84,2.11,5.14,1.51,5.31,5.51Z" transform="translate(-321.99 -89.01)"/><path class="cls-23" d="M349.07,302.41s.09-2.74,3.45-2.42,3.12,3.07,3.12,3.07a.7.7,0,0,1,.95,0c.44.44.07,4.24.92,5s.58,2.9.58,2.9h-9.82s-.53-2.7.45-3.7S347.21,302.71,349.07,302.41Z" transform="translate(-321.99 -89.01)"/><path class="cls-11" d="M359.58,124.93s17,13.15,7.27,31.9c0,0,5,21.93,10.15,33.31a7.75,7.75,0,0,1-5.65,1.73c-3.08-.49-3.1,2.57-8.52,2.77s-6.88-3-11.52-1.32c-6.28,2.3-13.85-3.65-14-5.33,0,0,4.46-18.37,7.46-26.72,0,0-18.41-26-9.71-34.47S359.58,124.93,359.58,124.93Z" transform="translate(-321.99 -89.01)"/><path class="cls-19" d="M341.72,92.54s-.94-2.8-7.07-1.73-3.93,15.56-2.79,20.44-4.88,9.11-3.7,11.25,2.36,1.74,2.36,1.74-3.73,3.47-2.51,4.93,6.87-3.07,5.81-5.46,2.91-1.47,2.63-5.66-1.09-18.63,4-17.87S341.72,92.54,341.72,92.54Z" transform="translate(-321.99 -89.01)"/><path class="cls-9" d="M342,93.08s12.51-4.73,15,5.21.23,20.43-5.64,19.72C343.14,117,332.3,98.67,342,93.08Z" transform="translate(-321.99 -89.01)"/><path class="cls-15" d="M350,104.54c0,.63.36,1.13.72,1.1s.62-.56.58-1.2-.36-1.13-.71-1.11S349.93,103.9,350,104.54Z" transform="translate(-321.99 -89.01)"/><path class="cls-14" d="M348.31,107a1.2,1.2,0,0,0,1.09,1.22,1.12,1.12,0,0,0,1.3-.94,1.19,1.19,0,0,0-1.09-1.22A1.12,1.12,0,0,0,348.31,107Z" transform="translate(-321.99 -89.01)"/><path class="cls-15" d="M350,104.27s.3-1.47.76-1.5,1.23.94,1.23.94l.85-.69-.82.36s-.7-1.12-1.34-.89S350,104.27,350,104.27Z" transform="translate(-321.99 -89.01)"/><path class="cls-15" d="M355.23,103.6c0,.63.36,1.13.72,1.1s.62-.56.58-1.2-.36-1.13-.71-1.11S355.2,103,355.23,103.6Z" transform="translate(-321.99 -89.01)"/><path class="cls-15" d="M355.21,103.36s.3-1.47.76-1.5,1.23.94,1.23.94l.84-.7-.81.36s-.7-1.11-1.34-.89S355.21,103.36,355.21,103.36Z" transform="translate(-321.99 -89.01)"/><path class="cls-17" d="M349.28,100.94a.26.26,0,0,0,.21-.13A1.63,1.63,0,0,1,351,100a.27.27,0,0,0,.29-.26.29.29,0,0,0-.23-.32,2.11,2.11,0,0,0-2,1.07.32.32,0,0,0,.08.41A.21.21,0,0,0,349.28,100.94Z" transform="translate(-321.99 -89.01)"/><path class="cls-17" d="M355.05,99.43a.24.24,0,0,0,.15-.06,1.54,1.54,0,0,1,1.68-.24.26.26,0,0,0,.34-.15.31.31,0,0,0-.13-.39,2,2,0,0,0-2.23.33.32.32,0,0,0,0,.41A.24.24,0,0,0,355.05,99.43Z" transform="translate(-321.99 -89.01)"/><path class="cls-18" d="M355.24,105.34s2.23,0,2,.91a5.78,5.78,0,0,1-1.51,2S354.74,106.45,355.24,105.34Z" transform="translate(-321.99 -89.01)"/><path class="cls-15" d="M356.31,109.85s-1.88,1.38-5.18.17c0,0,1,4.42,3.09,3.86S356.31,109.85,356.31,109.85Z" transform="translate(-321.99 -89.01)"/><path class="cls-22" d="M347,98.19a17.35,17.35,0,0,0-2.71,9.46s-2.1-2.9-3.2-.38,3.3,6.21,3.3,6.21-7.08.45-7.91-9.89C336.12,99.24,341.13,95.26,347,98.19Z" transform="translate(-321.99 -89.01)"/><path class="cls-10" d="M344.54,111.25c1,2.91,4.63,8,8.53,6.52,0,0-1,4.35.64,5.94,0,0,1.82,1.67,2.6,6.56a25.45,25.45,0,0,1,0,5.9,96.56,96.56,0,0,1-8.34-6.6c-3.53-3.33-4-5.86-4-5.86,2.12-5.34-.79-11.93-.79-11.93C344.2,112.57,344.54,111.25,344.54,111.25Z" transform="translate(-321.99 -89.01)"/><path class="cls-22" d="M353.72,92a8.16,8.16,0,0,1,5,6.44c.56,3-12.19,3.22-13.06,1s.25-1.72.25-1.72l-8.77,4.74S334.2,99.2,339,92.94,352.11,89.1,353.72,92Z" transform="translate(-321.99 -89.01)"/><path class="cls-9" d="M341.73,192.18s-1.65.85-3.22,4.6c0,0-17.81-22.65-16.45-29.71,0,0,.21-1.55.61-4,1.53-9.59,5.88-33.1,12.35-36.22a13.4,13.4,0,0,1,4.88,11.44c-.29,4.42-6.69,20.06-9.3,26.27-.66,1.6-1.08,2.56-1.08,2.56Z" transform="translate(-321.99 -89.01)"/><path class="cls-12" d="M339.9,138.24c-.29,4.42-6.69,20.06-9.3,26.27a15.76,15.76,0,0,0-7.93-1.49c1.53-9.59,5.88-33.1,12.35-36.22A13.4,13.4,0,0,1,339.9,138.24Z" transform="translate(-321.99 -89.01)"/><path class="cls-11" d="M322.43,164.51,322,162s5.84-2,9.31,1.65l-1.15,1.93A8.63,8.63,0,0,0,322.43,164.51Z" transform="translate(-321.99 -89.01)"/></g></svg>