<?xml version="1.0" encoding="utf-8"?>
<!-- Generator: Adobe Illustrator 24.0.0, SVG Export Plug-In . SVG Version: 6.00 Build 0)  -->
<svg version="1.1" id="OBJECTS" xmlns="http://www.w3.org/2000/svg" xmlns:xlink="http://www.w3.org/1999/xlink" x="0px" y="0px"
	 viewBox="0 0 642.3 5417" style="enable-background:new 0 0 642.3 5417;" xml:space="preserve">
<style type="text/css">
	.st0{clip-path:url(#SVGID_2_);fill:#8ACFBB;}
	.st1{clip-path:url(#SVGID_4_);}
	.st2{fill:#6CC1BF;}
	.st3{fill:#5EB7B3;}
	.st4{clip-path:url(#SVGID_6_);}
	.st5{fill:#4B9FA3;}
	.st6{fill:#FFFFFF;}
	.st7{clip-path:url(#SVGID_8_);fill:#4B9FA3;}
	.st8{opacity:0.67;fill:#00A4C9;}
	.st9{opacity:0.29;fill:#8ACFBB;}
	.st10{opacity:0.64;fill:#8ACFBB;}
	.st11{opacity:0.63;fill:#008FAA;}
	.st12{fill:#8ACFBB;}
</style>
<g>
	<g>
		<g>
			<defs>
				<rect id="SVGID_1_" x="-66" y="2203.4" width="720.8" height="637.6"/>
			</defs>
			<clipPath id="SVGID_2_">
				<use xlink:href="#SVGID_1_"  style="overflow:visible;"/>
			</clipPath>
			<path class="st0" d="M353.7,2168c0,0,97.8,35.7,25.2,100.2s-115.6,110.2-76.9,159.4c38.9,49.5-133,147.3-142.6,222.7
				c-9.7,75.4,14.2,52.2,33,92.5s-36.1,119.6-36.1,119.6h509.5v-676L353.7,2168z"/>
		</g>
	</g>
	<g>
		<g>
			<defs>
				<rect id="SVGID_3_" x="-66" y="2203.4" width="720.8" height="637.6"/>
			</defs>
			<clipPath id="SVGID_4_">
				<use xlink:href="#SVGID_3_"  style="overflow:visible;"/>
			</clipPath>
			<g class="st1">
				<g>
					<rect x="592.5" y="2408.2" class="st2" width="81.1" height="309.7"/>
				</g>
				<g>
					<rect x="597.5" y="2414.9" class="st3" width="71.2" height="294.7"/>
				</g>
				<g>
					<rect x="615" y="2432.5" class="st2" width="36.1" height="3.3"/>
				</g>
				<g>
					<rect x="615" y="2443" class="st2" width="36.1" height="3.3"/>
				</g>
				<g>
					<rect x="615" y="2453.6" class="st2" width="36.1" height="3.3"/>
				</g>
				<g>
					<rect x="615" y="2464.4" class="st2" width="36.1" height="3.3"/>
				</g>
				<g>
					<rect x="615" y="2475.1" class="st2" width="36.1" height="3.3"/>
				</g>
				<g>
					<rect x="615" y="2485.8" class="st2" width="36.1" height="3.3"/>
				</g>
				<g>
					<rect x="615" y="2496.5" class="st2" width="36.1" height="3.3"/>
				</g>
				<g>
					<rect x="615" y="2615.7" class="st2" width="36.1" height="3.3"/>
				</g>
				<g>
					<rect x="615" y="2626.5" class="st2" width="36.1" height="3.3"/>
				</g>
				<g>
					<rect x="615" y="2637.1" class="st2" width="36.1" height="3.3"/>
				</g>
				<g>
					<rect x="615" y="2647.9" class="st2" width="36.1" height="3.3"/>
				</g>
				<g>
					<rect x="615" y="2658.4" class="st2" width="36.1" height="3.3"/>
				</g>
				<g>
					<rect x="615" y="2669.2" class="st2" width="36.1" height="3.3"/>
				</g>
				<g>
					<rect x="615" y="2679.8" class="st2" width="36.1" height="3.3"/>
				</g>
				<g>
					<ellipse class="st2" cx="657.4" cy="2549.8" rx="4.3" ry="6.5"/>
				</g>
			</g>
		</g>
	</g>
	<g>
		<g>
			<defs>
				<rect id="SVGID_5_" x="-66" y="2203.4" width="720.8" height="637.6"/>
			</defs>
			<clipPath id="SVGID_6_">
				<use xlink:href="#SVGID_5_"  style="overflow:visible;"/>
			</clipPath>
			<g class="st4">
				<g>
					<rect x="452.7" y="2189.1" class="st5" width="2.2" height="135.6"/>
				</g>
				<g>
					<path class="st6" d="M474.1,2337.9c-2.2-13.8-10.4-23.8-20.3-23.8c-9.9,0-18.1,10.3-20.3,23.8H474.1z"/>
				</g>
				<g>
					<rect x="508.7" y="2189.1" class="st5" width="2.2" height="135.6"/>
				</g>
				<g>
					<path class="st6" d="M530.3,2337.9c-2.2-13.8-10.4-23.8-20.3-23.8s-18.1,10.3-20.3,23.8H530.3z"/>
				</g>
				<g>
					<rect x="564.9" y="2189.1" class="st5" width="2.2" height="135.6"/>
				</g>
				<g>
					<path class="st6" d="M586.4,2337.9c-2.2-13.8-10.4-23.8-20.3-23.8s-18.1,10.3-20.3,23.8H586.4z"/>
				</g>
			</g>
		</g>
	</g>
	<g>
		<g>
			<defs>
				<rect id="SVGID_7_" x="-53.8" y="2203.4" width="720.8" height="1070.6"/>
			</defs>
			<clipPath id="SVGID_8_">
				<use xlink:href="#SVGID_7_"  style="overflow:visible;"/>
			</clipPath>
			<path class="st7" d="M654.8,2569.4c0,0-307,0-375.5,0s-51.8,53.9-47.7,86.7c4.1,32.8-64.7,10-100.3,52
				C95.6,2750,106,2841,106,2841h548.8V2569.4z"/>
			<path class="st7" d="M654.8,3087.1c0,0-307,0-375.5,0s-51.8-59.3-47.7-95.4c4.1-36.1-64.7-11-100.3-57.2S106,2788.2,106,2788.2
				h548.8V3087.1z"/>
		</g>
	</g>
</g>
<circle class="st8" cx="-2.4" cy="3054.8" r="46.3"/>
<circle class="st9" cx="54.5" cy="3134.8" r="28.9"/>
<circle class="st10" cx="210.8" cy="3210.2" r="58.5"/>
<ellipse transform="matrix(0.9941 -0.1083 0.1083 0.9941 -349.3672 24.0992)" class="st11" cx="47.2" cy="3228.1" rx="44.4" ry="39.6"/>
<circle class="st12" cx="25.6" cy="2942.1" r="10.5"/>
<ellipse class="st8" cx="529.1" cy="3622.5" rx="75.9" ry="55.5"/>
<circle class="st9" cx="539.1" cy="3497.3" r="28.9"/>
<ellipse class="st10" cx="480.5" cy="3396.6" rx="39.5" ry="36.6"/>
<ellipse transform="matrix(0.5694 -0.8221 0.8221 0.5694 -2577.8469 2015.2695)" class="st11" cx="634.8" cy="3468.3" rx="39.6" ry="44.4"/>
<circle class="st12" cx="463.7" cy="3698.5" r="10.5"/>
<circle class="st8" cx="76.8" cy="3590.9" r="46.3"/>
<circle class="st9" cx="44.6" cy="3683.6" r="28.9"/>
<ellipse class="st10" cx="94.8" cy="3847.6" rx="79.7" ry="65.6"/>
<ellipse transform="matrix(0.7478 -0.6639 0.6639 0.7478 -2431.2539 1040.3434)" class="st11" cx="153.7" cy="3720.3" rx="39.6" ry="44.4"/>
<circle class="st12" cx="185" cy="3548.4" r="10.5"/>
<circle class="st8" cx="324.4" cy="4403.4" r="46.3"/>
<circle class="st9" cx="416.3" cy="4369" r="28.9"/>
<circle class="st10" cx="529.4" cy="4237.4" r="58.5"/>
<ellipse transform="matrix(0.1513 -0.9885 0.9885 0.1513 -3921.2874 4232.9346)" class="st11" cx="504.5" cy="4400.1" rx="44.4" ry="39.6"/>
<circle class="st12" cx="222.6" cy="4347.3" r="10.5"/>
<circle class="st8" cx="74.9" cy="4610.4" r="46.3"/>
<circle class="st9" cx="155.3" cy="4666.6" r="28.9"/>
<circle class="st10" cx="327.8" cy="4685.4" r="58.5"/>
<ellipse transform="matrix(0.9004 -0.4351 0.4351 0.9004 -2052.0413 552.1136)" class="st11" cx="179.6" cy="4757" rx="44.4" ry="39.6"/>
<circle class="st12" cx="63.5" cy="4494.7" r="10.5"/>
<circle class="st8" cx="341" cy="4842.3" r="46.3"/>
<circle class="st9" cx="329" cy="4939.7" r="28.9"/>
<circle class="st10" cx="393.2" cy="5100.9" r="58.5"/>
<ellipse transform="matrix(0.5917 -0.8061 0.8061 0.5917 -3927.1221 2252.7805)" class="st11" cx="260.5" cy="5003.5" rx="39.6" ry="44.4"/>
<circle class="st12" cx="437.8" cy="4778.1" r="10.5"/>
<circle class="st8" cx="-31.7" cy="5188.5" r="46.3"/>
<circle class="st9" cx="25.2" cy="5268.5" r="28.9"/>
<circle class="st10" cx="181.5" cy="5343.9" r="58.5"/>
<ellipse transform="matrix(0.9941 -0.1083 0.1083 0.9941 -580.6494 33.4764)" class="st11" cx="17.8" cy="5361.8" rx="44.4" ry="39.6"/>
<circle class="st12" cx="-3.7" cy="5075.8" r="10.5"/>
</svg>
