<?xml version="1.0" encoding="utf-8"?>
<!-- Generator: Adobe Illustrator 24.0.0, SVG Export Plug-In . SVG Version: 6.00 Build 0)  -->
<svg version="1.1" id="OBJECTS" xmlns="http://www.w3.org/2000/svg" xmlns:xlink="http://www.w3.org/1999/xlink" x="0px" y="0px"
	 viewBox="0 0 642.3 6427" style="enable-background:new 0 0 642.3 6427;" xml:space="preserve">
<style type="text/css">
	.st0{clip-path:url(#SVGID_2_);fill:#8ACFBB;}
	.st1{clip-path:url(#SVGID_4_);}
	.st2{fill:#6CC1BF;}
	.st3{fill:#5EB7B3;}
	.st4{clip-path:url(#SVGID_6_);}
	.st5{fill:#4B9FA3;}
	.st6{fill:#FFFFFF;}
	.st7{clip-path:url(#SVGID_8_);fill:#4B9FA3;}
	.st8{clip-path:url(#SVGID_10_);fill:#4B9FA3;}
	.st9{opacity:0.67;fill:#00A4C9;enable-background:new    ;}
	.st10{opacity:0.29;fill:#8ACFBB;enable-background:new    ;}
	.st11{opacity:0.64;fill:#8ACFBB;enable-background:new    ;}
	.st12{opacity:0.63;fill:#008FAA;enable-background:new    ;}
	.st13{fill:#8ACFBB;}
</style>
<g>
	<g>
		<g>
			<g>
				<defs>
					<rect id="SVGID_1_" x="-32" y="3174.4" width="720.8" height="637.6"/>
				</defs>
				<clipPath id="SVGID_2_">
					<use xlink:href="#SVGID_1_"  style="overflow:visible;"/>
				</clipPath>
				<path class="st0" d="M387.7,3139c0,0,97.8,35.7,25.2,100.2s-115.6,110.2-76.9,159.4c38.9,49.5-133,147.3-142.6,222.7
					c-9.7,75.4,14.2,52.2,33,92.5s-36.1,119.6-36.1,119.6h509.5v-676L387.7,3139z"/>
			</g>
		</g>
	</g>
	<g>
		<g>
			<g>
				<defs>
					<rect id="SVGID_3_" x="-32" y="3174.4" width="720.8" height="637.6"/>
				</defs>
				<clipPath id="SVGID_4_">
					<use xlink:href="#SVGID_3_"  style="overflow:visible;"/>
				</clipPath>
				<g class="st1">
					<g>
						<rect x="626.5" y="3379.2" class="st2" width="81.1" height="309.7"/>
					</g>
					<g>
						<rect x="631.5" y="3385.9" class="st3" width="71.2" height="294.7"/>
					</g>
					<g>
						<rect x="649" y="3403.5" class="st2" width="36.1" height="3.3"/>
					</g>
					<g>
						<rect x="649" y="3414" class="st2" width="36.1" height="3.3"/>
					</g>
					<g>
						<rect x="649" y="3424.6" class="st2" width="36.1" height="3.3"/>
					</g>
					<g>
						<rect x="649" y="3435.4" class="st2" width="36.1" height="3.3"/>
					</g>
					<g>
						<rect x="649" y="3446.1" class="st2" width="36.1" height="3.3"/>
					</g>
					<g>
						<rect x="649" y="3456.8" class="st2" width="36.1" height="3.3"/>
					</g>
					<g>
						<rect x="649" y="3467.5" class="st2" width="36.1" height="3.3"/>
					</g>
					<g>
						<rect x="649" y="3586.7" class="st2" width="36.1" height="3.3"/>
					</g>
					<g>
						<rect x="649" y="3597.5" class="st2" width="36.1" height="3.3"/>
					</g>
					<g>
						<rect x="649" y="3608.1" class="st2" width="36.1" height="3.3"/>
					</g>
					<g>
						<rect x="649" y="3618.9" class="st2" width="36.1" height="3.3"/>
					</g>
					<g>
						<rect x="649" y="3629.4" class="st2" width="36.1" height="3.3"/>
					</g>
					<g>
						<rect x="649" y="3640.2" class="st2" width="36.1" height="3.3"/>
					</g>
					<g>
						<rect x="649" y="3650.8" class="st2" width="36.1" height="3.3"/>
					</g>
					<g>
						<ellipse class="st2" cx="691.4" cy="3520.8" rx="4.3" ry="6.5"/>
					</g>
				</g>
			</g>
		</g>
	</g>
	<g>
		<g>
			<g>
				<defs>
					<rect id="SVGID_5_" x="-32" y="3174.4" width="720.8" height="637.6"/>
				</defs>
				<clipPath id="SVGID_6_">
					<use xlink:href="#SVGID_5_"  style="overflow:visible;"/>
				</clipPath>
				<g class="st4">
					<g>
						<rect x="486.7" y="3160.1" class="st5" width="2.2" height="135.6"/>
					</g>
					<g>
						<path class="st6" d="M508.1,3308.9c-2.2-13.8-10.4-23.8-20.3-23.8s-18.1,10.3-20.3,23.8H508.1z"/>
					</g>
					<g>
						<rect x="542.7" y="3160.1" class="st5" width="2.2" height="135.6"/>
					</g>
					<g>
						<path class="st6" d="M564.3,3308.9c-2.2-13.8-10.4-23.8-20.3-23.8s-18.1,10.3-20.3,23.8H564.3z"/>
					</g>
					<g>
						<rect x="598.9" y="3160.1" class="st5" width="2.2" height="135.6"/>
					</g>
					<g>
						<path class="st6" d="M620.4,3308.9c-2.2-13.8-10.4-23.8-20.3-23.8s-18.1,10.3-20.3,23.8H620.4z"/>
					</g>
				</g>
			</g>
		</g>
	</g>
	<g>
		<g>
			<g>
				<defs>
					<rect id="SVGID_7_" x="-19.8" y="3174.4" width="720.8" height="1070.6"/>
				</defs>
				<clipPath id="SVGID_8_">
					<use xlink:href="#SVGID_7_"  style="overflow:visible;"/>
				</clipPath>
				<path class="st7" d="M688.8,3540.4c0,0-307,0-375.5,0s-51.8,53.9-47.7,86.7c4.1,32.8-64.7,10-100.3,52
					C129.6,3721,140,3812,140,3812h548.8V3540.4z"/>
			</g>
			<g>
				<defs>
					<rect id="SVGID_9_" x="-19.8" y="3174.4" width="720.8" height="1070.6"/>
				</defs>
				<clipPath id="SVGID_10_">
					<use xlink:href="#SVGID_9_"  style="overflow:visible;"/>
				</clipPath>
				<path class="st8" d="M688.8,4058.1c0,0-307,0-375.5,0s-51.8-59.3-47.7-95.4c4.1-36.1-64.7-11-100.3-57.2S140,3759.2,140,3759.2
					h548.8V4058.1z"/>
			</g>
		</g>
	</g>
</g>
<ellipse transform="matrix(7.108470e-03 -1 1 7.108470e-03 -3994.323 4028.782)" class="st9" cx="31.6" cy="4025.8" rx="46.3" ry="46.3"/>
<ellipse transform="matrix(2.415434e-03 -1 1 2.415434e-03 -4017.502 4184.3823)" class="st10" cx="88.5" cy="4105.8" rx="28.9" ry="28.9"/>
<circle class="st11" cx="244.8" cy="4181.2" r="58.5"/>
<ellipse transform="matrix(0.9941 -0.1083 0.1083 0.9941 -454.2867 33.4881)" class="st12" cx="81.2" cy="4199" rx="44.4" ry="39.6"/>
<circle class="st13" cx="59.6" cy="3913.1" r="10.5"/>
<ellipse class="st9" cx="563.1" cy="4593.5" rx="75.9" ry="55.5"/>
<ellipse transform="matrix(3.327787e-02 -0.9994 0.9994 3.327787e-02 -3911.7969 4892.3872)" class="st10" cx="573.1" cy="4468.3" rx="28.9" ry="28.9"/>
<ellipse class="st11" cx="514.5" cy="4367.6" rx="39.5" ry="36.6"/>
<ellipse transform="matrix(0.5694 -0.8221 0.8221 0.5694 -3361.3501 2461.5061)" class="st12" cx="668.9" cy="4439.3" rx="39.6" ry="44.4"/>
<circle class="st13" cx="497.7" cy="4669.5" r="10.5"/>
<ellipse transform="matrix(0.9999 -1.020249e-02 1.020249e-02 0.9999 -46.537 1.3679)" class="st9" cx="110.8" cy="4561.9" rx="46.3" ry="46.3"/>
<ellipse transform="matrix(2.415434e-03 -1 1 2.415434e-03 -4576.1763 4721.957)" class="st10" cx="78.6" cy="4654.6" rx="28.9" ry="28.9"/>
<ellipse class="st11" cx="128.8" cy="4818.6" rx="79.7" ry="65.6"/>
<ellipse transform="matrix(0.7478 -0.6639 0.6639 0.7478 -3067.3232 1307.6429)" class="st12" cx="187.6" cy="4691.3" rx="39.6" ry="44.4"/>
<circle class="st13" cx="219" cy="4519.4" r="10.5"/>
<circle class="st9" cx="358.4" cy="5374.4" r="46.3"/>
<circle class="st10" cx="450.3" cy="5340" r="28.9"/>
<circle class="st11" cx="563.4" cy="5208.4" r="58.5"/>
<ellipse transform="matrix(0.1513 -0.9885 0.9885 0.1513 -4852.0796 5090.6919)" class="st12" cx="538.5" cy="5371" rx="44.4" ry="39.6"/>
<circle class="st13" cx="256.6" cy="5318.3" r="10.5"/>
<ellipse transform="matrix(1 -2.487534e-03 2.487534e-03 1 -13.8836 0.2882)" class="st9" cx="108.9" cy="5581.4" rx="46.3" ry="46.3"/>
<ellipse transform="matrix(0.9999 -1.020247e-02 1.020247e-02 0.9999 -57.5076 2.2247)" class="st10" cx="189.3" cy="5637.6" rx="28.9" ry="28.9"/>
<circle class="st11" cx="361.8" cy="5656.4" r="58.5"/>
<ellipse transform="matrix(0.9004 -0.4351 0.4351 0.9004 -2471.0259 663.4757)" class="st12" cx="213.4" cy="5728.2" rx="44.4" ry="39.6"/>
<circle class="st13" cx="97.5" cy="5465.7" r="10.5"/>
<circle class="st9" cx="375" cy="5813.3" r="46.3"/>
<circle class="st10" cx="363" cy="5910.7" r="28.9"/>
<circle class="st11" cx="427.2" cy="6071.9" r="58.5"/>
<ellipse transform="matrix(0.5917 -0.8061 0.8061 0.5917 -4695.9902 2676.4426)" class="st12" cx="294.3" cy="5974.4" rx="39.6" ry="44.4"/>
<circle class="st13" cx="471.8" cy="5749.1" r="10.5"/>
<circle class="st9" cx="2.3" cy="6159.5" r="46.3"/>
<ellipse transform="matrix(1 -2.487535e-03 2.487535e-03 1 -15.5208 0.1666)" class="st10" cx="59.2" cy="6239.5" rx="28.9" ry="28.9"/>
<circle class="st11" cx="215.5" cy="6314.9" r="58.5"/>
<ellipse transform="matrix(0.9941 -0.1083 0.1083 0.9941 -685.5411 42.851)" class="st12" cx="51.7" cy="6332.7" rx="44.4" ry="39.6"/>
<circle class="st13" cx="30.3" cy="6046.8" r="10.5"/>
</svg>
