<svg height="512pt" viewBox="0 0 512 512.11077" width="512pt" xmlns="http://www.w3.org/2000/svg"><path d="m269.824219 175.1875 31.835937-67.511719c-14.859375-4.601562-30.324218-6.957031-45.878906-6.996093-15.386719.023437-30.683594 2.34375-45.386719 6.886718l31.828125 67.511719c9.140625-1.511719 18.472656-1.472656 27.601563.109375zm0 0"/><path d="m219.191406 192.960938 8.765625-5.09375-34.742187-73.835938c-10.210938 4.421875-19.890625 9.992188-28.84375 16.601562l46.628906 67.0625zm0 0"/><path d="m192.824219 203.703125-42.570313-61.304687c-22.710937 21.183593-38.542968 48.691406-45.449218 78.96875l74.238281 6.199218c3.230469-8.667968 7.886719-16.734375 13.78125-23.863281zm0 0"/><path d="m260.78125 238.445312c-1.542969-.410156-3.136719-.621093-4.734375-.621093-9.632813 0-17.613281 7.472656-18.246094 17.082031-.632812 9.613281 6.296875 18.066406 15.847657 19.332031 9.546874 1.261719 18.4375-5.09375 20.328124-14.539062 1.890626-9.445313-3.867187-18.734375-13.167968-21.246094zm0 0"/><path d="m319.257812 308.515625 42.578126 61.257813c22.703124-21.167969 38.535156-48.660157 45.449218-78.921876l-74.238281-6.199218c-3.226563 8.671875-7.886719 16.738281-13.789063 23.863281zm0 0"/><path d="m329.1875 265.984375 81.160156 6.800781c1.238282-11.082031 1.277344-22.269531.121094-33.359375l-81.28125 6.773438zm0 0"/><path d="m327.359375 214.96875c2.273437 4.019531 4.195313 8.226562 5.742187 12.578125l74.46875-6.207031c-6.925781-30.320313-22.839843-57.847656-45.660156-78.976563l-42.613281 61.257813c3.003906 3.546875 5.699219 7.34375 8.0625 11.347656zm0 0"/><path d="m301.136719 197.742188 46.574219-67.074219c-8.996094-6.546875-18.667969-12.105469-28.855469-16.582031l-34.796875 73.789062zm0 0"/><path d="m315.886719 233.699219c-1.1875-3.308594-2.65625-6.511719-4.390625-9.570313-1.796875-3.042968-3.84375-5.933594-6.117188-8.640625-4.546875 1.097657-9.34375.410157-13.402344-1.921875l-17.023437-9.890625c-4.03125-2.316406-7.03125-6.082031-8.382813-10.53125-5.867187-1.003906-11.847656-1.191406-17.765624-.570312-.269532 2.871093-1.894532 5.441406-4.371094 6.914062l-15.980469 9.234375-7.808594 4.570313c-.242187.171875-.492187.324219-.75.46875-.101562.0625-.21875.070312-.320312.125l-6.773438 3.921875c-2.484375 1.488281-5.550781 1.621094-8.15625.359375-3.511719 4.785156-6.351562 10.035156-8.429687 15.597656 3.195312 3.367187 4.972656 7.828125 4.972656 12.46875v19.75c.007812 4.664063-1.777344 9.148437-4.980469 12.535156 1.1875 3.308594 2.65625 6.511719 4.386719 9.570313 1.804688 3.0625 3.863281 5.964844 6.152344 8.679687 4.523437-1.089843 9.289062-.414062 13.332031 1.890625l17.078125 9.867188c3.996094 2.332031 6.960938 6.097656 8.292969 10.53125 5.890625 1.015625 11.894531 1.210937 17.835937.585937.269532-2.871093 1.894532-5.4375 4.371094-6.914062l15.984375-9.234375 7.804687-4.570313c.242188-.167969.492188-.324219.75-.464843.136719-.074219.285157-.109376.421876-.183594l6.675781-3.867188c2.5-1.410156 5.523437-1.535156 8.136719-.339844 3.519531-4.792968 6.363281-10.046874 8.445312-15.617187-3.191406-3.363281-4.972656-7.828125-4.972656-12.46875v-19.75c-.007813-4.660156 1.777344-9.148437 4.984375-12.535156zm-24.523438 31.875c-4.511719 16.851562-20.300781 28.171875-37.710937 27.03125-17.410156-1.136719-31.59375-14.414063-33.871094-31.714844-2.28125-17.296875 7.976562-33.796875 24.496094-39.40625 16.519531-5.609375 34.703125 1.230469 43.429687 16.339844 4.878907 8.390625 6.195313 18.382812 3.65625 27.75zm0 0"/><path d="m301.101562 314.523438-8.230468 4.734374-8.765625 5.09375 34.742187 73.882813c10.195313-4.464844 19.863282-10.050781 28.828125-16.648437zm0 0"/><path d="m256.328125 338.394531c-4.722656-.050781-9.433594-.503906-14.078125-1.351562l-31.78125 67.4375c29.703125 9.171875 61.476562 9.207031 91.199219.109375l-31.796875-67.472656c-4.472656.800781-9 1.226562-13.542969 1.277343zm0 0"/><path d="m322.304688 8.832031c-21.746094-5.84375-44.164063-8.816406-66.679688-8.832031-91.394531.1875-175.761719 49.066406-221.382812 128.257812-45.621094 79.191407-45.578126 176.695313.105468 255.851563 51.773438 89.667969 152.460938 139.316406 255.117188 125.804687 102.652344-13.515624 187.058594-87.535156 213.859375-187.546874 17.570312-65.582032 8.371093-135.460938-25.578125-194.261719-33.949219-58.796875-89.867188-101.703125-155.453125-119.273438zm-130.257813 18.707031c5.046875 0 9.140625 4.09375 9.140625 9.140626 0 5.050781-4.09375 9.144531-9.140625 9.144531-5.050781 0-9.144531-4.09375-9.144531-9.144531 0-5.046876 4.09375-9.140626 9.144531-9.140626zm-137.867187 142.453126c-1.972657 4.652343-7.339844 6.824218-11.988282 4.851562-4.652344-1.972656-6.824218-7.339844-4.851562-11.992188 20.054687-47.457031 55.132812-87.019531 99.847656-112.613281 7.683594-4.375 15.589844-8.339843 23.691406-11.882812 4.628906-2.019531 10.019532.09375 12.039063 4.726562 2.019531 4.628907-.097657 10.019531-4.726563 12.039063-7.503906 3.269531-14.828125 6.929687-21.941406 10.972656-41.242188 23.613281-73.585938 60.117188-92.070312 103.898438zm51.421874 172.976562c-10.675781-18.539062-17.804687-38.898438-21.03125-60.042969 0-.101562-.0625-.191406-.0625-.300781-9.261718-60.679688 14.125-121.753906 61.550782-160.722656.1875-.222656.390625-.433594.601562-.632813.128906-.082031.273438-.089843.402344-.171875 13.914062-11.574218 29.707031-20.679687 46.691406-26.925781l.121094-.09375c.101562-.042969.199219 0 .292969-.070313 57.738281-21.933593 122.777343-11.609374 170.886719 27.125.101562.066407.21875.074219.320312.136719.246094.175781.375.441407.605469.632813 33.195312 26.867187 55.132812 65.1875 61.492187 107.417968 0 .101563.066406.191407.066406.300782 9.261719 60.679687-14.125 121.753906-61.550781 160.722656-.1875.222656-.390625.433594-.601562.632812-.128907.082032-.277344.089844-.402344.171876-39.449219 31.929687-90.902344 44.980468-140.800781 35.710937-49.898438-9.269531-93.234375-39.925781-118.582032-83.890625zm369.148438 6.398438c-20.054688 47.457031-55.132812 87.019531-99.847656 112.613281-15.574219 8.921875-32.089844 16.09375-49.242188 21.382812-.871094.273438-1.777344.410157-2.6875.402344-4.527344.003906-8.375-3.304687-9.046875-7.78125-.675781-4.476563 2.03125-8.773437 6.359375-10.101563 15.84375-4.882812 31.09375-11.507812 45.476563-19.757812 41.265625-23.601562 73.644531-60.105469 92.148437-103.898438 1.277344-3.007812 4.058594-5.109374 7.304688-5.507812 3.242187-.398438 6.449218.960938 8.417968 3.570312 1.96875 2.609376 2.394532 6.070313 1.117188 9.078126zm0 0"/><path d="m210.933594 314.503906-45.832032 66.003906 28.664063 16.511719 34.246094-72.660156zm0 0"/><path d="m182.902344 246.234375-81.160156-6.800781c-1.238282 11.082031-1.277344 22.269531-.121094 33.363281l81.28125-6.777344zm0 0"/><path d="m184.777344 297.253906c-2.273438-4.023437-4.195313-8.230468-5.742188-12.582031l-74.46875 6.207031c6.941406 30.320313 22.84375 57.855469 45.632813 79.023438l42.613281-61.359375c-2.992188-3.53125-5.679688-7.308594-8.035156-11.289063zm0 0"/></svg>