<?xml version="1.0" encoding="utf-8"?>
<!-- Generator: Adobe Illustrator 24.0.0, SVG Export Plug-In . SVG Version: 6.00 Build 0)  -->
<svg version="1.1" id="OBJECTS" xmlns="http://www.w3.org/2000/svg" xmlns:xlink="http://www.w3.org/1999/xlink" x="0px" y="0px"
	 viewBox="0 0 1366 766" style="enable-background:new 0 0 1366 766;" xml:space="preserve">
<style type="text/css">
	.st0{clip-path:url(#SVGID_2_);fill:#8ACFBB;}
	.st1{clip-path:url(#SVGID_4_);}
	.st2{fill:#6CC1BF;}
	.st3{fill:#5EB7B3;}
	.st4{clip-path:url(#SVGID_6_);}
	.st5{fill:#4B9FA3;}
	.st6{fill:#FFFFFF;}
	.st7{clip-path:url(#SVGID_8_);fill:#4B9FA3;}
</style>
<g>
	<g>
		<g>
			<g>
				<g>
					<g>
						<g>
							<defs>
								<rect id="SVGID_1_" x="418.5" y="-2.5" width="949.5" height="768.8"/>
							</defs>
							<clipPath id="SVGID_2_">
								<use xlink:href="#SVGID_1_"  style="overflow:visible;"/>
							</clipPath>
							<path class="st0" d="M971.4-45.2c0,0,128.8,43.1,33.2,120.9S852.2,208.5,903.3,267.8c51.2,59.7-175.1,177.5-187.8,268.5
								c-12.8,91,18.7,62.9,43.5,111.6c24.8,48.5-47.6,144.3-47.6,144.3h671.1V-23.1L971.4-45.2z"/>
						</g>
					</g>
				</g>
			</g>
		</g>
	</g>
	<g>
		<g>
			<g>
				<g>
					<g>
						<g>
							<defs>
								<rect id="SVGID_3_" x="418.5" y="-2.5" width="940.6" height="768.8"/>
							</defs>
							<clipPath id="SVGID_4_">
								<use xlink:href="#SVGID_3_"  style="overflow:visible;"/>
							</clipPath>
							<g class="st1">
								<g>
									<rect x="1277.9" y="244.4" class="st2" width="105.8" height="373.5"/>
								</g>
								<g>
									<rect x="1284.4" y="252.5" class="st3" width="92.9" height="355.3"/>
								</g>
								<g>
									<rect x="1307.2" y="273.7" class="st2" width="47.2" height="4.1"/>
								</g>
								<g>
									<rect x="1307.2" y="286.4" class="st2" width="47.2" height="4.1"/>
								</g>
								<g>
									<rect x="1307.2" y="299.1" class="st2" width="47.2" height="4.1"/>
								</g>
								<g>
									<rect x="1307.2" y="312.2" class="st2" width="47.2" height="4.1"/>
								</g>
								<g>
									<rect x="1307.2" y="325.2" class="st2" width="47.2" height="4.1"/>
								</g>
								<g>
									<rect x="1307.2" y="337.9" class="st2" width="47.2" height="4.1"/>
								</g>
								<g>
									<rect x="1307.2" y="351" class="st2" width="47.2" height="4.1"/>
								</g>
								<g>
									<rect x="1307.2" y="494.7" class="st2" width="47.2" height="4.1"/>
								</g>
								<g>
									<rect x="1307.2" y="507.6" class="st2" width="47.2" height="4.1"/>
								</g>
								<g>
									<rect x="1307.2" y="520.5" class="st2" width="47.2" height="4.1"/>
								</g>
								<g>
									<rect x="1307.2" y="533.5" class="st2" width="47.2" height="4.1"/>
								</g>
								<g>
									<rect x="1307.2" y="546" class="st2" width="47.2" height="4.1"/>
								</g>
								<g>
									<rect x="1307.2" y="559.1" class="st2" width="47.2" height="4.1"/>
								</g>
								<g>
									<rect x="1307.2" y="572" class="st2" width="47.2" height="4.1"/>
								</g>
								<g>
									<ellipse class="st2" cx="1362.5" cy="415.2" rx="5.7" ry="7.9"/>
								</g>
							</g>
						</g>
					</g>
				</g>
			</g>
		</g>
	</g>
	<g>
		<g>
			<g>
				<g>
					<g>
						<g>
							<defs>
								<rect id="SVGID_5_" x="418.5" y="-2.5" width="940.6" height="768.8"/>
							</defs>
							<clipPath id="SVGID_6_">
								<use xlink:href="#SVGID_5_"  style="overflow:visible;"/>
							</clipPath>
							<g class="st4">
								<g>
									<rect x="1095.4" y="-19.7" class="st5" width="2.8" height="163.4"/>
								</g>
								<g>
									<path class="st6" d="M1123.3,159.7c-2.8-16.6-13.6-28.8-26.5-28.8s-23.7,12.5-26.5,28.8H1123.3z"/>
								</g>
								<g>
									<rect x="1168.5" y="-19.7" class="st5" width="2.8" height="163.4"/>
								</g>
								<g>
									<path class="st6" d="M1196.6,159.7c-2.8-16.6-13.6-28.8-26.5-28.8s-23.7,12.5-26.5,28.8H1196.6z"/>
								</g>
								<g>
									<rect x="1241.8" y="-19.7" class="st5" width="2.8" height="163.4"/>
								</g>
								<g>
									<path class="st6" d="M1269.9,159.7c-2.8-16.6-13.6-28.8-26.5-28.8s-23.7,12.5-26.5,28.8H1269.9z"/>
								</g>
							</g>
						</g>
					</g>
				</g>
			</g>
		</g>
	</g>
	<g>
		<g>
			<g>
				<g>
					<g>
						<g>
							<defs>
								<rect id="SVGID_7_" x="434.4" width="940.6" height="1288.4"/>
							</defs>
							<clipPath id="SVGID_8_">
								<use xlink:href="#SVGID_7_"  style="overflow:visible;"/>
							</clipPath>
							<path class="st7" d="M1359.1,421.5c0,0-400.7,0-490.1,0s-67.7,68.5-62.4,110.3s-84.5,12.8-130.9,66.2
								c-46.3,53.4-32.9,169.3-32.9,169.3h716.3V421.5z"/>
						</g>
					</g>
				</g>
			</g>
		</g>
	</g>
</g>
</svg>
