<svg xmlns="http://www.w3.org/2000/svg" viewBox="0 0 379.54 37.95"><defs><style>.cls-1{fill:#6d6e71;}.cls-2{fill:#fff;}</style></defs><g id="Layer_2" data-name="Layer 2"><g id="Layer_1-2" data-name="Layer 1"><path class="cls-1" d="M3.28,4a.88.88,0,0,1,.84-1.29h6.6a1,1,0,0,1,.84.55l8.19,18.1H20l8.19-18.1a1,1,0,0,1,.84-.55h6.6A.88.88,0,0,1,36.51,4L20.94,37.4a1,1,0,0,1-.85.55H19.6a.93.93,0,0,1-.84-.55Z"/><path class="cls-1" d="M40.57,3.68a1,1,0,0,1,1-1H62.05a.94.94,0,0,1,.94,1v5.4a.93.93,0,0,1-.94.94H48.31v6.15H59.62a1,1,0,0,1,.94.95v5.4a.93.93,0,0,1-.94.94H48.31v6.7H62.05a.94.94,0,0,1,.94.94v5.41a.94.94,0,0,1-.94.94H41.52a1,1,0,0,1-1-.94Z"/><path class="cls-1" d="M69.64,3.68a.94.94,0,0,1,.94-1h5.9a1,1,0,0,1,.94,1V30.16H89.23a1,1,0,0,1,.94.94v5.41a1,1,0,0,1-.94.94H70.58a.94.94,0,0,1-.94-.94Z"/><path class="cls-1" d="M110.06,2.24a17.86,17.86,0,1,1-17.81,17.9A17.82,17.82,0,0,1,110.06,2.24Zm0,27.77a9.92,9.92,0,1,0-9.87-9.87A9.93,9.93,0,0,0,110.06,30Z"/><path class="cls-1" d="M149.28,2.24a16.67,16.67,0,0,1,12,4.61.93.93,0,0,1,0,1.39l-3.86,4a.88.88,0,0,1-1.24,0,10.14,10.14,0,0,0-6.7-2.53c-5.6,0-9.72,4.66-9.72,10.21A9.83,9.83,0,0,0,149.58,30a10.5,10.5,0,0,0,6.65-2.38,1,1,0,0,1,1.29.05l3.86,4.12a1,1,0,0,1,0,1.34A17,17,0,0,1,149.28,38a17.86,17.86,0,1,1,0-35.71Z"/><path class="cls-1" d="M167.28,3.68a1,1,0,0,1,.95-1h6a1,1,0,0,1,.94,1V36.51a1,1,0,0,1-.94.94h-6a1,1,0,0,1-.95-.94Z"/><path class="cls-1" d="M188.11,10H181a.93.93,0,0,1-.94-.94V3.68a.94.94,0,0,1,.94-1h22a.94.94,0,0,1,.94,1v5.4A.93.93,0,0,1,203,10H196V36.51a1,1,0,0,1-.94.94h-6a1,1,0,0,1-.94-.94Z"/><path class="cls-1" d="M202.69,36.16,218.22,2.78a1,1,0,0,1,.84-.54h.5a1,1,0,0,1,.84.54l15.52,33.38a.87.87,0,0,1-.84,1.29h-5.51c-.89,0-1.29-.3-1.73-1.24l-1.79-3.92H212.56l-1.78,4A1.86,1.86,0,0,1,209,37.45h-5.45A.88.88,0,0,1,202.69,36.16Zm20.39-10.61-3.77-8.19h-.05l-3.72,8.19Z"/><path class="cls-1" d="M249,32.74l2.33-4.12a1.3,1.3,0,0,1,1.69-.3c.2.1,3.77,2.73,7,2.73,2,0,3.42-1.24,3.42-3,0-2.09-1.73-3.67-5.1-5-4.27-1.69-9.63-5-9.63-11,0-4.91,3.82-9.87,11.46-9.87A18.41,18.41,0,0,1,270.78,6a1.24,1.24,0,0,1,.3,1.58l-2.53,3.82c-.34.55-1.24,1-1.68.65s-4.07-3-7.1-3a2.88,2.88,0,0,0-3.12,2.53c0,1.84,1.49,3.22,5.41,4.81s10,4.56,10,11.31c0,5.11-4.41,10.27-11.7,10.27-6.45,0-10-2.68-11.16-3.82C248.71,33.63,248.57,33.43,249,32.74Z"/><path class="cls-1" d="M278.12,3.68a1,1,0,0,1,.95-1H285a1,1,0,0,1,.94,1V16.17h14.18V3.68a1,1,0,0,1,1-1h5.9a1,1,0,0,1,.94,1V36.51a1,1,0,0,1-.94.94H301a1,1,0,0,1-1-.94v-13H285.91v13a1,1,0,0,1-.94.94h-5.9a1,1,0,0,1-.95-.94Z"/><path class="cls-1" d="M331.68,2.24a17.86,17.86,0,1,1-17.8,17.9A17.82,17.82,0,0,1,331.68,2.24Zm0,27.77a9.92,9.92,0,1,0-9.87-9.87A9.93,9.93,0,0,0,331.68,30Z"/><path class="cls-1" d="M355.54,3.68a.94.94,0,0,1,.94-1h11.95a11.06,11.06,0,1,1,.05,22.12h-5.21V36.51a1,1,0,0,1-.94.94h-5.85a.94.94,0,0,1-.94-.94ZM368,17.61a3.89,3.89,0,0,0,3.91-3.92A3.78,3.78,0,0,0,368,10h-4.72v7.59Z"/><path class="cls-2" d="M.1,1.79A.87.87,0,0,1,.94.5h6.6A1,1,0,0,1,8.38,1l8.19,18.1h.29L25.05,1A1,1,0,0,1,25.89.5h6.6a.87.87,0,0,1,.84,1.29L17.76,35.16a1,1,0,0,1-.85.55h-.49a1,1,0,0,1-.85-.55Z"/><path class="cls-2" d="M37.39,1.44a.94.94,0,0,1,1-.94H58.87a.94.94,0,0,1,.94.94v5.4a1,1,0,0,1-.94,1H45.13v6.15H56.44a1,1,0,0,1,.94.94v5.4a1,1,0,0,1-.94.95H45.13v6.69H58.87a1,1,0,0,1,.94.95v5.4a.94.94,0,0,1-.94.94H38.34a.94.94,0,0,1-1-.94Z"/><path class="cls-2" d="M66.45,1.44a.94.94,0,0,1,1-.94h5.9a1,1,0,0,1,.94.94V27.92H86.05a1,1,0,0,1,.94.95v5.4a.94.94,0,0,1-.94.94H67.4a.94.94,0,0,1-1-.94Z"/><path class="cls-2" d="M106.87,0a17.86,17.86,0,1,1,0,35.71A17.7,17.7,0,0,1,89.07,17.9,17.78,17.78,0,0,1,106.87,0Zm0,27.77A9.92,9.92,0,1,0,97,17.9,9.93,9.93,0,0,0,106.87,27.77Z"/><path class="cls-2" d="M146.1,0a16.67,16.67,0,0,1,12,4.61A.92.92,0,0,1,158.15,6l-3.87,4A.86.86,0,0,1,153,10a10.09,10.09,0,0,0-6.69-2.53c-5.61,0-9.72,4.66-9.72,10.22a9.82,9.82,0,0,0,9.77,10.06A10.45,10.45,0,0,0,153,25.39a1,1,0,0,1,1.29.05l3.87,4.12a1,1,0,0,1,0,1.34,17,17,0,0,1-12.05,4.81A17.86,17.86,0,1,1,146.1,0Z"/><path class="cls-2" d="M164.1,1.44A1,1,0,0,1,165,.5h6a1,1,0,0,1,.94.94V34.27a1,1,0,0,1-.94.94h-6a1,1,0,0,1-.94-.94Z"/><path class="cls-2" d="M184.93,7.79h-7.09a.94.94,0,0,1-.94-1V1.44a.93.93,0,0,1,.94-.94h22a.94.94,0,0,1,.94.94v5.4a1,1,0,0,1-.94,1h-7.09V34.27a1,1,0,0,1-1,.94h-5.95a1,1,0,0,1-.94-.94Z"/><path class="cls-2" d="M199.51,33.92,215,.55a1,1,0,0,1,.85-.55h.49a1,1,0,0,1,.85.55l15.52,33.37a.87.87,0,0,1-.84,1.29h-5.51c-.89,0-1.29-.29-1.73-1.24l-1.79-3.91H209.38l-1.79,4a1.83,1.83,0,0,1-1.78,1.19h-5.46A.87.87,0,0,1,199.51,33.92Zm20.38-10.61-3.77-8.18h0l-3.72,8.18Z"/><path class="cls-2" d="M245.78,30.5l2.33-4.11a1.28,1.28,0,0,1,1.69-.3c.2.1,3.77,2.73,7,2.73,2,0,3.42-1.24,3.42-3,0-2.08-1.73-3.67-5.11-5-4.26-1.69-9.62-5-9.62-11C245.53,5,249.35,0,257,0A18.44,18.44,0,0,1,267.6,3.72a1.25,1.25,0,0,1,.3,1.59l-2.53,3.82c-.35.54-1.24,1-1.69.64s-4.06-3-7.09-3a2.88,2.88,0,0,0-3.12,2.53c0,1.84,1.49,3.23,5.4,4.82s10,4.56,10,11.3c0,5.11-4.41,10.27-11.7,10.27-6.45,0-10-2.68-11.16-3.82C245.53,31.39,245.38,31.2,245.78,30.5Z"/><path class="cls-2" d="M274.94,1.44a1,1,0,0,1,.94-.94h5.9a.94.94,0,0,1,1,.94v12.5h14.18V1.44a.94.94,0,0,1,.94-.94h5.91a1,1,0,0,1,.94.94V34.27a1,1,0,0,1-.94.94h-5.91a.94.94,0,0,1-.94-.94v-13H282.73v13a.94.94,0,0,1-1,.94h-5.9a1,1,0,0,1-.94-.94Z"/><path class="cls-2" d="M328.5,0a17.86,17.86,0,1,1,0,35.71A17.7,17.7,0,0,1,310.7,17.9,17.78,17.78,0,0,1,328.5,0Zm0,27.77a9.92,9.92,0,1,0-9.87-9.87A9.93,9.93,0,0,0,328.5,27.77Z"/><path class="cls-2" d="M352.35,1.44A.94.94,0,0,1,353.3.5h11.95a11.09,11.09,0,0,1,11.11,11A11.16,11.16,0,0,1,365.3,22.62h-5.21V34.27a1,1,0,0,1-.94.94H353.3a.94.94,0,0,1-.95-.94ZM364.8,15.37a3.89,3.89,0,0,0,3.92-3.91,3.78,3.78,0,0,0-3.92-3.67h-4.71v7.58Z"/></g></g></svg>