<?xml version="1.0" encoding="utf-8"?>
<!-- Generator: Adobe Illustrator 24.0.0, SVG Export Plug-In . SVG Version: 6.00 Build 0)  -->
<svg version="1.1" id="Layer_1" xmlns="http://www.w3.org/2000/svg" xmlns:xlink="http://www.w3.org/1999/xlink" x="0px" y="0px"
	 viewBox="0 0 155.6 77.7" style="enable-background:new 0 0 155.6 77.7;" xml:space="preserve">
<style type="text/css">
	.st0{fill:none;stroke:url(#SVGID_1_);stroke-linecap:round;stroke-miterlimit:10;}
	.st1{fill:none;stroke:url(#SVGID_2_);stroke-width:0.8;stroke-linecap:round;stroke-miterlimit:10;}
	.st2{fill:none;stroke:url(#SVGID_3_);stroke-width:0.8;stroke-linecap:round;stroke-miterlimit:10;}
	.st3{fill:none;stroke:url(#SVGID_4_);stroke-linecap:round;stroke-miterlimit:10;}
	.st4{fill:none;stroke:url(#SVGID_5_);stroke-linecap:round;stroke-miterlimit:10;}
	.st5{fill:none;stroke:url(#SVGID_6_);stroke-linecap:round;stroke-miterlimit:10;}
	.st6{fill:none;stroke:url(#SVGID_7_);stroke-linecap:round;stroke-miterlimit:10;}
	.st7{fill:none;stroke:url(#SVGID_8_);stroke-linecap:round;stroke-miterlimit:10;}
</style>
<g id="Layer_2_1_">
	<g id="Layer_2-2">
		
			<linearGradient id="SVGID_1_" gradientUnits="userSpaceOnUse" x1="121.331" y1="59.7988" x2="142.6214" y2="59.7988" gradientTransform="matrix(1 0 0 -1 0 80)">
			<stop  offset="0" style="stop-color:#FFF33B"/>
			<stop  offset="4.000000e-02" style="stop-color:#FEE72E"/>
			<stop  offset="0.12" style="stop-color:#FED51B"/>
			<stop  offset="0.2" style="stop-color:#FDCA10"/>
			<stop  offset="0.28" style="stop-color:#FDC70C"/>
			<stop  offset="0.67" style="stop-color:#F3903F"/>
			<stop  offset="0.89" style="stop-color:#ED683C"/>
			<stop  offset="1" style="stop-color:#E93E3A"/>
		</linearGradient>
		<path class="st0" d="M141.9,25.6c-0.9,1.3-3.4-0.5-5.7,1.2c-0.4,0.3-2.6,2-3.8,2.1c-0.3,0-0.6,0-0.8-0.1c-0.3-0.1-0.7-0.3-0.9-0.5
			c-0.7-0.5-1.6-0.9-2.5-1c-1.2-0.3-1.4,0-2.6-0.4c-0.4-0.1-0.8-0.3-1.2-0.5c-0.3-0.3-0.5-0.7-0.4-1.1l13-2l-12.8-8.6l-2.2,0
			c0-0.5,0.1-1,0.1-1.5c0.1-0.6,0.1-1.3,0.7-1.6c0.6-0.2,1.2-0.2,1.8,0.1l17.4,9.5c0.2,0.7,0.3,1.4,0.3,2.1
			C142.1,24.6,142.2,25.2,141.9,25.6z"/>
		
			<linearGradient id="SVGID_2_" gradientUnits="userSpaceOnUse" x1="68.0664" y1="28.4669" x2="102.5299" y2="28.1341" gradientTransform="matrix(1 0 0 -1 0 80)">
			<stop  offset="0" style="stop-color:#FFF33B"/>
			<stop  offset="4.000000e-02" style="stop-color:#FEE72E"/>
			<stop  offset="0.12" style="stop-color:#FED51B"/>
			<stop  offset="0.2" style="stop-color:#FDCA10"/>
			<stop  offset="0.28" style="stop-color:#FDC70C"/>
			<stop  offset="0.67" style="stop-color:#F3903F"/>
			<stop  offset="0.89" style="stop-color:#ED683C"/>
			<stop  offset="1" style="stop-color:#E93E3A"/>
		</linearGradient>
		<path class="st1" d="M100.4,69.9c-0.3-1.4-0.7-2.7-1-4.1l-0.8-0.1L83.1,42.7c0-0.2,0-0.5,0.1-0.7c0.2-1.1,0.7-2,1.4-2.8
			c-0.1-0.3-0.3-0.6-0.4-0.8c-0.1-1.8-0.2-3.5-0.3-5.3l0.8-0.4c0-0.6,0-1.1,0-1.6l0,0l-7.9,1.2h-0.2l-7.8,1.2l6,20.9
			c0.4,0.9,0.4,1.9,0.2,2.8c-0.4,1.3-1.3,2.4-2.6,2.9l6.6,4.1c1.2-0.5,2.4-0.9,3.6-1.4l8,3.8L88,68.4l9.5,4.1l4.1-1.9L100.4,69.9z
			 M78.7,52.9c-0.1,0-0.3-0.1-0.5-0.5c-1.7-4.5-3.3-9-5-13.5c0-1.2,0.1-1.9,0.4-2s0.4,0.1,0.7,0.5l4.1,5.6c0.2,2.8,0.3,5.7,0.5,8.6
			C78.9,52.4,78.9,52.8,78.7,52.9z M79.3,38.4c0,0.2-0.1,0.3-0.3,0.4c-0.3,0.1-0.7,0-1-0.4l-4.4-4.1c-0.1-0.2-0.2-0.4-0.1-0.6
			c0.2-0.5,1.1-0.4,1.2-0.4c0.1,0,0.3,0,0.4,0.1l4.1,3.9C79.4,37.7,79.4,38.1,79.3,38.4z M77.4,32.9l3.7-0.6c0,1.2,0.1,2.5,0.1,3.7
			L77.4,32.9z M90.8,63.4c-0.3,0.2-0.8-0.2-1-0.3c-1.9-1.1-3.9-2.2-5.8-3.4c-0.8-0.6-1.2-1.5-1.3-2.5c-0.4-3.3-0.8-6.6-1.2-9.9
			c-0.1-0.6,0.1-1.2,0.4-1.2c0.3,0,0.7,0.2,1,0.9c2.3,4,7.7,13.8,8.1,15.4C90.9,62.6,91,63.2,90.8,63.4z"/>
		
			<linearGradient id="SVGID_3_" gradientUnits="userSpaceOnUse" x1="108.5961" y1="40.6386" x2="135.34" y2="40.3801" gradientTransform="matrix(1 0 0 -1 0 80)">
			<stop  offset="0" style="stop-color:#FFF33B"/>
			<stop  offset="4.000000e-02" style="stop-color:#FEE72E"/>
			<stop  offset="0.12" style="stop-color:#FED51B"/>
			<stop  offset="0.2" style="stop-color:#FDCA10"/>
			<stop  offset="0.28" style="stop-color:#FDC70C"/>
			<stop  offset="0.67" style="stop-color:#F3903F"/>
			<stop  offset="0.89" style="stop-color:#ED683C"/>
			<stop  offset="1" style="stop-color:#E93E3A"/>
		</linearGradient>
		<path class="st2" d="M133.5,51.5c-0.3-0.8-0.6-1.7-0.9-2.6l-0.6-0.1c-3.9-4.8-7.8-9.5-11.7-14.3c0-0.2,0-0.3,0-0.5
			c0.1-0.7,0.4-1.4,0.9-1.9l-0.3-0.5c-0.1-1.1-0.3-2.3-0.4-3.4L121,28c0-0.4,0-1.4,0-2.2c-3.7,0.5-7.3,1-10.9,1.5l-1,0.1l0,0
			c1.8,4.8,4.1,10.6,5.8,15.1c0.3,0.6,0.4,1.2,0.2,1.8c-0.3,0.9-0.9,1.6-1.7,2l4.8,2.4l2.5-1l5.8,2.1l-1.8,1.2l6.8,2.3l2.8-1.4
			L133.5,51.5z M113.5,27.7c0.1-0.3,0.7-0.2,0.8-0.2c0.1,0,0.2,0,0.3,0.1c0.8,0.8,1.7,1.6,2.5,2.4c0.1,0.2,0.1,0.5,0,0.7
			c0,0.1-0.1,0.2-0.2,0.2c-0.2,0.1-0.4,0-0.6-0.2l-2.7-2.5C113.4,27.9,113.5,27.8,113.5,27.7z M117.2,40.5c-0.1,0-0.2-0.1-0.3-0.3
			c-1.2-2.8-2.5-5.7-3.7-8.5c-0.1-0.8,0-1.2,0.2-1.3c0.2-0.1,0.3,0.1,0.5,0.3c1,1.2,1.9,2.3,2.9,3.5c0.2,1.9,0.4,3.7,0.6,5.5
			C117.3,40.2,117.3,40.4,117.2,40.5z M116.7,27.1l2.1-0.3l0.1,2L116.7,27.1z M126.5,47.4c-0.2,0.1-0.6-0.1-0.7-0.2l-4.1-2
			c-0.3-0.2-0.5-0.4-0.6-0.7c-0.2-0.3-0.3-0.7-0.4-1c-0.4-2.2-0.8-4.4-1.3-6.7c-0.1-0.4,0-0.8,0.2-0.8s0.5,0.1,0.7,0.6
			c1.7,2.6,5.9,9,6.2,10.1C126.5,46.9,126.6,47.3,126.5,47.4L126.5,47.4z"/>
		
			<linearGradient id="SVGID_4_" gradientUnits="userSpaceOnUse" x1="108.6371" y1="52.678" x2="110.6274" y2="52.6599" gradientTransform="matrix(1 0 0 -1 0 80)">
			<stop  offset="0" style="stop-color:#FFF33B"/>
			<stop  offset="4.000000e-02" style="stop-color:#FEE72E"/>
			<stop  offset="0.12" style="stop-color:#FED51B"/>
			<stop  offset="0.2" style="stop-color:#FDCA10"/>
			<stop  offset="0.28" style="stop-color:#FDC70C"/>
			<stop  offset="0.67" style="stop-color:#F3903F"/>
			<stop  offset="0.89" style="stop-color:#ED683C"/>
			<stop  offset="1" style="stop-color:#E93E3A"/>
		</linearGradient>
		<line class="st3" x1="110.1" y1="27.3" x2="109.1" y2="27.4"/>
		
			<linearGradient id="SVGID_5_" gradientUnits="userSpaceOnUse" x1="76.2358" y1="48.38" x2="85.1168" y2="48.2956" gradientTransform="matrix(1 0 0 -1 0 80)">
			<stop  offset="0" style="stop-color:#FFF33B"/>
			<stop  offset="4.000000e-02" style="stop-color:#FEE72E"/>
			<stop  offset="0.12" style="stop-color:#FED51B"/>
			<stop  offset="0.2" style="stop-color:#FDCA10"/>
			<stop  offset="0.28" style="stop-color:#FDC70C"/>
			<stop  offset="0.67" style="stop-color:#F3903F"/>
			<stop  offset="0.89" style="stop-color:#ED683C"/>
			<stop  offset="1" style="stop-color:#E93E3A"/>
		</linearGradient>
		<line class="st4" x1="84.6" y1="31.1" x2="76.7" y2="32.3"/>
		
			<linearGradient id="SVGID_6_" gradientUnits="userSpaceOnUse" x1="51.6088" y1="44.0663" x2="52.6417" y2="44.0564" gradientTransform="matrix(1 0 0 -1 0 80)">
			<stop  offset="0" style="stop-color:#FFF33B"/>
			<stop  offset="4.000000e-02" style="stop-color:#FEE72E"/>
			<stop  offset="0.12" style="stop-color:#FED51B"/>
			<stop  offset="0.2" style="stop-color:#FDCA10"/>
			<stop  offset="0.28" style="stop-color:#FDC70C"/>
			<stop  offset="0.67" style="stop-color:#F3903F"/>
			<stop  offset="0.89" style="stop-color:#ED683C"/>
			<stop  offset="1" style="stop-color:#E93E3A"/>
		</linearGradient>
		<line class="st5" x1="52.1" y1="35.9" x2="52.1" y2="35.9"/>
		
			<linearGradient id="SVGID_7_" gradientUnits="userSpaceOnUse" x1="28.4036" y1="55.0343" x2="138.2467" y2="53.9883" gradientTransform="matrix(1 0 0 -1 0 80)">
			<stop  offset="0" style="stop-color:#FFF33B"/>
			<stop  offset="4.000000e-02" style="stop-color:#FEE72E"/>
			<stop  offset="0.12" style="stop-color:#FED51B"/>
			<stop  offset="0.2" style="stop-color:#FDCA10"/>
			<stop  offset="0.28" style="stop-color:#FDC70C"/>
			<stop  offset="0.67" style="stop-color:#F3903F"/>
			<stop  offset="0.89" style="stop-color:#ED683C"/>
			<stop  offset="1" style="stop-color:#E93E3A"/>
		</linearGradient>
		<path class="st6" d="M136.9,23.3l-13,2l-13.7,2.1l-1,0.1l0,0l-24.5,3.7l0,0l-7.9,1.2h-0.2l-24.4,3.7c0-0.4,0-0.7-0.1-1.1
			L29.9,16.3h0.9h0.2h0.6l2.5,0h1.1h1H38h2h1.3H42h1.3h1.1l3.3-0.1l4.9-0.3l3.1-0.1h0.2l1.9,0h1.7c0.1,0,0.2,0,0.4,0l1.9,0h2h1.5
			h1.6h0.5h1.6h0.5H71h1.8h0.7h1.7h2.1h1l2.1,0h2.1l2.1,0H85h1.7h0.2l35.1-0.6l2.2,0L136.9,23.3z"/>
		
			<linearGradient id="SVGID_8_" gradientUnits="userSpaceOnUse" x1="13.8121" y1="51.5996" x2="52.7056" y2="51.5996" gradientTransform="matrix(1 0 0 -1 0 80)">
			<stop  offset="0" style="stop-color:#FFF33B"/>
			<stop  offset="4.000000e-02" style="stop-color:#FEE72E"/>
			<stop  offset="0.12" style="stop-color:#FED51B"/>
			<stop  offset="0.2" style="stop-color:#FDCA10"/>
			<stop  offset="0.28" style="stop-color:#FDC70C"/>
			<stop  offset="0.67" style="stop-color:#F3903F"/>
			<stop  offset="0.89" style="stop-color:#ED683C"/>
			<stop  offset="1" style="stop-color:#E93E3A"/>
		</linearGradient>
		<path class="st7" d="M52.2,39.5c-0.2,2.8-0.3,4.1-1,5c-2,2.5-6.5-2.1-11.4,0.8c-0.9,0.5-5.6,3.6-7.9,3.5c-0.6,0-1.1-0.2-1.7-0.4
			c-0.7-0.3-1.2-0.8-1.7-1.5c-0.8-1.1-2.5-2.1-4.5-2.9c-2.2-1-2.8-0.5-4.9-1.7c-0.8-0.4-1.6-0.9-2.2-1.6c-1.4-1.8,0.1-3.5-0.1-8.3
			c-0.1-2-0.2-4.8-1.3-6.8c-0.4-0.7-0.7-1.3-0.9-2.1c-0.2-0.8-0.4-1.6-0.4-2.4c0.5-4.2,1.1-7.6,1.7-9.9c0.3-1.2,0.6-2.7,1.7-3.2
			C19,7.6,20.6,8.6,21,8.9l8.9,7.4l22.2,18.6c0,0.3,0.1,0.7,0.1,1.1C52.2,37.1,52.2,38.3,52.2,39.5z"/>
	</g>
</g>
</svg>
