<?xml version="1.0" encoding="utf-8"?>
<!-- Generator: Adobe Illustrator 24.0.0, SVG Export Plug-In . SVG Version: 6.00 Build 0)  -->
<svg version="1.1" id="Layer_1" xmlns="http://www.w3.org/2000/svg" xmlns:xlink="http://www.w3.org/1999/xlink" x="0px" y="0px"
	 viewBox="0 0 1200 300" style="enable-background:new 0 0 1200 300;" xml:space="preserve">
<style type="text/css">
	.st0{clip-path:url(#SVGID_2_);}
	.st1{fill-rule:evenodd;clip-rule:evenodd;fill:#F79C34;}
	.st2{fill-rule:evenodd;clip-rule:evenodd;fill:#333E47;}
</style>
<g>
	<g>
		<defs>
			<rect id="SVGID_1_" x="68.6" y="96.9" width="920.4" height="176.6"/>
		</defs>
		<clipPath id="SVGID_2_">
			<use xlink:href="#SVGID_1_"  style="overflow:visible;"/>
		</clipPath>
		<g class="st0">
			<path class="st1" d="M431.8,235c-34,25.1-83.3,38.5-125.8,38.5c-59.5,0-113.1-22-153.7-58.6c-3.2-2.9-0.3-6.8,3.5-4.6
				c43.8,25.5,97.9,40.8,153.8,40.8c37.7,0,79.1-7.8,117.3-24C432.6,224.6,437.5,230.9,431.8,235L431.8,235z"/>
			<path class="st1" d="M446,218.9c-4.4-5.6-28.8-2.6-39.7-1.3c-3.3,0.4-3.8-2.5-0.8-4.6c19.5-13.7,51.4-9.7,55.1-5.1
				c3.7,4.6-1,36.6-19.2,51.9c-2.8,2.3-5.5,1.1-4.2-2C441.2,247.4,450.4,224.5,446,218.9z"/>
			<path class="st2" d="M407,116.3V103c0-2,1.5-3.4,3.4-3.4H470c1.9,0,3.4,1.4,3.4,3.4v11.4c0,1.9-1.6,4.4-4.5,8.4L438,166.9
				c11.5-0.3,23.6,1.4,34,7.3c2.3,1.3,3,3.3,3.2,5.2v14.2c0,2-2.1,4.2-4.4,3c-18.3-9.6-42.7-10.7-62.9,0.1c-2.1,1.1-4.2-1.1-4.2-3.1
				v-13.5c0-2.2,0-5.8,2.2-9.1l35.7-51.3h-31.1C408.6,119.7,407.1,118.3,407,116.3L407,116.3z M189.8,199.3h-18.1
				c-1.7-0.1-3.1-1.4-3.2-3.1v-93c0-1.9,1.6-3.3,3.5-3.3h16.9c1.8,0.1,3.2,1.4,3.3,3.1v12.2h0.3c4.4-11.7,12.7-17.2,23.8-17.2
				c11.3,0,18.4,5.5,23.5,17.2c4.4-11.7,14.4-17.2,25-17.2c7.6,0,15.9,3.1,21,10.2c5.8,7.8,4.6,19.2,4.6,29.2v58.7
				c0,1.9-1.6,3.3-3.5,3.3h-18.1c-1.8-0.1-3.3-1.6-3.3-3.3v-49.3c0-3.9,0.3-13.7-0.5-17.4c-1.4-6.3-5.4-8-10.6-8
				c-4.4,0-9,2.9-10.8,7.6c-1.9,4.7-1.7,12.5-1.7,17.8v49.3c0,1.9-1.6,3.3-3.5,3.3h-18.1c-1.8-0.1-3.3-1.6-3.3-3.3v-49.3
				c0-10.4,1.7-25.6-11.2-25.6c-13,0-12.5,14.9-12.5,25.6v49.3C193.3,197.8,191.7,199.3,189.8,199.3z M524.8,116.9
				c-13.4,0-14.2,18.2-14.2,29.5c0,11.4-0.2,35.6,14,35.6c14,0,14.7-19.6,14.7-31.5c0-7.8-0.3-17.2-2.7-24.7
				C534.7,119.5,530.6,116.9,524.8,116.9L524.8,116.9z M524.7,98c26.9,0,41.4,23.1,41.4,52.5c0,28.4-16.1,50.9-41.4,50.9
				c-26.4,0-40.8-23.1-40.8-51.9C483.9,120.5,498.5,98,524.7,98z M601,199.3h-18.1c-1.8-0.1-3.2-1.6-3.2-3.3v-93
				c0.2-1.7,1.7-3,3.5-3H600c1.6,0.1,2.9,1.2,3.2,2.6v14.2h0.3c5.1-12.7,12.2-18.8,24.7-18.8c8.1,0,16.1,2.9,21.1,11
				c4.7,7.4,4.7,20,4.7,29v58.5c-0.2,1.6-1.7,2.9-3.5,2.9h-18.2c-1.7-0.1-3-1.3-3.2-2.9V146c0-10.2,1.2-25.1-11.3-25.1
				c-4.4,0-8.5,2.9-10.5,7.4c-2.5,5.7-2.9,11.4-2.9,17.6V196C604.5,197.8,602.9,199.3,601,199.3L601,199.3z M377.8,199.1
				c-1.2,1.1-2.9,1.1-4.3,0.4c-6-5-7.1-7.3-10.4-12.1c-9.9,10.1-17,13.2-29.9,13.2c-15.3,0-27.1-9.4-27.1-28.2
				c0-14.7,8-24.7,19.3-29.6c9.8-4.3,23.6-5.1,34.1-6.3v-2.4c0-4.3,0.3-9.4-2.2-13.1c-2.2-3.3-6.4-4.7-10.2-4.7
				c-6.9,0-13.1,3.5-14.6,10.9c-0.3,1.6-1.5,3.3-3.1,3.3l-17.6-1.9c-1.5-0.3-3.1-1.5-2.7-3.8c4-21,22.8-27.6,39.8-27.7h1.3
				c8.7,0.1,19.9,2.5,26.7,9c8.8,8.2,8,19.2,8,31.2v28.2c0,8.5,3.5,12.2,6.8,16.8c1.2,1.7,1.4,3.6-0.1,4.8
				C388.1,190.2,381.5,195.9,377.8,199.1L377.8,199.1z M359.6,154.9c0,7.1,0.2,12.9-3.4,19.2c-2.9,5.1-7.5,8.2-12.5,8.2
				c-6.9,0-11-5.3-11-13.1c0-15.4,13.8-18.2,26.9-18.2V154.9z M140.3,199.1c-1.2,1.1-2.9,1.1-4.3,0.4c-6-5-7.1-7.3-10.4-12.1
				c-9.9,10.1-17,13.2-29.9,13.2c-15.3,0-27.1-9.4-27.1-28.2c0-14.7,8-24.7,19.3-29.6c9.8-4.3,23.6-5.1,34.1-6.3v-2.4
				c0-4.3,0.3-9.4-2.2-13.1c-2.2-3.3-6.4-4.7-10.2-4.7c-6.9,0-13.1,3.5-14.6,10.9c-0.3,1.6-1.5,3.3-3.1,3.3l-17.6-1.9
				c-1.5-0.3-3.1-1.5-2.7-3.8c4-21,22.7-27.6,39.8-27.7h1.3c8.7,0.1,19.9,2.5,26.7,9c8.8,8.2,8,19.2,8,31.2v28.2
				c0,8.5,3.5,12.2,6.8,16.8c1.2,1.7,1.4,3.6-0.1,4.8C150.5,190.2,144,195.9,140.3,199.1L140.3,199.1z M122,154.9
				c0,7.1,0.2,12.9-3.4,19.2c-2.9,5.1-7.5,8.2-12.5,8.2c-6.9,0-11-5.3-11-13.1c0-15.4,13.8-18.2,26.9-18.2V154.9z M901.8,232.7v-6.8
				c0-1.9,1-3.3,3-3.2c3.8,0.5,9.1,1.1,12.9,0.3c5-1,8.5-4.6,10.6-9.4c3-6.8,4.9-12.3,6.2-15.9l-37.7-93.4c-0.6-1.6-0.8-4.5,2.3-4.5
				h13.2c2.5,0,3.5,1.6,4.1,3.2l27.3,75.8l26.1-75.8c0.5-1.6,1.6-3.2,4.1-3.2h12.4c3.1,0,3,2.9,2.3,4.5l-37.4,96.3
				c-4.8,12.8-11.3,33.2-25.8,36.8c-7.3,1.9-16.5,1.2-21.9-1C902.3,235.7,901.8,233.9,901.8,232.7L901.8,232.7z M884.2,193.6
				c0,1.7-1.4,3.2-3.2,3.2h-9.3c-2,0-3.4-1.4-3.6-3.2l-0.9-6.3c-4.3,3.6-9.5,6.8-15.2,9c-10.9,4.2-23.5,4.9-34.2-1.6
				c-7.7-4.7-11.8-14-11.8-23.6c0-7.4,2.3-14.7,7.3-20c6.7-7.3,16.5-10.8,28.3-10.8c7.1,0,17.3,0.8,24.7,3.3v-12.8
				c0-12.9-5.4-18.5-19.8-18.5c-11,0-19.4,1.7-31.1,5.3c-1.9,0.1-3-1.4-3-3.1v-7.3c0-1.7,1.5-3.4,3.1-3.9c8.3-3.6,20.2-5.9,32.7-6.3
				c16.4,0,35.9,3.7,35.9,28.9L884.2,193.6L884.2,193.6z M866.3,175.1v-19.2c-6.2-1.7-16.6-2.4-20.5-2.4c-6.3,0-13.2,1.5-16.8,5.4
				c-2.7,2.8-3.9,6.9-3.9,10.9c0,5.1,1.8,10.2,5.9,12.8c4.8,3.3,12.2,2.9,19.2,0.9C856.9,181.4,863.2,178.1,866.3,175.1z
				 M747.2,112.5c20.6,0,26.2,16.2,26.2,34.8c0.1,12.5-2.2,23.7-8.7,30.1c-4.8,4.8-10.3,6.1-18.4,6.1c-7.3,0-16.8-3.8-23.9-9.1
				v-53.1C729.8,115.6,739.3,112.5,747.2,112.5z M719.2,236h-12.4c-1.7,0-3.2-1.4-3.2-3.2V103.2c0-1.7,1.4-3.2,3.2-3.2h9.5
				c2,0,3.4,1.4,3.6,3.2l1,6.8c8.9-7.9,20.4-13,31.4-13c30.7,0,40.7,25.3,40.7,51.5c0,28.1-15.4,50.7-41.5,50.7
				c-11,0-21.2-4.1-29.1-11.1v44.8C722.4,234.6,721,236,719.2,236L719.2,236z"/>
		</g>
	</g>
</g>
</svg>
