<svg xmlns="http://www.w3.org/2000/svg" xmlns:xlink="http://www.w3.org/1999/xlink" viewBox="0 0 117.78 118.14"><defs><style>.cls-1,.cls-10,.cls-11,.cls-12,.cls-13,.cls-14,.cls-15,.cls-2,.cls-3,.cls-4,.cls-5,.cls-6,.cls-7,.cls-8,.cls-9{fill:none;stroke-miterlimit:10;}.cls-1,.cls-11,.cls-15,.cls-2,.cls-3,.cls-4{stroke-width:2px;}.cls-1{stroke:url(#linear-gradient);}.cls-2{stroke:url(#linear-gradient-2);}.cls-3{stroke:url(#linear-gradient-3);}.cls-4{stroke:url(#linear-gradient-4);}.cls-5{stroke:url(#linear-gradient-5);}.cls-6{stroke:url(#linear-gradient-6);}.cls-7{stroke:url(#linear-gradient-7);}.cls-8{stroke:url(#linear-gradient-8);}.cls-9{stroke:url(#linear-gradient-9);}.cls-10{stroke:url(#linear-gradient-10);}.cls-11{stroke:url(#linear-gradient-11);}.cls-12{stroke:#f9ed32;}.cls-13{stroke:url(#linear-gradient-12);}.cls-14{stroke:url(#linear-gradient-13);}.cls-15{stroke:url(#linear-gradient-14);}</style><linearGradient id="linear-gradient" x1="56.14" y1="9.78" x2="56.15" y2="9.78" gradientUnits="userSpaceOnUse"><stop offset="0" stop-color="#cec132"/><stop offset="0.18" stop-color="#fff33b"/><stop offset="0.2" stop-color="#fee72e"/><stop offset="0.22" stop-color="#fed51b"/><stop offset="0.25" stop-color="#fdca10"/><stop offset="0.28" stop-color="#fdc70c"/><stop offset="0.67" stop-color="#f3903f"/><stop offset="0.89" stop-color="#ed683c"/><stop offset="1" stop-color="#e93e3a"/></linearGradient><linearGradient id="linear-gradient-2" x1="23.14" y1="63.45" x2="86.24" y2="63.45" xlink:href="#linear-gradient"/><linearGradient id="linear-gradient-3" x1="32.11" y1="63.44" x2="78.76" y2="63.44" xlink:href="#linear-gradient"/><linearGradient id="linear-gradient-4" x1="42.09" y1="62.35" x2="67.3" y2="62.35" xlink:href="#linear-gradient"/><linearGradient id="linear-gradient-5" x1="47.92" y1="46.74" x2="54.3" y2="46.74" xlink:href="#linear-gradient"/><linearGradient id="linear-gradient-6" x1="64.28" y1="51.34" x2="70.66" y2="51.34" xlink:href="#linear-gradient"/><linearGradient id="linear-gradient-7" x1="68.56" y1="67.1" x2="74.94" y2="67.1" xlink:href="#linear-gradient"/><linearGradient id="linear-gradient-8" x1="56.83" y1="79.6" x2="63.21" y2="79.6" xlink:href="#linear-gradient"/><linearGradient id="linear-gradient-9" x1="39.47" y1="75.35" x2="45.85" y2="75.35" xlink:href="#linear-gradient"/><linearGradient id="linear-gradient-10" x1="35.84" y1="58.24" x2="42.21" y2="58.24" xlink:href="#linear-gradient"/><linearGradient id="linear-gradient-11" x1="59.84" y1="28.71" x2="117.78" y2="28.71" xlink:href="#linear-gradient"/><linearGradient id="linear-gradient-12" x1="66.34" y1="102.1" x2="75.44" y2="102.1" xlink:href="#linear-gradient"/><linearGradient id="linear-gradient-13" x1="91.17" y1="68.81" x2="103.59" y2="68.81" xlink:href="#linear-gradient"/><linearGradient id="linear-gradient-14" x1="0" y1="63.45" x2="109.38" y2="63.45" xlink:href="#linear-gradient"/></defs><g id="Layer_2" data-name="Layer 2"><g id="Layer_2-2" data-name="Layer 2"><line class="cls-1" x1="56.15" y1="9.78" x2="56.14" y2="9.78"/><circle class="cls-2" cx="54.69" cy="63.45" r="30.55"/><circle class="cls-3" cx="55.43" cy="63.44" r="22.33"/><circle class="cls-4" cx="54.69" cy="62.35" r="11.61"/><circle class="cls-5" cx="51.11" cy="46.74" r="2.69"/><circle class="cls-6" cx="67.47" cy="51.34" r="2.69"/><circle class="cls-7" cx="71.75" cy="67.1" r="2.69"/><circle class="cls-8" cx="60.02" cy="79.6" r="2.69"/><circle class="cls-9" cx="42.66" cy="75.35" r="2.69"/><circle class="cls-10" cx="39.03" cy="58.24" r="2.69"/><path class="cls-11" d="M61.14,10.36l10.76,16L90.31,45.4l16.46,10.76,9.75-9L99.76,17.7Q85.18,9.47,70.59,1.24Z"/><path class="cls-12" d="M40,16.89c.76-1.3,1.75-2,2.49-1.85s1.2,1.64.81,3.41l-3.64,9.9C39,29.92,38,31,37.07,31s-1.43-1.18-1.19-2.85Z"/><path class="cls-12" d="M8.88,53.27c-.75-1.37-.91-2.59-.4-3.08s1.95-.06,3.27,1.26L18.43,60c1,1.43,1.43,2.92,1,3.64s-1.67.5-3-.64Z"/><path class="cls-12" d="M22.52,98.55c-1.55,0-2.7-.46-2.88-1.14s.88-1.74,2.68-2.26L33,93.43c1.74-.2,3.25.16,3.68.86s-.36,1.71-2,2.31Z"/><path class="cls-13" d="M74.67,97.48q-2.06,5-4.12,10c-.74,1.58-1.83,2.69-2.66,2.69s-1.27-1.2-.92-2.9q2.34-5.72,4.7-11.42c.82-1.33,1.8-2.07,2.48-1.87S75.17,95.69,74.67,97.48Z"/><path class="cls-14" d="M102.94,75.43c-.43.77-1.67.52-3-.63q-3.8-4.86-7.6-9.73c-.74-1.37-.89-2.59-.39-3.09s2,0,3.28,1.27q3.33,4.26,6.67,8.55C102.93,73.22,103.34,74.71,102.94,75.43Z"/><path class="cls-15" d="M108.33,61.25l-1.19,1.1q-9.31-6.08-18.65-12.2Q78.07,39.37,67.63,28.55L55.43,10.47l.71-.69c-.47,0-1,0-1.45,0a53.7,53.7,0,1,0,53.69,53.7C108.38,62.71,108.37,62,108.33,61.25ZM74.67,97.48q-2.06,5-4.12,10c-.74,1.58-1.83,2.69-2.66,2.69s-1.27-1.2-.92-2.9q2.34-5.72,4.7-11.42c.82-1.33,1.8-2.07,2.48-1.87S75.17,95.69,74.67,97.48ZM54.69,94A30.55,30.55,0,1,1,85.24,63.45,30.56,30.56,0,0,1,54.69,94Zm48.25-18.56c-.43.77-1.67.52-3-.63q-3.8-4.86-7.6-9.73c-.74-1.37-.89-2.59-.39-3.09s2,0,3.28,1.27q3.33,4.26,6.67,8.55C102.93,73.22,103.34,74.71,102.94,75.43Z"/><line class="cls-1" x1="56.15" y1="9.78" x2="56.14" y2="9.78"/></g></g></svg>