<svg xmlns="http://www.w3.org/2000/svg" xmlns:xlink="http://www.w3.org/1999/xlink" viewBox="0 0 83.44 104.35"><defs><style>.cls-1,.cls-10,.cls-11,.cls-12,.cls-13,.cls-14,.cls-2,.cls-3,.cls-4,.cls-5,.cls-6,.cls-7,.cls-8,.cls-9{fill:none;stroke-miterlimit:10;stroke-width:2px;}.cls-1{stroke:url(#Orange_Yellow);}.cls-2{stroke:url(#Orange_Yellow-2);}.cls-3{stroke:url(#Orange_Yellow-3);}.cls-4{stroke:url(#Orange_Yellow-4);}.cls-5{stroke:url(#Orange_Yellow-5);}.cls-6{stroke:url(#Orange_Yellow-6);}.cls-7{stroke:url(#Orange_Yellow-7);}.cls-8{stroke:url(#Orange_Yellow-8);}.cls-9{stroke:url(#Orange_Yellow-9);}.cls-10{stroke:url(#Orange_Yellow-10);}.cls-11{stroke:url(#Orange_Yellow-11);}.cls-12{stroke:url(#Orange_Yellow-12);}.cls-13{stroke:url(#Orange_Yellow-13);}.cls-14{stroke:url(#Orange_Yellow-14);}</style><linearGradient id="Orange_Yellow" y1="48.14" x2="74.77" y2="48.14" gradientUnits="userSpaceOnUse"><stop offset="0" stop-color="#fff33b"/><stop offset="0.04" stop-color="#fee72e"/><stop offset="0.12" stop-color="#fed51b"/><stop offset="0.2" stop-color="#fdca10"/><stop offset="0.28" stop-color="#fdc70c"/><stop offset="0.67" stop-color="#f3903f"/><stop offset="0.89" stop-color="#ed683c"/><stop offset="1" stop-color="#e93e3a"/></linearGradient><linearGradient id="Orange_Yellow-2" x1="8.68" y1="56.21" x2="83.44" y2="56.21" xlink:href="#Orange_Yellow"/><linearGradient id="Orange_Yellow-3" x1="4.17" y1="52.06" x2="78.94" y2="52.06" xlink:href="#Orange_Yellow"/><linearGradient id="Orange_Yellow-4" x1="7.72" y1="9.07" x2="42.7" y2="9.07" xlink:href="#Orange_Yellow"/><linearGradient id="Orange_Yellow-5" x1="7.72" y1="28.77" x2="68.49" y2="28.77" xlink:href="#Orange_Yellow"/><linearGradient id="Orange_Yellow-6" x1="7.72" y1="46.32" x2="68.49" y2="46.32" xlink:href="#Orange_Yellow"/><linearGradient id="Orange_Yellow-7" x1="7.72" y1="40.26" x2="68.49" y2="40.26" xlink:href="#Orange_Yellow"/><linearGradient id="Orange_Yellow-8" x1="7.72" y1="34.51" x2="68.49" y2="34.51" xlink:href="#Orange_Yellow"/><linearGradient id="Orange_Yellow-9" x1="7.72" y1="52.06" x2="68.49" y2="52.06" xlink:href="#Orange_Yellow"/><linearGradient id="Orange_Yellow-10" x1="7.72" y1="69.61" x2="68.49" y2="69.61" xlink:href="#Orange_Yellow"/><linearGradient id="Orange_Yellow-11" x1="7.72" y1="63.55" x2="68.49" y2="63.55" xlink:href="#Orange_Yellow"/><linearGradient id="Orange_Yellow-12" x1="7.72" y1="57.8" x2="68.49" y2="57.8" xlink:href="#Orange_Yellow"/><linearGradient id="Orange_Yellow-13" x1="7.72" y1="81.74" x2="68.49" y2="81.74" xlink:href="#Orange_Yellow"/><linearGradient id="Orange_Yellow-14" x1="7.72" y1="75.68" x2="68.49" y2="75.68" xlink:href="#Orange_Yellow"/></defs><g id="Layer_2" data-name="Layer 2"><g id="Layer_2-2" data-name="Layer 2"><rect class="cls-1" x="1" y="1" width="72.77" height="94.28"/><polyline class="cls-2" points="77.94 9.07 82.44 9.07 82.44 103.35 9.68 103.35 9.68 99.19"/><polyline class="cls-3" points="73.77 4.92 77.94 4.92 77.94 9.07 77.94 99.19 9.68 99.19 5.17 99.19 5.17 95.28"/><line class="cls-4" x1="7.72" y1="9.07" x2="42.7" y2="9.07"/><line class="cls-5" x1="7.72" y1="28.77" x2="68.49" y2="28.77"/><line class="cls-6" x1="7.72" y1="46.32" x2="68.49" y2="46.32"/><line class="cls-7" x1="7.72" y1="40.26" x2="68.49" y2="40.26"/><line class="cls-8" x1="7.72" y1="34.51" x2="68.49" y2="34.51"/><line class="cls-9" x1="7.72" y1="52.06" x2="68.49" y2="52.06"/><line class="cls-10" x1="7.72" y1="69.61" x2="68.49" y2="69.61"/><line class="cls-11" x1="7.72" y1="63.55" x2="68.49" y2="63.55"/><line class="cls-12" x1="7.72" y1="57.8" x2="68.49" y2="57.8"/><line class="cls-13" x1="7.72" y1="81.74" x2="68.49" y2="81.74"/><line class="cls-14" x1="7.72" y1="75.68" x2="68.49" y2="75.68"/></g></g></svg>