<?xml version="1.0" encoding="utf-8"?>
<!-- Generator: Adobe Illustrator 24.0.0, SVG Export Plug-In . SVG Version: 6.00 Build 0)  -->
<svg version="1.1" id="Layer_1" xmlns="http://www.w3.org/2000/svg" xmlns:xlink="http://www.w3.org/1999/xlink" x="0px" y="0px"
	 viewBox="0 0 1223.6 300" style="enable-background:new 0 0 1223.6 300;" xml:space="preserve">
<style type="text/css">
	.st0{opacity:0.4;}
	.st1{clip-path:url(#SVGID_2_);}
	.st2{fill:none;stroke:#000000;stroke-width:0.25;stroke-miterlimit:10;}
	.st3{clip-path:url(#SVGID_4_);}
	.st4{clip-path:url(#SVGID_6_);}
	.st5{clip-path:url(#SVGID_8_);}
	.st6{clip-path:url(#SVGID_10_);}
	.st7{fill:#5F6368;}
	.st8{display:none;}
	.st9{display:inline;}
	.st10{fill:none;}
	.st11{fill:url(#Google_Red_1_);}
	.st12{fill:#FDBD00;}
	.st13{fill:#2DA94F;}
	.st14{fill:url(#Google_Blue_1_);}
</style>
<symbol  id="material_x5F_product_x5F_icon_x5F_keylines" viewBox="-96 -96 192 192">
	<g class="st0">
		<g>
			<defs>
				<rect id="SVGID_1_" x="-96" y="-96" width="192" height="192"/>
			</defs>
			<clipPath id="SVGID_2_">
				<use xlink:href="#SVGID_1_"  style="overflow:visible;"/>
			</clipPath>
			<g class="st1">
				<line class="st2" x1="-95.8" y1="95.8" x2="95.8" y2="-95.8"/>
				<g>
					<path d="M95.8,95.8V-95.8H-95.8V95.8H95.8 M96,96H-96V-96H96V96L96,96z"/>
				</g>
				<line class="st2" x1="95.8" y1="95.8" x2="-95.8" y2="-95.8"/>
				<line class="st2" x1="28" y1="96" x2="28" y2="-96"/>
				<line class="st2" x1="-28" y1="96" x2="-28" y2="-96"/>
				<line class="st2" x1="96" y1="-28" x2="-96" y2="-28"/>
				<line class="st2" x1="96" y1="28" x2="-96" y2="28"/>
				<circle class="st2" cx="0" cy="0" r="40"/>
				<line class="st2" x1="-96" y1="0" x2="96" y2="0"/>
				<line class="st2" x1="0" y1="96" x2="0" y2="-96"/>
			</g>
		</g>
		<g>
			<defs>
				<rect id="SVGID_3_" x="-96" y="-96" width="192" height="192"/>
			</defs>
			<clipPath id="SVGID_4_">
				<use xlink:href="#SVGID_3_"  style="overflow:visible;"/>
			</clipPath>
			<g class="st3">
				<g>
					<path d="M0,87.8c48.4,0,87.8-39.4,87.8-87.8S48.4-87.8,0-87.8S-87.8-48.4-87.8,0S-48.4,87.8,0,87.8 M0,88
						c-48.6,0-88-39.4-88-88s39.4-88,88-88S88-48.6,88,0S48.6,88,0,88L0,88z"/>
				</g>
			</g>
		</g>
		<g>
			<defs>
				<rect id="SVGID_5_" x="-96" y="-96" width="192" height="192"/>
			</defs>
			<clipPath id="SVGID_6_">
				<use xlink:href="#SVGID_5_"  style="overflow:visible;"/>
			</clipPath>
			<g class="st4">
				<g>
					<path d="M64,75.8c6.5,0,11.8-5.3,11.8-11.8V-64c0-6.5-5.3-11.8-11.8-11.8H-64c-6.5,0-11.8,5.3-11.8,11.8V64
						c0,6.5,5.3,11.8,11.8,11.8H64 M64,76H-64c-6.6,0-12-5.4-12-12V-64c0-6.6,5.4-12,12-12H64c6.6,0,12,5.4,12,12V64
						C76,70.6,70.6,76,64,76L64,76z"/>
				</g>
			</g>
		</g>
		<g>
			<defs>
				<rect id="SVGID_7_" x="-96" y="-96" width="192" height="192"/>
			</defs>
			<clipPath id="SVGID_8_">
				<use xlink:href="#SVGID_7_"  style="overflow:visible;"/>
			</clipPath>
			<g class="st5">
				<g>
					<path d="M52,87.8c6.5,0,11.8-5.3,11.8-11.8V-76c0-6.5-5.3-11.8-11.8-11.8H-52c-6.5,0-11.8,5.3-11.8,11.8V76
						c0,6.5,5.3,11.8,11.8,11.8H52 M52,88H-52c-6.6,0-12-5.4-12-12V-76c0-6.6,5.4-12,12-12H52c6.6,0,12,5.4,12,12V76
						C64,82.6,58.6,88,52,88L52,88z"/>
				</g>
			</g>
		</g>
		<g>
			<defs>
				<rect id="SVGID_9_" x="-96" y="-96" width="192" height="192"/>
			</defs>
			<clipPath id="SVGID_10_">
				<use xlink:href="#SVGID_9_"  style="overflow:visible;"/>
			</clipPath>
			<g class="st6">
				<g>
					<path d="M76,63.8c6.5,0,11.8-5.3,11.8-11.8V-52c0-6.5-5.3-11.8-11.8-11.8H-76c-6.5,0-11.8,5.3-11.8,11.8V52
						c0,6.5,5.3,11.8,11.8,11.8H76 M76,64H-76c-6.6,0-12-5.4-12-12V-52c0-6.6,5.4-12,12-12H76c6.6,0,12,5.4,12,12V52
						C88,58.6,82.6,64,76,64L76,64z"/>
				</g>
			</g>
		</g>
	</g>
</symbol>
<g id="Product_name">
	<g id="_x28_type_product_name_here_x29_">
		<g>
			<path class="st7" d="M974.6,166.3V214h-15.1V96.3h40.1c10.2,0,18.9,3.4,26,10.2c7.2,6.8,10.9,15.1,10.9,24.8
				c0,10-3.6,18.3-10.9,25c-7,6.7-15.7,10-26,10H974.6z M974.6,110.7v41.1h25.3c6,0,11-2,15-6.1c4.1-4.1,6.1-8.9,6.1-14.5
				c0-5.5-2-10.2-6.1-14.3c-3.9-4.2-8.9-6.2-15-6.2L974.6,110.7L974.6,110.7z"/>
			<path class="st7" d="M1076,130.8c11.2,0,20,3,26.5,9c6.5,6,9.7,14.2,9.7,24.6V214h-14.5v-11.2h-0.7c-6.2,9.2-14.6,13.8-25,13.8
				c-8.9,0-16.3-2.6-22.3-7.9c-6-5.3-9-11.8-9-19.7c0-8.3,3.2-15,9.5-19.9s14.7-7.4,25.2-7.4c9,0,16.4,1.6,22.2,4.9v-3.5
				c0-5.3-2.1-9.7-6.2-13.4c-4.2-3.7-9-5.5-14.6-5.5c-8.4,0-15.1,3.6-20.1,10.7l-13.3-8.4C1050.8,136.1,1061.6,130.8,1076,130.8z
				 M1056.4,189.3c0,3.9,1.7,7.2,5,9.9c3.3,2.6,7.3,3.9,11.8,3.9c6.4,0,12-2.4,17-7.1c5-4.7,7.5-10.2,7.5-16.6
				c-4.7-3.7-11.3-5.6-19.7-5.6c-6.1,0-11.3,1.5-15.4,4.4C1058.5,181.3,1056.4,185,1056.4,189.3z"/>
			<path class="st7" d="M1194.5,133.4l-50.5,116.1h-15.6l18.7-40.6l-33.2-75.5h16.4l24,57.9h0.3l23.3-57.9L1194.5,133.4
				L1194.5,133.4z"/>
		</g>
	</g>
</g>
<g id="Google_logo">
	<g id="_x31_570x512px">
		<path class="st7" d="M448.5,162.4v-18.2h60.9c0.6,3.2,1,7,1,11.2c0,13.7-3.7,30.6-15.8,42.6c-11.7,12.2-26.7,18.7-46.5,18.7
			c-36.7,0-67.6-29.9-67.6-66.6s30.9-66.6,67.6-66.6c20.3,0,34.8,8,45.7,18.4L481,114.5c-7.8-7.3-18.4-13-32.8-13
			c-26.8,0-47.8,21.6-47.8,48.4s21,48.4,47.8,48.4c17.4,0,27.3-7,33.6-13.3c5.2-5.2,8.6-12.6,9.9-22.7L448.5,162.4z"/>
		<path class="st7" d="M603.3,173.7c0,24.7-19.3,42.9-43.1,42.9c-23.7,0-43.1-18.2-43.1-42.9c0-24.9,19.3-42.9,43.1-42.9
			C584,130.8,603.3,148.8,603.3,173.7z M584.4,173.7c0-15.4-11.2-26-24.2-26s-24.2,10.6-24.2,26c0,15.3,11.2,26,24.2,26
			C573.2,199.7,584.4,189,584.4,173.7z"/>
		<path class="st7" d="M697.2,173.7c0,24.7-19.3,42.9-43.1,42.9c-23.7,0-43.1-18.2-43.1-42.9c0-24.9,19.3-42.9,43.1-42.9
			C677.9,130.8,697.2,148.8,697.2,173.7z M678.4,173.7c0-15.4-11.2-26-24.2-26c-13,0-24.2,10.6-24.2,26c0,15.3,11.2,26,24.2,26
			C667.2,199.7,678.4,189,678.4,173.7z"/>
		<path class="st7" d="M787.3,133.4v77c0,31.7-18.7,44.7-40.8,44.7c-20.8,0-33.3-14-38-25.4l16.4-6.8c2.9,7,10.1,15.3,21.6,15.3
			c14.1,0,22.9-8.8,22.9-25.2v-6.2h-0.7c-4.2,5.2-12.3,9.8-22.6,9.8c-21.5,0-41.1-18.7-41.1-42.7c0-24.2,19.7-43.1,41.1-43.1
			c10.2,0,18.4,4.6,22.6,9.6h0.7v-7L787.3,133.4L787.3,133.4z M770.7,173.9c0-15.1-10.1-26.2-22.9-26.2c-13,0-23.9,11.1-23.9,26.2
			c0,15,10.9,25.8,23.9,25.8C760.6,199.7,770.7,188.8,770.7,173.9z"/>
		<path class="st7" d="M819.2,88.3V214h-18.8V88.3H819.2z"/>
		<path class="st7" d="M892,187.8l14.6,9.8c-4.7,7-16.1,19-35.8,19c-24.4,0-42.6-18.9-42.6-42.9c0-25.5,18.4-42.9,40.5-42.9
			c22.3,0,33.2,17.7,36.7,27.3l1.9,4.9l-57.4,23.7c4.4,8.6,11.2,13,20.8,13C880.5,199.7,887.1,195,892,187.8z M847,172.4l38.3-15.9
			c-2.1-5.4-8.4-9.1-15.9-9.1C859.8,147.4,846.5,155.8,847,172.4z"/>
	</g>
</g>
<g id="Product_icon_grid" class="st8">
	<g class="st9">
		<defs>
			<rect id="SVGID_11_" x="-1077.6" y="-222.5" width="745" height="745"/>
		</defs>
		<clipPath id="SVGID_12_">
			<use xlink:href="#SVGID_11_"  style="overflow:visible;"/>
		</clipPath>
		<g style="clip-path:url(#SVGID_12_);">
			
				<use xlink:href="#material_x5F_product_x5F_icon_x5F_keylines"  width="192" height="192" x="-96" y="-96" transform="matrix(3.8802 0 0 -3.8802 -705.1408 149.9992)" style="overflow:visible;"/>
		</g>
	</g>
</g>
<g id="Product_icon">
	<g>
		<rect id="bounding_box" x="52.7" y="25" class="st10" width="250" height="250"/>
		<g id="art_layer">
			
				<linearGradient id="Google_Red_1_" gradientUnits="userSpaceOnUse" x1="197.9751" y1="170.5331" x2="282.0637" y2="139.9273" gradientTransform="matrix(1 0 0 -1 0 301)">
				<stop  offset="0.2" style="stop-color:#D93025"/>
				<stop  offset="0.6" style="stop-color:#EA4335"/>
			</linearGradient>
			<path id="Google_Red" class="st11" d="M183.8,170.2l56.7-98.1l30.9,17.8c19.9,11.5,26.8,37,15.3,56.9l-31.9,55.3
				c-7.2,12.5-23.1,16.7-35.6,9.5l-28.6-16.5C181.8,190,178.8,178.9,183.8,170.2z"/>
			<path id="Google_Yellow" class="st12" d="M177.8,102.1l-70.5,122.1l30.9,17.8c19.9,11.5,45.4,4.7,56.9-15.3l45.7-79.2
				c7.2-12.5,2.9-28.4-9.5-35.6l-28.6-16.5C193.9,90.4,182.8,93.4,177.8,102.1z"/>
			<path id="Google_Green" class="st13" d="M240.5,72.1l-21.8-12.6c-24.9-14.4-56.8-5.8-71.1,19.1L107,148.7
				c-7.2,12.5-2.9,28.4,9.5,35.6l21.8,12.6c12.5,7.2,28.4,2.9,35.6-9.5l48.4-83.8l0,0c10-17.4,32.3-23.4,49.7-13.3"/>
			
				<linearGradient id="Google_Blue_1_" gradientUnits="userSpaceOnUse" x1="70.3167" y1="160.6293" x2="163.9919" y2="126.5343" gradientTransform="matrix(1 0 0 -1 0 301)">
				<stop  offset="0.2" style="stop-color:#4285F4"/>
				<stop  offset="0.8" style="stop-color:#1B74E8"/>
			</linearGradient>
			<path id="Google_Blue" class="st14" d="M153.8,99.1l-24.1-13.9c-10.7-6.2-24.5-2.5-30.7,8.2l-28.9,50
				c-14.2,24.6-5.8,56.1,18.9,70.3l18.4,10.6l22.3,12.8l9.7,5.6c-17.1-11.5-22.6-34.5-12.1-52.6l7.5-12.9l27.4-47.4
				C168.2,119,164.5,105.3,153.8,99.1z"/>
		</g>
	</g>
</g>
<g id="Guides_1_">
</g>
<g id="specs">
</g>
</svg>
