<svg xmlns="http://www.w3.org/2000/svg" xmlns:xlink="http://www.w3.org/1999/xlink" viewBox="0 0 100.23 100.25"><defs><style>.cls-1,.cls-10,.cls-11,.cls-12,.cls-13,.cls-14,.cls-15,.cls-16,.cls-17,.cls-2,.cls-3,.cls-4,.cls-5,.cls-6,.cls-7,.cls-8,.cls-9{fill:none;stroke-miterlimit:10;stroke-width:3px;}.cls-1{stroke:url(#Orange_Yellow);}.cls-2{stroke:url(#Orange_Yellow-2);}.cls-3{stroke:url(#Orange_Yellow-3);}.cls-4{stroke:url(#Orange_Yellow-4);}.cls-5{stroke:url(#Orange_Yellow-5);}.cls-6{stroke:url(#Orange_Yellow-6);}.cls-7{stroke:url(#Orange_Yellow-7);}.cls-8{stroke:url(#Orange_Yellow-8);}.cls-9{stroke:url(#Orange_Yellow-9);}.cls-10{stroke:url(#Orange_Yellow-10);}.cls-11{stroke:url(#Orange_Yellow-11);}.cls-12{stroke:url(#Orange_Yellow-12);}.cls-13{stroke:url(#Orange_Yellow-13);}.cls-14{stroke:url(#Orange_Yellow-14);}.cls-15{stroke:url(#Orange_Yellow-15);}.cls-16{stroke:url(#Orange_Yellow-16);}.cls-17{stroke:url(#Orange_Yellow-17);}.cls-18{fill:url(#Orange_Yellow-18);}</style><linearGradient id="Orange_Yellow" x1="47.28" y1="17.96" x2="50.28" y2="17.96" gradientUnits="userSpaceOnUse"><stop offset="0" stop-color="#fff33b"/><stop offset="0.04" stop-color="#fee72e"/><stop offset="0.12" stop-color="#fed51b"/><stop offset="0.2" stop-color="#fdca10"/><stop offset="0.28" stop-color="#fdc70c"/><stop offset="0.67" stop-color="#f3903f"/><stop offset="0.89" stop-color="#ed683c"/><stop offset="1" stop-color="#e93e3a"/></linearGradient><linearGradient id="Orange_Yellow-2" x1="66.93" y1="25.94" x2="79.41" y2="25.94" xlink:href="#Orange_Yellow"/><linearGradient id="Orange_Yellow-3" x1="19.69" y1="73.96" x2="30.64" y2="73.96" xlink:href="#Orange_Yellow"/><linearGradient id="Orange_Yellow-4" x1="66.93" y1="74.63" x2="79.24" y2="74.63" xlink:href="#Orange_Yellow"/><linearGradient id="Orange_Yellow-5" x1="19.47" y1="26.6" x2="30.64" y2="26.6" xlink:href="#Orange_Yellow"/><linearGradient id="Orange_Yellow-6" x1="75.94" y1="50.34" x2="84.75" y2="50.34" xlink:href="#Orange_Yellow"/><linearGradient id="Orange_Yellow-7" x1="12.81" y1="50.34" x2="21.63" y2="50.34" xlink:href="#Orange_Yellow"/><linearGradient id="Orange_Yellow-8" x1="47.28" y1="81.13" x2="50.28" y2="81.13" xlink:href="#Orange_Yellow"/><linearGradient id="Orange_Yellow-9" x1="0" y1="13.13" x2="26.24" y2="13.13" xlink:href="#Orange_Yellow"/><linearGradient id="Orange_Yellow-10" x1="42.66" y1="8.93" x2="54.9" y2="8.93" xlink:href="#Orange_Yellow"/><linearGradient id="Orange_Yellow-11" x1="0.01" y1="87.13" x2="26.26" y2="87.13" xlink:href="#Orange_Yellow"/><linearGradient id="Orange_Yellow-12" x1="20.13" y1="50.33" x2="77.43" y2="50.33" xlink:href="#Orange_Yellow"/><linearGradient id="Orange_Yellow-13" x1="73.98" y1="87.13" x2="100.23" y2="87.13" xlink:href="#Orange_Yellow"/><linearGradient id="Orange_Yellow-14" x1="73.98" y1="13.14" x2="100.23" y2="13.14" xlink:href="#Orange_Yellow"/><linearGradient id="Orange_Yellow-15" x1="83.25" y1="50.34" x2="95.49" y2="50.34" xlink:href="#Orange_Yellow"/><linearGradient id="Orange_Yellow-16" x1="2.07" y1="50.34" x2="14.31" y2="50.34" xlink:href="#Orange_Yellow"/><linearGradient id="Orange_Yellow-17" x1="42.66" y1="90.16" x2="54.9" y2="90.16" xlink:href="#Orange_Yellow"/><linearGradient id="Orange_Yellow-18" x1="41.62" y1="50.13" x2="55.94" y2="50.13" xlink:href="#Orange_Yellow"/></defs><g id="Layer_2" data-name="Layer 2"><g id="Layer_2-2" data-name="Layer 2"><line class="cls-1" x1="48.78" y1="22.37" x2="48.78" y2="13.55"/><line class="cls-2" x1="78.35" y1="20.76" x2="67.99" y2="31.13"/><line class="cls-3" x1="29.58" y1="69.53" x2="20.75" y2="78.39"/><line class="cls-4" x1="78.18" y1="79.72" x2="67.99" y2="69.53"/><polyline class="cls-5" points="20.51 22.09 21.63 23.18 29.58 31.13"/><line class="cls-6" x1="75.94" y1="50.34" x2="84.75" y2="50.34"/><line class="cls-7" x1="21.63" y1="50.34" x2="12.81" y2="50.34"/><line class="cls-8" x1="48.78" y1="76.73" x2="48.78" y2="85.54"/><path class="cls-9" d="M24.74,13.13a11.62,11.62,0,0,1-4.23,9,11.21,11.21,0,0,1-6,2.56,9,9,0,0,1-1.37.11,11.63,11.63,0,0,1,0-23.26,9,9,0,0,1,1.37.11A11.57,11.57,0,0,1,24.74,13.13Z"/><circle class="cls-10" cx="48.78" cy="8.93" r="4.62"/><path class="cls-11" d="M24.76,87.14a11.63,11.63,0,1,1-4-8.77A11.61,11.61,0,0,1,24.76,87.14Z"/><path class="cls-12" d="M75.93,50.35A27.13,27.13,0,0,1,48.78,77.48h0A27.14,27.14,0,0,1,21.63,50.35h0a27.15,27.15,0,1,1,54.3,0Z"/><path class="cls-13" d="M98.73,87.14A11.63,11.63,0,1,1,87.11,75.51,11.61,11.61,0,0,1,98.73,87.14Z"/><path class="cls-14" d="M98.73,13.13A11.63,11.63,0,1,1,87.11,1.51,11.62,11.62,0,0,1,98.73,13.13Z"/><circle class="cls-15" cx="89.37" cy="50.34" r="4.62"/><circle class="cls-16" cx="8.19" cy="50.34" r="4.62"/><circle class="cls-17" cx="48.78" cy="90.16" r="4.62"/><path class="cls-18" d="M47.48,65.85V62a11.24,11.24,0,0,1-5.86-1.68l.92-2.57a10.2,10.2,0,0,0,5.51,1.65c2.72,0,4.56-1.57,4.56-3.76s-1.49-3.4-4.33-4.55C44.38,49.54,42,47.78,42,44.44c0-3.17,2.26-5.59,5.78-6.16V34.41h2.37v3.72a10.15,10.15,0,0,1,5,1.34l-1,2.52a9.22,9.22,0,0,0-4.82-1.3c-3,0-4.06,1.76-4.06,3.3,0,2,1.42,3,4.75,4.36,3.94,1.61,5.93,3.6,5.93,7,0,3-2.1,5.85-6,6.51v4Z"/></g></g></svg>