<?xml version="1.0" encoding="utf-8"?>
<!-- Generator: Adobe Illustrator 24.0.0, SVG Export Plug-In . SVG Version: 6.00 Build 0)  -->
<svg version="1.1" id="Layer_1" xmlns="http://www.w3.org/2000/svg" xmlns:xlink="http://www.w3.org/1999/xlink" x="0px" y="0px"
	 viewBox="0 0 195.5 182.8" style="enable-background:new 0 0 195.5 182.8;" xml:space="preserve">
<style type="text/css">
	.st0{opacity:0.15;}
	.st1{fill:none;stroke:#231F20;stroke-miterlimit:10;}
	.st2{fill:#171717;stroke:#231F20;stroke-miterlimit:10;}
</style>
<g id="Layer_2_1_" class="st0">
	<g id="Layer_1-2">
		<path class="st1" d="M214.7,115.5c0,13-10.5,23.6-23.5,23.6s-23.5-10.5-23.5-23.6c0-13,10.5-23.6,23.5-23.6
			C204.2,91.9,214.7,102.4,214.7,115.5L214.7,115.5z"/>
		<path class="st2" d="M232.6,132.2l11.7,2.2c1.2-6.1,2.3-12.2,3.5-18.2l-12.1-2.1c0.3-2.1,0.3-4.3-0.1-6.4c-0.3-2-0.9-3.9-1.8-5.8
			l10.3-6.2c-3-5.4-6.1-10.8-9.1-16.2l-10.3,6c-1.3-1.5-2.7-2.9-4.2-4.1c-1.7-1.4-3.5-2.7-5.5-3.8c1.4-3.7,2.7-7.5,4-11.2l-17.5-6.7
			c-1.4,3.8-2.7,7.6-4.1,11.5c-2.1-0.3-4.3-0.5-6.4-0.5c-2,0-4,0.2-5.9,0.5c-1.5-3.8-2.9-7.7-4.4-11.5l-17.2,6.8
			c1.3,3.6,2.6,7.1,4,10.7c-3.6,2.3-6.8,5.2-9.6,8.6l-10.3-6.1l-9.1,16l9.9,5.9c-1.3,4.1-1.9,8.4-1.6,12.6l-12,1.8
			c1,6,2.1,12,3.1,18.1l11.8-1.6c1.2,4,3.4,7.6,6.3,10.6l-7.6,9l13.8,11.9l8.2-8.9c3.4,2.5,7.5,3.9,11.7,4.1
			c-0.1,4-0.1,7.9-0.2,11.9l18,0.1c0.1-3.9,0.1-7.7,0.2-11.6c2.2-0.3,4.4-0.8,6.5-1.6c2-0.8,3.9-1.8,5.6-3l7.6,9l14.1-11.6l-7.5-8.8
			c1.4-1.7,2.6-3.6,3.7-5.5C231,136.3,231.9,134.3,232.6,132.2z M191.2,139c-13,0-23.5-10.6-23.5-23.6s10.5-23.6,23.5-23.6
			s23.5,10.6,23.5,23.6C214.7,128.5,204.2,139,191.2,139L191.2,139z"/>
		<path class="st1" d="M214.7,115.5c0,13-10.5,23.6-23.5,23.6s-23.5-10.5-23.5-23.6c0-13,10.5-23.6,23.5-23.6
			C204.2,91.9,214.7,102.4,214.7,115.5L214.7,115.5z"/>
		<path class="st1" d="M114.2,115.9c0,7.5-6,13.5-13.5,13.5c-7.4,0-13.5-6-13.5-13.5s6-13.5,13.5-13.5c0,0,0,0,0.1,0
			C108.2,102.4,114.2,108.5,114.2,115.9z"/>
		<path class="st2" d="M125.4,116.9c0.1-1.1-0.1-2.2-0.3-3.3l6.2-2.1c-1-3.2-2-6.5-3-9.7l-6.2,2c-0.5-0.9-1.1-1.8-1.8-2.7
			c-0.7-1-1.6-1.8-2.5-2.7c1.1-1.8,2.3-3.7,3.4-5.5l-8.5-5.6l-3.5,5.6c-1.1-0.4-2.2-0.8-3.4-1c-1.1-0.2-2.1-0.3-3.2-0.4
			c-0.3-2.2-0.7-4.4-1-6.7l-10,1.9l0.9,6.1c-1.1,0.4-2.2,1-3.3,1.6c-1,0.6-1.9,1.2-2.8,1.9l-4.8-4.4l-6.7,7.5c1.5,1.4,3,2.9,4.6,4.3
			c-1.2,2-2,4.2-2.3,6.6l-6.5-0.4c-0.1,3.3-0.3,6.7-0.4,10l6.5,0.5c0.1,1.1,0.3,2.3,0.7,3.4c0.4,1.1,0.8,2.1,1.4,3l-5.1,3.9l6,7.9
			l5.4-3.8c0.7,0.8,1.6,1.5,2.5,2.1c1,0.6,2.1,1.1,3.3,1.4c-0.5,2.1-0.9,4.2-1.4,6.3l9.6,2.1l1.4-6.2c2.4,0.2,4.8-0.1,7-1l3,5.6
			l8.8-4.6c-1-1.8-2-3.7-3-5.6c0.9-0.8,1.8-1.6,2.6-2.6c0.8-0.9,1.4-1.9,2-2.9l6,2.5l3.9-9.3l-6.2-2.5
			C125.1,119.2,125.3,118.1,125.4,116.9z M100.8,129.4c-7.4,0-13.5-6-13.5-13.5s6-13.5,13.5-13.5c7.4,0,13.5,6,13.5,13.5l0,0
			C114.3,123.4,108.2,129.4,100.8,129.4z"/>
		<path class="st1" d="M114.2,115.9c0,7.5-6,13.5-13.5,13.5c-7.4,0-13.5-6-13.5-13.5s6-13.5,13.5-13.5c0,0,0,0,0.1,0
			C108.2,102.4,114.2,108.5,114.2,115.9z"/>
		<path class="st1" d="M141.3,44.2c0,9-7.3,16.3-16.2,16.3c-9,0-16.2-7.3-16.2-16.3s7.3-16.3,16.2-16.3l0,0
			C134.1,27.9,141.3,35.2,141.3,44.2z"/>
		<path class="st2" d="M154.8,52.9l8.2,0.7l1.1-12.8l-8.6-0.6c0.1-1.5-0.1-3-0.5-4.4c-0.4-1.3-0.9-2.6-1.7-3.8l6.7-5.1l-7.5-10.5
			l-6.7,4.8c-1-0.9-2.1-1.8-3.2-2.5c-1.3-0.9-2.6-1.6-4-2.3l2-8L128.2,5l-2,8.2c-2.9-0.2-5.8,0.1-8.5,0.9c-1.3-2.6-2.6-5.1-3.9-7.7
			l-11.4,5.9c1.2,2.4,2.3,4.7,3.5,7.1c-1.2,1-2.3,2-3.4,3.2c-1,1.1-1.8,2.2-2.6,3.4l-7.5-3.4l-5.3,11.7l7.3,3.4
			c-0.3,1.4-0.5,2.9-0.5,4.4s0.1,3,0.3,4.4l-8.1,2.2c1.2,4.1,2.3,8.2,3.4,12.3l8-2c1.1,2.7,2.8,5,5.1,6.9L98,72.6l10.4,7.2
			c1.7-2.2,3.3-4.5,5-6.7c2.6,1.5,5.5,2.2,8.4,2l0.7,8.2l12.5-1.2l-0.7-8c1.5-0.3,3-0.9,4.4-1.6c1.3-0.7,2.5-1.5,3.7-2.4l5.9,5.7
			l8.9-9l-5.8-5.5c0.8-1.3,1.5-2.7,2.1-4.1C154.1,55.8,154.5,54.3,154.8,52.9z M125.1,60.4c-9,0-16.2-7.3-16.2-16.3
			s7.3-16.3,16.2-16.3s16.2,7.3,16.2,16.3l0,0C141.3,53.2,134.1,60.4,125.1,60.4z"/>
		<path class="st1" d="M141.3,44.2c0,9-7.3,16.3-16.2,16.3c-9,0-16.2-7.3-16.2-16.3s7.3-16.3,16.2-16.3l0,0
			C134.1,27.9,141.3,35.2,141.3,44.2z"/>
	</g>
</g>
</svg>
