<?xml version="1.0" encoding="utf-8"?>
<!-- Generator: Adobe Illustrator 24.0.0, SVG Export Plug-In . SVG Version: 6.00 Build 0)  -->
<svg version="1.1" id="Layer_1" xmlns="http://www.w3.org/2000/svg" xmlns:xlink="http://www.w3.org/1999/xlink" x="0px" y="0px"
	 viewBox="0 0 178.6 167.3" style="enable-background:new 0 0 178.6 167.3;" xml:space="preserve">
<style type="text/css">
	.st0{fill:none;stroke:#231F20;stroke-miterlimit:10;}
	.st1{fill:#171717;stroke:#231F20;stroke-miterlimit:10;}
</style>
<title>GearsDark</title>
<g id="Layer_2_1_">
	<g id="Layer_1-2">
		<path class="st0" d="M144.9,111.1c-0.1,13-10.6,23.5-23.6,23.4c-13-0.1-23.5-10.6-23.4-23.6C98,98,108.5,87.5,121.4,87.5
			C134.4,87.6,144.9,98.1,144.9,111.1z"/>
		<path class="st1" d="M162.8,127.8l11.7,2.2c1.2-6.1,2.3-12.2,3.5-18.2l-12.1-2.1c0.3-2.1,0.3-4.3-0.1-6.4c-0.3-2-0.9-4-1.8-5.8
			l10.3-6.2c-3-5.4-6.1-10.8-9.1-16.2l-10.3,6c-1.3-1.5-2.7-2.9-4.2-4.1c-1.7-1.4-3.6-2.7-5.5-3.8c1.4-3.7,2.7-7.5,4-11.2l-17.5-6.7
			c-1.4,3.8-2.7,7.6-4.1,11.5c-2.1-0.3-4.3-0.5-6.4-0.5c-2,0-3.9,0.2-5.9,0.5c-1.5-3.8-2.9-7.7-4.4-11.5l-17.2,6.8
			c1.3,3.6,2.6,7.1,4,10.7c-3.6,2.3-6.9,5.2-9.6,8.6l-10.3-6.1l-9.1,16l9.9,5.9c-1.3,4.1-1.9,8.3-1.6,12.6l-12,1.8
			c1,6,2.1,12,3.1,18.1l11.8-1.6c1.2,4,3.4,7.6,6.3,10.6l-7.6,9l13.8,11.9l8.2-8.9c3.4,2.5,7.5,3.9,11.7,4.1
			c-0.1,4-0.1,7.9-0.2,11.9l18,0.1c0.1-3.9,0.1-7.7,0.2-11.6c2.2-0.3,4.4-0.8,6.5-1.6c2-0.8,3.9-1.8,5.6-3l7.6,9l14.1-11.6l-7.5-8.8
			c1.4-1.7,2.6-3.6,3.7-5.5C161.3,131.8,162.1,129.8,162.8,127.8z M121.4,134.6c-13,0.1-23.6-10.5-23.7-23.5
			c-0.1-13,10.5-23.6,23.5-23.7s23.6,10.5,23.7,23.5c0,0,0,0.1,0,0.1C144.9,124,134.4,134.6,121.4,134.6z"/>
		<path class="st0" d="M144.9,111.1c-0.1,13-10.6,23.5-23.6,23.4c-13-0.1-23.5-10.6-23.4-23.6C98,98,108.5,87.5,121.4,87.5
			C134.4,87.6,144.9,98.1,144.9,111.1z"/>
		<path class="st0" d="M44.4,111.5c0,7.5-6,13.5-13.5,13.5s-13.5-6-13.5-13.5S23.5,98,30.9,98H31C38.4,98.1,44.4,104.1,44.4,111.5z"
			/>
		<path class="st1" d="M55.6,112.5c0-1.1-0.1-2.2-0.3-3.3l6.2-2.1c-1-3.2-2-6.5-3-9.7l-6.2,2c-1.1-2-2.6-3.8-4.3-5.4
			c1.1-1.8,2.3-3.7,3.4-5.5l-8.5-5.6l-3.5,5.6c-1.1-0.4-2.2-0.8-3.4-1c-1.1-0.2-2.1-0.3-3.2-0.4c-0.3-2.2-0.7-4.4-1-6.7l-10,1.9
			l0.9,6.1c-1.1,0.5-2.2,1-3.3,1.6c-1,0.6-1.9,1.2-2.8,1.9l-4.8-4.4L5.1,95c1.5,1.4,3,2.9,4.6,4.3c-1.2,2-2,4.3-2.3,6.6l-6.5-0.4
			c-0.1,3.3-0.3,6.7-0.4,10L7,116c0.2,2.3,0.9,4.5,2.1,6.4L4,126.3l6,7.9l5.4-3.8c0.7,0.8,1.6,1.5,2.5,2.1c1,0.6,2.1,1.1,3.3,1.4
			c-0.5,2.1-0.9,4.2-1.4,6.3l9.6,2.1l1.4-6.2c2.4,0.2,4.8-0.1,7-1l3,5.6l8.8-4.6c-1-1.8-2-3.7-3-5.6c0.9-0.8,1.8-1.7,2.6-2.6
			c0.8-0.9,1.4-1.9,2-2.9l6,2.5l3.9-9.3l-6.2-2.5C55.3,114.7,55.6,113.6,55.6,112.5z M31,125c-7.5,0-13.5-6-13.5-13.5S23.6,98,31,98
			s13.5,6,13.5,13.5l0,0C44.5,119,38.5,125,31,125z"/>
		<path class="st0" d="M44.4,111.5c0,7.5-6,13.5-13.5,13.5s-13.5-6-13.5-13.5S23.5,98,30.9,98H31C38.4,98.1,44.4,104.1,44.4,111.5z"
			/>
		<path class="st0" d="M71.5,39.8c-0.1,8.9-7.4,16.2-16.3,16.1c-8.9-0.1-16.2-7.4-16.1-16.3c0.1-8.9,7.3-16.1,16.2-16.1l0,0
			C64.3,23.5,71.5,30.8,71.5,39.8C71.5,39.8,71.5,39.8,71.5,39.8z"/>
		<path class="st1" d="M85,48.5l8.2,0.7l1.1-12.8l-8.6-0.6c0.1-1.5-0.1-3-0.5-4.4c-0.4-1.3-1-2.6-1.7-3.8l6.7-5.1L82.7,12L76,16.8
			c-1-0.9-2.1-1.8-3.2-2.5c-1.3-0.9-2.6-1.6-4-2.3l2-8L58.4,0.6l-2,8.2c-2.9-0.2-5.7,0.1-8.5,0.9C46.6,7.1,45.3,4.6,44,2L32.6,7.9
			c1.2,2.4,2.3,4.7,3.5,7.1c-1.2,1-2.3,2.1-3.4,3.2c-1,1.1-1.8,2.2-2.6,3.4l-7.5-3.4l-5.3,11.7l7.3,3.4c-0.3,1.4-0.5,2.9-0.5,4.4
			c0,1.5,0.1,2.9,0.3,4.4l-8.1,2.2c1.2,4.1,2.3,8.2,3.4,12.3l8-2c1.1,2.7,2.8,5.1,5.1,6.9l-4.6,6.7l10.4,7.2c1.7-2.2,3.3-4.5,5-6.7
			c2.5,1.5,5.5,2.2,8.4,2l0.7,8.2l12.5-1.2l-0.7-8c1.5-0.3,3-0.9,4.4-1.6c1.3-0.7,2.5-1.5,3.7-2.4l5.9,5.7l8.9-9l-5.8-5.5
			c0.8-1.3,1.5-2.7,2.1-4.1C84.3,51.4,84.7,50,85,48.5z M55.3,56c-9,0.1-16.3-7.2-16.4-16.2s7.2-16.3,16.2-16.4s16.3,7.2,16.4,16.2
			c0,0,0,0.1,0,0.1l0,0c0.1,8.9-7.1,16.2-16,16.3C55.4,56,55.4,56,55.3,56z"/>
		<path class="st0" d="M71.5,39.8c-0.1,8.9-7.4,16.2-16.3,16.1c-8.9-0.1-16.2-7.4-16.1-16.3c0.1-8.9,7.3-16.1,16.2-16.1l0,0
			C64.3,23.5,71.5,30.8,71.5,39.8C71.5,39.8,71.5,39.8,71.5,39.8z"/>
	</g>
</g>
</svg>
